# 3ds Max Wavefront OBJ Exporter v0.97b - (c)2007 guruware
# File Created: 26.08.2015 10:09:17

mtllib Brakes_ON.mtl

#
# object Brakes_ON
#

v  -0.5095 0.7500 0.6708
v  -0.5095 0.7500 0.5154
v  -0.5095 0.0000 0.5154
v  -0.5095 0.0000 0.6708
v  -0.5095 0.6750 1.0433
v  -0.5095 -0.0000 1.0433
v  -0.5095 -0.7500 0.6708
v  -0.5095 -0.7500 0.5154
v  -0.5095 -0.6750 1.0433
# 9 vertices

vn -1.0000 0.0000 -0.0000
vn -1.0000 0.0000 -0.0000
vn -1.0000 0.0000 -0.0000
vn -1.0000 0.0000 -0.0000
vn -1.0000 0.0000 -0.0000
vn -1.0000 0.0000 -0.0000
vn -1.0000 0.0000 -0.0000
vn -1.0000 0.0000 -0.0000
vn -1.0000 0.0000 -0.0000
vn -1.0000 0.0000 -0.0000
vn -1.0000 0.0000 -0.0000
vn -1.0000 0.0000 -0.0000
vn -1.0000 0.0000 -0.0000
vn -1.0000 0.0000 -0.0000
vn -1.0000 0.0000 -0.0000
vn -1.0000 0.0000 -0.0000
vn -1.0000 0.0000 -0.0000
vn -1.0000 0.0000 -0.0000
vn -1.0000 0.0000 -0.0000
vn -1.0000 0.0000 -0.0000
vn -1.0000 0.0000 -0.0000
vn -1.0000 0.0000 -0.0000
vn -1.0000 0.0000 -0.0000
vn -1.0000 0.0000 -0.0000
# 24 vertex normals

vt 0.0358 0.5212 0.5000
vt 0.0358 0.3311 0.5000
vt 0.5017 0.3311 0.5000
vt 0.5017 0.5212 0.5000
vt 0.0824 0.9768 0.5000
vt 0.5017 0.9768 0.5000
vt 0.9677 0.5212 0.5000
vt 0.9677 0.3311 0.5000
vt 0.9211 0.9768 0.5000
# 9 texture coords

g Brakes_ON
usemtl Material__7383
s 1
f 2/2/1 3/3/2 4/4/3 
f 4/4/4 1/1/5 2/2/6 
f 5/5/7 1/1/8 4/4/9 
f 4/4/10 6/6/11 5/5/12 
f 8/8/13 7/7/14 4/4/15 
f 4/4/16 3/3/17 8/8/18 
f 9/9/19 6/6/20 4/4/21 
f 4/4/22 7/7/23 9/9/24 
# 8 faces

