# Shape file for lane 2
v -100.000 -12.000 0.000
vt 0.000 0.000
v -100.000 -100.000 0.000
vt 2.250 0.000
v -98.000 -12.000 0.000
vt 0.000 0.050
v -98.000 -100.000 0.000
vt 2.250 0.050
v -96.000 -12.000 0.000
vt 0.000 0.100
v -96.000 -100.000 0.000
vt 2.250 0.100
v -94.000 -12.000 0.000
vt 0.000 0.150
v -94.000 -100.000 0.000
vt 2.250 0.150
v -92.000 -12.000 0.000
vt 0.000 0.200
v -92.000 -100.000 0.000
vt 2.250 0.200
v -90.000 -12.000 0.000
vt 0.000 0.250
v -90.000 -100.000 0.000
vt 2.250 0.250
v -88.000 -12.000 0.000
vt 0.000 0.300
v -88.000 -100.000 0.000
vt 2.250 0.300
v -86.000 -12.000 0.000
vt 0.000 0.350
v -86.000 -100.000 0.000
vt 2.250 0.350
v -84.000 -12.000 0.000
vt 0.000 0.400
v -84.000 -100.000 0.000
vt 2.250 0.400
v -82.000 -12.000 0.000
vt 0.000 0.450
v -82.000 -100.000 0.000
vt 2.250 0.450
v -80.000 -12.000 0.000
vt 0.000 0.500
v -80.000 -100.000 0.000
vt 2.250 0.500
v -78.000 -12.000 0.000
vt 0.000 0.550
v -78.000 -100.000 0.000
vt 2.250 0.550
v -76.000 -12.000 0.000
vt 0.000 0.600
v -76.000 -100.000 0.000
vt 2.250 0.600
v -74.000 -12.000 0.000
vt 0.000 0.650
v -74.000 -100.000 0.000
vt 2.250 0.650
v -72.000 -12.000 0.000
vt 0.000 0.700
v -72.000 -100.000 0.000
vt 2.250 0.700
v -70.000 -12.000 0.000
vt 0.000 0.750
v -70.000 -100.000 0.000
vt 2.250 0.750
v -68.000 -12.000 0.000
vt 0.000 0.800
v -68.000 -100.000 0.000
vt 2.250 0.800
v -66.000 -12.000 0.000
vt 0.000 0.850
v -66.000 -100.000 0.000
vt 2.250 0.850
v -64.000 -12.000 0.000
vt 0.000 0.900
v -64.000 -100.000 0.000
vt 2.250 0.900
v -62.000 -12.000 0.000
vt 0.000 0.950
v -62.000 -100.000 0.000
vt 2.250 0.950
v -60.000 -12.000 0.000
vt 0.000 1.000
v -60.000 -100.000 0.000
vt 2.250 1.000
v -58.000 -12.000 0.000
vt 0.000 1.050
v -58.000 -100.000 0.000
vt 2.250 1.050
v -56.000 -12.000 0.000
vt 0.000 1.100
v -56.000 -100.000 0.000
vt 2.250 1.100
v -54.000 -12.000 0.000
vt 0.000 1.150
v -54.000 -100.000 0.000
vt 2.250 1.150
v -52.000 -12.000 0.000
vt 0.000 1.200
v -52.000 -100.000 0.000
vt 2.250 1.200
v -50.000 -12.000 0.000
vt 0.000 1.250
v -50.000 -100.000 0.000
vt 2.250 1.250
v -48.000 -12.000 0.000
vt 0.000 1.300
v -48.000 -100.000 0.000
vt 2.250 1.300
v -46.000 -12.000 0.000
vt 0.000 1.350
v -46.000 -100.000 0.000
vt 2.250 1.350
v -44.000 -12.000 0.000
vt 0.000 1.400
v -44.000 -100.000 0.000
vt 2.250 1.400
v -42.000 -12.000 0.000
vt 0.000 1.450
v -42.000 -100.000 0.000
vt 2.250 1.450
v -40.000 -12.000 0.000
vt 0.000 1.500
v -40.000 -100.000 0.000
vt 2.250 1.500
v -38.000 -12.000 0.000
vt 0.000 1.550
v -38.000 -100.000 0.000
vt 2.250 1.550
v -36.000 -12.000 0.000
vt 0.000 1.600
v -36.000 -100.000 0.000
vt 2.250 1.600
v -34.000 -12.000 0.000
vt 0.000 1.650
v -34.000 -100.000 0.000
vt 2.250 1.650
v -32.000 -12.000 0.000
vt 0.000 1.700
v -32.000 -100.000 0.000
vt 2.250 1.700
v -30.000 -12.000 0.000
vt 0.000 1.750
v -30.000 -100.000 0.000
vt 2.250 1.750
v -28.000 -12.000 0.000
vt 0.000 1.800
v -28.000 -100.000 0.000
vt 2.250 1.800
v -26.000 -12.000 0.000
vt 0.000 1.850
v -26.000 -100.000 0.000
vt 2.250 1.850
v -24.000 -12.000 0.000
vt 0.000 1.900
v -24.000 -100.000 0.000
vt 2.250 1.900
v -22.000 -12.000 0.000
vt 0.000 1.950
v -22.000 -100.000 0.000
vt 2.250 1.950
v -20.000 -12.000 0.000
vt 0.000 2.000
v -20.000 -100.000 0.000
vt 2.250 2.000
v -18.000 -12.000 0.000
vt 0.000 2.050
v -18.000 -100.000 0.000
vt 2.250 2.050
v -16.000 -12.000 0.000
vt 0.000 2.100
v -16.000 -100.000 0.000
vt 2.250 2.100
v -14.000 -12.000 0.000
vt 0.000 2.150
v -14.000 -100.000 0.000
vt 2.250 2.150
v -12.000 -12.000 0.000
vt 0.000 2.200
v -12.000 -100.000 0.000
vt 2.250 2.200
v -10.000 -12.000 0.000
vt 0.000 2.250
v -10.000 -100.000 0.000
vt 2.250 2.250
v -8.000 -12.000 0.000
vt 0.000 2.300
v -8.000 -100.000 0.000
vt 2.250 2.300
v -6.000 -12.000 0.000
vt 0.000 2.350
v -6.000 -100.000 0.000
vt 2.250 2.350
v -4.000 -12.000 0.000
vt 0.000 2.400
v -4.000 -100.000 0.000
vt 2.250 2.400
v -2.000 -12.000 0.000
vt 0.000 2.450
v -2.000 -100.000 0.000
vt 2.250 2.450
v 0.000 -12.000 0.000
vt 0.000 2.500
v 0.000 -100.000 0.000
vt 2.250 2.500
v 2.000 -12.000 0.000
vt 0.000 2.550
v 2.000 -100.000 0.000
vt 2.250 2.550
v 4.000 -12.000 0.000
vt 0.000 2.600
v 4.000 -100.000 0.000
vt 2.250 2.600
v 6.000 -12.000 0.000
vt 0.000 2.650
v 6.000 -100.000 0.000
vt 2.250 2.650
v 8.000 -12.000 0.000
vt 0.000 2.700
v 8.000 -100.000 0.000
vt 2.250 2.700
v 10.000 -12.000 0.000
vt 0.000 2.750
v 10.000 -100.000 0.000
vt 2.250 2.750
v 12.000 -12.000 0.000
vt 0.000 2.800
v 12.000 -100.000 0.000
vt 2.250 2.800
v 14.000 -12.000 0.000
vt 0.000 2.850
v 14.000 -100.000 0.000
vt 2.250 2.850
v 16.000 -12.000 0.000
vt 0.000 2.900
v 16.000 -100.000 0.000
vt 2.250 2.900
v 18.000 -12.000 0.000
vt 0.000 2.950
v 18.000 -100.000 0.000
vt 2.250 2.950
v 20.000 -12.000 0.000
vt 0.000 3.000
v 20.000 -100.000 0.000
vt 2.250 3.000
v 22.000 -12.000 0.000
vt 0.000 3.050
v 22.000 -100.000 0.000
vt 2.250 3.050
v 24.000 -12.000 0.000
vt 0.000 3.100
v 24.000 -100.000 0.000
vt 2.250 3.100
v 26.000 -12.000 0.000
vt 0.000 3.150
v 26.000 -100.000 0.000
vt 2.250 3.150
v 28.000 -12.000 0.000
vt 0.000 3.200
v 28.000 -100.000 0.000
vt 2.250 3.200
v 30.000 -12.000 0.000
vt 0.000 3.250
v 30.000 -100.000 0.000
vt 2.250 3.250
v 32.000 -12.000 0.000
vt 0.000 3.300
v 32.000 -100.000 0.000
vt 2.250 3.300
v 34.000 -12.000 0.000
vt 0.000 3.350
v 34.000 -100.000 0.000
vt 2.250 3.350
v 36.000 -12.000 0.000
vt 0.000 3.400
v 36.000 -100.000 0.000
vt 2.250 3.400
v 38.000 -12.000 0.000
vt 0.000 3.450
v 38.000 -100.000 0.000
vt 2.250 3.450
v 40.000 -12.000 0.000
vt 0.000 3.500
v 40.000 -100.000 0.000
vt 2.250 3.500
v 42.000 -12.000 0.000
vt 0.000 3.550
v 42.000 -100.000 0.000
vt 2.250 3.550
v 44.000 -12.000 0.000
vt 0.000 3.600
v 44.000 -100.000 0.000
vt 2.250 3.600
v 46.000 -12.000 0.000
vt 0.000 3.650
v 46.000 -100.000 0.000
vt 2.250 3.650
v 48.000 -12.000 0.000
vt 0.000 3.700
v 48.000 -100.000 0.000
vt 2.250 3.700
v 50.000 -12.000 0.000
vt 0.000 3.750
v 50.000 -100.000 0.000
vt 2.250 3.750
v 52.000 -12.000 0.000
vt 0.000 3.800
v 52.000 -100.000 0.000
vt 2.250 3.800
v 54.000 -12.000 0.000
vt 0.000 3.850
v 54.000 -100.000 0.000
vt 2.250 3.850
v 56.000 -12.000 0.000
vt 0.000 3.900
v 56.000 -100.000 0.000
vt 2.250 3.900
v 58.000 -12.000 0.000
vt 0.000 3.950
v 58.000 -100.000 0.000
vt 2.250 3.950
v 60.000 -12.000 0.000
vt 0.000 4.000
v 60.000 -100.000 0.000
vt 2.250 4.000
v 62.000 -12.000 0.000
vt 0.000 4.050
v 62.000 -100.000 0.000
vt 2.250 4.050
v 64.000 -12.000 0.000
vt 0.000 4.100
v 64.000 -100.000 0.000
vt 2.250 4.100
v 66.000 -12.000 0.000
vt 0.000 4.150
v 66.000 -100.000 0.000
vt 2.250 4.150
v 68.000 -12.000 0.000
vt 0.000 4.200
v 68.000 -100.000 0.000
vt 2.250 4.200
v 70.000 -12.000 0.000
vt 0.000 4.250
v 70.000 -100.000 0.000
vt 2.250 4.250
v 72.000 -12.000 0.000
vt 0.000 4.300
v 72.000 -100.000 0.000
vt 2.250 4.300
v 74.000 -12.000 0.000
vt 0.000 4.350
v 74.000 -100.000 0.000
vt 2.250 4.350
v 76.000 -12.000 0.000
vt 0.000 4.400
v 76.000 -100.000 0.000
vt 2.250 4.400
v 78.000 -12.000 0.000
vt 0.000 4.450
v 78.000 -100.000 0.000
vt 2.250 4.450
v 80.000 -12.000 0.000
vt 0.000 4.500
v 80.000 -100.000 0.000
vt 2.250 4.500
v 82.000 -12.000 0.000
vt 0.000 4.550
v 82.000 -100.000 0.000
vt 2.250 4.550
v 84.000 -12.000 0.000
vt 0.000 4.600
v 84.000 -100.000 0.000
vt 2.250 4.600
v 86.000 -12.000 0.000
vt 0.000 4.650
v 86.000 -100.000 0.000
vt 2.250 4.650
v 88.000 -12.000 0.000
vt 0.000 4.700
v 88.000 -100.000 0.000
vt 2.250 4.700
v 90.000 -12.000 0.000
vt 0.000 4.750
v 90.000 -100.000 0.000
vt 2.250 4.750
v 92.000 -12.000 0.000
vt 0.000 4.800
v 92.000 -100.000 0.000
vt 2.250 4.800
v 94.000 -12.000 0.000
vt 0.000 4.850
v 94.000 -100.000 0.000
vt 2.250 4.850
v 96.000 -12.000 0.000
vt 0.000 4.900
v 96.000 -100.000 0.000
vt 2.250 4.900
v 98.000 -12.000 0.000
vt 0.000 4.950
v 98.000 -100.000 0.000
vt 2.250 4.950
v 100.000 -12.000 0.000
vt 0.000 5.000
v 100.000 -100.000 0.000
vt 2.250 5.000
v 102.000 -12.000 0.000
vt 0.000 5.050
v 102.000 -100.000 0.000
vt 2.250 5.050
v 104.000 -12.000 0.000
vt 0.000 5.100
v 104.000 -100.000 0.000
vt 2.250 5.100
v 106.000 -12.000 0.000
vt 0.000 5.150
v 106.000 -100.000 0.000
vt 2.250 5.150
v 108.000 -12.000 0.000
vt 0.000 5.200
v 108.000 -100.000 0.000
vt 2.250 5.200
v 110.000 -12.000 0.000
vt 0.000 5.250
v 110.000 -100.000 0.000
vt 2.250 5.250
v 112.000 -12.000 0.000
vt 0.000 5.300
v 112.000 -100.000 0.000
vt 2.250 5.300
v 114.000 -12.000 0.000
vt 0.000 5.350
v 114.000 -100.000 0.000
vt 2.250 5.350
v 116.000 -12.000 0.000
vt 0.000 5.400
v 116.000 -100.000 0.000
vt 2.250 5.400
v 118.000 -12.000 0.000
vt 0.000 5.450
v 118.000 -100.000 0.000
vt 2.250 5.450
v 120.000 -12.000 0.000
vt 0.000 5.500
v 120.000 -100.000 0.000
vt 2.250 5.500
v 122.000 -12.000 0.000
vt 0.000 5.550
v 122.000 -100.000 0.000
vt 2.250 5.550
v 124.000 -12.000 0.000
vt 0.000 5.600
v 124.000 -100.000 0.000
vt 2.250 5.600
v 126.000 -12.000 0.000
vt 0.000 5.650
v 126.000 -100.000 0.000
vt 2.250 5.650
v 128.000 -12.000 0.000
vt 0.000 5.700
v 128.000 -100.000 0.000
vt 2.250 5.700
v 130.000 -12.000 0.000
vt 0.000 5.750
v 130.000 -100.000 0.000
vt 2.250 5.750
v 132.000 -12.000 0.000
vt 0.000 5.800
v 132.000 -100.000 0.000
vt 2.250 5.800
v 134.000 -12.000 0.000
vt 0.000 5.850
v 134.000 -100.000 0.000
vt 2.250 5.850
v 136.000 -12.000 0.000
vt 0.000 5.900
v 136.000 -100.000 0.000
vt 2.250 5.900
v 138.000 -12.000 0.000
vt 0.000 5.950
v 138.000 -100.000 0.000
vt 2.250 5.950
v 140.000 -12.000 0.000
vt 0.000 6.000
v 140.000 -100.000 0.000
vt 2.250 6.000
v 142.000 -12.000 0.000
vt 0.000 6.050
v 142.000 -100.000 0.000
vt 2.250 6.050
v 144.000 -12.000 0.000
vt 0.000 6.100
v 144.000 -100.000 0.000
vt 2.250 6.100
v 146.000 -12.000 0.000
vt 0.000 6.150
v 146.000 -100.000 0.000
vt 2.250 6.150
v 148.000 -12.000 0.000
vt 0.000 6.200
v 148.000 -100.000 0.000
vt 2.250 6.200
v 150.000 -12.000 0.000
vt 0.000 6.250
v 150.000 -100.000 0.000
vt 2.250 6.250
v 152.000 -12.000 0.000
vt 0.000 6.300
v 152.000 -100.000 0.000
vt 2.250 6.300
v 154.000 -12.000 0.000
vt 0.000 6.350
v 154.000 -100.000 0.000
vt 2.250 6.350
v 156.000 -12.000 0.000
vt 0.000 6.400
v 156.000 -100.000 0.000
vt 2.250 6.400
v 158.000 -12.000 0.000
vt 0.000 6.450
v 158.000 -100.000 0.000
vt 2.250 6.450
v 160.000 -12.000 0.000
vt 0.000 6.500
v 160.000 -100.000 0.000
vt 2.250 6.500
v 162.000 -12.000 0.000
vt 0.000 6.550
v 162.000 -100.000 0.000
vt 2.250 6.550
v 164.000 -12.000 0.000
vt 0.000 6.600
v 164.000 -100.000 0.000
vt 2.250 6.600
v 166.000 -12.000 0.000
vt 0.000 6.650
v 166.000 -100.000 0.000
vt 2.250 6.650
v 168.000 -12.000 0.000
vt 0.000 6.700
v 168.000 -100.000 0.000
vt 2.250 6.700
v 170.000 -12.000 0.000
vt 0.000 6.750
v 170.000 -100.000 0.000
vt 2.250 6.750
v 172.000 -12.000 0.000
vt 0.000 6.800
v 172.000 -100.000 0.000
vt 2.250 6.800
v 174.000 -12.000 0.000
vt 0.000 6.850
v 174.000 -100.000 0.000
vt 2.250 6.850
v 176.000 -12.000 0.000
vt 0.000 6.900
v 176.000 -100.000 0.000
vt 2.250 6.900
v 178.000 -12.000 0.000
vt 0.000 6.950
v 178.000 -100.000 0.000
vt 2.250 6.950
v 180.000 -12.000 0.000
vt 0.000 7.000
v 180.000 -100.000 0.000
vt 2.250 7.000
v 182.000 -12.000 0.000
vt 0.000 7.050
v 182.000 -100.000 0.000
vt 2.250 7.050
v 184.000 -12.000 0.000
vt 0.000 7.100
v 184.000 -100.000 0.000
vt 2.250 7.100
v 186.000 -12.000 0.000
vt 0.000 7.150
v 186.000 -100.000 0.000
vt 2.250 7.150
v 188.000 -12.000 0.000
vt 0.000 7.200
v 188.000 -100.000 0.000
vt 2.250 7.200
v 190.000 -12.000 0.000
vt 0.000 7.250
v 190.000 -100.000 0.000
vt 2.250 7.250
v 192.000 -12.000 0.000
vt 0.000 7.300
v 192.000 -100.000 0.000
vt 2.250 7.300
v 194.000 -12.000 0.000
vt 0.000 7.350
v 194.000 -100.000 0.000
vt 2.250 7.350
v 196.000 -12.000 0.000
vt 0.000 7.400
v 196.000 -100.000 0.000
vt 2.250 7.400
v 198.000 -12.000 0.000
vt 0.000 7.450
v 198.000 -100.000 0.000
vt 2.250 7.450
v 200.000 -12.000 0.000
vt 0.000 7.500
v 200.000 -100.000 0.000
vt 2.250 7.500
v 202.000 -12.000 0.000
vt 0.000 7.550
v 202.000 -100.000 0.000
vt 2.250 7.550
v 204.000 -12.000 0.000
vt 0.000 7.600
v 204.000 -100.000 0.000
vt 2.250 7.600
v 206.000 -12.000 0.000
vt 0.000 7.650
v 206.000 -100.000 0.000
vt 2.250 7.650
v 208.000 -12.000 0.000
vt 0.000 7.700
v 208.000 -100.000 0.000
vt 2.250 7.700
v 210.000 -12.000 0.000
vt 0.000 7.750
v 210.000 -100.000 0.000
vt 2.250 7.750
v 212.000 -12.000 0.000
vt 0.000 7.800
v 212.000 -100.000 0.000
vt 2.250 7.800
v 214.000 -12.000 0.000
vt 0.000 7.850
v 214.000 -100.000 0.000
vt 2.250 7.850
v 216.000 -12.000 0.000
vt 0.000 7.900
v 216.000 -100.000 0.000
vt 2.250 7.900
v 218.000 -12.000 0.000
vt 0.000 7.950
v 218.000 -100.000 0.000
vt 2.250 7.950
v 220.000 -12.000 0.000
vt 0.000 8.000
v 220.000 -100.000 0.000
vt 2.250 8.000
v 222.000 -12.000 0.000
vt 0.000 8.050
v 222.000 -100.000 0.000
vt 2.250 8.050
v 224.000 -12.000 0.000
vt 0.000 8.100
v 224.000 -100.000 0.000
vt 2.250 8.100
v 226.000 -12.000 0.000
vt 0.000 8.150
v 226.000 -100.000 0.000
vt 2.250 8.150
v 228.000 -12.000 0.000
vt 0.000 8.200
v 228.000 -100.000 0.000
vt 2.250 8.200
v 230.000 -12.000 0.000
vt 0.000 8.250
v 230.000 -100.000 0.000
vt 2.250 8.250
v 232.000 -12.000 0.000
vt 0.000 8.300
v 232.000 -100.000 0.000
vt 2.250 8.300
v 234.000 -12.000 0.000
vt 0.000 8.350
v 234.000 -100.000 0.000
vt 2.250 8.350
v 236.000 -12.000 0.000
vt 0.000 8.400
v 236.000 -100.000 0.000
vt 2.250 8.400
v 238.000 -12.000 0.000
vt 0.000 8.450
v 238.000 -100.000 0.000
vt 2.250 8.450
v 240.000 -12.000 0.000
vt 0.000 8.500
v 240.000 -100.000 0.000
vt 2.250 8.500
v 242.000 -12.000 0.000
vt 0.000 8.550
v 242.000 -100.000 0.000
vt 2.250 8.550
v 244.000 -12.000 0.000
vt 0.000 8.600
v 244.000 -100.000 0.000
vt 2.250 8.600
v 246.000 -12.000 0.000
vt 0.000 8.650
v 246.000 -100.000 0.000
vt 2.250 8.650
v 248.000 -12.000 0.000
vt 0.000 8.700
v 248.000 -100.000 0.000
vt 2.250 8.700
v 250.000 -12.000 0.000
vt 0.000 8.750
v 250.000 -100.000 0.000
vt 2.250 8.750
v 252.000 -12.000 0.000
vt 0.000 8.800
v 252.000 -100.000 0.000
vt 2.250 8.800
v 254.000 -12.000 0.000
vt 0.000 8.850
v 254.000 -100.000 0.000
vt 2.250 8.850
v 256.000 -12.000 0.000
vt 0.000 8.900
v 256.000 -100.000 0.000
vt 2.250 8.900
v 258.000 -12.000 0.000
vt 0.000 8.950
v 258.000 -100.000 0.000
vt 2.250 8.950
v 260.000 -12.000 0.000
vt 0.000 9.000
v 260.000 -100.000 0.000
vt 2.250 9.000
v 262.000 -12.000 0.000
vt 0.000 9.050
v 262.000 -100.000 0.000
vt 2.250 9.050
v 264.000 -12.000 0.000
vt 0.000 9.100
v 264.000 -100.000 0.000
vt 2.250 9.100
v 266.000 -12.000 0.000
vt 0.000 9.150
v 266.000 -100.000 0.000
vt 2.250 9.150
v 268.000 -12.000 0.000
vt 0.000 9.200
v 268.000 -100.000 0.000
vt 2.250 9.200
v 270.000 -12.000 0.000
vt 0.000 9.250
v 270.000 -100.000 0.000
vt 2.250 9.250
v 272.000 -12.000 0.000
vt 0.000 9.300
v 272.000 -100.000 0.000
vt 2.250 9.300
v 274.000 -12.000 0.000
vt 0.000 9.350
v 274.000 -100.000 0.000
vt 2.250 9.350
v 276.000 -12.000 0.000
vt 0.000 9.400
v 276.000 -100.000 0.000
vt 2.250 9.400
v 278.000 -12.000 0.000
vt 0.000 9.450
v 278.000 -100.000 0.000
vt 2.250 9.450
v 280.000 -12.000 0.000
vt 0.000 9.500
v 280.000 -100.000 0.000
vt 2.250 9.500
v 282.000 -12.000 0.000
vt 0.000 9.550
v 282.000 -100.000 0.000
vt 2.250 9.550
v 284.000 -12.000 0.000
vt 0.000 9.600
v 284.000 -100.000 0.000
vt 2.250 9.600
v 286.000 -12.000 0.000
vt 0.000 9.650
v 286.000 -100.000 0.000
vt 2.250 9.650
v 288.000 -12.000 0.000
vt 0.000 9.700
v 288.000 -100.000 0.000
vt 2.250 9.700
v 290.000 -12.000 0.000
vt 0.000 9.750
v 290.000 -100.000 0.000
vt 2.250 9.750
v 292.000 -12.000 0.000
vt 0.000 9.800
v 292.000 -100.000 0.000
vt 2.250 9.800
v 294.000 -12.000 0.000
vt 0.000 9.850
v 294.000 -100.000 0.000
vt 2.250 9.850
v 296.000 -12.000 0.000
vt 0.000 9.900
v 296.000 -100.000 0.000
vt 2.250 9.900
v 298.000 -12.000 0.000
vt 0.000 9.950
v 298.000 -100.000 0.000
vt 2.250 9.950
v 300.000 -12.000 0.000
vt 0.000 10.000
v 300.000 -100.000 0.000
vt 2.250 10.000
v 302.000 -12.000 0.000
vt 0.000 10.050
v 302.000 -100.000 0.000
vt 2.250 10.050
v 304.000 -12.000 0.000
vt 0.000 10.100
v 304.000 -100.000 0.000
vt 2.250 10.100
v 306.000 -12.000 0.000
vt 0.000 10.150
v 306.000 -100.000 0.000
vt 2.250 10.150
v 308.000 -12.000 0.000
vt 0.000 10.200
v 308.000 -100.000 0.000
vt 2.250 10.200
v 310.000 -12.000 0.000
vt 0.000 10.250
v 310.000 -100.000 0.000
vt 2.250 10.250
v 312.000 -12.000 0.000
vt 0.000 10.300
v 312.000 -100.000 0.000
vt 2.250 10.300
v 314.000 -12.000 0.000
vt 0.000 10.350
v 314.000 -100.000 0.000
vt 2.250 10.350
v 316.000 -12.000 0.000
vt 0.000 10.400
v 316.000 -100.000 0.000
vt 2.250 10.400
v 318.000 -12.000 0.000
vt 0.000 10.450
v 318.000 -100.000 0.000
vt 2.250 10.450
v 320.000 -12.000 0.000
vt 0.000 10.500
v 320.000 -100.000 0.000
vt 2.250 10.500
v 322.000 -12.000 0.000
vt 0.000 10.550
v 322.000 -100.000 0.000
vt 2.250 10.550
v 324.000 -12.000 0.000
vt 0.000 10.600
v 324.000 -100.000 0.000
vt 2.250 10.600
v 326.000 -12.000 0.000
vt 0.000 10.650
v 326.000 -100.000 0.000
vt 2.250 10.650
v 328.000 -12.000 0.000
vt 0.000 10.700
v 328.000 -100.000 0.000
vt 2.250 10.700
v 330.000 -12.000 0.000
vt 0.000 10.750
v 330.000 -100.000 0.000
vt 2.250 10.750
v 332.000 -12.000 0.000
vt 0.000 10.800
v 332.000 -100.000 0.000
vt 2.250 10.800
v 334.000 -12.000 0.000
vt 0.000 10.850
v 334.000 -100.000 0.000
vt 2.250 10.850
v 336.000 -12.000 0.000
vt 0.000 10.900
v 336.000 -100.000 0.000
vt 2.250 10.900
v 338.000 -12.000 0.000
vt 0.000 10.950
v 338.000 -100.000 0.000
vt 2.250 10.950
v 340.000 -12.000 0.000
vt 0.000 11.000
v 340.000 -100.000 0.000
vt 2.250 11.000
v 342.000 -12.000 0.000
vt 0.000 11.050
v 342.000 -100.000 0.000
vt 2.250 11.050
v 344.000 -12.000 0.000
vt 0.000 11.100
v 344.000 -100.000 0.000
vt 2.250 11.100
v 346.000 -12.000 0.000
vt 0.000 11.150
v 346.000 -100.000 0.000
vt 2.250 11.150
v 348.000 -12.000 0.000
vt 0.000 11.200
v 348.000 -100.000 0.000
vt 2.250 11.200
v 350.000 -12.000 0.000
vt 0.000 11.250
v 350.000 -100.000 0.000
vt 2.250 11.250
v 352.000 -12.000 0.000
vt 0.000 11.300
v 352.000 -100.000 0.000
vt 2.250 11.300
v 354.000 -12.000 0.000
vt 0.000 11.350
v 354.000 -100.000 0.000
vt 2.250 11.350
v 356.000 -12.000 0.000
vt 0.000 11.400
v 356.000 -100.000 0.000
vt 2.250 11.400
v 358.000 -12.000 0.000
vt 0.000 11.450
v 358.000 -100.000 0.000
vt 2.250 11.450
v 360.000 -12.000 0.000
vt 0.000 11.500
v 360.000 -100.000 0.000
vt 2.250 11.500
v 362.000 -12.000 0.000
vt 0.000 11.550
v 362.000 -100.000 0.000
vt 2.250 11.550
v 364.000 -12.000 0.000
vt 0.000 11.600
v 364.000 -100.000 0.000
vt 2.250 11.600
v 366.000 -12.000 0.000
vt 0.000 11.650
v 366.000 -100.000 0.000
vt 2.250 11.650
v 368.000 -12.000 0.000
vt 0.000 11.700
v 368.000 -100.000 0.000
vt 2.250 11.700
v 370.000 -12.000 0.000
vt 0.000 11.750
v 370.000 -100.000 0.000
vt 2.250 11.750
v 372.000 -12.000 0.000
vt 0.000 11.800
v 372.000 -100.000 0.000
vt 2.250 11.800
v 374.000 -12.000 0.000
vt 0.000 11.850
v 374.000 -100.000 0.000
vt 2.250 11.850
v 376.000 -12.000 0.000
vt 0.000 11.900
v 376.000 -100.000 0.000
vt 2.250 11.900
v 378.000 -12.000 0.000
vt 0.000 11.950
v 378.000 -100.000 0.000
vt 2.250 11.950
v 380.000 -12.000 0.000
vt 0.000 12.000
v 380.000 -100.000 0.000
vt 2.250 12.000
v 382.000 -12.000 0.000
vt 0.000 12.050
v 382.000 -100.000 0.000
vt 2.250 12.050
v 384.000 -12.000 0.000
vt 0.000 12.100
v 384.000 -100.000 0.000
vt 2.250 12.100
v 386.000 -12.000 0.000
vt 0.000 12.150
v 386.000 -100.000 0.000
vt 2.250 12.150
v 388.000 -12.000 0.000
vt 0.000 12.200
v 388.000 -100.000 0.000
vt 2.250 12.200
v 390.000 -12.000 0.000
vt 0.000 12.250
v 390.000 -100.000 0.000
vt 2.250 12.250
v 392.000 -12.000 0.000
vt 0.000 12.300
v 392.000 -100.000 0.000
vt 2.250 12.300
v 394.000 -12.000 0.000
vt 0.000 12.350
v 394.000 -100.000 0.000
vt 2.250 12.350
v 396.000 -12.000 0.000
vt 0.000 12.400
v 396.000 -100.000 0.000
vt 2.250 12.400
v 398.000 -12.000 0.000
vt 0.000 12.450
v 398.000 -100.000 0.000
vt 2.250 12.450
v 400.000 -12.000 0.000
vt 0.000 12.500
v 400.000 -100.000 0.000
vt 2.250 12.500
mtllib Roads\3D_Road\Road_20acdffb-81f3-4ae3-9c6f-cdbfe0db69fc_2.mtl
usemtl Grass (Light)
g g1
s 1
f  1/1 2/2 4/4 3/3
f  3/3 4/4 6/6 5/5
f  5/5 6/6 8/8 7/7
f  7/7 8/8 10/10 9/9
f  9/9 10/10 12/12 11/11
f  11/11 12/12 14/14 13/13
f  13/13 14/14 16/16 15/15
f  15/15 16/16 18/18 17/17
f  17/17 18/18 20/20 19/19
f  19/19 20/20 22/22 21/21
f  21/21 22/22 24/24 23/23
f  23/23 24/24 26/26 25/25
f  25/25 26/26 28/28 27/27
f  27/27 28/28 30/30 29/29
f  29/29 30/30 32/32 31/31
f  31/31 32/32 34/34 33/33
f  33/33 34/34 36/36 35/35
f  35/35 36/36 38/38 37/37
f  37/37 38/38 40/40 39/39
f  39/39 40/40 42/42 41/41
f  41/41 42/42 44/44 43/43
f  43/43 44/44 46/46 45/45
f  45/45 46/46 48/48 47/47
f  47/47 48/48 50/50 49/49
f  49/49 50/50 52/52 51/51
f  51/51 52/52 54/54 53/53
f  53/53 54/54 56/56 55/55
f  55/55 56/56 58/58 57/57
f  57/57 58/58 60/60 59/59
f  59/59 60/60 62/62 61/61
f  61/61 62/62 64/64 63/63
f  63/63 64/64 66/66 65/65
f  65/65 66/66 68/68 67/67
f  67/67 68/68 70/70 69/69
f  69/69 70/70 72/72 71/71
f  71/71 72/72 74/74 73/73
f  73/73 74/74 76/76 75/75
f  75/75 76/76 78/78 77/77
f  77/77 78/78 80/80 79/79
f  79/79 80/80 82/82 81/81
f  81/81 82/82 84/84 83/83
f  83/83 84/84 86/86 85/85
f  85/85 86/86 88/88 87/87
f  87/87 88/88 90/90 89/89
f  89/89 90/90 92/92 91/91
f  91/91 92/92 94/94 93/93
f  93/93 94/94 96/96 95/95
f  95/95 96/96 98/98 97/97
f  97/97 98/98 100/100 99/99
f  99/99 100/100 102/102 101/101
f  101/101 102/102 104/104 103/103
f  103/103 104/104 106/106 105/105
f  105/105 106/106 108/108 107/107
f  107/107 108/108 110/110 109/109
f  109/109 110/110 112/112 111/111
f  111/111 112/112 114/114 113/113
f  113/113 114/114 116/116 115/115
f  115/115 116/116 118/118 117/117
f  117/117 118/118 120/120 119/119
f  119/119 120/120 122/122 121/121
f  121/121 122/122 124/124 123/123
f  123/123 124/124 126/126 125/125
f  125/125 126/126 128/128 127/127
f  127/127 128/128 130/130 129/129
f  129/129 130/130 132/132 131/131
f  131/131 132/132 134/134 133/133
f  133/133 134/134 136/136 135/135
f  135/135 136/136 138/138 137/137
f  137/137 138/138 140/140 139/139
f  139/139 140/140 142/142 141/141
f  141/141 142/142 144/144 143/143
f  143/143 144/144 146/146 145/145
f  145/145 146/146 148/148 147/147
f  147/147 148/148 150/150 149/149
f  149/149 150/150 152/152 151/151
f  151/151 152/152 154/154 153/153
f  153/153 154/154 156/156 155/155
f  155/155 156/156 158/158 157/157
f  157/157 158/158 160/160 159/159
f  159/159 160/160 162/162 161/161
f  161/161 162/162 164/164 163/163
f  163/163 164/164 166/166 165/165
f  165/165 166/166 168/168 167/167
f  167/167 168/168 170/170 169/169
f  169/169 170/170 172/172 171/171
f  171/171 172/172 174/174 173/173
f  173/173 174/174 176/176 175/175
f  175/175 176/176 178/178 177/177
f  177/177 178/178 180/180 179/179
f  179/179 180/180 182/182 181/181
f  181/181 182/182 184/184 183/183
f  183/183 184/184 186/186 185/185
f  185/185 186/186 188/188 187/187
f  187/187 188/188 190/190 189/189
f  189/189 190/190 192/192 191/191
f  191/191 192/192 194/194 193/193
f  193/193 194/194 196/196 195/195
f  195/195 196/196 198/198 197/197
f  197/197 198/198 200/200 199/199
f  199/199 200/200 202/202 201/201
f  201/201 202/202 204/204 203/203
f  203/203 204/204 206/206 205/205
f  205/205 206/206 208/208 207/207
f  207/207 208/208 210/210 209/209
f  209/209 210/210 212/212 211/211
f  211/211 212/212 214/214 213/213
f  213/213 214/214 216/216 215/215
f  215/215 216/216 218/218 217/217
f  217/217 218/218 220/220 219/219
f  219/219 220/220 222/222 221/221
f  221/221 222/222 224/224 223/223
f  223/223 224/224 226/226 225/225
f  225/225 226/226 228/228 227/227
f  227/227 228/228 230/230 229/229
f  229/229 230/230 232/232 231/231
f  231/231 232/232 234/234 233/233
f  233/233 234/234 236/236 235/235
f  235/235 236/236 238/238 237/237
f  237/237 238/238 240/240 239/239
f  239/239 240/240 242/242 241/241
f  241/241 242/242 244/244 243/243
f  243/243 244/244 246/246 245/245
f  245/245 246/246 248/248 247/247
f  247/247 248/248 250/250 249/249
f  249/249 250/250 252/252 251/251
f  251/251 252/252 254/254 253/253
f  253/253 254/254 256/256 255/255
f  255/255 256/256 258/258 257/257
f  257/257 258/258 260/260 259/259
f  259/259 260/260 262/262 261/261
f  261/261 262/262 264/264 263/263
f  263/263 264/264 266/266 265/265
f  265/265 266/266 268/268 267/267
f  267/267 268/268 270/270 269/269
f  269/269 270/270 272/272 271/271
f  271/271 272/272 274/274 273/273
f  273/273 274/274 276/276 275/275
f  275/275 276/276 278/278 277/277
f  277/277 278/278 280/280 279/279
f  279/279 280/280 282/282 281/281
f  281/281 282/282 284/284 283/283
f  283/283 284/284 286/286 285/285
f  285/285 286/286 288/288 287/287
f  287/287 288/288 290/290 289/289
f  289/289 290/290 292/292 291/291
f  291/291 292/292 294/294 293/293
f  293/293 294/294 296/296 295/295
f  295/295 296/296 298/298 297/297
f  297/297 298/298 300/300 299/299
f  299/299 300/300 302/302 301/301
f  301/301 302/302 304/304 303/303
f  303/303 304/304 306/306 305/305
f  305/305 306/306 308/308 307/307
f  307/307 308/308 310/310 309/309
f  309/309 310/310 312/312 311/311
f  311/311 312/312 314/314 313/313
f  313/313 314/314 316/316 315/315
f  315/315 316/316 318/318 317/317
f  317/317 318/318 320/320 319/319
f  319/319 320/320 322/322 321/321
f  321/321 322/322 324/324 323/323
f  323/323 324/324 326/326 325/325
f  325/325 326/326 328/328 327/327
f  327/327 328/328 330/330 329/329
f  329/329 330/330 332/332 331/331
f  331/331 332/332 334/334 333/333
f  333/333 334/334 336/336 335/335
f  335/335 336/336 338/338 337/337
f  337/337 338/338 340/340 339/339
f  339/339 340/340 342/342 341/341
f  341/341 342/342 344/344 343/343
f  343/343 344/344 346/346 345/345
f  345/345 346/346 348/348 347/347
f  347/347 348/348 350/350 349/349
f  349/349 350/350 352/352 351/351
f  351/351 352/352 354/354 353/353
f  353/353 354/354 356/356 355/355
f  355/355 356/356 358/358 357/357
f  357/357 358/358 360/360 359/359
f  359/359 360/360 362/362 361/361
f  361/361 362/362 364/364 363/363
f  363/363 364/364 366/366 365/365
f  365/365 366/366 368/368 367/367
f  367/367 368/368 370/370 369/369
f  369/369 370/370 372/372 371/371
f  371/371 372/372 374/374 373/373
f  373/373 374/374 376/376 375/375
f  375/375 376/376 378/378 377/377
f  377/377 378/378 380/380 379/379
f  379/379 380/380 382/382 381/381
f  381/381 382/382 384/384 383/383
f  383/383 384/384 386/386 385/385
f  385/385 386/386 388/388 387/387
f  387/387 388/388 390/390 389/389
f  389/389 390/390 392/392 391/391
f  391/391 392/392 394/394 393/393
f  393/393 394/394 396/396 395/395
f  395/395 396/396 398/398 397/397
f  397/397 398/398 400/400 399/399
f  399/399 400/400 402/402 401/401
f  401/401 402/402 404/404 403/403
f  403/403 404/404 406/406 405/405
f  405/405 406/406 408/408 407/407
f  407/407 408/408 410/410 409/409
f  409/409 410/410 412/412 411/411
f  411/411 412/412 414/414 413/413
f  413/413 414/414 416/416 415/415
f  415/415 416/416 418/418 417/417
f  417/417 418/418 420/420 419/419
f  419/419 420/420 422/422 421/421
f  421/421 422/422 424/424 423/423
f  423/423 424/424 426/426 425/425
f  425/425 426/426 428/428 427/427
f  427/427 428/428 430/430 429/429
f  429/429 430/430 432/432 431/431
f  431/431 432/432 434/434 433/433
f  433/433 434/434 436/436 435/435
f  435/435 436/436 438/438 437/437
f  437/437 438/438 440/440 439/439
f  439/439 440/440 442/442 441/441
f  441/441 442/442 444/444 443/443
f  443/443 444/444 446/446 445/445
f  445/445 446/446 448/448 447/447
f  447/447 448/448 450/450 449/449
f  449/449 450/450 452/452 451/451
f  451/451 452/452 454/454 453/453
f  453/453 454/454 456/456 455/455
f  455/455 456/456 458/458 457/457
f  457/457 458/458 460/460 459/459
f  459/459 460/460 462/462 461/461
f  461/461 462/462 464/464 463/463
f  463/463 464/464 466/466 465/465
f  465/465 466/466 468/468 467/467
f  467/467 468/468 470/470 469/469
f  469/469 470/470 472/472 471/471
f  471/471 472/472 474/474 473/473
f  473/473 474/474 476/476 475/475
f  475/475 476/476 478/478 477/477
f  477/477 478/478 480/480 479/479
f  479/479 480/480 482/482 481/481
f  481/481 482/482 484/484 483/483
f  483/483 484/484 486/486 485/485
f  485/485 486/486 488/488 487/487
f  487/487 488/488 490/490 489/489
f  489/489 490/490 492/492 491/491
f  491/491 492/492 494/494 493/493
f  493/493 494/494 496/496 495/495
f  495/495 496/496 498/498 497/497
f  497/497 498/498 500/500 499/499
f  499/499 500/500 502/502 501/501
g g2
s 2
g g3
s 3
g g4
s 4
