# Shape file for lane 2
v -83.542 55.418 49.829
vt 0.000 0.000
v -84.305 54.069 50.232
vt 0.500 0.000
v -85.068 52.720 50.404
vt 1.000 0.000
v 7.848 3.718 47.065
vt 0.000 5.250
v 7.085 2.369 47.468
vt 0.500 5.250
v 6.321 1.020 47.639
vt 1.000 5.250
v 12.200 1.256 46.932
vt 0.000 5.500
v 11.437 -0.093 47.335
vt 0.500 5.500
v 10.673 -1.442 47.506
vt 1.000 5.500
v 16.552 -1.207 46.800
vt 0.000 5.750
v 15.788 -2.556 47.203
vt 0.500 5.750
v 15.025 -3.905 47.374
vt 1.000 5.750
v 20.904 -3.669 46.667
vt 0.000 6.000
v 20.140 -5.018 47.070
vt 0.500 6.000
v 19.377 -6.367 47.241
vt 1.000 6.000
v 25.255 -6.131 46.535
vt 0.000 6.250
v 24.492 -7.481 46.938
vt 0.500 6.250
v 23.729 -8.830 47.109
vt 1.000 6.250
v 29.607 -8.593 46.402
vt 0.000 6.500
v 28.844 -9.942 46.805
vt 0.500 6.500
v 28.080 -11.291 46.976
vt 1.000 6.500
v 33.959 -11.056 46.270
vt 0.000 6.750
v 33.195 -12.405 46.673
vt 0.500 6.750
v 32.432 -13.754 46.844
vt 1.000 6.750
v 38.310 -13.517 46.137
vt 0.000 7.000
v 37.547 -14.866 46.540
vt 0.500 7.000
v 36.784 -16.216 46.711
vt 1.000 7.000
v 42.662 -15.979 46.005
vt 0.000 7.250
v 41.899 -17.328 46.408
vt 0.500 7.250
v 41.136 -18.678 46.579
vt 1.000 7.250
v 47.014 -18.441 45.872
vt 0.000 7.500
v 46.251 -19.790 46.275
vt 0.500 7.500
v 45.487 -21.139 46.446
vt 1.000 7.500
v 51.366 -20.903 45.740
vt 0.000 7.750
v 50.603 -22.252 46.143
vt 0.500 7.750
v 49.840 -23.601 46.314
vt 1.000 7.750
v 55.718 -23.366 45.607
vt 0.000 8.000
v 54.955 -24.715 46.010
vt 0.500 8.000
v 54.191 -26.064 46.181
vt 1.000 8.000
v 60.069 -25.829 45.475
vt 0.000 8.250
v 59.306 -27.178 45.878
vt 0.500 8.250
v 58.543 -28.527 46.049
vt 1.000 8.250
v 64.421 -28.290 45.342
vt 0.000 8.500
v 63.658 -29.639 45.745
vt 0.500 8.500
v 62.894 -30.988 45.916
vt 1.000 8.500
v 68.773 -30.752 45.210
vt 0.000 8.750
v 68.010 -32.101 45.613
vt 0.500 8.750
v 67.246 -33.450 45.784
vt 1.000 8.750
v 73.125 -33.215 45.077
vt 0.000 9.000
v 72.361 -34.564 45.480
vt 0.500 9.000
v 71.598 -35.913 45.651
vt 1.000 9.000
v 77.476 -35.676 44.945
vt 0.000 9.250
v 76.713 -37.026 45.348
vt 0.500 9.250
v 75.950 -38.375 45.519
vt 1.000 9.250
v 81.828 -38.138 44.812
vt 0.000 9.500
v 81.065 -39.487 45.215
vt 0.500 9.500
v 80.302 -40.837 45.386
vt 1.000 9.500
v 86.180 -40.600 44.680
vt 0.000 9.750
v 85.417 -41.949 45.083
vt 0.500 9.750
v 84.653 -43.298 45.255
vt 1.000 9.750
v 90.532 -43.062 44.547
vt 0.000 10.000
v 89.769 -44.411 44.950
vt 0.500 10.000
v 89.006 -45.760 45.122
vt 1.000 10.000
v 94.884 -45.525 44.415
vt 0.000 10.250
v 94.121 -46.874 44.818
vt 0.500 10.250
v 93.357 -48.223 44.990
vt 1.000 10.250
v 99.235 -47.988 44.282
vt 0.000 10.500
v 98.472 -49.337 44.685
vt 0.500 10.500
v 97.709 -50.686 44.857
vt 1.000 10.500
v 103.587 -50.449 44.150
vt 0.000 10.750
v 102.824 -51.798 44.553
vt 0.500 10.750
v 102.060 -53.147 44.725
vt 1.000 10.750
v 107.939 -52.911 44.017
vt 0.000 11.000
v 107.176 -54.260 44.420
vt 0.500 11.000
v 106.412 -55.609 44.592
vt 1.000 11.000
v 112.291 -55.374 43.885
vt 0.000 11.250
v 111.527 -56.723 44.288
vt 0.500 11.250
v 110.764 -58.072 44.460
vt 1.000 11.250
v 116.642 -57.835 43.752
vt 0.000 11.500
v 115.879 -59.185 44.155
vt 0.500 11.500
v 115.116 -60.534 44.327
vt 1.000 11.500
v 120.994 -60.297 43.620
vt 0.000 11.750
v 120.231 -61.646 44.023
vt 0.500 11.750
v 119.468 -62.996 44.195
vt 1.000 11.750
v 125.346 -62.759 43.487
vt 0.000 12.000
v 124.583 -64.108 43.890
vt 0.500 12.000
v 123.820 -65.457 44.062
vt 1.000 12.000
v 129.699 -65.222 43.355
vt 0.000 12.250
v 128.935 -66.571 43.758
vt 0.500 12.250
v 128.172 -67.920 43.930
vt 1.000 12.250
v 134.050 -67.685 43.222
vt 0.000 12.500
v 133.286 -69.034 43.625
vt 0.500 12.500
v 132.523 -70.383 43.797
vt 1.000 12.500
v 138.401 -70.146 43.090
vt 0.000 12.750
v 137.638 -71.495 43.493
vt 0.500 12.750
v 136.874 -72.844 43.665
vt 1.000 12.750
v 142.753 -72.608 42.957
vt 0.000 13.000
v 141.990 -73.957 43.360
vt 0.500 13.000
v 141.226 -75.306 43.532
vt 1.000 13.000
v 147.105 -75.070 42.825
vt 0.000 13.250
v 146.342 -76.419 43.228
vt 0.500 13.250
v 145.578 -77.768 43.400
vt 1.000 13.250
v 151.457 -77.533 42.692
vt 0.000 13.500
v 150.693 -78.882 43.095
vt 0.500 13.500
v 149.930 -80.231 43.267
vt 1.000 13.500
v 155.808 -79.994 42.560
vt 0.000 13.750
v 155.045 -81.344 42.963
vt 0.500 13.750
v 154.282 -82.693 43.135
vt 1.000 13.750
v 160.160 -82.456 42.427
vt 0.000 14.000
v 159.397 -83.805 42.830
vt 0.500 14.000
v 158.634 -85.155 43.002
vt 1.000 14.000
v 164.512 -84.919 42.295
vt 0.000 14.250
v 163.749 -86.268 42.698
vt 0.500 14.250
v 162.986 -87.617 42.870
vt 1.000 14.250
v 168.864 -87.381 42.162
vt 0.000 14.500
v 168.101 -88.730 42.565
vt 0.500 14.500
v 167.337 -90.079 42.737
vt 1.000 14.500
v 173.215 -89.844 42.030
vt 0.000 14.750
v 172.452 -91.193 42.433
vt 0.500 14.750
v 171.689 -92.542 42.605
vt 1.000 14.750
v 177.567 -92.305 41.897
vt 0.000 15.000
v 176.804 -93.654 42.300
vt 0.500 15.000
v 176.041 -95.003 42.472
vt 1.000 15.000
v 181.919 -94.767 41.765
vt 0.000 15.250
v 181.156 -96.116 42.168
vt 0.500 15.250
v 180.392 -97.465 42.340
vt 1.000 15.250
v 186.271 -97.229 41.632
vt 0.000 15.500
v 185.508 -98.578 42.035
vt 0.500 15.500
v 184.744 -99.927 42.207
vt 1.000 15.500
v 190.623 -99.692 41.500
vt 0.000 15.750
v 189.859 -101.041 41.903
vt 0.500 15.750
v 189.096 -102.390 42.075
vt 1.000 15.750
v 194.974 -102.153 41.367
vt 0.000 16.000
v 194.211 -103.503 41.770
vt 0.500 16.000
v 193.448 -104.852 41.942
vt 1.000 16.000
v 199.326 -104.615 41.235
vt 0.000 16.250
v 198.563 -105.964 41.638
vt 0.500 16.250
v 197.800 -107.314 41.810
vt 1.000 16.250
v 203.679 -107.078 41.102
vt 0.000 16.500
v 202.915 -108.427 41.505
vt 0.500 16.500
v 202.152 -109.776 41.676
vt 1.000 16.500
v 208.030 -109.541 40.970
vt 0.000 16.750
v 207.267 -110.889 41.373
vt 0.500 16.750
v 206.504 -112.238 41.544
vt 1.000 16.750
v 212.381 -112.003 40.837
vt 0.000 17.000
v 211.618 -113.352 41.240
vt 0.500 17.000
v 210.855 -114.701 41.411
vt 1.000 17.000
v 216.733 -114.464 40.705
vt 0.000 17.250
v 215.970 -115.813 41.108
vt 0.500 17.250
v 215.207 -117.163 41.279
vt 1.000 17.250
v 221.085 -116.926 40.572
vt 0.000 17.500
v 220.322 -118.275 40.975
vt 0.500 17.500
v 219.558 -119.624 41.146
vt 1.000 17.500
v 225.437 -119.388 40.430
vt 0.000 17.750
v 224.674 -120.737 40.833
vt 0.500 17.750
v 223.910 -122.086 41.004
vt 1.000 17.750
v 229.789 -121.851 40.271
vt 0.000 18.000
v 229.025 -123.200 40.675
vt 0.500 18.000
v 228.262 -124.549 40.847
vt 1.000 18.000
v 234.140 -124.312 40.111
vt 0.000 18.250
v 233.377 -125.662 40.517
vt 0.500 18.250
v 232.614 -127.011 40.688
vt 1.000 18.250
v 238.493 -126.775 39.952
vt 0.000 18.500
v 237.729 -128.124 40.359
vt 0.500 18.500
v 236.966 -129.473 40.529
vt 1.000 18.500
v 242.844 -129.237 39.793
vt 0.000 18.750
v 242.081 -130.586 40.198
vt 0.500 18.750
v 241.317 -131.935 40.367
vt 1.000 18.750
v 247.188 -131.695 39.637
vt 0.000 19.000
v 246.426 -133.045 40.026
vt 0.500 19.000
v 245.665 -134.395 40.192
vt 1.000 19.000
v 251.457 -134.097 39.458
vt 0.000 19.250
v 250.715 -135.458 39.825
vt 0.500 19.250
v 249.973 -136.819 39.993
vt 1.000 19.250
v 255.694 -136.337 39.253
vt 0.000 19.500
v 254.992 -137.719 39.623
vt 0.500 19.500
v 254.290 -139.101 39.801
vt 1.000 19.500
v 259.982 -138.429 39.041
vt 0.000 19.750
v 259.325 -139.833 39.418
vt 0.500 19.750
v 258.667 -141.237 39.609
vt 1.000 19.750
v 264.335 -140.382 38.829
vt 0.000 20.000
v 263.723 -141.806 39.214
vt 0.500 20.000
v 263.112 -143.231 39.417
vt 1.000 20.000
v 268.748 -142.193 38.618
vt 0.000 20.250
v 268.183 -143.637 39.010
vt 0.500 20.250
v 267.618 -145.080 39.225
vt 1.000 20.250
v 273.218 -143.861 38.406
vt 0.000 20.500
v 272.699 -145.322 38.807
vt 0.500 20.500
v 272.181 -146.783 39.034
vt 1.000 20.500
v 277.740 -145.384 38.260
vt 0.000 20.750
v 277.269 -146.861 38.664
vt 0.500 20.750
v 276.798 -148.337 38.896
vt 1.000 20.750
v 282.308 -146.761 38.157
vt 0.000 21.000
v 281.885 -148.252 38.561
vt 0.500 21.000
v 281.461 -149.743 38.794
vt 1.000 21.000
v 286.918 -147.989 38.067
vt 0.000 21.250
v 286.543 -149.493 38.472
vt 0.500 21.250
v 286.168 -150.997 38.706
vt 1.000 21.250
v 291.565 -149.068 37.991
vt 0.000 21.500
v 291.239 -150.584 38.395
vt 0.500 21.500
v 290.913 -152.099 38.630
vt 1.000 21.500
v 296.245 -149.997 37.929
vt 0.000 21.750
v 295.968 -151.522 38.333
vt 0.500 21.750
v 295.691 -153.047 38.568
vt 1.000 21.750
v 300.952 -150.775 37.880
vt 0.000 22.000
v 300.724 -152.308 38.284
vt 0.500 22.000
v 300.497 -153.841 38.519
vt 1.000 22.000
v 305.681 -151.399 37.844
vt 0.000 22.250
v 305.503 -152.939 38.248
vt 0.500 22.250
v 305.325 -154.479 38.483
vt 1.000 22.250
v 310.429 -151.871 37.823
vt 0.000 22.500
v 310.301 -153.415 38.225
vt 0.500 22.500
v 310.172 -154.960 38.460
vt 1.000 22.500
v 315.190 -152.189 37.813
vt 0.000 22.750
v 315.111 -153.737 38.215
vt 0.500 22.750
v 315.033 -155.285 38.450
vt 1.000 22.750
v 319.958 -152.354 37.818
vt 0.000 23.000
v 319.929 -153.904 38.220
vt 0.500 23.000
v 319.901 -155.454 38.454
vt 1.000 23.000
v 324.729 -152.366 37.835
vt 0.000 23.250
v 324.751 -153.915 38.237
vt 0.500 23.250
v 324.772 -155.465 38.470
vt 1.000 23.250
v 329.498 -152.223 37.866
vt 0.000 23.500
v 329.569 -153.772 38.268
vt 0.500 23.500
v 329.641 -155.320 38.500
vt 1.000 23.500
v 334.259 -151.926 37.911
vt 0.000 23.750
v 334.381 -153.472 38.315
vt 0.500 23.750
v 334.502 -155.017 38.546
vt 1.000 23.750
v 339.009 -151.477 37.974
vt 0.000 24.000
v 339.180 -153.017 38.380
vt 0.500 24.000
v 339.351 -154.558 38.609
vt 1.000 24.000
v 343.742 -150.874 38.042
vt 0.000 24.250
v 343.962 -152.408 38.452
vt 0.500 24.250
v 344.183 -153.942 38.678
vt 1.000 24.250
v 348.452 -150.119 38.112
vt 0.000 24.500
v 348.722 -151.645 38.526
vt 0.500 24.500
v 348.993 -153.171 38.749
vt 1.000 24.500
v 353.137 -149.211 38.185
vt 0.000 24.750
v 353.456 -150.728 38.602
vt 0.500 24.750
v 353.775 -152.245 38.822
vt 1.000 24.750
v 357.794 -148.153 38.259
vt 0.000 25.000
v 358.161 -149.659 38.679
vt 0.500 25.000
v 358.528 -151.165 38.894
vt 1.000 25.000
v 362.501 -146.929 38.331
vt 0.000 25.250
v 362.897 -148.428 38.752
vt 0.500 25.250
v 363.293 -149.926 38.963
vt 1.000 25.250
v 367.305 -145.642 38.405
vt 0.000 25.500
v 367.707 -147.139 38.825
vt 0.500 25.500
v 368.108 -148.636 39.032
vt 1.000 25.500
v 372.135 -144.348 38.479
vt 0.000 25.750
v 372.536 -145.845 38.898
vt 0.500 25.750
v 372.937 -147.342 39.100
vt 1.000 25.750
v 376.965 -143.054 38.553
vt 0.000 26.000
v 377.366 -144.551 38.971
vt 0.500 26.000
v 377.767 -146.048 39.168
vt 1.000 26.000
v 381.794 -141.760 38.629
vt 0.000 26.250
v 382.195 -143.257 39.045
vt 0.500 26.250
v 382.596 -144.754 39.237
vt 1.000 26.250
v 386.623 -140.465 38.704
vt 0.000 26.500
v 387.025 -141.962 39.118
vt 0.500 26.500
v 387.426 -143.459 39.306
vt 1.000 26.500
v 391.453 -139.171 38.779
vt 0.000 26.750
v 391.855 -140.668 39.191
vt 0.500 26.750
v 392.256 -142.165 39.373
vt 1.000 26.750
v 396.283 -137.877 38.855
vt 0.000 27.000
v 396.684 -139.374 39.265
vt 0.500 27.000
v 397.085 -140.871 39.442
vt 1.000 27.000
v 401.113 -136.583 38.930
vt 0.000 27.250
v 401.514 -138.080 39.338
vt 0.500 27.250
v 401.915 -139.577 39.511
vt 1.000 27.250
v 405.942 -135.289 39.004
vt 0.000 27.500
v 406.344 -136.786 39.411
vt 0.500 27.500
v 406.745 -138.283 39.579
vt 1.000 27.500
v 410.772 -133.995 39.079
vt 0.000 27.750
v 411.173 -135.492 39.484
vt 0.500 27.750
v 411.574 -136.989 39.648
vt 1.000 27.750
v 415.602 -132.701 39.152
vt 0.000 28.000
v 416.003 -134.198 39.557
vt 0.500 28.000
v 416.404 -135.695 39.716
vt 1.000 28.000
v 420.431 -131.407 39.224
vt 0.000 28.250
v 420.832 -132.904 39.629
vt 0.500 28.250
v 421.233 -134.401 39.784
vt 1.000 28.250
v 425.260 -130.112 39.296
vt 0.000 28.500
v 425.662 -131.609 39.702
vt 0.500 28.500
v 426.063 -133.106 39.853
vt 1.000 28.500
v 430.090 -128.818 39.367
vt 0.000 28.750
v 430.492 -130.315 39.775
vt 0.500 28.750
v 430.893 -131.812 39.922
vt 1.000 28.750
v 434.920 -127.524 39.436
vt 0.000 29.000
v 435.321 -129.021 39.846
vt 0.500 29.000
v 435.722 -130.518 39.990
vt 1.000 29.000
v 439.750 -126.230 39.504
vt 0.000 29.250
v 440.151 -127.727 39.918
vt 0.500 29.250
v 440.552 -129.224 40.059
vt 1.000 29.250
v 444.579 -124.936 39.570
vt 0.000 29.500
v 444.981 -126.433 39.990
vt 0.500 29.500
v 445.382 -127.930 40.129
vt 1.000 29.500
v 449.409 -123.642 39.635
vt 0.000 29.750
v 449.810 -125.139 40.060
vt 0.500 29.750
v 450.211 -126.636 40.197
vt 1.000 29.750
v 454.239 -122.348 39.700
vt 0.000 30.000
v 454.640 -123.845 40.131
vt 0.500 30.000
v 455.041 -125.342 40.266
vt 1.000 30.000
v 459.068 -121.054 39.765
vt 0.000 30.250
v 459.469 -122.551 40.202
vt 0.500 30.250
v 459.870 -124.048 40.336
vt 1.000 30.250
v 463.897 -119.759 39.828
vt 0.000 30.500
v 464.298 -121.256 40.272
vt 0.500 30.500
v 464.700 -122.753 40.404
vt 1.000 30.500
v 468.727 -118.465 39.893
vt 0.000 30.750
v 469.129 -119.962 40.343
vt 0.500 30.750
v 469.530 -121.459 40.473
vt 1.000 30.750
v 473.557 -117.171 39.958
vt 0.000 31.000
v 473.958 -118.668 40.415
vt 0.500 31.000
v 474.359 -120.165 40.543
vt 1.000 31.000
v 478.387 -115.877 40.023
vt 0.000 31.250
v 478.788 -117.374 40.485
vt 0.500 31.250
v 479.189 -118.871 40.611
vt 1.000 31.250
v 483.216 -114.583 40.089
vt 0.000 31.500
v 483.617 -116.080 40.557
vt 0.500 31.500
v 484.019 -117.577 40.680
vt 1.000 31.500
v 488.046 -113.289 40.158
vt 0.000 31.750
v 488.447 -114.786 40.629
vt 0.500 31.750
v 488.848 -116.283 40.749
vt 1.000 31.750
v 492.876 -111.995 40.226
vt 0.000 32.000
v 493.277 -113.492 40.700
vt 0.500 32.000
v 493.678 -114.989 40.818
vt 1.000 32.000
v 497.753 -110.688 40.298
vt 0.000 32.250
v 498.144 -112.188 40.773
vt 0.500 32.250
v 498.534 -113.688 40.887
vt 1.000 32.250
v 502.763 -109.421 40.377
vt 0.000 32.500
v 503.118 -110.930 40.849
vt 0.500 32.500
v 503.473 -112.439 40.957
vt 1.000 32.500
v 507.879 -108.306 40.466
vt 0.000 32.750
v 508.183 -109.826 40.928
vt 0.500 32.750
v 508.488 -111.345 41.028
vt 1.000 32.750
v 513.029 -107.361 40.561
vt 0.000 33.000
v 513.284 -108.890 41.010
vt 0.500 33.000
v 513.538 -110.419 41.099
vt 1.000 33.000
v 518.209 -106.589 40.656
vt 0.000 33.250
v 518.412 -108.126 41.090
vt 0.500 33.250
v 518.615 -109.663 41.169
vt 1.000 33.250
v 523.412 -105.990 40.742
vt 0.000 33.500
v 523.563 -107.533 41.164
vt 0.500 33.500
v 523.715 -109.076 41.235
vt 1.000 33.500
v 528.631 -105.565 40.816
vt 0.000 33.750
v 528.731 -107.112 41.231
vt 0.500 33.750
v 528.831 -108.659 41.297
vt 1.000 33.750
v 533.862 -105.314 40.866
vt 0.000 34.000
v 533.910 -106.864 41.278
vt 0.500 34.000
v 533.959 -108.413 41.342
vt 1.000 34.000
v 539.098 -105.238 40.912
vt 0.000 34.250
v 539.094 -106.788 41.323
vt 0.500 34.250
v 539.091 -108.338 41.385
vt 1.000 34.250
v 544.333 -105.336 40.956
vt 0.000 34.500
v 544.278 -106.885 41.366
vt 0.500 34.500
v 544.224 -108.434 41.427
vt 1.000 34.500
v 549.564 -105.608 40.998
vt 0.000 34.750
v 549.457 -107.155 41.407
vt 0.500 34.750
v 549.350 -108.701 41.468
vt 1.000 34.750
v 554.780 -106.056 41.039
vt 0.000 35.000
v 554.622 -107.598 41.448
vt 0.500 35.000
v 554.465 -109.140 41.508
vt 1.000 35.000
v 559.980 -106.675 41.078
vt 0.000 35.250
v 559.771 -108.211 41.487
vt 0.500 35.250
v 559.562 -109.747 41.547
vt 1.000 35.250
v 565.157 -107.469 41.116
vt 0.000 35.500
v 564.897 -108.997 41.525
vt 0.500 35.500
v 564.636 -110.525 41.586
vt 1.000 35.500
v 570.303 -108.434 41.153
vt 0.000 35.750
v 569.992 -109.952 41.564
vt 0.500 35.750
v 569.681 -111.471 41.625
vt 1.000 35.750
v 575.415 -109.571 41.190
vt 0.000 36.000
v 575.054 -111.078 41.601
vt 0.500 36.000
v 574.692 -112.585 41.664
vt 1.000 36.000
v 580.487 -110.876 41.227
vt 0.000 36.250
v 580.075 -112.370 41.639
vt 0.500 36.250
v 579.664 -113.865 41.702
vt 1.000 36.250
v 585.512 -112.351 41.263
vt 0.000 36.500
v 585.050 -113.831 41.677
vt 0.500 36.500
v 584.589 -115.311 41.741
vt 1.000 36.500
v 590.484 -113.991 41.301
vt 0.000 36.750
v 589.974 -115.455 41.715
vt 0.500 36.750
v 589.464 -116.919 41.779
vt 1.000 36.750
v 595.400 -115.797 41.339
vt 0.000 37.000
v 594.841 -117.243 41.754
vt 0.500 37.000
v 594.282 -118.689 41.819
vt 1.000 37.000
v 600.253 -117.766 41.378
vt 0.000 37.250
v 599.646 -119.192 41.793
vt 0.500 37.250
v 599.039 -120.618 41.858
vt 1.000 37.250
v 605.037 -119.895 41.416
vt 0.000 37.500
v 604.383 -121.301 41.831
vt 0.500 37.500
v 603.729 -122.706 41.896
vt 1.000 37.500
v 609.747 -122.183 41.445
vt 0.000 37.750
v 609.047 -123.566 41.860
vt 0.500 37.750
v 608.346 -124.949 41.924
vt 1.000 37.750
v 614.379 -124.626 41.466
vt 0.000 38.000
v 613.633 -125.984 41.880
vt 0.500 38.000
v 612.887 -127.343 41.943
vt 1.000 38.000
v 618.927 -127.223 41.476
vt 0.000 38.250
v 618.136 -128.556 41.890
vt 0.500 38.250
v 617.345 -129.889 41.953
vt 1.000 38.250
v 623.385 -129.969 41.478
vt 0.000 38.500
v 622.550 -131.275 41.891
vt 0.500 38.500
v 621.716 -132.581 41.954
vt 1.000 38.500
v 627.750 -132.863 41.469
vt 0.000 38.750
v 626.872 -134.140 41.882
vt 0.500 38.750
v 625.994 -135.417 41.943
vt 1.000 38.750
v 632.016 -135.900 41.449
vt 0.000 39.000
v 631.096 -137.148 41.861
vt 0.500 39.000
v 630.176 -138.395 41.922
vt 1.000 39.000
v 636.177 -139.078 41.416
vt 0.000 39.250
v 635.216 -140.294 41.829
vt 0.500 39.250
v 634.255 -141.510 41.890
vt 1.000 39.250
v 640.231 -142.392 41.372
vt 0.000 39.500
v 639.231 -143.576 41.785
vt 0.500 39.500
v 638.230 -144.759 41.847
vt 1.000 39.500
v 644.173 -145.840 41.314
vt 0.000 39.750
v 643.133 -146.990 41.728
vt 0.500 39.750
v 642.094 -148.139 41.791
vt 1.000 39.750
v 647.998 -149.418 41.244
vt 0.000 40.000
v 646.920 -150.532 41.659
vt 0.500 40.000
v 645.843 -151.646 41.725
vt 1.000 40.000
v 651.700 -153.122 41.148
vt 0.000 40.250
v 650.586 -154.199 41.567
vt 0.500 40.250
v 649.472 -155.277 41.637
vt 1.000 40.250
v 655.277 -156.946 41.042
vt 0.000 40.500
v 654.128 -157.985 41.465
vt 0.500 40.500
v 652.978 -159.025 41.542
vt 1.000 40.500
v 658.725 -160.887 40.927
vt 0.000 40.750
v 657.541 -161.888 41.356
vt 0.500 40.750
v 656.358 -162.889 41.442
vt 1.000 40.750
v 662.039 -164.941 40.811
vt 0.000 41.000
v 660.823 -165.902 41.246
vt 0.500 41.000
v 659.607 -166.863 41.341
vt 1.000 41.000
v 665.218 -169.103 40.698
vt 0.000 41.250
v 663.970 -170.023 41.136
vt 0.500 41.250
v 662.723 -170.943 41.240
vt 1.000 41.250
v 668.215 -173.311 40.592
vt 0.000 41.500
v 666.947 -174.202 41.031
vt 0.500 41.500
v 665.678 -175.092 41.141
vt 1.000 41.500
v 671.087 -177.464 40.489
vt 0.000 41.750
v 669.812 -178.345 40.927
vt 0.500 41.750
v 668.538 -179.227 41.042
vt 1.000 41.750
v 673.931 -181.576 40.389
vt 0.000 42.000
v 672.656 -182.458 40.824
vt 0.500 42.000
v 671.381 -183.340 40.945
vt 1.000 42.000
v 676.775 -185.689 40.290
vt 0.000 42.250
v 675.500 -186.570 40.722
vt 0.500 42.250
v 674.225 -187.452 40.847
vt 1.000 42.250
v 679.619 -189.801 40.192
vt 0.000 42.500
v 678.344 -190.683 40.620
vt 0.500 42.500
v 677.069 -191.564 40.749
vt 1.000 42.500
v 682.463 -193.914 40.095
vt 0.000 42.750
v 681.188 -194.795 40.518
vt 0.500 42.750
v 679.913 -195.677 40.651
vt 1.000 42.750
v 685.307 -198.027 39.996
vt 0.000 43.000
v 684.032 -198.908 40.415
vt 0.500 43.000
v 682.757 -199.790 40.552
vt 1.000 43.000
v 688.150 -202.139 39.899
vt 0.000 43.250
v 686.875 -203.020 40.313
vt 0.500 43.250
v 685.601 -203.902 40.455
vt 1.000 43.250
v 690.994 -206.251 39.802
vt 0.000 43.500
v 689.720 -207.133 40.210
vt 0.500 43.500
v 688.445 -208.014 40.357
vt 1.000 43.500
v 693.838 -210.363 39.704
vt 0.000 43.750
v 692.563 -211.245 40.108
vt 0.500 43.750
v 691.288 -212.127 40.259
vt 1.000 43.750
v 696.682 -214.476 39.606
vt 0.000 44.000
v 695.408 -215.357 40.005
vt 0.500 44.000
v 694.133 -216.239 40.160
vt 1.000 44.000
v 699.526 -218.588 39.509
vt 0.000 44.250
v 698.251 -219.470 39.903
vt 0.500 44.250
v 696.976 -220.352 40.062
vt 1.000 44.250
v 702.370 -222.700 39.413
vt 0.000 44.500
v 701.095 -223.582 39.801
vt 0.500 44.500
v 699.820 -224.464 39.964
vt 1.000 44.500
v 705.214 -226.813 39.316
vt 0.000 44.750
v 703.940 -227.694 39.699
vt 0.500 44.750
v 702.665 -228.576 39.866
vt 1.000 44.750
v 708.058 -230.925 39.218
vt 0.000 45.000
v 706.783 -231.807 39.596
vt 0.500 45.000
v 705.508 -232.689 39.767
vt 1.000 45.000
v 710.902 -235.038 39.120
vt 0.000 45.250
v 709.627 -235.919 39.494
vt 0.500 45.250
v 708.353 -236.801 39.669
vt 1.000 45.250
v 713.746 -239.150 39.021
vt 0.000 45.500
v 712.471 -240.032 39.392
vt 0.500 45.500
v 711.196 -240.914 39.572
vt 1.000 45.500
v 716.560 -243.220 38.920
vt 0.000 45.750
v 715.292 -244.111 39.289
vt 0.500 45.750
v 714.024 -245.002 39.474
vt 1.000 45.750
v 719.351 -247.133 38.813
vt 0.000 46.000
v 718.108 -248.058 39.182
vt 0.500 46.000
v 716.864 -248.983 39.374
vt 1.000 46.000
v 722.242 -250.861 38.700
vt 0.000 46.250
v 721.036 -251.835 39.072
vt 0.500 46.250
v 719.830 -252.809 39.272
vt 1.000 46.250
v 725.278 -254.470 38.583
vt 0.000 46.500
v 724.112 -255.491 38.960
vt 0.500 46.500
v 722.946 -256.513 39.169
vt 1.000 46.500
v 728.455 -257.953 38.469
vt 0.000 46.750
v 727.332 -259.021 38.852
vt 0.500 46.750
v 726.208 -260.088 39.069
vt 1.000 46.750
v 731.771 -261.308 38.362
vt 0.000 47.000
v 730.691 -262.419 38.749
vt 0.500 47.000
v 729.610 -263.531 38.974
vt 1.000 47.000
v 735.217 -264.528 38.266
vt 0.000 47.250
v 734.182 -265.681 38.656
vt 0.500 47.250
v 733.147 -266.835 38.886
vt 1.000 47.250
v 738.789 -267.606 38.197
vt 0.000 47.500
v 737.801 -268.800 38.588
vt 0.500 47.500
v 736.813 -269.994 38.819
vt 1.000 47.500
v 742.483 -270.539 38.133
vt 0.000 47.750
v 741.543 -271.772 38.524
vt 0.500 47.750
v 740.604 -273.004 38.756
vt 1.000 47.750
v 746.289 -273.323 38.070
vt 0.000 48.000
v 745.400 -274.592 38.462
vt 0.500 48.000
v 744.510 -275.862 38.696
vt 1.000 48.000
v 750.205 -275.951 38.008
vt 0.000 48.250
v 749.367 -277.255 38.400
vt 0.500 48.250
v 748.529 -278.559 38.634
vt 1.000 48.250
v 754.222 -278.423 37.947
vt 0.000 48.500
v 753.437 -279.759 38.339
vt 0.500 48.500
v 752.651 -281.095 38.574
vt 1.000 48.500
v 758.334 -280.730 37.885
vt 0.000 48.750
v 757.603 -282.096 38.278
vt 0.500 48.750
v 756.872 -283.463 38.514
vt 1.000 48.750
v 762.537 -282.870 37.826
vt 0.000 49.000
v 761.861 -284.265 38.219
vt 0.500 49.000
v 761.185 -285.660 38.455
vt 1.000 49.000
v 766.821 -284.842 37.766
vt 0.000 49.250
v 766.202 -286.263 38.159
vt 0.500 49.250
v 765.582 -287.684 38.395
vt 1.000 49.250
v 771.181 -286.641 37.708
vt 0.000 49.500
v 770.618 -288.086 38.100
vt 0.500 49.500
v 770.056 -289.530 38.337
vt 1.000 49.500
v 775.608 -288.264 37.649
vt 0.000 49.750
v 775.104 -289.730 38.041
vt 0.500 49.750
v 774.600 -291.195 38.278
vt 1.000 49.750
v 780.097 -289.708 37.592
vt 0.000 50.000
v 779.652 -291.193 37.984
vt 0.500 50.000
v 779.207 -292.678 38.221
vt 1.000 50.000
v 784.641 -290.972 37.534
vt 0.000 50.250
v 784.256 -292.473 37.926
vt 0.500 50.250
v 783.870 -293.974 38.163
vt 1.000 50.250
v 789.232 -292.053 37.478
vt 0.000 50.500
v 788.907 -293.568 37.870
vt 0.500 50.500
v 788.582 -295.084 38.106
vt 1.000 50.500
v 793.862 -292.949 37.422
vt 0.000 50.750
v 793.598 -294.477 37.813
vt 0.500 50.750
v 793.334 -296.004 38.049
vt 1.000 50.750
v 798.524 -293.661 37.367
vt 0.000 51.000
v 798.321 -295.197 37.758
vt 0.500 51.000
v 798.118 -296.734 37.993
vt 1.000 51.000
v 803.211 -294.184 37.311
vt 0.000 51.250
v 803.069 -295.728 37.702
vt 0.500 51.250
v 802.928 -297.272 37.937
vt 1.000 51.250
v 807.915 -294.520 37.257
vt 0.000 51.500
v 807.835 -296.068 37.648
vt 0.500 51.500
v 807.756 -297.616 37.882
vt 1.000 51.500
v 812.628 -294.668 37.203
vt 0.000 51.750
v 812.611 -296.218 37.593
vt 0.500 51.750
v 812.593 -297.767 37.827
vt 1.000 51.750
v 817.344 -294.626 37.150
vt 0.000 52.000
v 817.388 -296.176 37.540
vt 0.500 52.000
v 817.433 -297.725 37.773
vt 1.000 52.000
v 822.054 -294.396 37.096
vt 0.000 52.250
v 822.161 -295.943 37.486
vt 0.500 52.250
v 822.267 -297.489 37.718
vt 1.000 52.250
v 826.752 -293.979 37.043
vt 0.000 52.500
v 826.920 -295.519 37.434
vt 0.500 52.500
v 827.088 -297.060 37.665
vt 1.000 52.500
v 831.429 -293.373 36.990
vt 0.000 52.750
v 831.659 -294.906 37.381
vt 0.500 52.750
v 831.888 -296.439 37.611
vt 1.000 52.750
v 836.078 -292.581 36.945
vt 0.000 53.000
v 836.369 -294.103 37.336
vt 0.500 53.000
v 836.660 -295.626 37.566
vt 1.000 53.000
v 840.692 -291.604 36.919
vt 0.000 53.250
v 841.043 -293.113 37.310
vt 0.500 53.250
v 841.395 -294.623 37.537
vt 1.000 53.250
v 845.262 -290.443 36.900
vt 0.000 53.500
v 845.674 -291.937 37.292
vt 0.500 53.500
v 846.085 -293.431 37.517
vt 1.000 53.500
v 849.783 -289.100 36.888
vt 0.000 53.750
v 850.254 -290.576 37.281
vt 0.500 53.750
v 850.725 -292.053 37.501
vt 1.000 53.750
v 854.247 -287.577 36.876
vt 0.000 54.000
v 854.777 -289.034 37.271
vt 0.500 54.000
v 855.306 -290.490 37.487
vt 1.000 54.000
v 858.648 -285.876 36.864
vt 0.000 54.250
v 859.235 -287.311 37.260
vt 0.500 54.250
v 859.822 -288.746 37.471
vt 1.000 54.250
v 863.076 -283.963 36.847
vt 0.000 54.500
v 863.698 -285.382 37.244
vt 0.500 54.500
v 864.321 -286.802 37.450
vt 1.000 54.500
v 867.608 -281.946 36.832
vt 0.000 54.750
v 868.238 -283.362 37.230
vt 0.500 54.750
v 868.868 -284.778 37.431
vt 1.000 54.750
v 872.175 -279.912 36.818
vt 0.000 55.000
v 872.805 -281.328 37.218
vt 0.500 55.000
v 873.436 -282.744 37.412
vt 1.000 55.000
v 876.742 -277.878 36.805
vt 0.000 55.250
v 877.373 -279.294 37.206
vt 0.500 55.250
v 878.003 -280.710 37.393
vt 1.000 55.250
v 881.310 -275.845 36.792
vt 0.000 55.500
v 881.940 -277.261 37.194
vt 0.500 55.500
v 882.571 -278.676 37.374
vt 1.000 55.500
v 885.878 -273.811 36.779
vt 0.000 55.750
v 886.508 -275.227 37.181
vt 0.500 55.750
v 887.139 -276.643 37.355
vt 1.000 55.750
v 890.445 -271.777 36.763
vt 0.000 56.000
v 891.076 -273.193 37.167
vt 0.500 56.000
v 891.706 -274.609 37.334
vt 1.000 56.000
v 895.013 -269.743 36.745
vt 0.000 56.250
v 895.643 -271.159 37.150
vt 0.500 56.250
v 896.274 -272.575 37.311
vt 1.000 56.250
v 899.581 -267.709 36.724
vt 0.000 56.500
v 900.211 -269.125 37.130
vt 0.500 56.500
v 900.842 -270.541 37.285
vt 1.000 56.500
v 904.148 -265.675 36.698
vt 0.000 56.750
v 904.779 -267.091 37.105
vt 0.500 56.750
v 905.409 -268.507 37.256
vt 1.000 56.750
v 908.716 -263.641 36.667
vt 0.000 57.000
v 909.346 -265.057 37.074
vt 0.500 57.000
v 909.977 -266.473 37.223
vt 1.000 57.000
v 913.284 -261.608 36.631
vt 0.000 57.250
v 913.914 -263.024 37.038
vt 0.500 57.250
v 914.545 -264.440 37.185
vt 1.000 57.250
v 917.851 -259.574 36.594
vt 0.000 57.500
v 918.482 -260.990 37.001
vt 0.500 57.500
v 919.112 -262.406 37.147
vt 1.000 57.500
v 922.419 -257.540 36.556
vt 0.000 57.750
v 923.049 -258.956 36.963
vt 0.500 57.750
v 923.680 -260.372 37.108
vt 1.000 57.750
v 926.987 -255.506 36.517
vt 0.000 58.000
v 927.617 -256.922 36.925
vt 0.500 58.000
v 928.248 -258.338 37.069
vt 1.000 58.000
v 931.554 -253.472 36.478
vt 0.000 58.250
v 932.185 -254.888 36.886
vt 0.500 58.250
v 932.815 -256.304 37.029
vt 1.000 58.250
v 936.122 -251.438 36.438
vt 0.000 58.500
v 936.752 -252.854 36.846
vt 0.500 58.500
v 937.383 -254.270 36.989
vt 1.000 58.500
v 945.257 -247.371 36.357
vt 0.000 59.000
v 945.888 -248.787 36.765
vt 0.500 59.000
v 946.518 -250.203 36.907
vt 1.000 59.000
v 954.392 -243.303 36.274
vt 0.000 59.500
v 955.023 -244.719 36.682
vt 0.500 59.500
v 955.653 -246.135 36.824
vt 1.000 59.500
v 963.528 -239.235 36.189
vt 0.000 60.000
v 964.158 -240.651 36.597
vt 0.500 60.000
v 964.789 -242.067 36.739
vt 1.000 60.000
v 977.231 -233.134 36.060
vt 0.000 60.750
v 977.861 -234.550 36.468
vt 0.500 60.750
v 978.492 -235.966 36.610
vt 1.000 60.750
v 986.366 -229.066 35.972
vt 0.000 61.250
v 986.997 -230.482 36.380
vt 0.500 61.250
v 987.627 -231.898 36.523
vt 1.000 61.250
v 995.501 -224.998 35.884
vt 0.000 61.750
v 996.132 -226.414 36.292
vt 0.500 61.750
v 996.762 -227.830 36.435
vt 1.000 61.750
v 1004.637 -220.931 35.795
vt 0.000 62.250
v 1005.267 -222.347 36.203
vt 0.500 62.250
v 1005.898 -223.763 36.348
vt 1.000 62.250
v 1013.772 -216.863 35.707
vt 0.000 62.750
v 1014.402 -218.279 36.114
vt 0.500 62.750
v 1015.033 -219.695 36.260
vt 1.000 62.750
v 1022.907 -212.795 35.618
vt 0.000 63.250
v 1023.538 -214.211 36.026
vt 0.500 63.250
v 1024.168 -215.627 36.172
vt 1.000 63.250
v 1032.043 -208.728 35.530
vt 0.000 63.750
v 1032.673 -210.144 35.938
vt 0.500 63.750
v 1033.304 -211.560 36.085
vt 1.000 63.750
v 1045.746 -202.626 35.400
vt 0.000 64.500
v 1046.376 -204.042 35.807
vt 0.500 64.500
v 1047.007 -205.458 35.955
vt 1.000 64.500
v 1054.881 -198.558 35.315
vt 0.000 65.000
v 1055.511 -199.974 35.722
vt 0.500 65.000
v 1056.142 -201.390 35.870
vt 1.000 65.000
mtllib Roads\3D_Road\Road_3c09687f-3630-4619-9c60-5cf045f4e0a5_2.mtl
usemtl Road Transition (Light)
g g1
s 1
f  1/1 2/2 5/5 4/4
f  2/2 3/3 6/6 5/5
f  4/4 5/5 8/8 7/7
f  5/5 6/6 9/9 8/8
f  7/7 8/8 11/11 10/10
f  8/8 9/9 12/12 11/11
f  10/10 11/11 14/14 13/13
f  11/11 12/12 15/15 14/14
f  13/13 14/14 17/17 16/16
f  14/14 15/15 18/18 17/17
f  16/16 17/17 20/20 19/19
f  17/17 18/18 21/21 20/20
f  19/19 20/20 23/23 22/22
f  20/20 21/21 24/24 23/23
f  22/22 23/23 26/26 25/25
f  23/23 24/24 27/27 26/26
f  25/25 26/26 29/29 28/28
f  26/26 27/27 30/30 29/29
f  28/28 29/29 32/32 31/31
f  29/29 30/30 33/33 32/32
f  31/31 32/32 35/35 34/34
f  32/32 33/33 36/36 35/35
f  34/34 35/35 38/38 37/37
f  35/35 36/36 39/39 38/38
f  37/37 38/38 41/41 40/40
f  38/38 39/39 42/42 41/41
f  40/40 41/41 44/44 43/43
f  41/41 42/42 45/45 44/44
f  43/43 44/44 47/47 46/46
f  44/44 45/45 48/48 47/47
f  46/46 47/47 50/50 49/49
f  47/47 48/48 51/51 50/50
f  49/49 50/50 53/53 52/52
f  50/50 51/51 54/54 53/53
f  52/52 53/53 56/56 55/55
f  53/53 54/54 57/57 56/56
f  55/55 56/56 59/59 58/58
f  56/56 57/57 60/60 59/59
f  58/58 59/59 62/62 61/61
f  59/59 60/60 63/63 62/62
f  61/61 62/62 65/65 64/64
f  62/62 63/63 66/66 65/65
f  64/64 65/65 68/68 67/67
f  65/65 66/66 69/69 68/68
f  67/67 68/68 71/71 70/70
f  68/68 69/69 72/72 71/71
f  70/70 71/71 74/74 73/73
f  71/71 72/72 75/75 74/74
f  73/73 74/74 77/77 76/76
f  74/74 75/75 78/78 77/77
f  76/76 77/77 80/80 79/79
f  77/77 78/78 81/81 80/80
f  79/79 80/80 83/83 82/82
f  80/80 81/81 84/84 83/83
f  82/82 83/83 86/86 85/85
f  83/83 84/84 87/87 86/86
f  85/85 86/86 89/89 88/88
f  86/86 87/87 90/90 89/89
f  88/88 89/89 92/92 91/91
f  89/89 90/90 93/93 92/92
f  91/91 92/92 95/95 94/94
f  92/92 93/93 96/96 95/95
f  94/94 95/95 98/98 97/97
f  95/95 96/96 99/99 98/98
f  97/97 98/98 101/101 100/100
f  98/98 99/99 102/102 101/101
f  100/100 101/101 104/104 103/103
f  101/101 102/102 105/105 104/104
f  103/103 104/104 107/107 106/106
f  104/104 105/105 108/108 107/107
f  106/106 107/107 110/110 109/109
f  107/107 108/108 111/111 110/110
f  109/109 110/110 113/113 112/112
f  110/110 111/111 114/114 113/113
f  112/112 113/113 116/116 115/115
f  113/113 114/114 117/117 116/116
f  115/115 116/116 119/119 118/118
f  116/116 117/117 120/120 119/119
f  118/118 119/119 122/122 121/121
f  119/119 120/120 123/123 122/122
f  121/121 122/122 125/125 124/124
f  122/122 123/123 126/126 125/125
f  124/124 125/125 128/128 127/127
f  125/125 126/126 129/129 128/128
f  127/127 128/128 131/131 130/130
f  128/128 129/129 132/132 131/131
f  130/130 131/131 134/134 133/133
f  131/131 132/132 135/135 134/134
f  133/133 134/134 137/137 136/136
f  134/134 135/135 138/138 137/137
f  136/136 137/137 140/140 139/139
f  137/137 138/138 141/141 140/140
f  139/139 140/140 143/143 142/142
f  140/140 141/141 144/144 143/143
f  142/142 143/143 146/146 145/145
f  143/143 144/144 147/147 146/146
f  145/145 146/146 149/149 148/148
f  146/146 147/147 150/150 149/149
f  148/148 149/149 152/152 151/151
f  149/149 150/150 153/153 152/152
f  151/151 152/152 155/155 154/154
f  152/152 153/153 156/156 155/155
f  154/154 155/155 158/158 157/157
f  155/155 156/156 159/159 158/158
f  157/157 158/158 161/161 160/160
f  158/158 159/159 162/162 161/161
f  160/160 161/161 164/164 163/163
f  161/161 162/162 165/165 164/164
f  163/163 164/164 167/167 166/166
f  164/164 165/165 168/168 167/167
f  166/166 167/167 170/170 169/169
f  167/167 168/168 171/171 170/170
f  169/169 170/170 173/173 172/172
f  170/170 171/171 174/174 173/173
f  172/172 173/173 176/176 175/175
f  173/173 174/174 177/177 176/176
f  175/175 176/176 179/179 178/178
f  176/176 177/177 180/180 179/179
f  178/178 179/179 182/182 181/181
f  179/179 180/180 183/183 182/182
f  181/181 182/182 185/185 184/184
f  182/182 183/183 186/186 185/185
f  184/184 185/185 188/188 187/187
f  185/185 186/186 189/189 188/188
f  187/187 188/188 191/191 190/190
f  188/188 189/189 192/192 191/191
f  190/190 191/191 194/194 193/193
f  191/191 192/192 195/195 194/194
f  193/193 194/194 197/197 196/196
f  194/194 195/195 198/198 197/197
f  196/196 197/197 200/200 199/199
f  197/197 198/198 201/201 200/200
f  199/199 200/200 203/203 202/202
f  200/200 201/201 204/204 203/203
f  202/202 203/203 206/206 205/205
f  203/203 204/204 207/207 206/206
f  205/205 206/206 209/209 208/208
f  206/206 207/207 210/210 209/209
f  208/208 209/209 212/212 211/211
f  209/209 210/210 213/213 212/212
f  211/211 212/212 215/215 214/214
f  212/212 213/213 216/216 215/215
f  214/214 215/215 218/218 217/217
f  215/215 216/216 219/219 218/218
f  217/217 218/218 221/221 220/220
f  218/218 219/219 222/222 221/221
f  220/220 221/221 224/224 223/223
f  221/221 222/222 225/225 224/224
f  223/223 224/224 227/227 226/226
f  224/224 225/225 228/228 227/227
f  226/226 227/227 230/230 229/229
f  227/227 228/228 231/231 230/230
f  229/229 230/230 233/233 232/232
f  230/230 231/231 234/234 233/233
f  232/232 233/233 236/236 235/235
f  233/233 234/234 237/237 236/236
f  235/235 236/236 239/239 238/238
f  236/236 237/237 240/240 239/239
f  238/238 239/239 242/242 241/241
f  239/239 240/240 243/243 242/242
f  241/241 242/242 245/245 244/244
f  242/242 243/243 246/246 245/245
f  244/244 245/245 248/248 247/247
f  245/245 246/246 249/249 248/248
f  247/247 248/248 251/251 250/250
f  248/248 249/249 252/252 251/251
f  250/250 251/251 254/254 253/253
f  251/251 252/252 255/255 254/254
f  253/253 254/254 257/257 256/256
f  254/254 255/255 258/258 257/257
f  256/256 257/257 260/260 259/259
f  257/257 258/258 261/261 260/260
f  259/259 260/260 263/263 262/262
f  260/260 261/261 264/264 263/263
f  262/262 263/263 266/266 265/265
f  263/263 264/264 267/267 266/266
f  265/265 266/266 269/269 268/268
f  266/266 267/267 270/270 269/269
f  268/268 269/269 272/272 271/271
f  269/269 270/270 273/273 272/272
f  271/271 272/272 275/275 274/274
f  272/272 273/273 276/276 275/275
f  274/274 275/275 278/278 277/277
f  275/275 276/276 279/279 278/278
f  277/277 278/278 281/281 280/280
f  278/278 279/279 282/282 281/281
f  280/280 281/281 284/284 283/283
f  281/281 282/282 285/285 284/284
f  283/283 284/284 287/287 286/286
f  284/284 285/285 288/288 287/287
f  286/286 287/287 290/290 289/289
f  287/287 288/288 291/291 290/290
f  289/289 290/290 293/293 292/292
f  290/290 291/291 294/294 293/293
f  292/292 293/293 296/296 295/295
f  293/293 294/294 297/297 296/296
f  295/295 296/296 299/299 298/298
f  296/296 297/297 300/300 299/299
f  298/298 299/299 302/302 301/301
f  299/299 300/300 303/303 302/302
f  301/301 302/302 305/305 304/304
f  302/302 303/303 306/306 305/305
f  304/304 305/305 308/308 307/307
f  305/305 306/306 309/309 308/308
f  307/307 308/308 311/311 310/310
f  308/308 309/309 312/312 311/311
f  310/310 311/311 314/314 313/313
f  311/311 312/312 315/315 314/314
f  313/313 314/314 317/317 316/316
f  314/314 315/315 318/318 317/317
f  316/316 317/317 320/320 319/319
f  317/317 318/318 321/321 320/320
f  319/319 320/320 323/323 322/322
f  320/320 321/321 324/324 323/323
f  322/322 323/323 326/326 325/325
f  323/323 324/324 327/327 326/326
f  325/325 326/326 329/329 328/328
f  326/326 327/327 330/330 329/329
f  328/328 329/329 332/332 331/331
f  329/329 330/330 333/333 332/332
f  331/331 332/332 335/335 334/334
f  332/332 333/333 336/336 335/335
f  334/334 335/335 338/338 337/337
f  335/335 336/336 339/339 338/338
f  337/337 338/338 341/341 340/340
f  338/338 339/339 342/342 341/341
f  340/340 341/341 344/344 343/343
f  341/341 342/342 345/345 344/344
f  343/343 344/344 347/347 346/346
f  344/344 345/345 348/348 347/347
f  346/346 347/347 350/350 349/349
f  347/347 348/348 351/351 350/350
f  349/349 350/350 353/353 352/352
f  350/350 351/351 354/354 353/353
f  352/352 353/353 356/356 355/355
f  353/353 354/354 357/357 356/356
f  355/355 356/356 359/359 358/358
f  356/356 357/357 360/360 359/359
f  358/358 359/359 362/362 361/361
f  359/359 360/360 363/363 362/362
f  361/361 362/362 365/365 364/364
f  362/362 363/363 366/366 365/365
f  364/364 365/365 368/368 367/367
f  365/365 366/366 369/369 368/368
f  367/367 368/368 371/371 370/370
f  368/368 369/369 372/372 371/371
f  370/370 371/371 374/374 373/373
f  371/371 372/372 375/375 374/374
f  373/373 374/374 377/377 376/376
f  374/374 375/375 378/378 377/377
f  376/376 377/377 380/380 379/379
f  377/377 378/378 381/381 380/380
f  379/379 380/380 383/383 382/382
f  380/380 381/381 384/384 383/383
f  382/382 383/383 386/386 385/385
f  383/383 384/384 387/387 386/386
f  385/385 386/386 389/389 388/388
f  386/386 387/387 390/390 389/389
f  388/388 389/389 392/392 391/391
f  389/389 390/390 393/393 392/392
f  391/391 392/392 395/395 394/394
f  392/392 393/393 396/396 395/395
f  394/394 395/395 398/398 397/397
f  395/395 396/396 399/399 398/398
f  397/397 398/398 401/401 400/400
f  398/398 399/399 402/402 401/401
f  400/400 401/401 404/404 403/403
f  401/401 402/402 405/405 404/404
f  403/403 404/404 407/407 406/406
f  404/404 405/405 408/408 407/407
f  406/406 407/407 410/410 409/409
f  407/407 408/408 411/411 410/410
f  409/409 410/410 413/413 412/412
f  410/410 411/411 414/414 413/413
f  412/412 413/413 416/416 415/415
f  413/413 414/414 417/417 416/416
f  415/415 416/416 419/419 418/418
f  416/416 417/417 420/420 419/419
f  418/418 419/419 422/422 421/421
f  419/419 420/420 423/423 422/422
f  421/421 422/422 425/425 424/424
f  422/422 423/423 426/426 425/425
f  424/424 425/425 428/428 427/427
f  425/425 426/426 429/429 428/428
f  427/427 428/428 431/431 430/430
f  428/428 429/429 432/432 431/431
f  430/430 431/431 434/434 433/433
f  431/431 432/432 435/435 434/434
f  433/433 434/434 437/437 436/436
f  434/434 435/435 438/438 437/437
f  436/436 437/437 440/440 439/439
f  437/437 438/438 441/441 440/440
f  439/439 440/440 443/443 442/442
f  440/440 441/441 444/444 443/443
f  442/442 443/443 446/446 445/445
f  443/443 444/444 447/447 446/446
f  445/445 446/446 449/449 448/448
f  446/446 447/447 450/450 449/449
f  448/448 449/449 452/452 451/451
f  449/449 450/450 453/453 452/452
f  451/451 452/452 455/455 454/454
f  452/452 453/453 456/456 455/455
f  454/454 455/455 458/458 457/457
f  455/455 456/456 459/459 458/458
f  457/457 458/458 461/461 460/460
f  458/458 459/459 462/462 461/461
f  460/460 461/461 464/464 463/463
f  461/461 462/462 465/465 464/464
f  463/463 464/464 467/467 466/466
f  464/464 465/465 468/468 467/467
f  466/466 467/467 470/470 469/469
f  467/467 468/468 471/471 470/470
f  469/469 470/470 473/473 472/472
f  470/470 471/471 474/474 473/473
f  472/472 473/473 476/476 475/475
f  473/473 474/474 477/477 476/476
f  475/475 476/476 479/479 478/478
f  476/476 477/477 480/480 479/479
f  478/478 479/479 482/482 481/481
f  479/479 480/480 483/483 482/482
f  481/481 482/482 485/485 484/484
f  482/482 483/483 486/486 485/485
f  484/484 485/485 488/488 487/487
f  485/485 486/486 489/489 488/488
f  487/487 488/488 491/491 490/490
f  488/488 489/489 492/492 491/491
f  490/490 491/491 494/494 493/493
f  491/491 492/492 495/495 494/494
f  493/493 494/494 497/497 496/496
f  494/494 495/495 498/498 497/497
f  496/496 497/497 500/500 499/499
f  497/497 498/498 501/501 500/500
f  499/499 500/500 503/503 502/502
f  500/500 501/501 504/504 503/503
f  502/502 503/503 506/506 505/505
f  503/503 504/504 507/507 506/506
f  505/505 506/506 509/509 508/508
f  506/506 507/507 510/510 509/509
f  508/508 509/509 512/512 511/511
f  509/509 510/510 513/513 512/512
f  511/511 512/512 515/515 514/514
f  512/512 513/513 516/516 515/515
f  514/514 515/515 518/518 517/517
f  515/515 516/516 519/519 518/518
f  517/517 518/518 521/521 520/520
f  518/518 519/519 522/522 521/521
f  520/520 521/521 524/524 523/523
f  521/521 522/522 525/525 524/524
f  523/523 524/524 527/527 526/526
f  524/524 525/525 528/528 527/527
f  526/526 527/527 530/530 529/529
f  527/527 528/528 531/531 530/530
f  529/529 530/530 533/533 532/532
f  530/530 531/531 534/534 533/533
f  532/532 533/533 536/536 535/535
f  533/533 534/534 537/537 536/536
f  535/535 536/536 539/539 538/538
f  536/536 537/537 540/540 539/539
f  538/538 539/539 542/542 541/541
f  539/539 540/540 543/543 542/542
f  541/541 542/542 545/545 544/544
f  542/542 543/543 546/546 545/545
f  544/544 545/545 548/548 547/547
f  545/545 546/546 549/549 548/548
f  547/547 548/548 551/551 550/550
f  548/548 549/549 552/552 551/551
f  550/550 551/551 554/554 553/553
f  551/551 552/552 555/555 554/554
f  553/553 554/554 557/557 556/556
f  554/554 555/555 558/558 557/557
f  556/556 557/557 560/560 559/559
f  557/557 558/558 561/561 560/560
f  559/559 560/560 563/563 562/562
f  560/560 561/561 564/564 563/563
f  562/562 563/563 566/566 565/565
f  563/563 564/564 567/567 566/566
f  565/565 566/566 569/569 568/568
f  566/566 567/567 570/570 569/569
f  568/568 569/569 572/572 571/571
f  569/569 570/570 573/573 572/572
f  571/571 572/572 575/575 574/574
f  572/572 573/573 576/576 575/575
f  574/574 575/575 578/578 577/577
f  575/575 576/576 579/579 578/578
f  577/577 578/578 581/581 580/580
f  578/578 579/579 582/582 581/581
f  580/580 581/581 584/584 583/583
f  581/581 582/582 585/585 584/584
f  583/583 584/584 587/587 586/586
f  584/584 585/585 588/588 587/587
f  586/586 587/587 590/590 589/589
f  587/587 588/588 591/591 590/590
f  589/589 590/590 593/593 592/592
f  590/590 591/591 594/594 593/593
f  592/592 593/593 596/596 595/595
f  593/593 594/594 597/597 596/596
f  595/595 596/596 599/599 598/598
f  596/596 597/597 600/600 599/599
f  598/598 599/599 602/602 601/601
f  599/599 600/600 603/603 602/602
f  601/601 602/602 605/605 604/604
f  602/602 603/603 606/606 605/605
f  604/604 605/605 608/608 607/607
f  605/605 606/606 609/609 608/608
f  607/607 608/608 611/611 610/610
f  608/608 609/609 612/612 611/611
f  610/610 611/611 614/614 613/613
f  611/611 612/612 615/615 614/614
f  613/613 614/614 617/617 616/616
f  614/614 615/615 618/618 617/617
f  616/616 617/617 620/620 619/619
f  617/617 618/618 621/621 620/620
f  619/619 620/620 623/623 622/622
f  620/620 621/621 624/624 623/623
f  622/622 623/623 626/626 625/625
f  623/623 624/624 627/627 626/626
f  625/625 626/626 629/629 628/628
f  626/626 627/627 630/630 629/629
f  628/628 629/629 632/632 631/631
f  629/629 630/630 633/633 632/632
f  631/631 632/632 635/635 634/634
f  632/632 633/633 636/636 635/635
f  634/634 635/635 638/638 637/637
f  635/635 636/636 639/639 638/638
f  637/637 638/638 641/641 640/640
f  638/638 639/639 642/642 641/641
f  640/640 641/641 644/644 643/643
f  641/641 642/642 645/645 644/644
f  643/643 644/644 647/647 646/646
f  644/644 645/645 648/648 647/647
f  646/646 647/647 650/650 649/649
f  647/647 648/648 651/651 650/650
f  649/649 650/650 653/653 652/652
f  650/650 651/651 654/654 653/653
f  652/652 653/653 656/656 655/655
f  653/653 654/654 657/657 656/656
f  655/655 656/656 659/659 658/658
f  656/656 657/657 660/660 659/659
f  658/658 659/659 662/662 661/661
f  659/659 660/660 663/663 662/662
f  661/661 662/662 665/665 664/664
f  662/662 663/663 666/666 665/665
f  664/664 665/665 668/668 667/667
f  665/665 666/666 669/669 668/668
f  667/667 668/668 671/671 670/670
f  668/668 669/669 672/672 671/671
f  670/670 671/671 674/674 673/673
f  671/671 672/672 675/675 674/674
f  673/673 674/674 677/677 676/676
f  674/674 675/675 678/678 677/677
f  676/676 677/677 680/680 679/679
f  677/677 678/678 681/681 680/680
g g2
s 2
g g3
s 3
g g4
s 4
