# Shape file for lane 3
v 11.454 -49.687 0.200
vt 0.000 0.000
v 29.684 -41.459 -0.300
vt 1.000 0.000
v 10.632 -47.864 0.200
vt 0.000 0.040
v 28.861 -39.636 -0.300
vt 1.000 0.040
v 9.809 -46.041 0.200
vt 0.000 0.080
v 28.038 -37.813 -0.300
vt 1.000 0.080
v 8.986 -44.218 0.200
vt 0.000 0.120
v 27.215 -35.991 -0.300
vt 1.000 0.120
v 8.163 -42.395 0.200
vt 0.000 0.160
v 26.393 -34.168 -0.300
vt 1.000 0.160
v 7.341 -40.572 0.200
vt 0.000 0.200
v 25.570 -32.345 -0.300
vt 1.000 0.200
v 6.518 -38.749 0.200
vt 0.000 0.240
v 24.747 -30.522 -0.300
vt 1.000 0.240
v 5.695 -36.926 0.200
vt 0.000 0.280
v 23.924 -28.699 -0.300
vt 1.000 0.280
v 4.872 -35.104 0.200
vt 0.000 0.320
v 23.102 -26.876 -0.300
vt 1.000 0.320
v 4.050 -33.281 0.200
vt 0.000 0.360
v 22.279 -25.053 -0.300
vt 1.000 0.360
v 3.227 -31.458 0.200
vt 0.000 0.400
v 21.456 -23.230 -0.300
vt 1.000 0.400
v 2.404 -29.635 0.200
vt 0.000 0.440
v 20.633 -21.407 -0.300
vt 1.000 0.440
v 1.581 -27.812 0.200
vt 0.000 0.480
v 19.811 -19.584 -0.300
vt 1.000 0.480
v 0.759 -25.989 0.200
vt 0.000 0.520
v 18.988 -17.761 -0.300
vt 1.000 0.520
v -0.064 -24.166 0.200
vt 0.000 0.560
v 18.165 -15.938 -0.300
vt 1.000 0.560
v -0.887 -22.343 0.200
vt 0.000 0.600
v 17.342 -14.115 -0.300
vt 1.000 0.600
v -1.710 -20.520 0.200
vt 0.000 0.640
v 16.520 -12.293 -0.300
vt 1.000 0.640
v -2.533 -18.697 0.200
vt 0.000 0.680
v 15.697 -10.470 -0.300
vt 1.000 0.680
v -3.355 -16.874 0.200
vt 0.000 0.720
v 14.874 -8.647 -0.300
vt 1.000 0.720
v -4.178 -15.051 0.200
vt 0.000 0.760
v 14.051 -6.824 -0.300
vt 1.000 0.760
v -5.001 -13.228 0.200
vt 0.000 0.800
v 13.228 -5.001 -0.300
vt 1.000 0.800
v -5.824 -11.406 0.200
vt 0.000 0.840
v 12.406 -3.178 -0.300
vt 1.000 0.840
v -6.646 -9.583 0.200
vt 0.000 0.880
v 11.583 -1.355 -0.300
vt 1.000 0.880
v -7.469 -7.760 0.200
vt 0.000 0.920
v 10.760 0.468 -0.300
vt 1.000 0.920
v -8.292 -5.937 0.200
vt 0.000 0.960
v 9.937 2.291 -0.300
vt 1.000 0.960
v -9.115 -4.114 0.200
vt 0.000 1.000
v 9.115 4.114 -0.300
vt 1.000 1.000
v -10.088 -1.931 0.200
vt 0.000 1.040
v 8.448 5.580 -0.300
vt 1.000 1.040
v -10.739 -1.314 0.200
vt 0.000 1.080
v 6.846 8.213 -0.300
vt 1.000 1.080
v -10.563 -0.849 0.200
vt 0.000 1.120
v 5.196 11.465 -0.300
vt 1.000 1.120
v -11.854 0.823 0.200
vt 0.000 1.160
v 4.103 12.881 -0.300
vt 1.000 1.160
v -14.098 4.381 0.200
vt 0.000 1.200
v 4.136 12.598 -0.300
vt 1.000 1.200
v -14.078 4.115 0.200
vt 0.000 1.240
v 1.905 16.137 -0.300
vt 1.000 1.240
v -14.908 5.407 0.200
vt 0.000 1.280
v 0.528 18.123 -0.300
vt 1.000 1.280
v -15.770 6.768 0.200
vt 0.000 1.320
v -0.812 20.044 -0.300
vt 1.000 1.320
v -17.740 10.090 0.200
vt 0.000 1.360
v -0.557 20.323 -0.300
vt 1.000 1.360
v -19.272 12.494 0.200
vt 0.000 1.400
v -1.257 21.181 -0.300
vt 1.000 1.400
v -20.723 14.831 0.200
vt 0.000 1.440
v -2.083 22.081 -0.300
vt 1.000 1.440
v -19.697 13.246 0.200
vt 0.000 1.480
v -5.195 27.019 -0.300
vt 1.000 1.480
v -22.160 17.245 0.200
vt 0.000 1.520
v -4.481 26.598 -0.300
vt 1.000 1.520
v -23.786 19.922 0.200
vt 0.000 1.560
v -5.140 27.154 -0.300
vt 1.000 1.560
v -22.776 18.342 0.200
vt 0.000 1.600
v -8.244 32.082 -0.300
vt 1.000 1.600
v -25.444 23.008 0.200
vt 0.000 1.640
v -7.142 31.071 -0.300
vt 1.000 1.640
v -26.740 24.942 0.200
vt 0.000 1.680
v -8.164 32.353 -0.300
vt 1.000 1.680
v -25.371 23.185 0.200
vt 0.000 1.720
v -11.467 37.562 -0.300
vt 1.000 1.720
v -28.574 28.243 0.200
vt 0.000 1.760
v -10.139 35.997 -0.300
vt 1.000 1.760
v -29.793 30.004 0.200
vt 0.000 1.800
v -11.232 37.453 -0.300
vt 1.000 1.800
v -30.818 32.676 0.200
vt 0.000 1.840
v -11.686 38.504 -0.300
vt 1.000 1.840
v -31.520 33.166 0.200
vt 0.000 1.880
v -13.231 41.259 -0.300
vt 1.000 1.880
v -32.439 35.327 0.200
vt 0.000 1.920
v -13.882 42.786 -0.300
vt 1.000 1.920
v -33.488 36.672 0.200
vt 0.000 1.960
v -15.151 44.655 -0.300
vt 1.000 1.960
v -32.331 35.575 0.200
vt 0.000 2.000
v -17.882 49.402 -0.300
vt 1.000 2.000
v -35.271 40.048 0.200
vt 0.000 2.040
v -17.042 48.275 -0.300
vt 1.000 2.040
v -34.153 38.861 0.200
vt 0.000 2.080
v -19.994 52.986 -0.300
vt 1.000 2.080
v -37.157 43.372 0.200
vt 0.000 2.120
v -19.045 51.854 -0.300
vt 1.000 2.120
v -36.335 42.763 0.200
vt 0.000 2.160
v -21.443 56.114 -0.300
vt 1.000 2.160
v -39.255 47.430 0.200
vt 0.000 2.200
v -20.652 54.773 -0.300
vt 1.000 2.200
v -39.775 47.764 0.200
vt 0.000 2.240
v -22.405 57.679 -0.300
vt 1.000 2.240
v -41.438 51.623 0.200
vt 0.000 2.280
v -22.320 57.498 -0.300
vt 1.000 2.280
v -41.127 50.481 0.200
vt 0.000 2.320
v -24.742 61.950 -0.300
vt 1.000 2.320
v -43.011 54.245 0.200
vt 0.000 2.360
v -24.505 61.831 -0.300
vt 1.000 2.360
v -43.315 54.284 0.200
vt 0.000 2.400
v -26.454 65.042 -0.300
vt 1.000 2.400
v -44.912 57.825 0.200
vt 0.000 2.440
v -26.329 65.219 -0.300
vt 1.000 2.440
v -44.649 57.063 0.200
vt 0.000 2.480
v -28.797 69.259 -0.300
vt 1.000 2.480
v -45.660 59.093 0.200
vt 0.000 2.520
v -29.479 70.848 -0.300
vt 1.000 2.520
v -47.979 62.924 0.200
vt 0.000 2.560
v -29.383 70.284 -0.300
vt 1.000 2.560
v -47.974 63.301 0.200
vt 0.000 2.600
v -30.848 73.631 -0.300
vt 1.000 2.600
v -49.829 66.374 0.200
vt 0.000 2.640
v -31.259 73.801 -0.300
vt 1.000 2.640
v -49.734 66.449 0.200
vt 0.000 2.680
v -32.985 77.379 -0.300
vt 1.000 2.680
v -52.007 70.696 0.200
vt 0.000 2.720
v -32.847 76.430 -0.300
vt 1.000 2.720
v -52.338 71.284 0.200
vt 0.000 2.760
v -34.109 79.511 -0.300
vt 1.000 2.760
v -51.744 70.386 0.200
vt 0.000 2.800
v -36.844 83.728 -0.300
vt 1.000 2.800
v -54.525 75.529 0.200
vt 0.000 2.840
v -35.678 82.222 -0.300
vt 1.000 2.840
v -53.251 73.558 0.200
vt 0.000 2.880
v -38.984 87.575 -0.300
vt 1.000 2.880
v -56.140 78.221 0.200
vt 0.000 2.920
v -37.911 86.449 -0.300
vt 1.000 2.920
v -55.402 77.187 0.200
vt 0.000 2.960
v -40.766 90.817 -0.300
vt 1.000 2.960
v -57.992 81.754 0.200
vt 0.000 3.000
v -39.732 89.913 -0.300
vt 1.000 3.000
v -59.318 83.761 0.200
vt 0.000 3.040
v -40.722 91.121 -0.300
vt 1.000 3.040
v -59.951 85.167 0.200
vt 0.000 3.080
v -41.713 93.374 -0.300
vt 1.000 3.080
v -58.561 83.751 0.200
vt 0.000 3.120
v -44.860 98.321 -0.300
vt 1.000 3.120
v -61.802 88.645 0.200
vt 0.000 3.160
v -43.572 96.871 -0.300
vt 1.000 3.160
v -60.578 87.222 0.200
vt 0.000 3.200
v -46.791 101.711 -0.300
vt 1.000 3.200
v -63.639 92.092 0.200
vt 0.000 3.240
v -45.445 100.399 -0.300
vt 1.000 3.240
v -62.462 90.810 0.200
vt 0.000 3.280
v -48.530 105.159 -0.300
vt 1.000 3.280
v -65.557 95.469 0.200
vt 0.000 3.320
v -47.429 103.919 -0.300
vt 1.000 3.320
v -66.520 97.906 0.200
vt 0.000 3.360
v -47.904 105.216 -0.300
vt 1.000 3.360
v -67.457 98.996 0.200
vt 0.000 3.400
v -49.282 107.344 -0.300
vt 1.000 3.400
v -68.737 102.254 0.200
vt 0.000 3.440
v -49.519 107.792 -0.300
vt 1.000 3.440
v -69.034 101.923 0.200
vt 0.000 3.480
v -51.417 111.392 -0.300
vt 1.000 3.480
v -70.354 104.901 0.200
vt 0.000 3.520
v -51.691 112.089 -0.300
vt 1.000 3.520
v -71.126 105.659 0.200
vt 0.000 3.560
v -53.214 114.557 -0.300
vt 1.000 3.560
v -72.540 109.160 0.200
vt 0.000 3.600
v -53.338 114.754 -0.300
vt 1.000 3.600
v -72.624 108.499 0.200
vt 0.000 3.640
v -55.419 118.697 -0.300
vt 1.000 3.640
v -74.145 111.799 0.200
vt 0.000 3.680
v -55.510 119.063 -0.300
vt 1.000 3.680
v -74.706 112.183 0.200
vt 0.000 3.720
v -57.232 121.912 -0.300
vt 1.000 3.720
v -74.848 113.099 0.200
vt 0.000 3.760
v -58.565 124.711 -0.300
vt 1.000 3.760
v -76.927 116.428 0.200
vt 0.000 3.800
v -58.698 124.656 -0.300
vt 1.000 3.800
v -76.359 115.960 0.200
vt 0.000 3.840
v -60.970 128.734 -0.300
vt 1.000 3.840
v -79.082 120.401 0.200
vt 0.000 3.880
v -60.419 127.591 -0.300
vt 1.000 3.880
v -78.695 120.119 0.200
vt 0.000 3.920
v -62.303 131.577 -0.300
vt 1.000 3.920
v -80.802 123.530 0.200
vt 0.000 3.960
v -62.428 131.429 -0.300
vt 1.000 3.960
v -80.495 122.848 0.200
vt 0.000 4.000
v -64.923 135.399 -0.300
vt 1.000 4.000
v -82.852 127.248 0.200
vt 0.000 4.040
v -64.258 134.616 -0.300
vt 1.000 4.040
v -81.794 125.753 0.200
vt 0.000 4.080
v -67.276 139.509 -0.300
vt 1.000 4.080
v -84.530 130.304 0.200
vt 0.000 4.120
v -66.301 138.531 -0.300
vt 1.000 4.120
v -84.043 129.513 0.200
vt 0.000 4.160
v -68.946 142.630 -0.300
vt 1.000 4.160
v -86.069 132.974 0.200
vt 0.000 4.200
v -68.634 142.772 -0.300
vt 1.000 4.200
v -87.682 135.802 0.200
vt 0.000 4.240
v -69.147 143.313 -0.300
vt 1.000 4.240
v -88.036 136.684 0.200
vt 0.000 4.280
v -70.392 146.102 -0.300
vt 1.000 4.280
v -89.677 139.389 0.200
vt 0.000 4.320
v -71.034 146.631 -0.300
vt 1.000 4.320
v -90.427 141.304 0.200
vt 0.000 4.360
v -71.744 148.442 -0.300
vt 1.000 4.360
v -91.546 142.877 0.200
vt 0.000 4.400
v -72.899 150.106 -0.300
vt 1.000 4.400
v -90.232 141.071 0.200
vt 0.000 4.440
v -76.205 155.327 -0.300
vt 1.000 4.440
v -93.265 145.837 0.200
vt 0.000 4.480
v -75.036 154.065 -0.300
vt 1.000 4.480
v -92.985 145.534 0.200
vt 0.000 4.520
v -77.233 157.857 -0.300
vt 1.000 4.520
v -95.138 149.351 0.200
vt 0.000 4.560
v -76.909 157.579 -0.300
vt 1.000 4.560
v -93.998 148.010 0.200
vt 0.000 4.600
v -80.044 162.337 -0.300
vt 1.000 4.600
v -97.103 152.895 0.200
vt 0.000 4.640
v -78.799 160.955 -0.300
vt 1.000 4.640
v -98.176 154.558 0.200
vt 0.000 4.680
v -79.884 162.645 -0.300
vt 1.000 4.680
v -99.091 156.693 0.200
vt 0.000 4.720
v -80.550 164.190 -0.300
vt 1.000 4.720
v -100.208 158.206 0.200
vt 0.000 4.760
v -81.745 165.895 -0.300
vt 1.000 4.760
v -100.950 159.935 0.200
vt 0.000 4.800
v -82.582 167.847 -0.300
vt 1.000 4.800
v -101.952 161.437 0.200
vt 0.000 4.840
v -83.738 169.698 -0.300
vt 1.000 4.840
v -100.782 160.209 0.200
vt 0.000 4.880
v -86.738 174.449 -0.300
vt 1.000 4.880
v -103.886 164.914 0.200
vt 0.000 4.920
v -85.657 173.141 -0.300
vt 1.000 4.920
v -102.580 163.483 0.200
vt 0.000 4.960
v -88.872 178.046 -0.300
vt 1.000 4.960
v -105.968 168.967 0.200
vt 0.000 5.000
v -87.272 176.070 -0.300
vt 1.000 5.000
v -106.570 169.390 0.200
vt 0.000 5.040
v -88.963 178.876 -0.300
vt 1.000 5.040
v -107.895 172.376 0.200
vt 0.000 5.080
v -89.232 179.566 -0.300
vt 1.000 5.080
v -108.606 173.012 0.200
vt 0.000 5.120
v -90.819 182.155 -0.300
vt 1.000 5.120
v -109.771 175.896 0.200
vt 0.000 5.160
v -91.080 183.012 -0.300
vt 1.000 5.160
v -110.159 175.965 0.200
vt 0.000 5.200
v -92.966 186.183 -0.300
vt 1.000 5.200
v -109.895 176.231 0.200
vt 0.000 5.240
v -94.946 189.518 -0.300
vt 1.000 5.240
v -112.608 180.419 0.200
vt 0.000 5.280
v -94.378 188.646 -0.300
vt 1.000 5.280
v -112.451 180.460 0.200
vt 0.000 5.320
v -96.263 192.205 -0.300
vt 1.000 5.320
v -114.545 184.077 0.200
vt 0.000 5.360
v -96.188 192.016 -0.300
vt 1.000 5.360
v -114.648 183.908 0.200
vt 0.000 5.400
v -98.313 195.449 -0.300
vt 1.000 5.400
v -116.551 187.688 0.200
vt 0.000 5.440
v -98.061 195.312 -0.300
vt 1.000 5.440
v -117.126 188.191 0.200
vt 0.000 5.480
v -99.732 198.063 -0.300
vt 1.000 5.480
v -118.274 190.851 0.200
vt 0.000 5.520
v -100.062 199.117 -0.300
vt 1.000 5.520
v -118.162 190.484 0.200
vt 0.000 5.560
v -102.376 202.764 -0.300
vt 1.000 5.560
v -119.221 192.576 0.200
vt 0.000 5.600
v -103.010 204.290 -0.300
vt 1.000 5.600
v -121.713 197.117 0.200
vt 0.000 5.640
v -102.618 203.065 -0.300
vt 1.000 5.640
v -121.584 196.868 0.200
vt 0.000 5.680
v -104.333 206.988 -0.300
vt 1.000 5.680
v -123.382 199.850 0.200
vt 0.000 5.720
v -104.801 207.249 -0.300
vt 1.000 5.720
v -123.315 199.964 0.200
vt 0.000 5.760
v -106.498 210.790 -0.300
vt 1.000 5.760
v -125.559 204.170 0.200
vt 0.000 5.800
v -106.392 209.880 -0.300
vt 1.000 5.800
v -124.089 201.692 0.200
vt 0.000 5.840
v -109.868 215.754 -0.300
vt 1.000 5.840
v -127.004 206.375 0.200
vt 0.000 5.880
v -108.775 214.603 -0.300
vt 1.000 5.880
v -126.174 205.261 0.200
vt 0.000 5.920
v -111.702 219.066 -0.300
vt 1.000 5.920
v -129.194 210.686 0.200
vt 0.000 5.960
v -110.307 217.267 -0.300
vt 1.000 5.960
v -130.176 211.896 0.200
vt 0.000 6.000
v -111.594 219.293 -0.300
vt 1.000 6.000
v -130.788 213.329 0.200
vt 0.000 6.040
v -112.554 221.547 -0.300
vt 1.000 6.040
v -132.127 215.365 0.200
vt 0.000 6.080
v -113.531 222.728 -0.300
vt 1.000 6.080
v -132.752 217.059 0.200
vt 0.000 6.120
v -114.306 224.789 -0.300
vt 1.000 6.120
v -133.926 218.699 0.200
vt 0.000 6.160
v -115.453 226.364 -0.300
vt 1.000 6.160
v -132.580 217.080 0.200
vt 0.000 6.200
v -118.687 231.466 -0.300
vt 1.000 6.200
v -135.688 221.785 0.200
vt 0.000 6.240
v -117.544 230.200 -0.300
vt 1.000 6.240
v -134.480 220.684 0.200
vt 0.000 6.280
v -120.410 234.898 -0.300
vt 1.000 6.280
v -137.790 225.888 0.200
vt 0.000 6.320
v -119.130 233.084 -0.300
vt 1.000 6.320
v -138.651 226.823 0.200
vt 0.000 6.360
v -120.570 235.372 -0.300
vt 1.000 6.360
v -139.713 229.302 0.200
vt 0.000 6.400
v -121.084 236.579 -0.300
vt 1.000 6.400
v -140.920 231.106 0.200
vt 0.000 6.440
v -122.150 238.011 -0.300
vt 1.000 6.440
v -141.594 232.821 0.200
vt 0.000 6.480
v -122.936 240.023 -0.300
vt 1.000 6.480
v -142.305 233.467 0.200
vt 0.000 6.520
v -124.515 242.606 -0.300
vt 1.000 6.520
v -141.374 232.759 0.200
vt 0.000 6.560
v -127.212 246.881 -0.300
vt 1.000 6.560
v -144.491 237.712 0.200
vt 0.000 6.600
v -126.009 245.354 -0.300
vt 1.000 6.600
v -143.667 236.777 0.200
vt 0.000 6.640
v -128.561 249.885 -0.300
vt 1.000 6.640
v -146.449 241.204 0.200
vt 0.000 6.680
v -127.934 248.768 -0.300
vt 1.000 6.680
v -146.765 241.257 0.200
vt 0.000 6.720
v -129.872 251.963 -0.300
vt 1.000 6.720
v -148.342 244.764 0.200
vt 0.000 6.760
v -129.766 252.175 -0.300
vt 1.000 6.760
v -148.102 244.035 0.200
vt 0.000 6.800
v -132.213 256.181 -0.300
vt 1.000 6.800
v -150.180 247.969 0.200
vt 0.000 6.840
v -131.809 255.876 -0.300
vt 1.000 6.840
v -150.301 247.817 0.200
vt 0.000 6.880
v -133.919 259.290 -0.300
vt 1.000 6.880
v -152.191 251.813 0.200
vt 0.000 6.920
v -133.527 258.998 -0.300
vt 1.000 6.920
v -151.634 250.663 0.200
vt 0.000 6.960
v -136.254 263.448 -0.300
vt 1.000 6.960
v -153.149 253.366 0.200
vt 0.000 7.000
v -136.439 264.357 -0.300
vt 1.000 7.000
v -155.248 256.886 0.200
vt 0.000 7.040
v -136.590 264.089 -0.300
vt 1.000 7.040
v -155.381 257.496 0.200
vt 0.000 7.080
v -137.900 267.213 -0.300
vt 1.000 7.080
v -157.099 260.340 0.200
vt 0.000 7.120
v -138.464 267.602 -0.300
vt 1.000 7.120
v -157.194 260.713 0.200
vt 0.000 7.160
v -139.980 270.895 -0.300
vt 1.000 7.160
v -159.071 263.867 0.200
vt 0.000 7.200
v -140.378 270.980 -0.300
vt 1.000 7.200
v -157.550 261.929 0.200
vt 0.000 7.240
v -143.737 276.393 -0.300
vt 1.000 7.240
v -160.692 266.800 0.200
vt 0.000 7.280
v -142.462 275.025 -0.300
vt 1.000 7.280
v -159.730 265.577 0.200
vt 0.000 7.320
v -145.487 279.618 -0.300
vt 1.000 7.320
v -162.670 270.320 0.200
vt 0.000 7.360
v -144.377 278.405 -0.300
vt 1.000 7.360
v -161.275 268.831 0.200
vt 0.000 7.400
v -147.570 283.397 -0.300
vt 1.000 7.400
v -164.551 273.925 0.200
vt 0.000 7.440
v -146.166 281.798 -0.300
vt 1.000 7.440
v -165.808 275.781 0.200
vt 0.000 7.480
v -147.219 283.160 -0.300
vt 1.000 7.480
v -166.415 277.186 0.200
vt 0.000 7.520
v -148.195 285.434 -0.300
vt 1.000 7.520
v -167.566 279.025 0.200
vt 0.000 7.560
v -149.202 286.948 -0.300
vt 1.000 7.560
v -168.408 280.990 0.200
vt 0.000 7.600
v -149.940 288.665 -0.300
vt 1.000 7.600
v -169.598 282.682 0.200
vt 0.000 7.640
v -151.061 290.191 -0.300
vt 1.000 7.640
v -169.098 282.035 0.200
vt 0.000 7.680
v -153.369 294.388 -0.300
vt 1.000 7.680
v -171.299 285.846 0.200
vt 0.000 7.720
v -153.070 294.074 -0.300
vt 1.000 7.720
v -170.106 284.543 0.200
vt 0.000 7.760
v -156.149 298.868 -0.300
vt 1.000 7.760
v -173.192 289.183 0.200
vt 0.000 7.800
v -155.068 297.639 -0.300
vt 1.000 7.800
v -172.125 288.267 0.200
vt 0.000 7.840
v -157.756 302.178 -0.300
vt 1.000 7.840
v -175.101 292.784 0.200
vt 0.000 7.880
v -156.872 301.012 -0.300
vt 1.000 7.880
v -173.966 291.573 0.200
vt 0.000 7.920
v -159.850 305.742 -0.300
vt 1.000 7.920
v -177.187 296.597 0.200
vt 0.000 7.960
v -158.652 304.112 -0.300
vt 1.000 7.960
v -177.781 297.277 0.200
vt 0.000 8.000
v -160.192 306.797 -0.300
vt 1.000 8.000
v -179.115 300.245 0.200
vt 0.000 8.040
v -160.474 307.492 -0.300
vt 1.000 8.040
v -179.749 300.760 0.200
vt 0.000 8.080
v -162.123 310.210 -0.300
vt 1.000 8.080
v -181.298 304.467 0.200
vt 0.000 8.120
v -162.134 310.190 -0.300
vt 1.000 8.120
v -181.171 303.533 0.200
vt 0.000 8.160
v -164.396 314.422 -0.300
vt 1.000 8.160
v -181.295 304.355 0.200
vt 0.000 8.200
v -165.973 317.211 -0.300
vt 1.000 8.200
v -183.836 308.319 0.200
vt 0.000 8.240
v -165.606 316.545 -0.300
vt 1.000 8.240
v -183.749 308.477 0.200
vt 0.000 8.280
v -167.401 319.998 -0.300
vt 1.000 8.280
v -185.722 311.860 0.200
vt 0.000 8.320
v -167.467 320.031 -0.300
vt 1.000 8.320
v -185.237 311.494 0.200
vt 0.000 8.360
v -169.642 324.016 -0.300
vt 1.000 8.360
v -187.697 315.391 0.200
vt 0.000 8.400
v -169.373 323.406 -0.300
vt 1.000 8.400
v -187.793 315.425 0.200
vt 0.000 8.440
v -171.329 326.781 -0.300
vt 1.000 8.440
v -189.524 318.799 0.200
vt 0.000 8.480
v -171.294 327.026 -0.300
vt 1.000 8.480
v -189.297 318.289 0.200
vt 0.000 8.520
v -173.711 330.822 -0.300
vt 1.000 8.520
v -191.476 322.277 0.200
vt 0.000 8.560
v -173.224 330.453 -0.300
vt 1.000 8.560
v -191.542 322.310 0.200
vt 0.000 8.600
v -175.197 333.836 -0.300
vt 1.000 8.600
v -192.825 324.803 0.200
vt 0.000 8.640
v -175.600 334.967 -0.300
vt 1.000 8.640
v -194.633 327.800 0.200
vt 0.000 8.680
v -176.058 335.212 -0.300
vt 1.000 8.680
v -194.553 327.896 0.200
vt 0.000 8.720
v -177.768 338.770 -0.300
vt 1.000 8.720
v -196.811 332.121 0.200
vt 0.000 8.760
v -177.647 337.843 -0.300
vt 1.000 8.760
v -196.825 332.107 0.200
vt 0.000 8.800
v -179.192 341.544 -0.300
vt 1.000 8.800
v -198.471 334.819 0.200
vt 0.000 8.840
v -179.830 342.065 -0.300
vt 1.000 8.840
v -197.438 333.227 0.200
vt 0.000 8.880
v -182.948 347.012 -0.300
vt 1.000 8.880
v -200.471 338.633 0.200
vt 0.000 8.920
v -181.584 345.210 -0.300
vt 1.000 8.920
v -199.030 336.505 0.200
vt 0.000 8.960
v -184.998 350.757 -0.300
vt 1.000 8.960
v -202.035 341.272 0.200
vt 0.000 9.000
v -183.814 349.519 -0.300
vt 1.000 9.000
v -203.399 343.384 0.200
vt 0.000 9.040
v -184.756 350.627 -0.300
vt 1.000 9.040
v -204.321 345.773 0.200
vt 0.000 9.080
v -185.303 351.964 -0.300
vt 1.000 9.080
v -205.183 346.665 0.200
vt 0.000 9.120
v -186.702 354.311 -0.300
vt 1.000 9.120
v -203.835 345.035 0.200
vt 0.000 9.160
v -189.942 359.423 -0.300
vt 1.000 9.160
v -206.980 349.837 0.200
vt 0.000 9.200
v -188.751 358.065 -0.300
vt 1.000 9.200
v -205.732 348.402 0.200
vt 0.000 9.240
v -191.981 362.925 -0.300
vt 1.000 9.240
v -209.028 353.820 0.200
vt 0.000 9.280
v -190.388 361.070 -0.300
vt 1.000 9.280
v -209.912 354.795 0.200
vt 0.000 9.320
v -191.817 363.314 -0.300
vt 1.000 9.320
v -210.964 357.253 0.200
vt 0.000 9.360
v -192.339 364.541 -0.300
vt 1.000 9.360
v -211.897 358.335 0.200
vt 0.000 9.400
v -193.720 366.677 -0.300
vt 1.000 9.400
v -210.993 357.632 0.200
vt 0.000 9.440
v -196.164 371.052 -0.300
vt 1.000 9.440
v -213.760 361.890 0.200
vt 0.000 9.480
v -195.531 370.118 -0.300
vt 1.000 9.480
v -212.736 360.829 0.200
vt 0.000 9.520
v -198.353 374.727 -0.300
vt 1.000 9.520
v -215.646 365.217 0.200
vt 0.000 9.560
v -197.531 373.693 -0.300
vt 1.000 9.560
v -215.035 364.877 0.200
vt 0.000 9.600
v -199.691 377.705 -0.300
vt 1.000 9.600
v -217.705 369.169 0.200
vt 0.000 9.640
v -199.184 376.717 -0.300
vt 1.000 9.640
v -218.057 369.273 0.200
vt 0.000 9.680
v -201.089 379.861 -0.300
vt 1.000 9.680
v -219.631 372.587 0.200
vt 0.000 9.720
v -201.139 380.204 -0.300
vt 1.000 9.720
v -219.906 372.777 0.200
vt 0.000 9.760
v -202.960 383.399 -0.300
vt 1.000 9.760
v -220.210 373.811 0.200
vt 0.000 9.800
v -204.344 385.987 -0.300
vt 1.000 9.800
v -222.495 377.423 0.200
vt 0.000 9.840
v -204.266 385.652 -0.300
vt 1.000 9.840
v -221.938 376.970 0.200
vt 0.000 9.880
v -206.525 389.716 -0.300
vt 1.000 9.880
v -224.715 381.574 0.200
vt 0.000 9.920
v -205.919 388.410 -0.300
vt 1.000 9.920
v -223.793 380.034 0.200
vt 0.000 9.960
v -208.845 393.320 -0.300
vt 1.000 9.960
v -226.296 384.361 0.200
vt 0.000 10.000
v -208.067 392.589 -0.300
vt 1.000 10.000
v 3.126 12.143 -0.269
vt 0.939 1.160
v 3.126 12.143 -0.272
vt 0.945 1.200
v -13.168 4.800 0.174
vt 0.051 1.200
v -13.168 4.800 0.172
vt 0.057 1.240
v -16.159 16.606 0.078
vt 0.245 1.440
v -16.159 16.606 0.078
vt 0.244 1.480
v -7.094 25.216 -0.235
vt 0.869 1.480
v -7.094 25.216 -0.226
vt 0.852 1.520
v -19.241 21.685 0.078
vt 0.244 1.560
v -19.241 21.685 0.078
vt 0.243 1.600
v -11.208 29.280 -0.198
vt 0.796 1.600
v -11.208 29.280 -0.189
vt 0.778 1.640
v -21.745 26.934 0.066
vt 0.269 1.680
v -21.745 26.934 0.070
vt 0.261 1.720
v -14.930 33.982 -0.175
vt 0.751 1.720
v -14.930 33.982 -0.170
vt 0.740 1.760
v -29.262 38.512 0.085
vt 0.230 1.960
v -29.262 38.512 0.094
vt 0.212 2.000
v -20.861 46.552 -0.197
vt 0.794 2.000
v -20.861 46.552 -0.195
vt 0.791 2.040
v -31.058 41.949 0.084
vt 0.231 2.040
v -31.058 41.949 0.091
vt 0.219 2.080
v -22.974 50.013 -0.195
vt 0.790 2.080
v -22.974 50.013 -0.192
vt 0.783 2.120
v -34.015 44.843 0.113
vt 0.173 2.120
v -34.015 44.843 0.122
vt 0.156 2.160
v -24.738 53.161 -0.189
vt 0.779 2.160
v -24.738 53.161 -0.190
vt 0.780 2.200
v -23.192 57.230 -0.277
vt 0.955 2.240
v -23.192 57.230 -0.277
vt 0.954 2.280
v -37.975 52.687 0.109
vt 0.181 2.280
v -37.975 52.687 0.104
vt 0.192 2.320
v -25.485 61.430 -0.277
vt 0.955 2.320
v -25.485 61.430 -0.274
vt 0.947 2.360
v -42.316 58.858 0.130
vt 0.140 2.440
v -42.316 58.858 0.126
vt 0.147 2.480
v -31.299 69.525 -0.244
vt 0.888 2.520
v -31.299 69.525 -0.248
vt 0.897 2.560
v -35.789 75.550 -0.216
vt 0.833 2.680
v -35.789 75.550 -0.223
vt 0.846 2.720
v -49.119 72.737 0.112
vt 0.177 2.760
v -49.119 72.737 0.112
vt 0.176 2.800
v -40.397 80.546 -0.181
vt 0.762 2.800
v -40.397 80.546 -0.175
vt 0.750 2.840
v -49.388 77.354 0.064
vt 0.273 2.840
v -49.388 77.354 0.065
vt 0.271 2.880
v -42.016 84.596 -0.194
vt 0.787 2.880
v -42.016 84.596 -0.187
vt 0.775 2.920
v -52.554 79.840 0.102
vt 0.197 2.920
v -52.554 79.840 0.103
vt 0.195 2.960
v -43.587 88.190 -0.204
vt 0.807 2.960
v -43.587 88.190 -0.194
vt 0.789 3.000
v -55.232 87.291 0.071
vt 0.259 3.080
v -55.232 87.291 0.079
vt 0.243 3.120
v -48.176 94.794 -0.179
vt 0.758 3.120
v -48.176 94.794 -0.174
vt 0.747 3.160
v -57.285 90.684 0.076
vt 0.248 3.160
v -57.285 90.684 0.081
vt 0.239 3.200
v -50.032 98.305 -0.182
vt 0.765 3.200
v -50.032 98.305 -0.174
vt 0.748 3.240
v -59.289 94.079 0.080
vt 0.239 3.240
v -59.289 94.079 0.086
vt 0.228 3.280
v -51.639 101.956 -0.188
vt 0.777 3.280
v -51.639 101.956 -0.184
vt 0.768 3.320
v -68.050 102.452 0.182
vt 0.036 3.440
v -68.050 102.452 0.172
vt 0.056 3.480
v -70.514 109.750 0.147
vt 0.106 3.600
v -70.514 109.750 0.139
vt 0.123 3.640
v -74.446 117.548 0.132
vt 0.136 3.800
v -74.446 117.548 0.138
vt 0.124 3.840
v -64.018 126.204 -0.201
vt 0.802 3.840
v -64.018 126.204 -0.204
vt 0.807 3.880
v -77.322 121.079 0.153
vt 0.094 3.880
v -77.322 121.079 0.158
vt 0.084 3.920
v -62.655 131.331 -0.289
vt 0.979 3.920
v -62.655 131.331 -0.294
vt 0.988 3.960
v -78.332 124.592 0.133
vt 0.134 3.960
v -78.332 124.592 0.131
vt 0.139 4.000
v -67.475 133.342 -0.218
vt 0.836 4.000
v -67.475 133.342 -0.213
vt 0.827 4.040
v -78.321 129.044 0.078
vt 0.244 4.040
v -78.321 129.044 0.080
vt 0.239 4.080
v -70.133 136.802 -0.202
vt 0.803 4.080
v -70.133 136.802 -0.195
vt 0.790 4.120
v -81.622 131.616 0.120
vt 0.160 4.120
v -81.622 131.616 0.120
vt 0.160 4.160
v -69.056 142.535 -0.296
vt 0.993 4.160
v -69.056 142.535 -0.288
vt 0.976 4.200
v -86.549 144.814 0.066
vt 0.268 4.400
v -86.549 144.814 0.069
vt 0.263 4.440
v -79.372 152.108 -0.187
vt 0.774 4.440
v -79.372 152.108 -0.181
vt 0.762 4.480
v -91.686 146.550 0.157
vt 0.087 4.480
v -91.686 146.550 0.159
vt 0.082 4.520
v -78.514 156.855 -0.259
vt 0.919 4.520
v -78.514 156.855 -0.256
vt 0.912 4.560
v -90.772 151.322 0.080
vt 0.240 4.560
v -90.772 151.322 0.084
vt 0.231 4.600
v -83.335 158.957 -0.182
vt 0.764 4.600
v -83.335 158.957 -0.176
vt 0.752 4.640
v -97.644 163.391 0.082
vt 0.237 4.840
v -97.644 163.391 0.088
vt 0.223 4.880
v -89.930 171.213 -0.186
vt 0.773 4.880
v -89.930 171.213 -0.183
vt 0.766 4.920
v -99.274 166.995 0.074
vt 0.253 4.920
v -99.274 166.995 0.079
vt 0.241 4.960
v -92.659 174.024 -0.162
vt 0.724 4.960
v -92.659 174.024 -0.156
vt 0.712 5.000
v -97.524 187.226 -0.214
vt 0.828 5.240
v -112.342 180.539 0.193
vt 0.015 5.280
v -112.342 180.539 0.197
vt 0.007 5.320
v -97.019 191.656 -0.277
vt 0.953 5.320
v -97.019 191.656 -0.277
vt 0.955 5.360
v -114.194 184.229 0.190
vt 0.019 5.360
v -114.194 184.229 0.186
vt 0.028 5.400
v -99.133 194.870 -0.275
vt 0.950 5.400
v -99.133 194.870 -0.271
vt 0.942 5.440
v -116.872 191.487 0.162
vt 0.077 5.520
v -116.872 191.487 0.159
vt 0.082 5.560
v -106.288 201.922 -0.199
vt 0.798 5.600
v -106.288 201.922 -0.204
vt 0.808 5.640
v -120.534 197.484 0.169
vt 0.062 5.640
v -120.534 197.484 0.170
vt 0.061 5.680
v -109.220 209.038 -0.219
vt 0.838 5.760
v -109.220 209.038 -0.226
vt 0.852 5.800
v -119.869 205.865 0.052
vt 0.297 5.800
v -112.927 212.729 -0.192
vt 0.785 5.840
v -112.927 212.729 -0.186
vt 0.772 5.880
v -123.210 208.088 0.096
vt 0.208 5.880
v -123.210 208.088 0.098
vt 0.205 5.920
v -115.476 215.466 -0.170
vt 0.739 5.920
v -115.476 215.466 -0.163
vt 0.726 5.960
v -129.072 220.712 0.069
vt 0.263 6.160
v -129.072 220.712 0.074
vt 0.253 6.200
v -121.829 228.213 -0.187
vt 0.774 6.200
v -121.829 228.213 -0.182
vt 0.764 6.240
v -131.440 223.755 0.083
vt 0.234 6.240
v -131.440 223.755 0.092
vt 0.216 6.280
v -124.105 231.166 -0.169
vt 0.737 6.280
v -124.105 231.166 -0.167
vt 0.733 6.320
v -138.920 235.206 0.105
vt 0.190 6.520
v -138.920 235.206 0.113
vt 0.173 6.560
v -130.680 243.422 -0.178
vt 0.755 6.560
v -130.680 243.422 -0.174
vt 0.747 6.600
v -140.858 239.214 0.102
vt 0.197 6.600
v -140.858 239.214 0.107
vt 0.186 6.640
v -131.552 247.290 -0.201
vt 0.802 6.640
v -131.552 247.290 -0.202
vt 0.805 6.680
v -145.845 245.761 0.133
vt 0.134 6.760
v -145.845 245.761 0.129
vt 0.142 6.800
v -133.646 255.085 -0.255
vt 0.910 6.800
v -133.646 255.085 -0.250
vt 0.900 6.840
v -149.932 248.075 0.193
vt 0.013 6.840
v -149.932 248.075 0.189
vt 0.023 6.880
v -135.323 258.307 -0.257
vt 0.914 6.880
v -135.323 258.307 -0.252
vt 0.904 6.920
v -148.575 253.206 0.103
vt 0.194 6.920
v -148.575 253.206 0.101
vt 0.199 6.960
v -137.208 263.851 -0.277
vt 0.954 7.000
v -137.208 263.851 -0.283
vt 0.967 7.040
v -153.775 265.882 0.058
vt 0.283 7.200
v -153.775 265.882 0.063
vt 0.273 7.240
v -146.998 272.979 -0.182
vt 0.764 7.240
v -146.998 272.979 -0.176
vt 0.751 7.280
v -156.631 268.632 0.089
vt 0.223 7.280
v -156.631 268.632 0.091
vt 0.218 7.320
v -148.620 276.530 -0.190
vt 0.780 7.320
v -148.620 276.530 -0.184
vt 0.768 7.360
v -157.883 272.436 0.069
vt 0.262 7.360
v -157.883 272.436 0.076
vt 0.247 7.400
v -151.037 279.712 -0.174
vt 0.747 7.400
v -151.037 279.712 -0.168
vt 0.735 7.440
v -166.867 283.788 0.126
vt 0.147 7.640
v -166.867 283.788 0.129
vt 0.142 7.680
v -154.714 293.332 -0.257
vt 0.915 7.680
v -154.714 293.332 -0.255
vt 0.910 7.720
v -166.903 287.831 0.079
vt 0.241 7.720
v -166.903 287.831 0.085
vt 0.230 7.760
v -159.245 295.690 -0.189
vt 0.778 7.760
v -159.245 295.690 -0.185
vt 0.770 7.800
v -169.306 290.996 0.093
vt 0.214 7.800
v -169.306 290.996 0.102
vt 0.196 7.840
v -160.784 299.246 -0.195
vt 0.789 7.840
v -160.784 299.246 -0.193
vt 0.785 7.880
v -170.846 294.705 0.083
vt 0.233 7.880
v -170.846 294.705 0.089
vt 0.221 7.920
v -163.385 302.193 -0.175
vt 0.750 7.920
v -163.385 302.193 -0.172
vt 0.745 7.960
v -162.193 310.172 -0.298
vt 0.996 8.080
v -162.193 310.172 -0.298
vt 0.997 8.120
v -178.398 305.333 0.124
vt 0.151 8.120
v -178.398 305.333 0.117
vt 0.165 8.160
v -168.118 315.412 -0.230
vt 0.860 8.200
v -168.118 315.412 -0.231
vt 0.862 8.240
v -183.597 312.812 0.142
vt 0.116 8.320
v -183.597 312.812 0.147
vt 0.105 8.360
v -171.634 322.417 -0.236
vt 0.872 8.360
v -171.634 322.417 -0.238
vt 0.877 8.400
v -187.564 319.683 0.146
vt 0.107 8.480
v -187.564 319.683 0.144
vt 0.111 8.520
v -175.361 329.496 -0.247
vt 0.894 8.520
v -175.361 329.496 -0.241
vt 0.883 8.560
v -180.527 336.983 -0.218
vt 0.836 8.720
v -180.527 336.983 -0.225
vt 0.850 8.760
v -196.786 332.128 0.199
vt 0.001 8.760
v -196.786 332.128 0.199
vt 0.002 8.800
v -193.894 336.599 0.077
vt 0.246 8.840
v -193.894 336.599 0.078
vt 0.245 8.880
v -186.722 343.421 -0.170
vt 0.739 8.880
v -186.722 343.421 -0.164
vt 0.728 8.920
v -195.089 340.507 0.058
vt 0.285 8.920
v -195.089 340.507 0.060
vt 0.281 8.960
v -188.148 347.557 -0.188
vt 0.775 8.960
v -188.148 347.557 -0.181
vt 0.762 9.000
v -200.317 348.679 0.068
vt 0.263 9.120
v -200.317 348.679 0.073
vt 0.253 9.160
v -193.187 356.063 -0.183
vt 0.766 9.160
v -193.187 356.063 -0.178
vt 0.757 9.200
v -202.428 351.892 0.075
vt 0.250 9.200
v -202.428 351.892 0.080
vt 0.240 9.240
v -195.689 359.009 -0.165
vt 0.730 9.240
v -195.689 359.009 -0.158
vt 0.716 9.280
v -208.488 359.899 0.106
vt 0.188 9.400
v -208.488 359.899 0.116
vt 0.169 9.440
v -198.853 368.618 -0.209
vt 0.819 9.440
v -198.853 368.618 -0.209
vt 0.818 9.480
v -209.779 363.687 0.091
vt 0.218 9.480
v -209.779 363.687 0.097
vt 0.206 9.520
v -201.199 371.977 -0.201
vt 0.802 9.520
v -201.199 371.977 -0.199
vt 0.798 9.560
v -213.333 366.300 0.136
vt 0.128 9.560
v -213.333 366.300 0.145
vt 0.111 9.600
v -202.479 375.374 -0.209
vt 0.818 9.600
v -202.479 375.374 -0.211
vt 0.822 9.640
v -205.516 385.087 -0.263
vt 0.926 9.800
v -205.516 385.087 -0.266
vt 0.931 9.840
v -220.062 378.522 0.133
vt 0.133 9.840
v -220.062 378.522 0.139
vt 0.122 9.880
v -209.820 386.991 -0.193
vt 0.786 9.880
v -209.820 386.991 -0.196
vt 0.792 9.920
v -220.222 383.208 0.080
vt 0.239 9.920
v -211.318 391.122 -0.217
vt 0.835 9.960
v -211.318 391.122 -0.211
vt 0.822 10.000
mtllib Roads\3D_Road\Road_96fe92ac-11a1-4401-a1f4-c3f456a99d39_3.mtl
usemtl Road (No Centerline)
g g1
s 1
f  1/1 2/2 4/4 3/3
f  3/3 4/4 6/6 5/5
f  5/5 6/6 8/8 7/7
f  7/7 8/8 10/10 9/9
f  9/9 10/10 12/12 11/11
f  11/11 12/12 14/14 13/13
f  13/13 14/14 16/16 15/15
f  15/15 16/16 18/18 17/17
f  17/17 18/18 20/20 19/19
f  19/19 20/20 22/22 21/21
f  21/21 22/22 24/24 23/23
f  23/23 24/24 26/26 25/25
f  25/25 26/26 28/28 27/27
f  27/27 28/28 30/30 29/29
f  29/29 30/30 32/32 31/31
f  31/31 32/32 34/34 33/33
f  33/33 34/34 36/36 35/35
f  35/35 36/36 38/38 37/37
f  37/37 38/38 40/40 39/39
f  39/39 40/40 42/42 41/41
f  41/41 42/42 44/44 43/43
f  43/43 44/44 46/46 45/45
f  45/45 46/46 48/48 47/47
f  47/47 48/48 50/50 49/49
f  49/49 50/50 52/52 51/51
f  51/51 52/52 54/54 53/53
f  53/53 54/54 56/56 55/55
f  55/55 56/56 58/58 57/57
f  57/57 58/58 60/60 59/59
f  59/59 503/503 61/61
f  505/505 62/62 64/64
f  63/63 64/64 66/66 65/65
f  65/65 66/66 68/68 67/67
f  67/67 68/68 70/70 69/69
f  69/69 70/70 72/72 71/71
f  71/71 72/72 74/74 73/73
f  507/507 74/74 76/76
f  75/75 509/509 77/77
f  77/77 78/78 80/80 79/79
f  511/511 80/80 82/82
f  81/81 513/513 83/83
f  83/83 84/84 86/86 85/85
f  515/515 86/86 88/88
f  87/87 517/517 89/89
f  89/89 90/90 92/92 91/91
f  91/91 92/92 94/94 93/93
f  93/93 94/94 96/96 95/95
f  95/95 96/96 98/98 97/97
f  97/97 98/98 100/100 99/99
f  519/519 100/100 102/102
f  101/101 521/521 103/103
f  523/523 104/104 106/106
f  105/105 525/525 107/107
f  527/527 108/108 110/110
f  109/109 529/529 111/111
f  111/111 112/112 114/114 113/113
f  113/113 531/531 115/115
f  533/533 116/116 118/118
f  117/117 535/535 119/119
f  119/119 120/120 122/122 121/121
f  121/121 122/122 124/124 123/123
f  537/537 124/124 126/126
f  125/125 126/126 128/128 127/127
f  127/127 539/539 129/129
f  129/129 130/130 132/132 131/131
f  131/131 132/132 134/134 133/133
f  133/133 134/134 136/136 135/135
f  135/135 541/541 137/137
f  137/137 138/138 140/140 139/139
f  543/543 140/140 142/142
f  141/141 545/545 143/143
f  547/547 144/144 146/146
f  145/145 549/549 147/147
f  551/551 148/148 150/150
f  149/149 553/553 151/151
f  151/151 152/152 154/154 153/153
f  153/153 154/154 156/156 155/155
f  555/555 156/156 158/158
f  157/157 557/557 159/159
f  559/559 160/160 162/162
f  161/161 561/561 163/163
f  563/563 164/164 166/166
f  165/165 565/565 167/167
f  167/167 168/168 170/170 169/169
f  169/169 170/170 172/172 171/171
f  171/171 172/172 174/174 173/173
f  567/567 174/174 176/176
f  175/175 176/176 178/178 177/177
f  177/177 178/178 180/180 179/179
f  179/179 180/180 182/182 181/181
f  569/569 182/182 184/184
f  183/183 184/184 186/186 185/185
f  185/185 186/186 188/188 187/187
f  187/187 188/188 190/190 189/189
f  189/189 190/190 192/192 191/191
f  571/571 192/192 194/194
f  193/193 573/573 195/195
f  575/575 196/196 198/198
f  197/197 577/577 199/199
f  579/579 200/200 202/202
f  201/201 581/581 203/203
f  583/583 204/204 206/206
f  205/205 585/585 207/207
f  587/587 208/208 210/210
f  209/209 589/589 211/211
f  211/211 212/212 214/214 213/213
f  213/213 214/214 216/216 215/215
f  215/215 216/216 218/218 217/217
f  217/217 218/218 220/220 219/219
f  219/219 220/220 222/222 221/221
f  591/591 222/222 224/224
f  223/223 593/593 225/225
f  595/595 226/226 228/228
f  227/227 597/597 229/229
f  599/599 230/230 232/232
f  231/231 601/601 233/233
f  233/233 234/234 236/236 235/235
f  235/235 236/236 238/238 237/237
f  237/237 238/238 240/240 239/239
f  239/239 240/240 242/242 241/241
f  241/241 242/242 244/244 243/243
f  603/603 244/244 246/246
f  245/245 605/605 247/247
f  607/607 248/248 250/250
f  249/249 609/609 251/251
f  251/251 252/252 254/254 253/253
f  253/253 254/254 256/256 255/255
f  255/255 256/256 258/258 257/257
f  257/257 258/258 260/260 259/259
f  259/259 260/260 262/262 261/261
f  261/261 262/262 264/264 263/263
f  263/263 611/611 265/265
f  612/612 266/266 268/268
f  267/267 614/614 269/269
f  616/616 270/270 272/272
f  271/271 618/618 273/273
f  273/273 274/274 276/276 275/275
f  275/275 276/276 278/278 277/277
f  620/620 278/278 280/280
f  279/279 280/280 282/282 281/281
f  281/281 622/622 283/283
f  624/624 284/284 286/286
f  285/285 286/286 288/288 287/287
f  287/287 288/288 290/290 289/289
f  289/289 626/626 291/291
f  628/628 292/292 294/294
f  293/293 629/629 295/295
f  631/631 296/296 298/298
f  297/297 633/633 299/299
f  299/299 300/300 302/302 301/301
f  301/301 302/302 304/304 303/303
f  303/303 304/304 306/306 305/305
f  305/305 306/306 308/308 307/307
f  307/307 308/308 310/310 309/309
f  635/635 310/310 312/312
f  311/311 637/637 313/313
f  639/639 314/314 316/316
f  315/315 641/641 317/317
f  317/317 318/318 320/320 319/319
f  319/319 320/320 322/322 321/321
f  321/321 322/322 324/324 323/323
f  323/323 324/324 326/326 325/325
f  325/325 326/326 328/328 327/327
f  643/643 328/328 330/330
f  329/329 645/645 331/331
f  647/647 332/332 334/334
f  333/333 649/649 335/335
f  335/335 336/336 338/338 337/337
f  337/337 338/338 340/340 339/339
f  651/651 340/340 342/342
f  341/341 653/653 343/343
f  655/655 344/344 346/346
f  345/345 657/657 347/347
f  659/659 348/348 350/350
f  349/349 350/350 352/352 351/351
f  351/351 661/661 353/353
f  353/353 354/354 356/356 355/355
f  355/355 356/356 358/358 357/357
f  357/357 358/358 360/360 359/359
f  359/359 360/360 362/362 361/361
f  663/663 362/362 364/364
f  363/363 665/665 365/365
f  667/667 366/366 368/368
f  367/367 669/669 369/369
f  671/671 370/370 372/372
f  371/371 673/673 373/373
f  373/373 374/374 376/376 375/375
f  375/375 376/376 378/378 377/377
f  377/377 378/378 380/380 379/379
f  379/379 380/380 382/382 381/381
f  381/381 382/382 384/384 383/383
f  675/675 384/384 386/386
f  385/385 677/677 387/387
f  679/679 388/388 390/390
f  389/389 681/681 391/391
f  683/683 392/392 394/394
f  393/393 685/685 395/395
f  687/687 396/396 398/398
f  397/397 689/689 399/399
f  399/399 400/400 402/402 401/401
f  401/401 402/402 404/404 403/403
f  403/403 404/404 406/406 405/405
f  405/405 691/691 407/407
f  693/693 408/408 410/410
f  409/409 410/410 412/412 411/411
f  411/411 695/695 413/413
f  413/413 414/414 416/416 415/415
f  415/415 416/416 418/418 417/417
f  697/697 418/418 420/420
f  419/419 699/699 421/421
f  421/421 422/422 424/424 423/423
f  423/423 424/424 426/426 425/425
f  701/701 426/426 428/428
f  427/427 703/703 429/429
f  429/429 430/430 432/432 431/431
f  431/431 432/432 434/434 433/433
f  433/433 434/434 436/436 435/435
f  435/435 436/436 438/438 437/437
f  437/437 705/705 439/439
f  707/707 440/440 442/442
f  441/441 442/442 444/444 443/443
f  709/709 444/444 446/446
f  445/445 711/711 447/447
f  713/713 448/448 450/450
f  449/449 715/715 451/451
f  451/451 452/452 454/454 453/453
f  453/453 454/454 456/456 455/455
f  455/455 456/456 458/458 457/457
f  717/717 458/458 460/460
f  459/459 719/719 461/461
f  721/721 462/462 464/464
f  463/463 723/723 465/465
f  465/465 466/466 468/468 467/467
f  467/467 468/468 470/470 469/469
f  469/469 470/470 472/472 471/471
f  725/725 472/472 474/474
f  473/473 727/727 475/475
f  729/729 476/476 478/478
f  477/477 731/731 479/479
f  733/733 480/480 482/482
f  481/481 735/735 483/483
f  483/483 484/484 486/486 485/485
f  485/485 486/486 488/488 487/487
f  487/487 488/488 490/490 489/489
f  489/489 490/490 492/492 491/491
f  491/491 737/737 493/493
f  739/739 494/494 496/496
f  495/495 741/741 497/497
f  743/743 498/498 500/500
f  499/499 744/744 501/501
g g2
s 2
f  503/503 60/60 62/62
f  61/61 505/505 63/63
f  73/73 507/507 75/75
f  509/509 76/76 78/78
f  79/79 511/511 81/81
f  513/513 82/82 84/84
f  85/85 515/515 87/87
f  517/517 88/88 90/90
f  99/99 519/519 101/101
f  521/521 102/102 104/104
f  103/103 523/523 105/105
f  525/525 106/106 108/108
f  107/107 527/527 109/109
f  529/529 110/110 112/112
f  531/531 114/114 116/116
f  115/115 533/533 117/117
f  535/535 118/118 120/120
f  123/123 537/537 125/125
f  539/539 128/128 130/130
f  541/541 136/136 138/138
f  139/139 543/543 141/141
f  545/545 142/142 144/144
f  143/143 547/547 145/145
f  549/549 146/146 148/148
f  147/147 551/551 149/149
f  553/553 150/150 152/152
f  155/155 555/555 157/157
f  557/557 158/158 160/160
f  159/159 559/559 161/161
f  561/561 162/162 164/164
f  163/163 563/563 165/165
f  565/565 166/166 168/168
f  173/173 567/567 175/175
f  181/181 569/569 183/183
f  191/191 571/571 193/193
f  573/573 194/194 196/196
f  195/195 575/575 197/197
f  577/577 198/198 200/200
f  199/199 579/579 201/201
f  581/581 202/202 204/204
f  203/203 583/583 205/205
f  585/585 206/206 208/208
f  207/207 587/587 209/209
f  589/589 210/210 212/212
f  221/221 591/591 223/223
f  593/593 224/224 226/226
f  225/225 595/595 227/227
f  597/597 228/228 230/230
f  229/229 599/599 231/231
f  601/601 232/232 234/234
f  243/243 603/603 245/245
f  605/605 246/246 248/248
f  247/247 607/607 249/249
f  609/609 250/250 252/252
f  611/611 264/264 266/266
f  265/265 612/612 267/267
f  614/614 268/268 270/270
f  269/269 616/616 271/271
f  618/618 272/272 274/274
f  277/277 620/620 279/279
f  622/622 282/282 284/284
f  283/283 624/624 285/285
f  626/626 290/290 292/292
f  291/291 628/628 293/293
f  629/629 294/294 296/296
f  295/295 631/631 297/297
f  633/633 298/298 300/300
f  309/309 635/635 311/311
f  637/637 312/312 314/314
f  313/313 639/639 315/315
f  641/641 316/316 318/318
f  327/327 643/643 329/329
f  645/645 330/330 332/332
f  331/331 647/647 333/333
f  649/649 334/334 336/336
f  339/339 651/651 341/341
f  653/653 342/342 344/344
f  343/343 655/655 345/345
f  657/657 346/346 348/348
f  347/347 659/659 349/349
f  661/661 352/352 354/354
f  361/361 663/663 363/363
f  665/665 364/364 366/366
f  365/365 667/667 367/367
f  669/669 368/368 370/370
f  369/369 671/671 371/371
f  673/673 372/372 374/374
f  383/383 675/675 385/385
f  677/677 386/386 388/388
f  387/387 679/679 389/389
f  681/681 390/390 392/392
f  391/391 683/683 393/393
f  685/685 394/394 396/396
f  395/395 687/687 397/397
f  689/689 398/398 400/400
f  691/691 406/406 408/408
f  407/407 693/693 409/409
f  695/695 412/412 414/414
f  417/417 697/697 419/419
f  699/699 420/420 422/422
f  425/425 701/701 427/427
f  703/703 428/428 430/430
f  705/705 438/438 440/440
f  439/439 707/707 441/441
f  443/443 709/709 445/445
f  711/711 446/446 448/448
f  447/447 713/713 449/449
f  715/715 450/450 452/452
f  457/457 717/717 459/459
f  719/719 460/460 462/462
f  461/461 721/721 463/463
f  723/723 464/464 466/466
f  471/471 725/725 473/473
f  727/727 474/474 476/476
f  475/475 729/729 477/477
f  731/731 478/478 480/480
f  479/479 733/733 481/481
f  735/735 482/482 484/484
f  737/737 492/492 494/494
f  493/493 739/739 495/495
f  741/741 496/496 498/498
f  497/497 743/743 499/499
f  744/744 500/500 502/502
g g3
s 3
f  61/59 503/503 504/504
f  63/61 505/505 506/506
f  75/73 507/507 508/508
f  77/75 509/509 510/510
f  81/79 511/511 512/512
f  83/81 513/513 514/514
f  87/85 515/515 516/516
f  89/87 517/517 518/518
f  101/99 519/519 520/520
f  103/101 521/521 522/522
f  105/103 523/523 524/524
f  107/105 525/525 526/526
f  109/107 527/527 528/528
f  111/109 529/529 530/530
f  115/113 531/531 532/532
f  117/115 533/533 534/534
f  119/117 535/535 536/536
f  125/123 537/537 538/538
f  129/127 539/539 540/540
f  137/135 541/541 542/542
f  141/139 543/543 544/544
f  143/141 545/545 546/546
f  145/143 547/547 548/548
f  147/145 549/549 550/550
f  149/147 551/551 552/552
f  151/149 553/553 554/554
f  157/155 555/555 556/556
f  159/157 557/557 558/558
f  161/159 559/559 560/560
f  163/161 561/561 562/562
f  165/163 563/563 564/564
f  167/165 565/565 566/566
f  175/173 567/567 568/568
f  183/181 569/569 570/570
f  193/191 571/571 572/572
f  195/193 573/573 574/574
f  197/195 575/575 576/576
f  199/197 577/577 578/578
f  201/199 579/579 580/580
f  203/201 581/581 582/582
f  205/203 583/583 584/584
f  207/205 585/585 586/586
f  209/207 587/587 588/588
f  211/209 589/589 590/590
f  223/221 591/591 592/592
f  225/223 593/593 594/594
f  227/225 595/595 596/596
f  229/227 597/597 598/598
f  231/229 599/599 600/600
f  233/231 601/601 602/602
f  245/243 603/603 604/604
f  247/245 605/605 606/606
f  249/247 607/607 608/608
f  251/249 609/609 610/610
f  267/265 612/612 613/613
f  269/267 614/614 615/615
f  271/269 616/616 617/617
f  273/271 618/618 619/619
f  279/277 620/620 621/621
f  283/281 622/622 623/623
f  285/283 624/624 625/625
f  291/289 626/626 627/627
f  295/293 629/629 630/630
f  297/295 631/631 632/632
f  299/297 633/633 634/634
f  311/309 635/635 636/636
f  313/311 637/637 638/638
f  315/313 639/639 640/640
f  317/315 641/641 642/642
f  329/327 643/643 644/644
f  331/329 645/645 646/646
f  333/331 647/647 648/648
f  335/333 649/649 650/650
f  341/339 651/651 652/652
f  343/341 653/653 654/654
f  345/343 655/655 656/656
f  347/345 657/657 658/658
f  349/347 659/659 660/660
f  353/351 661/661 662/662
f  363/361 663/663 664/664
f  365/363 665/665 666/666
f  367/365 667/667 668/668
f  369/367 669/669 670/670
f  371/369 671/671 672/672
f  373/371 673/673 674/674
f  385/383 675/675 676/676
f  387/385 677/677 678/678
f  389/387 679/679 680/680
f  391/389 681/681 682/682
f  393/391 683/683 684/684
f  395/393 685/685 686/686
f  397/395 687/687 688/688
f  399/397 689/689 690/690
f  407/405 691/691 692/692
f  409/407 693/693 694/694
f  413/411 695/695 696/696
f  419/417 697/697 698/698
f  421/419 699/699 700/700
f  427/425 701/701 702/702
f  429/427 703/703 704/704
f  439/437 705/705 706/706
f  441/439 707/707 708/708
f  445/443 709/709 710/710
f  447/445 711/711 712/712
f  449/447 713/713 714/714
f  451/449 715/715 716/716
f  459/457 717/717 718/718
f  461/459 719/719 720/720
f  463/461 721/721 722/722
f  465/463 723/723 724/724
f  473/471 725/725 726/726
f  475/473 727/727 728/728
f  477/475 729/729 730/730
f  479/477 731/731 732/732
f  481/479 733/733 734/734
f  483/481 735/735 736/736
f  493/491 737/737 738/738
f  495/493 739/739 740/740
f  497/495 741/741 742/742
f  501/499 744/744 745/745
g g4
s 4
f  503/503 62/60 504/504
f  505/505 64/62 506/506
f  507/507 76/74 508/508
f  509/509 78/76 510/510
f  511/511 82/80 512/512
f  513/513 84/82 514/514
f  515/515 88/86 516/516
f  517/517 90/88 518/518
f  519/519 102/100 520/520
f  521/521 104/102 522/522
f  523/523 106/104 524/524
f  525/525 108/106 526/526
f  527/527 110/108 528/528
f  529/529 112/110 530/530
f  531/531 116/114 532/532
f  533/533 118/116 534/534
f  535/535 120/118 536/536
f  537/537 126/124 538/538
f  539/539 130/128 540/540
f  541/541 138/136 542/542
f  543/543 142/140 544/544
f  545/545 144/142 546/546
f  547/547 146/144 548/548
f  549/549 148/146 550/550
f  551/551 150/148 552/552
f  553/553 152/150 554/554
f  555/555 158/156 556/556
f  557/557 160/158 558/558
f  559/559 162/160 560/560
f  561/561 164/162 562/562
f  563/563 166/164 564/564
f  565/565 168/166 566/566
f  567/567 176/174 568/568
f  569/569 184/182 570/570
f  571/571 194/192 572/572
f  573/573 196/194 574/574
f  575/575 198/196 576/576
f  577/577 200/198 578/578
f  579/579 202/200 580/580
f  581/581 204/202 582/582
f  583/583 206/204 584/584
f  585/585 208/206 586/586
f  587/587 210/208 588/588
f  589/589 212/210 590/590
f  591/591 224/222 592/592
f  593/593 226/224 594/594
f  595/595 228/226 596/596
f  597/597 230/228 598/598
f  599/599 232/230 600/600
f  601/601 234/232 602/602
f  603/603 246/244 604/604
f  605/605 248/246 606/606
f  607/607 250/248 608/608
f  609/609 252/250 610/610
f  612/612 268/266 613/613
f  614/614 270/268 615/615
f  616/616 272/270 617/617
f  618/618 274/272 619/619
f  620/620 280/278 621/621
f  622/622 284/282 623/623
f  624/624 286/284 625/625
f  626/626 292/290 627/627
f  629/629 296/294 630/630
f  631/631 298/296 632/632
f  633/633 300/298 634/634
f  635/635 312/310 636/636
f  637/637 314/312 638/638
f  639/639 316/314 640/640
f  641/641 318/316 642/642
f  643/643 330/328 644/644
f  645/645 332/330 646/646
f  647/647 334/332 648/648
f  649/649 336/334 650/650
f  651/651 342/340 652/652
f  653/653 344/342 654/654
f  655/655 346/344 656/656
f  657/657 348/346 658/658
f  659/659 350/348 660/660
f  661/661 354/352 662/662
f  663/663 364/362 664/664
f  665/665 366/364 666/666
f  667/667 368/366 668/668
f  669/669 370/368 670/670
f  671/671 372/370 672/672
f  673/673 374/372 674/674
f  675/675 386/384 676/676
f  677/677 388/386 678/678
f  679/679 390/388 680/680
f  681/681 392/390 682/682
f  683/683 394/392 684/684
f  685/685 396/394 686/686
f  687/687 398/396 688/688
f  689/689 400/398 690/690
f  691/691 408/406 692/692
f  693/693 410/408 694/694
f  695/695 414/412 696/696
f  697/697 420/418 698/698
f  699/699 422/420 700/700
f  701/701 428/426 702/702
f  703/703 430/428 704/704
f  705/705 440/438 706/706
f  707/707 442/440 708/708
f  709/709 446/444 710/710
f  711/711 448/446 712/712
f  713/713 450/448 714/714
f  715/715 452/450 716/716
f  717/717 460/458 718/718
f  719/719 462/460 720/720
f  721/721 464/462 722/722
f  723/723 466/464 724/724
f  725/725 474/472 726/726
f  727/727 476/474 728/728
f  729/729 478/476 730/730
f  731/731 480/478 732/732
f  733/733 482/480 734/734
f  735/735 484/482 736/736
f  737/737 494/492 738/738
f  739/739 496/494 740/740
f  741/741 498/496 742/742
f  744/744 502/500 745/745
