# Shape file for lane 3
v -100.000 20.000 -5.000
vt 0.000 0.000
v -100.000 12.000 -5.000
vt 1.000 0.000
v 50.000 20.000 -5.000
vt 0.000 3.750
v 50.000 12.000 -5.000
vt 1.000 3.750
v 54.900 20.012 -5.000
vt 0.000 3.875
v 54.940 12.012 -5.000
vt 1.000 3.875
v 59.800 20.049 -5.000
vt 0.000 4.000
v 59.880 12.049 -5.000
vt 1.000 4.000
v 64.699 20.110 -5.000
vt 0.000 4.125
v 64.819 12.111 -5.000
vt 1.000 4.125
v 69.599 20.196 -5.000
vt 0.000 4.250
v 69.759 12.198 -5.000
vt 1.000 4.250
v 74.497 20.306 -5.000
vt 0.000 4.375
v 74.697 12.309 -5.000
vt 1.000 4.375
v 79.396 20.441 -5.000
vt 0.000 4.500
v 79.636 12.445 -5.000
vt 1.000 4.500
v 84.293 20.600 -5.000
vt 0.000 4.625
v 84.573 12.605 -5.000
vt 1.000 4.625
v 89.190 20.784 -5.000
vt 0.000 4.750
v 89.509 12.790 -5.000
vt 1.000 4.750
v 94.085 20.992 -5.000
vt 0.000 4.875
v 94.445 13.000 -5.000
vt 1.000 4.875
v 98.980 21.225 -5.000
vt 0.000 5.000
v 99.379 13.235 -5.000
vt 1.000 5.000
v 103.873 21.482 -5.000
vt 0.000 5.125
v 104.313 13.494 -5.000
vt 1.000 5.125
v 108.765 21.763 -5.000
vt 0.000 5.250
v 109.244 13.778 -5.000
vt 1.000 5.250
v 113.655 22.070 -5.000
vt 0.000 5.375
v 114.175 14.086 -5.000
vt 1.000 5.375
v 118.544 22.400 -5.000
vt 0.000 5.500
v 119.104 14.420 -5.000
vt 1.000 5.500
v 123.431 22.755 -5.000
vt 0.000 5.625
v 124.031 14.777 -5.000
vt 1.000 5.625
v 128.316 23.134 -5.000
vt 0.000 5.750
v 128.956 15.160 -5.000
vt 1.000 5.750
v 133.200 23.538 -5.000
vt 0.000 5.875
v 133.879 15.567 -5.000
vt 1.000 5.875
v 138.081 23.966 -5.000
vt 0.000 6.000
v 138.800 15.999 -5.000
vt 1.000 6.000
v 142.960 24.419 -5.000
vt 0.000 6.125
v 143.719 16.455 -5.000
vt 1.000 6.125
v 147.837 24.896 -5.000
vt 0.000 6.250
v 148.635 16.936 -5.000
vt 1.000 6.250
v 152.711 25.397 -5.000
vt 0.000 6.375
v 153.549 17.441 -5.000
vt 1.000 6.375
v 157.583 25.923 -5.000
vt 0.000 6.500
v 158.461 17.971 -5.000
vt 1.000 6.500
v 162.452 26.473 -5.000
vt 0.000 6.625
v 163.370 18.526 -5.000
vt 1.000 6.625
v 167.318 27.048 -5.000
vt 0.000 6.750
v 168.276 19.105 -5.000
vt 1.000 6.750
v 172.181 27.646 -5.000
vt 0.000 6.875
v 173.179 19.709 -5.000
vt 1.000 6.875
v 177.041 28.269 -5.000
vt 0.000 7.000
v 178.079 20.337 -5.000
vt 1.000 7.000
v 181.899 28.917 -5.000
vt 0.000 7.125
v 182.975 20.989 -5.000
vt 1.000 7.125
v 186.752 29.588 -5.000
vt 0.000 7.250
v 187.869 21.667 -5.000
vt 1.000 7.250
v 191.603 30.284 -5.000
vt 0.000 7.375
v 192.759 22.368 -5.000
vt 1.000 7.375
v 196.449 31.004 -5.000
vt 0.000 7.500
v 197.645 23.094 -5.000
vt 1.000 7.500
v 201.292 31.749 -4.998
vt 0.000 7.625
v 202.528 23.845 -4.998
vt 1.000 7.625
v 206.132 32.517 -4.993
vt 0.000 7.750
v 207.406 24.619 -4.993
vt 1.000 7.750
v 210.967 33.310 -4.985
vt 0.000 7.875
v 212.281 25.419 -4.985
vt 1.000 7.875
v 215.799 34.127 -4.973
vt 0.000 8.000
v 217.152 26.242 -4.973
vt 1.000 8.000
v 220.626 34.968 -4.957
vt 0.000 8.125
v 222.019 27.090 -4.957
vt 1.000 8.125
v 225.449 35.833 -4.938
vt 0.000 8.250
v 226.881 27.962 -4.938
vt 1.000 8.250
v 230.268 36.722 -4.916
vt 0.000 8.375
v 231.739 28.859 -4.916
vt 1.000 8.375
v 235.082 37.636 -4.891
vt 0.000 8.500
v 236.593 29.780 -4.891
vt 1.000 8.500
v 239.891 38.573 -4.862
vt 0.000 8.625
v 241.441 30.725 -4.862
vt 1.000 8.625
v 244.696 39.535 -4.830
vt 0.000 8.750
v 246.285 31.694 -4.830
vt 1.000 8.750
v 249.496 40.520 -4.794
vt 0.000 8.875
v 251.124 32.688 -4.794
vt 1.000 8.875
v 254.291 41.530 -4.755
vt 0.000 9.000
v 255.958 33.705 -4.755
vt 1.000 9.000
v 259.080 42.563 -4.713
vt 0.000 9.125
v 260.787 34.747 -4.713
vt 1.000 9.125
v 263.865 43.620 -4.668
vt 0.000 9.250
v 265.611 35.813 -4.668
vt 1.000 9.250
v 268.644 44.702 -4.619
vt 0.000 9.375
v 270.429 36.903 -4.619
vt 1.000 9.375
v 273.418 45.807 -4.568
vt 0.000 9.500
v 275.242 38.018 -4.568
vt 1.000 9.500
v 278.186 46.936 -4.513
vt 0.000 9.625
v 280.049 39.156 -4.513
vt 1.000 9.625
v 282.949 48.089 -4.455
vt 0.000 9.750
v 284.850 40.318 -4.455
vt 1.000 9.750
v 287.705 49.265 -4.394
vt 0.000 9.875
v 289.646 41.504 -4.394
vt 1.000 9.875
v 292.456 50.466 -4.330
vt 0.000 10.000
v 294.435 42.715 -4.330
vt 1.000 10.000
v 297.201 51.690 -4.263
vt 0.000 10.125
v 299.218 43.949 -4.263
vt 1.000 10.125
v 301.939 52.938 -4.193
vt 0.000 10.250
v 303.996 45.207 -4.193
vt 1.000 10.250
v 306.671 54.209 -4.121
vt 0.000 10.375
v 308.766 46.489 -4.121
vt 1.000 10.375
v 311.397 55.505 -4.045
vt 0.000 10.500
v 313.531 47.794 -4.045
vt 1.000 10.500
v 316.116 56.823 -3.967
vt 0.000 10.625
v 318.288 49.124 -3.967
vt 1.000 10.625
v 320.829 58.166 -3.886
vt 0.000 10.750
v 323.039 50.477 -3.886
vt 1.000 10.750
v 325.534 59.532 -3.802
vt 0.000 10.875
v 327.784 51.854 -3.802
vt 1.000 10.875
v 330.233 60.921 -3.716
vt 0.000 11.000
v 332.521 53.255 -3.716
vt 1.000 11.000
v 334.925 62.334 -3.627
vt 0.000 11.125
v 337.251 54.679 -3.627
vt 1.000 11.125
v 339.610 63.770 -3.535
vt 0.000 11.250
v 341.974 56.128 -3.535
vt 1.000 11.250
v 344.287 65.230 -3.442
vt 0.000 11.375
v 346.690 57.599 -3.442
vt 1.000 11.375
v 348.957 66.713 -3.346
vt 0.000 11.500
v 351.398 59.094 -3.346
vt 1.000 11.500
v 353.620 68.220 -3.247
vt 0.000 11.625
v 356.099 60.613 -3.247
vt 1.000 11.625
v 358.275 69.749 -3.147
vt 0.000 11.750
v 360.792 62.155 -3.147
vt 1.000 11.750
v 362.923 71.302 -3.044
vt 0.000 11.875
v 365.477 63.721 -3.044
vt 1.000 11.875
v 367.562 72.879 -2.939
vt 0.000 12.000
v 370.155 65.310 -2.939
vt 1.000 12.000
v 372.194 74.478 -2.832
vt 0.000 12.125
v 374.824 66.923 -2.832
vt 1.000 12.125
v 376.817 76.100 -2.723
vt 0.000 12.250
v 379.485 68.558 -2.723
vt 1.000 12.250
v 381.433 77.746 -2.612
vt 0.000 12.375
v 384.138 70.217 -2.612
vt 1.000 12.375
v 386.040 79.415 -2.500
vt 0.000 12.500
v 388.783 71.900 -2.500
vt 1.000 12.500
v 390.639 81.106 -2.386
vt 0.000 12.625
v 393.419 73.605 -2.386
vt 1.000 12.625
v 395.229 82.821 -2.270
vt 0.000 12.750
v 398.047 75.334 -2.270
vt 1.000 12.750
v 399.810 84.559 -2.153
vt 0.000 12.875
v 402.666 77.086 -2.153
vt 1.000 12.875
v 404.383 86.319 -2.034
vt 0.000 13.000
v 407.276 78.861 -2.034
vt 1.000 13.000
v 408.947 88.103 -1.913
vt 0.000 13.125
v 411.877 80.658 -1.913
vt 1.000 13.125
v 413.502 89.909 -1.792
vt 0.000 13.250
v 416.469 82.479 -1.792
vt 1.000 13.250
v 418.048 91.738 -1.669
vt 0.000 13.375
v 421.052 84.323 -1.669
vt 1.000 13.375
v 422.585 93.589 -1.545
vt 0.000 13.500
v 425.626 86.190 -1.545
vt 1.000 13.500
v 427.112 95.463 -1.420
vt 0.000 13.625
v 430.190 88.079 -1.420
vt 1.000 13.625
v 431.630 97.360 -1.294
vt 0.000 13.750
v 434.745 89.992 -1.294
vt 1.000 13.750
v 436.138 99.280 -1.167
vt 0.000 13.875
v 439.291 91.927 -1.167
vt 1.000 13.875
v 440.637 101.222 -1.040
vt 0.000 14.000
v 443.826 93.885 -1.040
vt 1.000 14.000
v 445.126 103.186 -0.911
vt 0.000 14.125
v 448.352 95.865 -0.911
vt 1.000 14.125
v 449.605 105.173 -0.782
vt 0.000 14.250
v 452.867 97.868 -0.782
vt 1.000 14.250
v 454.074 107.182 -0.653
vt 0.000 14.375
v 457.373 99.894 -0.653
vt 1.000 14.375
v 458.533 109.214 -0.523
vt 0.000 14.500
v 461.868 101.942 -0.523
vt 1.000 14.500
v 462.982 111.267 -0.392
vt 0.000 14.625
v 466.353 104.012 -0.392
vt 1.000 14.625
v 467.421 113.343 -0.262
vt 0.000 14.750
v 470.828 106.105 -0.262
vt 1.000 14.750
v 471.849 115.442 -0.131
vt 0.000 14.875
v 475.292 108.221 -0.131
vt 1.000 14.875
v 476.266 117.562 -0.000
vt 0.000 15.000
v 479.746 110.358 -0.000
vt 1.000 15.000
v 480.673 119.704 0.131
vt 0.000 15.125
v 484.189 112.518 0.131
vt 1.000 15.125
v 485.069 121.869 0.262
vt 0.000 15.250
v 488.621 114.700 0.262
vt 1.000 15.250
v 489.454 124.055 0.392
vt 0.000 15.375
v 493.042 116.904 0.392
vt 1.000 15.375
v 493.829 126.263 0.523
vt 0.000 15.500
v 497.452 119.131 0.523
vt 1.000 15.500
v 498.192 128.493 0.653
vt 0.000 15.625
v 501.850 121.379 0.653
vt 1.000 15.625
v 502.544 130.745 0.782
vt 0.000 15.750
v 506.238 123.649 0.782
vt 1.000 15.750
v 506.884 133.019 0.911
vt 0.000 15.875
v 510.614 125.941 0.911
vt 1.000 15.875
v 511.213 135.314 1.040
vt 0.000 16.000
v 514.978 128.255 1.040
vt 1.000 16.000
v 515.531 137.631 1.167
vt 0.000 16.125
v 519.331 130.591 1.167
vt 1.000 16.125
v 519.837 139.969 1.294
vt 0.000 16.250
v 523.672 132.948 1.294
vt 1.000 16.250
v 524.131 142.329 1.420
vt 0.000 16.375
v 528.002 135.328 1.420
vt 1.000 16.375
v 528.414 144.710 1.545
vt 0.000 16.500
v 532.319 137.728 1.545
vt 1.000 16.500
v 532.684 147.113 1.669
vt 0.000 16.625
v 536.624 140.151 1.669
vt 1.000 16.625
v 536.943 149.537 1.792
vt 0.000 16.750
v 540.918 142.595 1.792
vt 1.000 16.750
v 541.189 151.983 1.913
vt 0.000 16.875
v 545.198 145.060 1.913
vt 1.000 16.875
v 545.423 154.449 2.034
vt 0.000 17.000
v 549.467 147.547 2.034
vt 1.000 17.000
v 549.644 156.937 2.153
vt 0.000 17.125
v 553.723 150.055 2.153
vt 1.000 17.125
v 553.853 159.445 2.270
vt 0.000 17.250
v 557.966 152.584 2.270
vt 1.000 17.250
v 558.050 161.975 2.386
vt 0.000 17.375
v 562.197 155.134 2.386
vt 1.000 17.375
v 562.233 164.526 2.500
vt 0.000 17.500
v 566.415 157.706 2.500
vt 1.000 17.500
v 566.404 167.098 2.612
vt 0.000 17.625
v 570.620 160.298 2.612
vt 1.000 17.625
v 570.562 169.690 2.723
vt 0.000 17.750
v 574.812 162.912 2.723
vt 1.000 17.750
v 574.707 172.303 2.832
vt 0.000 17.875
v 578.991 165.546 2.832
vt 1.000 17.875
v 578.839 174.937 2.939
vt 0.000 18.000
v 583.156 168.202 2.939
vt 1.000 18.000
v 582.958 177.592 3.044
vt 0.000 18.125
v 587.309 170.878 3.044
vt 1.000 18.125
v 587.063 180.267 3.147
vt 0.000 18.250
v 591.448 173.575 3.147
vt 1.000 18.250
v 591.155 182.962 3.247
vt 0.000 18.375
v 595.573 176.292 3.247
vt 1.000 18.375
v 595.234 185.678 3.346
vt 0.000 18.500
v 599.685 179.031 3.346
vt 1.000 18.500
v 599.299 188.414 3.442
vt 0.000 18.625
v 603.783 181.789 3.442
vt 1.000 18.625
v 603.350 191.171 3.535
vt 0.000 18.750
v 607.867 184.568 3.535
vt 1.000 18.750
v 607.387 193.948 3.627
vt 0.000 18.875
v 611.937 187.368 3.627
vt 1.000 18.875
v 611.410 196.745 3.716
vt 0.000 19.000
v 615.993 190.188 3.716
vt 1.000 19.000
v 615.419 199.562 3.802
vt 0.000 19.125
v 620.035 193.028 3.802
vt 1.000 19.125
v 619.414 202.399 3.886
vt 0.000 19.250
v 624.063 195.888 3.886
vt 1.000 19.250
v 623.395 205.256 3.967
vt 0.000 19.375
v 628.076 198.768 3.967
vt 1.000 19.375
v 627.362 208.133 4.045
vt 0.000 19.500
v 632.075 201.669 4.045
vt 1.000 19.500
v 631.314 211.030 4.121
vt 0.000 19.625
v 636.059 204.589 4.121
vt 1.000 19.625
v 635.252 213.946 4.193
vt 0.000 19.750
v 640.029 207.529 4.193
vt 1.000 19.750
v 639.174 216.882 4.263
vt 0.000 19.875
v 643.984 210.489 4.263
vt 1.000 19.875
v 643.083 219.838 4.330
vt 0.000 20.000
v 647.924 213.469 4.330
vt 1.000 20.000
v 646.976 222.813 4.394
vt 0.000 20.125
v 651.849 216.469 4.394
vt 1.000 20.125
v 650.855 225.808 4.455
vt 0.000 20.250
v 655.759 219.488 4.455
vt 1.000 20.250
v 654.718 228.822 4.513
vt 0.000 20.375
v 659.654 222.526 4.513
vt 1.000 20.375
v 658.566 231.855 4.568
vt 0.000 20.500
v 663.534 225.584 4.568
vt 1.000 20.500
v 662.399 234.907 4.619
vt 0.000 20.625
v 667.399 228.662 4.619
vt 1.000 20.625
v 666.217 237.979 4.668
vt 0.000 20.750
v 671.248 231.758 4.668
vt 1.000 20.750
v 670.020 241.069 4.713
vt 0.000 20.875
v 675.081 234.874 4.713
vt 1.000 20.875
v 673.806 244.179 4.755
vt 0.000 21.000
v 678.899 238.009 4.755
vt 1.000 21.000
v 677.578 247.307 4.794
vt 0.000 21.125
v 682.701 241.163 4.794
vt 1.000 21.125
v 681.333 250.455 4.830
vt 0.000 21.250
v 686.487 244.336 4.830
vt 1.000 21.250
v 685.073 253.621 4.862
vt 0.000 21.375
v 690.257 247.528 4.862
vt 1.000 21.375
v 688.797 256.805 4.891
vt 0.000 21.500
v 694.012 250.738 4.891
vt 1.000 21.500
v 692.505 260.009 4.916
vt 0.000 21.625
v 697.750 253.968 4.916
vt 1.000 21.625
v 696.197 263.230 4.938
vt 0.000 21.750
v 701.472 257.216 4.938
vt 1.000 21.750
v 699.873 266.471 4.957
vt 0.000 21.875
v 705.178 260.483 4.957
vt 1.000 21.875
v 703.532 269.729 4.973
vt 0.000 22.000
v 708.867 263.768 4.973
vt 1.000 22.000
v 707.175 273.006 4.985
vt 0.000 22.125
v 712.540 267.071 4.985
vt 1.000 22.125
v 710.802 276.301 4.993
vt 0.000 22.250
v 716.196 270.393 4.993
vt 1.000 22.250
v 714.412 279.614 4.998
vt 0.000 22.375
v 719.836 273.733 4.998
vt 1.000 22.375
v 718.006 282.945 5.000
vt 0.000 22.500
v 723.459 277.091 5.000
vt 1.000 22.500
v 721.583 286.294 4.998
vt 0.000 22.625
v 727.065 280.468 4.998
vt 1.000 22.625
v 725.143 289.661 4.993
vt 0.000 22.750
v 730.654 283.862 4.993
vt 1.000 22.750
v 728.686 293.045 4.985
vt 0.000 22.875
v 734.227 287.274 4.985
vt 1.000 22.875
v 732.213 296.448 4.973
vt 0.000 23.000
v 737.782 290.704 4.973
vt 1.000 23.000
v 735.722 299.867 4.957
vt 0.000 23.125
v 741.319 294.152 4.957
vt 1.000 23.125
v 739.214 303.305 4.938
vt 0.000 23.250
v 744.840 297.617 4.938
vt 1.000 23.250
v 742.689 306.759 4.916
vt 0.000 23.375
v 748.343 301.100 4.916
vt 1.000 23.375
v 746.146 310.232 4.891
vt 0.000 23.500
v 751.829 304.601 4.891
vt 1.000 23.500
v 749.586 313.721 4.862
vt 0.000 23.625
v 755.297 308.119 4.862
vt 1.000 23.625
v 753.009 317.227 4.830
vt 0.000 23.750
v 758.748 311.654 4.830
vt 1.000 23.750
v 756.493 320.814 4.794
vt 0.000 23.875
v 762.231 315.241 4.794
vt 1.000 23.875
v 759.976 324.401 4.755
vt 0.000 24.000
v 765.715 318.827 4.755
vt 1.000 24.000
v 763.460 327.988 4.713
vt 0.000 24.125
v 769.198 322.414 4.713
vt 1.000 24.125
v 766.943 331.575 4.668
vt 0.000 24.250
v 772.682 326.001 4.668
vt 1.000 24.250
v 770.427 335.161 4.619
vt 0.000 24.375
v 776.165 329.588 4.619
vt 1.000 24.375
v 773.910 338.748 4.568
vt 0.000 24.500
v 779.649 333.174 4.568
vt 1.000 24.500
v 777.394 342.335 4.513
vt 0.000 24.625
v 783.133 336.761 4.513
vt 1.000 24.625
v 780.877 345.922 4.455
vt 0.000 24.750
v 786.616 340.348 4.455
vt 1.000 24.750
v 784.361 349.508 4.394
vt 0.000 24.875
v 790.100 343.935 4.394
vt 1.000 24.875
v 787.844 353.095 4.330
vt 0.000 25.000
v 793.583 347.522 4.330
vt 1.000 25.000
v 791.328 356.682 4.263
vt 0.000 25.125
v 797.067 351.108 4.263
vt 1.000 25.125
v 794.811 360.269 4.193
vt 0.000 25.250
v 800.550 354.695 4.193
vt 1.000 25.250
v 798.295 363.856 4.121
vt 0.000 25.375
v 804.034 358.282 4.121
vt 1.000 25.375
v 801.778 367.442 4.045
vt 0.000 25.500
v 807.517 361.869 4.045
vt 1.000 25.500
v 805.262 371.029 3.967
vt 0.000 25.625
v 811.001 365.455 3.967
vt 1.000 25.625
v 808.746 374.616 3.886
vt 0.000 25.750
v 814.484 369.042 3.886
vt 1.000 25.750
v 812.229 378.203 3.802
vt 0.000 25.875
v 817.968 372.629 3.802
vt 1.000 25.875
v 815.713 381.789 3.716
vt 0.000 26.000
v 821.451 376.216 3.716
vt 1.000 26.000
v 819.196 385.376 3.627
vt 0.000 26.125
v 824.935 379.803 3.627
vt 1.000 26.125
v 822.680 388.963 3.535
vt 0.000 26.250
v 828.418 383.389 3.535
vt 1.000 26.250
v 826.163 392.550 3.442
vt 0.000 26.375
v 831.902 386.976 3.442
vt 1.000 26.375
v 829.647 396.137 3.346
vt 0.000 26.500
v 835.386 390.563 3.346
vt 1.000 26.500
v 833.130 399.723 3.247
vt 0.000 26.625
v 838.869 394.150 3.247
vt 1.000 26.625
v 836.614 403.310 3.147
vt 0.000 26.750
v 842.353 397.737 3.147
vt 1.000 26.750
v 840.097 406.897 3.044
vt 0.000 26.875
v 845.836 401.323 3.044
vt 1.000 26.875
v 843.581 410.484 2.939
vt 0.000 27.000
v 849.320 404.910 2.939
vt 1.000 27.000
v 847.064 414.070 2.832
vt 0.000 27.125
v 852.803 408.497 2.832
vt 1.000 27.125
v 850.548 417.657 2.723
vt 0.000 27.250
v 856.287 412.084 2.723
vt 1.000 27.250
v 854.031 421.244 2.612
vt 0.000 27.375
v 859.770 415.670 2.612
vt 1.000 27.375
v 857.515 424.831 2.500
vt 0.000 27.500
v 863.254 419.257 2.500
vt 1.000 27.500
v 860.999 428.418 2.386
vt 0.000 27.625
v 866.737 422.844 2.386
vt 1.000 27.625
v 864.482 432.004 2.270
vt 0.000 27.750
v 870.221 426.431 2.270
vt 1.000 27.750
v 867.966 435.591 2.153
vt 0.000 27.875
v 873.704 430.018 2.153
vt 1.000 27.875
v 871.449 439.178 2.034
vt 0.000 28.000
v 877.188 433.604 2.034
vt 1.000 28.000
v 874.933 442.765 1.913
vt 0.000 28.125
v 880.671 437.191 1.913
vt 1.000 28.125
v 878.416 446.352 1.792
vt 0.000 28.250
v 884.155 440.778 1.792
vt 1.000 28.250
v 881.900 449.938 1.669
vt 0.000 28.375
v 887.639 444.365 1.669
vt 1.000 28.375
v 885.383 453.525 1.545
vt 0.000 28.500
v 891.122 447.951 1.545
vt 1.000 28.500
v 892.350 460.699 1.294
vt 0.000 28.750
v 898.089 455.125 1.294
vt 1.000 28.750
v 899.317 467.872 1.040
vt 0.000 29.000
v 905.056 462.299 1.040
vt 1.000 29.000
v 906.284 475.046 0.782
vt 0.000 29.250
v 912.023 469.472 0.782
vt 1.000 29.250
v 913.252 482.219 0.523
vt 0.000 29.500
v 918.990 476.646 0.523
vt 1.000 29.500
v 923.702 492.980 0.131
vt 0.000 29.875
v 929.441 487.406 0.131
vt 1.000 29.875
v 941.120 510.914 -0.523
vt 0.000 30.500
v 946.859 505.340 -0.523
vt 1.000 30.500
v 948.087 518.087 -0.782
vt 0.000 30.750
v 953.826 512.513 -0.782
vt 1.000 30.750
v 955.054 525.261 -1.040
vt 0.000 31.000
v 960.793 519.687 -1.040
vt 1.000 31.000
v 962.021 532.434 -1.294
vt 0.000 31.250
v 967.760 526.861 -1.294
vt 1.000 31.250
v 968.988 539.608 -1.545
vt 0.000 31.500
v 974.727 534.034 -1.545
vt 1.000 31.500
v 972.472 543.195 -1.669
vt 0.000 31.625
v 978.210 537.621 -1.669
vt 1.000 31.625
v 975.955 546.781 -1.792
vt 0.000 31.750
v 981.694 541.208 -1.792
vt 1.000 31.750
v 979.439 550.368 -1.913
vt 0.000 31.875
v 985.177 544.795 -1.913
vt 1.000 31.875
v 982.922 553.955 -2.034
vt 0.000 32.000
v 988.661 548.381 -2.034
vt 1.000 32.000
v 986.406 557.542 -2.153
vt 0.000 32.125
v 992.145 551.968 -2.153
vt 1.000 32.125
v 989.889 561.128 -2.270
vt 0.000 32.250
v 995.628 555.555 -2.270
vt 1.000 32.250
v 993.373 564.715 -2.386
vt 0.000 32.375
v 999.112 559.142 -2.386
vt 1.000 32.375
v 996.856 568.302 -2.500
vt 0.000 32.500
v 1002.595 562.728 -2.500
vt 1.000 32.500
v 1000.340 571.889 -2.612
vt 0.000 32.625
v 1006.079 566.315 -2.612
vt 1.000 32.625
v 1003.823 575.476 -2.723
vt 0.000 32.750
v 1009.562 569.902 -2.723
vt 1.000 32.750
v 1007.307 579.062 -2.832
vt 0.000 32.875
v 1013.046 573.489 -2.832
vt 1.000 32.875
v 1010.790 582.649 -2.939
vt 0.000 33.000
v 1016.529 577.076 -2.939
vt 1.000 33.000
v 1014.274 586.236 -3.044
vt 0.000 33.125
v 1020.013 580.662 -3.044
vt 1.000 33.125
v 1017.758 589.823 -3.147
vt 0.000 33.250
v 1023.496 584.249 -3.147
vt 1.000 33.250
v 1021.241 593.410 -3.247
vt 0.000 33.375
v 1026.980 587.836 -3.247
vt 1.000 33.375
v 1024.725 596.996 -3.346
vt 0.000 33.500
v 1030.463 591.423 -3.346
vt 1.000 33.500
v 1028.208 600.583 -3.442
vt 0.000 33.625
v 1033.947 595.009 -3.442
vt 1.000 33.625
v 1031.692 604.170 -3.535
vt 0.000 33.750
v 1037.430 598.596 -3.535
vt 1.000 33.750
v 1035.175 607.757 -3.627
vt 0.000 33.875
v 1040.914 602.183 -3.627
vt 1.000 33.875
v 1038.659 611.343 -3.716
vt 0.000 34.000
v 1044.398 605.770 -3.716
vt 1.000 34.000
v 1042.142 614.930 -3.802
vt 0.000 34.125
v 1047.881 609.357 -3.802
vt 1.000 34.125
v 1045.626 618.517 -3.886
vt 0.000 34.250
v 1051.365 612.943 -3.886
vt 1.000 34.250
v 1049.109 622.104 -3.967
vt 0.000 34.375
v 1054.848 616.530 -3.967
vt 1.000 34.375
v 1052.593 625.691 -4.045
vt 0.000 34.500
v 1058.332 620.117 -4.045
vt 1.000 34.500
v 1056.076 629.277 -4.121
vt 0.000 34.625
v 1061.815 623.704 -4.121
vt 1.000 34.625
v 1059.560 632.864 -4.193
vt 0.000 34.750
v 1065.299 627.290 -4.193
vt 1.000 34.750
v 1063.043 636.451 -4.263
vt 0.000 34.875
v 1068.782 630.877 -4.263
vt 1.000 34.875
v 1066.527 640.038 -4.330
vt 0.000 35.000
v 1072.266 634.464 -4.330
vt 1.000 35.000
v 1070.011 643.624 -4.394
vt 0.000 35.125
v 1075.749 638.051 -4.394
vt 1.000 35.125
v 1073.494 647.211 -4.455
vt 0.000 35.250
v 1079.233 641.638 -4.455
vt 1.000 35.250
v 1076.978 650.798 -4.513
vt 0.000 35.375
v 1082.716 645.224 -4.513
vt 1.000 35.375
v 1080.461 654.385 -4.568
vt 0.000 35.500
v 1086.200 648.811 -4.568
vt 1.000 35.500
v 1083.945 657.972 -4.619
vt 0.000 35.625
v 1089.684 652.398 -4.619
vt 1.000 35.625
v 1087.428 661.558 -4.668
vt 0.000 35.750
v 1093.167 655.985 -4.668
vt 1.000 35.750
v 1090.912 665.145 -4.713
vt 0.000 35.875
v 1096.651 659.571 -4.713
vt 1.000 35.875
v 1094.395 668.732 -4.755
vt 0.000 36.000
v 1100.134 663.158 -4.755
vt 1.000 36.000
v 1097.879 672.319 -4.794
vt 0.000 36.125
v 1103.618 666.745 -4.794
vt 1.000 36.125
v 1101.362 675.905 -4.830
vt 0.000 36.250
v 1107.101 670.332 -4.830
vt 1.000 36.250
v 1104.846 679.492 -4.862
vt 0.000 36.375
v 1110.585 673.919 -4.862
vt 1.000 36.375
v 1108.329 683.079 -4.891
vt 0.000 36.500
v 1114.068 677.505 -4.891
vt 1.000 36.500
v 1111.813 686.666 -4.916
vt 0.000 36.625
v 1117.552 681.092 -4.916
vt 1.000 36.625
v 1115.296 690.253 -4.938
vt 0.000 36.750
v 1121.035 684.679 -4.938
vt 1.000 36.750
v 1118.780 693.839 -4.957
vt 0.000 36.875
v 1124.519 688.266 -4.957
vt 1.000 36.875
v 1122.264 697.426 -4.973
vt 0.000 37.000
v 1128.002 691.853 -4.973
vt 1.000 37.000
v 1125.747 701.013 -4.985
vt 0.000 37.125
v 1131.486 695.439 -4.985
vt 1.000 37.125
v 1129.231 704.600 -4.993
vt 0.000 37.250
v 1134.969 699.026 -4.993
vt 1.000 37.250
v 1132.714 708.186 -4.998
vt 0.000 37.375
v 1138.453 702.613 -4.998
vt 1.000 37.375
v 1136.198 711.773 -5.000
vt 0.000 37.500
v 1141.937 706.200 -5.000
vt 1.000 37.500
v 1554.222 1142.187 -5.000
vt 0.000 52.500
v 1559.961 1136.613 -5.000
vt 1.000 52.500
mtllib Roads\3D_Road\Road_63b804b3-ef93-4518-9d84-9c807f03fd6c_3.mtl
usemtl Road (Medium)
g g1
s 1
f  1/1 2/2 4/4 3/3
f  3/3 4/4 6/6 5/5
f  5/5 6/6 8/8 7/7
f  7/7 8/8 10/10 9/9
f  9/9 10/10 12/12 11/11
f  11/11 12/12 14/14 13/13
f  13/13 14/14 16/16 15/15
f  15/15 16/16 18/18 17/17
f  17/17 18/18 20/20 19/19
f  19/19 20/20 22/22 21/21
f  21/21 22/22 24/24 23/23
f  23/23 24/24 26/26 25/25
f  25/25 26/26 28/28 27/27
f  27/27 28/28 30/30 29/29
f  29/29 30/30 32/32 31/31
f  31/31 32/32 34/34 33/33
f  33/33 34/34 36/36 35/35
f  35/35 36/36 38/38 37/37
f  37/37 38/38 40/40 39/39
f  39/39 40/40 42/42 41/41
f  41/41 42/42 44/44 43/43
f  43/43 44/44 46/46 45/45
f  45/45 46/46 48/48 47/47
f  47/47 48/48 50/50 49/49
f  49/49 50/50 52/52 51/51
f  51/51 52/52 54/54 53/53
f  53/53 54/54 56/56 55/55
f  55/55 56/56 58/58 57/57
f  57/57 58/58 60/60 59/59
f  59/59 60/60 62/62 61/61
f  61/61 62/62 64/64 63/63
f  63/63 64/64 66/66 65/65
f  65/65 66/66 68/68 67/67
f  67/67 68/68 70/70 69/69
f  69/69 70/70 72/72 71/71
f  71/71 72/72 74/74 73/73
f  73/73 74/74 76/76 75/75
f  75/75 76/76 78/78 77/77
f  77/77 78/78 80/80 79/79
f  79/79 80/80 82/82 81/81
f  81/81 82/82 84/84 83/83
f  83/83 84/84 86/86 85/85
f  85/85 86/86 88/88 87/87
f  87/87 88/88 90/90 89/89
f  89/89 90/90 92/92 91/91
f  91/91 92/92 94/94 93/93
f  93/93 94/94 96/96 95/95
f  95/95 96/96 98/98 97/97
f  97/97 98/98 100/100 99/99
f  99/99 100/100 102/102 101/101
f  101/101 102/102 104/104 103/103
f  103/103 104/104 106/106 105/105
f  105/105 106/106 108/108 107/107
f  107/107 108/108 110/110 109/109
f  109/109 110/110 112/112 111/111
f  111/111 112/112 114/114 113/113
f  113/113 114/114 116/116 115/115
f  115/115 116/116 118/118 117/117
f  117/117 118/118 120/120 119/119
f  119/119 120/120 122/122 121/121
f  121/121 122/122 124/124 123/123
f  123/123 124/124 126/126 125/125
f  125/125 126/126 128/128 127/127
f  127/127 128/128 130/130 129/129
f  129/129 130/130 132/132 131/131
f  131/131 132/132 134/134 133/133
f  133/133 134/134 136/136 135/135
f  135/135 136/136 138/138 137/137
f  137/137 138/138 140/140 139/139
f  139/139 140/140 142/142 141/141
f  141/141 142/142 144/144 143/143
f  143/143 144/144 146/146 145/145
f  145/145 146/146 148/148 147/147
f  147/147 148/148 150/150 149/149
f  149/149 150/150 152/152 151/151
f  151/151 152/152 154/154 153/153
f  153/153 154/154 156/156 155/155
f  155/155 156/156 158/158 157/157
f  157/157 158/158 160/160 159/159
f  159/159 160/160 162/162 161/161
f  161/161 162/162 164/164 163/163
f  163/163 164/164 166/166 165/165
f  165/165 166/166 168/168 167/167
f  167/167 168/168 170/170 169/169
f  169/169 170/170 172/172 171/171
f  171/171 172/172 174/174 173/173
f  173/173 174/174 176/176 175/175
f  175/175 176/176 178/178 177/177
f  177/177 178/178 180/180 179/179
f  179/179 180/180 182/182 181/181
f  181/181 182/182 184/184 183/183
f  183/183 184/184 186/186 185/185
f  185/185 186/186 188/188 187/187
f  187/187 188/188 190/190 189/189
f  189/189 190/190 192/192 191/191
f  191/191 192/192 194/194 193/193
f  193/193 194/194 196/196 195/195
f  195/195 196/196 198/198 197/197
f  197/197 198/198 200/200 199/199
f  199/199 200/200 202/202 201/201
f  201/201 202/202 204/204 203/203
f  203/203 204/204 206/206 205/205
f  205/205 206/206 208/208 207/207
f  207/207 208/208 210/210 209/209
f  209/209 210/210 212/212 211/211
f  211/211 212/212 214/214 213/213
f  213/213 214/214 216/216 215/215
f  215/215 216/216 218/218 217/217
f  217/217 218/218 220/220 219/219
f  219/219 220/220 222/222 221/221
f  221/221 222/222 224/224 223/223
f  223/223 224/224 226/226 225/225
f  225/225 226/226 228/228 227/227
f  227/227 228/228 230/230 229/229
f  229/229 230/230 232/232 231/231
f  231/231 232/232 234/234 233/233
f  233/233 234/234 236/236 235/235
f  235/235 236/236 238/238 237/237
f  237/237 238/238 240/240 239/239
f  239/239 240/240 242/242 241/241
f  241/241 242/242 244/244 243/243
f  243/243 244/244 246/246 245/245
f  245/245 246/246 248/248 247/247
f  247/247 248/248 250/250 249/249
f  249/249 250/250 252/252 251/251
f  251/251 252/252 254/254 253/253
f  253/253 254/254 256/256 255/255
f  255/255 256/256 258/258 257/257
f  257/257 258/258 260/260 259/259
f  259/259 260/260 262/262 261/261
f  261/261 262/262 264/264 263/263
f  263/263 264/264 266/266 265/265
f  265/265 266/266 268/268 267/267
f  267/267 268/268 270/270 269/269
f  269/269 270/270 272/272 271/271
f  271/271 272/272 274/274 273/273
f  273/273 274/274 276/276 275/275
f  275/275 276/276 278/278 277/277
f  277/277 278/278 280/280 279/279
f  279/279 280/280 282/282 281/281
f  281/281 282/282 284/284 283/283
f  283/283 284/284 286/286 285/285
f  285/285 286/286 288/288 287/287
f  287/287 288/288 290/290 289/289
f  289/289 290/290 292/292 291/291
f  291/291 292/292 294/294 293/293
f  293/293 294/294 296/296 295/295
f  295/295 296/296 298/298 297/297
f  297/297 298/298 300/300 299/299
f  299/299 300/300 302/302 301/301
f  301/301 302/302 304/304 303/303
f  303/303 304/304 306/306 305/305
f  305/305 306/306 308/308 307/307
f  307/307 308/308 310/310 309/309
f  309/309 310/310 312/312 311/311
f  311/311 312/312 314/314 313/313
f  313/313 314/314 316/316 315/315
f  315/315 316/316 318/318 317/317
f  317/317 318/318 320/320 319/319
f  319/319 320/320 322/322 321/321
f  321/321 322/322 324/324 323/323
f  323/323 324/324 326/326 325/325
f  325/325 326/326 328/328 327/327
f  327/327 328/328 330/330 329/329
f  329/329 330/330 332/332 331/331
f  331/331 332/332 334/334 333/333
f  333/333 334/334 336/336 335/335
f  335/335 336/336 338/338 337/337
f  337/337 338/338 340/340 339/339
f  339/339 340/340 342/342 341/341
f  341/341 342/342 344/344 343/343
f  343/343 344/344 346/346 345/345
f  345/345 346/346 348/348 347/347
f  347/347 348/348 350/350 349/349
f  349/349 350/350 352/352 351/351
f  351/351 352/352 354/354 353/353
f  353/353 354/354 356/356 355/355
f  355/355 356/356 358/358 357/357
f  357/357 358/358 360/360 359/359
f  359/359 360/360 362/362 361/361
f  361/361 362/362 364/364 363/363
f  363/363 364/364 366/366 365/365
f  365/365 366/366 368/368 367/367
f  367/367 368/368 370/370 369/369
f  369/369 370/370 372/372 371/371
f  371/371 372/372 374/374 373/373
f  373/373 374/374 376/376 375/375
f  375/375 376/376 378/378 377/377
f  377/377 378/378 380/380 379/379
f  379/379 380/380 382/382 381/381
f  381/381 382/382 384/384 383/383
f  383/383 384/384 386/386 385/385
f  385/385 386/386 388/388 387/387
f  387/387 388/388 390/390 389/389
f  389/389 390/390 392/392 391/391
f  391/391 392/392 394/394 393/393
f  393/393 394/394 396/396 395/395
f  395/395 396/396 398/398 397/397
f  397/397 398/398 400/400 399/399
f  399/399 400/400 402/402 401/401
f  401/401 402/402 404/404 403/403
f  403/403 404/404 406/406 405/405
f  405/405 406/406 408/408 407/407
f  407/407 408/408 410/410 409/409
f  409/409 410/410 412/412 411/411
f  411/411 412/412 414/414 413/413
f  413/413 414/414 416/416 415/415
f  415/415 416/416 418/418 417/417
f  417/417 418/418 420/420 419/419
f  419/419 420/420 422/422 421/421
f  421/421 422/422 424/424 423/423
f  423/423 424/424 426/426 425/425
f  425/425 426/426 428/428 427/427
f  427/427 428/428 430/430 429/429
f  429/429 430/430 432/432 431/431
f  431/431 432/432 434/434 433/433
f  433/433 434/434 436/436 435/435
f  435/435 436/436 438/438 437/437
f  437/437 438/438 440/440 439/439
f  439/439 440/440 442/442 441/441
f  441/441 442/442 444/444 443/443
f  443/443 444/444 446/446 445/445
f  445/445 446/446 448/448 447/447
f  447/447 448/448 450/450 449/449
f  449/449 450/450 452/452 451/451
f  451/451 452/452 454/454 453/453
f  453/453 454/454 456/456 455/455
f  455/455 456/456 458/458 457/457
f  457/457 458/458 460/460 459/459
f  459/459 460/460 462/462 461/461
f  461/461 462/462 464/464 463/463
f  463/463 464/464 466/466 465/465
f  465/465 466/466 468/468 467/467
f  467/467 468/468 470/470 469/469
f  469/469 470/470 472/472 471/471
f  471/471 472/472 474/474 473/473
f  473/473 474/474 476/476 475/475
f  475/475 476/476 478/478 477/477
f  477/477 478/478 480/480 479/479
f  479/479 480/480 482/482 481/481
f  481/481 482/482 484/484 483/483
f  483/483 484/484 486/486 485/485
f  485/485 486/486 488/488 487/487
f  487/487 488/488 490/490 489/489
f  489/489 490/490 492/492 491/491
f  491/491 492/492 494/494 493/493
f  493/493 494/494 496/496 495/495
f  495/495 496/496 498/498 497/497
f  497/497 498/498 500/500 499/499
f  499/499 500/500 502/502 501/501
f  501/501 502/502 504/504 503/503
f  503/503 504/504 506/506 505/505
f  505/505 506/506 508/508 507/507
f  507/507 508/508 510/510 509/509
f  509/509 510/510 512/512 511/511
f  511/511 512/512 514/514 513/513
f  513/513 514/514 516/516 515/515
f  515/515 516/516 518/518 517/517
g g2
s 2
g g3
s 3
g g4
s 4
