# Shape file for lane 2
v 31.507 -40.637 -0.500
vt 0.000 0.000
v 111.715 -4.435 0.200
vt 2.250 0.000
v 30.684 -38.814 -0.500
vt 0.000 0.050
v 110.893 -2.612 0.200
vt 2.250 0.050
v 29.861 -36.991 -0.500
vt 0.000 0.100
v 110.070 -0.789 0.200
vt 2.250 0.100
v 29.038 -35.168 -0.500
vt 0.000 0.150
v 109.247 1.034 0.200
vt 2.250 0.150
v 28.216 -33.345 -0.500
vt 0.000 0.200
v 108.424 2.857 0.200
vt 2.250 0.200
v 27.393 -31.522 -0.500
vt 0.000 0.250
v 107.602 4.680 0.200
vt 2.250 0.250
v 26.570 -29.699 -0.500
vt 0.000 0.300
v 106.779 6.503 0.200
vt 2.250 0.300
v 25.747 -27.876 -0.500
vt 0.000 0.350
v 105.956 8.326 0.200
vt 2.250 0.350
v 24.925 -26.053 -0.500
vt 0.000 0.400
v 105.133 10.149 0.200
vt 2.250 0.400
v 24.102 -24.230 -0.500
vt 0.000 0.450
v 104.311 11.971 0.200
vt 2.250 0.450
v 23.279 -22.407 -0.500
vt 0.000 0.500
v 103.488 13.794 0.200
vt 2.250 0.500
v 22.456 -20.584 -0.500
vt 0.000 0.550
v 102.665 15.617 0.200
vt 2.250 0.550
v 21.633 -18.761 -0.500
vt 0.000 0.600
v 101.842 17.440 0.200
vt 2.250 0.600
v 20.811 -16.939 -0.500
vt 0.000 0.650
v 101.019 19.263 0.200
vt 2.250 0.650
v 19.988 -15.116 -0.500
vt 0.000 0.700
v 100.197 21.086 0.200
vt 2.250 0.700
v 19.165 -13.293 -0.500
vt 0.000 0.750
v 99.374 22.909 0.200
vt 2.250 0.750
v 18.342 -11.470 -0.500
vt 0.000 0.800
v 98.551 24.732 0.200
vt 2.250 0.800
v 17.520 -9.647 -0.500
vt 0.000 0.850
v 97.728 26.555 0.200
vt 2.250 0.850
v 16.697 -7.824 -0.500
vt 0.000 0.900
v 96.906 28.378 0.200
vt 2.250 0.900
v 15.874 -6.001 -0.500
vt 0.000 0.950
v 96.083 30.201 0.200
vt 2.250 0.950
v 15.051 -4.178 -0.500
vt 0.000 1.000
v 95.260 32.024 0.200
vt 2.250 1.000
v 14.229 -2.355 -0.500
vt 0.000 1.050
v 94.437 33.847 0.200
vt 2.250 1.050
v 13.406 -0.532 -0.500
vt 0.000 1.100
v 93.615 35.669 0.200
vt 2.250 1.100
v 12.583 1.291 -0.500
vt 0.000 1.150
v 92.792 37.492 0.200
vt 2.250 1.150
v 11.760 3.114 -0.500
vt 0.000 1.200
v 91.969 39.315 0.200
vt 2.250 1.200
v 10.938 4.937 -0.500
vt 0.000 1.250
v 91.146 41.138 0.200
vt 2.250 1.250
v 10.302 6.331 -0.500
vt 0.000 1.300
v 91.861 39.377 0.200
vt 2.250 1.300
v 8.604 9.166 -0.500
vt 0.000 1.350
v 85.978 51.086 0.200
vt 2.250 1.350
v 6.772 12.696 -0.500
vt 0.000 1.400
v 76.113 66.880 0.200
vt 2.250 1.400
v 5.699 14.087 -0.500
vt 0.000 1.450
v 75.908 67.140 0.200
vt 2.250 1.450
v 5.960 13.420 -0.500
vt 0.000 1.500
v 86.189 49.576 0.200
vt 2.250 1.500
v 3.503 17.340 -0.500
vt 0.000 1.550
v 73.828 70.239 0.200
vt 2.250 1.550
v 2.072 19.395 -0.500
vt 0.000 1.600
v 69.994 75.347 0.200
vt 2.250 1.600
v 0.684 21.372 -0.500
vt 0.000 1.650
v 66.499 79.787 0.200
vt 2.250 1.650
v 1.161 21.347 -0.500
vt 0.000 1.700
v 76.769 66.375 0.200
vt 2.250 1.700
v 0.544 22.050 -0.500
vt 0.000 1.750
v 79.808 60.276 0.200
vt 2.250 1.750
v -0.219 22.806 -0.500
vt 0.000 1.800
v 81.797 54.704 0.200
vt 2.250 1.800
v -3.745 28.396 -0.500
vt 0.000 1.850
v 60.063 88.998 0.200
vt 2.250 1.850
v -2.713 27.533 -0.500
vt 0.000 1.900
v 75.072 68.685 0.200
vt 2.250 1.900
v -3.275 27.877 -0.500
vt 0.000 1.950
v 78.770 59.699 0.200
vt 2.250 1.950
v -6.791 33.457 -0.500
vt 0.000 2.000
v 57.151 93.917 0.200
vt 2.250 2.000
v -5.311 31.878 -0.500
vt 0.000 2.050
v 75.220 67.356 0.200
vt 2.250 2.050
v -6.306 33.094 -0.500
vt 0.000 2.100
v 75.429 65.702 0.200
vt 2.250 2.100
v -10.077 39.000 -0.500
vt 0.000 2.150
v 51.098 102.258 0.200
vt 2.250 2.150
v -8.295 36.772 -0.500
vt 0.000 2.200
v 72.822 70.890 0.200
vt 2.250 2.200
v -9.376 38.198 -0.500
vt 0.000 2.250
v 72.293 70.975 0.200
vt 2.250 2.250
v -9.773 39.086 -0.500
vt 0.000 2.300
v 74.409 64.727 0.200
vt 2.250 2.300
v -11.402 42.068 -0.500
vt 0.000 2.350
v 69.071 77.679 0.200
vt 2.250 2.350
v -12.026 43.531 -0.500
vt 0.000 2.400
v 69.626 76.348 0.200
vt 2.250 2.400
v -13.317 45.454 -0.500
vt 0.000 2.450
v 67.368 80.581 0.200
vt 2.250 2.450
v -16.437 50.785 -0.500
vt 0.000 2.500
v 47.142 111.628 0.200
vt 2.250 2.500
v -15.219 49.098 -0.500
vt 0.000 2.550
v 64.990 85.298 0.200
vt 2.250 2.550
v -18.578 54.399 -0.500
vt 0.000 2.600
v 43.722 116.549 0.200
vt 2.250 2.600
v -17.233 52.702 -0.500
vt 0.000 2.650
v 62.461 90.022 0.200
vt 2.250 2.650
v -19.954 57.449 -0.500
vt 0.000 2.700
v 45.567 116.194 0.200
vt 2.250 2.700
v -18.792 55.508 -0.500
vt 0.000 2.750
v 63.061 87.820 0.200
vt 2.250 2.750
v -20.669 58.671 -0.500
vt 0.000 2.800
v 55.755 102.298 0.200
vt 2.250 2.800
v -20.408 58.085 -0.500
vt 0.000 2.850
v 63.710 83.934 0.200
vt 2.250 2.850
v -23.103 63.097 -0.500
vt 0.000 2.900
v 48.992 113.558 0.200
vt 2.250 2.900
v -22.655 62.590 -0.500
vt 0.000 2.950
v 58.768 95.970 0.200
vt 2.250 2.950
v -24.768 66.117 -0.500
vt 0.000 3.000
v 49.419 113.449 0.200
vt 2.250 3.000
v -24.471 65.958 -0.500
vt 0.000 3.050
v 57.294 98.491 0.200
vt 2.250 3.050
v -27.212 70.478 -0.500
vt 0.000 3.100
v 42.535 124.137 0.200
vt 2.250 3.100
v -27.861 72.023 -0.500
vt 0.000 3.150
v 43.336 123.744 0.200
vt 2.250 3.150
v -27.523 71.020 -0.500
vt 0.000 3.200
v 54.301 103.404 0.200
vt 2.250 3.200
v -29.136 74.664 -0.500
vt 0.000 3.250
v 46.217 120.117 0.200
vt 2.250 3.250
v -29.402 74.543 -0.500
vt 0.000 3.300
v 52.307 107.219 0.200
vt 2.250 3.300
v -31.310 78.472 -0.500
vt 0.000 3.350
v 42.386 126.565 0.200
vt 2.250 3.350
v -30.931 77.004 -0.500
vt 0.000 3.400
v 53.375 102.234 0.200
vt 2.250 3.400
v -32.286 80.334 -0.500
vt 0.000 3.450
v 47.922 116.536 0.200
vt 2.250 3.450
v -35.354 85.062 -0.500
vt 0.000 3.500
v 30.206 143.763 0.200
vt 2.250 3.500
v -33.793 82.891 -0.500
vt 0.000 3.550
v 49.134 112.339 0.200
vt 2.250 3.550
v -37.558 88.977 -0.500
vt 0.000 3.600
v 25.214 150.651 0.200
vt 2.250 3.600
v -36.088 87.272 -0.500
vt 0.000 3.650
v 44.121 123.474 0.200
vt 2.250 3.650
v -39.302 92.180 -0.500
vt 0.000 3.700
v 25.097 152.153 0.200
vt 2.250 3.700
v -37.906 90.728 -0.500
vt 0.000 3.750
v 42.439 126.627 0.200
vt 2.250 3.750
v -38.862 91.857 -0.500
vt 0.000 3.800
v 42.962 124.242 0.200
vt 2.250 3.800
v -39.889 94.195 -0.500
vt 0.000 3.850
v 40.361 130.305 0.200
vt 2.250 3.850
v -43.489 99.778 -0.500
vt 0.000 3.900
v 16.797 163.884 0.200
vt 2.250 3.900
v -41.749 97.694 -0.500
vt 0.000 3.950
v 38.462 133.890 0.200
vt 2.250 3.950
v -45.412 103.159 -0.500
vt 0.000 4.000
v 15.252 166.908 0.200
vt 2.250 4.000
v -43.626 101.230 -0.500
vt 0.000 4.050
v 36.425 137.779 0.200
vt 2.250 4.050
v -47.137 106.594 -0.500
vt 0.000 4.100
v 14.166 169.729 0.200
vt 2.250 4.100
v -45.616 104.764 -0.500
vt 0.000 4.150
v 34.144 141.943 0.200
vt 2.250 4.150
v -46.042 105.947 -0.500
vt 0.000 4.200
v 35.870 138.109 0.200
vt 2.250 4.200
v -47.465 108.179 -0.500
vt 0.000 4.250
v 32.502 144.911 0.200
vt 2.250 4.250
v -47.598 108.346 -0.500
vt 0.000 4.300
v 36.961 132.714 0.200
vt 2.250 4.300
v -49.656 112.338 -0.500
vt 0.000 4.350
v 27.858 153.999 0.200
vt 2.250 4.350
v -49.824 112.808 -0.500
vt 0.000 4.400
v 32.295 144.436 0.200
vt 2.250 4.400
v -51.423 115.447 -0.500
vt 0.000 4.450
v 27.388 154.599 0.200
vt 2.250 4.450
v -51.418 115.313 -0.500
vt 0.000 4.500
v 33.069 139.927 0.200
vt 2.250 4.500
v -53.699 119.717 -0.500
vt 0.000 4.550
v 22.003 164.586 0.200
vt 2.250 4.550
v -53.647 119.789 -0.500
vt 0.000 4.600
v 28.344 151.750 0.200
vt 2.250 4.600
v -55.484 122.884 -0.500
vt 0.000 4.650
v 21.404 165.689 0.200
vt 2.250 4.650
v -56.936 125.872 -0.500
vt 0.000 4.700
v 14.712 176.966 0.200
vt 2.250 4.700
v -56.875 125.478 -0.500
vt 0.000 4.750
v 23.334 161.680 0.200
vt 2.250 4.750
v -59.431 130.012 -0.500
vt 0.000 4.800
v 8.280 186.218 0.200
vt 2.250 4.800
v -58.552 128.310 -0.500
vt 0.000 4.850
v 23.565 159.943 0.200
vt 2.250 4.850
v -60.663 132.723 -0.500
vt 0.000 4.900
v 11.463 183.139 0.200
vt 2.250 4.900
v -60.590 132.219 -0.500
vt 0.000 4.950
v 20.255 166.975 0.200
vt 2.250 4.950
v -63.366 136.654 -0.500
vt 0.000 5.000
v 5.150 191.877 0.200
vt 2.250 5.000
v -62.399 135.353 -0.500
vt 0.000 5.050
v 19.411 167.774 0.200
vt 2.250 5.050
v -65.824 140.884 -0.500
vt 0.000 5.100
v -1.946 201.411 0.200
vt 2.250 5.100
v -64.478 139.354 -0.500
vt 0.000 5.150
v 15.731 175.556 0.200
vt 2.250 5.150
v -67.436 143.942 -0.500
vt 0.000 5.200
v -1.009 201.661 0.200
vt 2.250 5.200
v -66.890 143.752 -0.500
vt 0.000 5.250
v 9.825 186.866 0.200
vt 2.250 5.250
v -67.293 144.064 -0.500
vt 0.000 5.300
v 14.265 177.114 0.200
vt 2.250 5.300
v -68.628 147.044 -0.500
vt 0.000 5.350
v 9.004 188.485 0.200
vt 2.250 5.350
v -69.170 147.355 -0.500
vt 0.000 5.400
v 12.858 179.220 0.200
vt 2.250 5.400
v -69.876 149.156 -0.500
vt 0.000 5.450
v 12.328 180.566 0.200
vt 2.250 5.450
v -71.034 150.829 -0.500
vt 0.000 5.500
v 11.016 182.638 0.200
vt 2.250 5.500
v -74.802 156.752 -0.500
vt 0.000 5.550
v -13.082 219.479 0.200
vt 2.250 5.550
v -73.213 154.888 -0.500
vt 0.000 5.600
v 6.995 191.091 0.200
vt 2.250 5.600
v -75.658 159.089 -0.500
vt 0.000 5.650
v -6.347 213.312 0.200
vt 2.250 5.650
v -75.086 158.402 -0.500
vt 0.000 5.700
v 5.123 194.603 0.200
vt 2.250 5.700
v -78.648 163.770 -0.500
vt 0.000 5.750
v -17.249 226.811 0.200
vt 2.250 5.750
v -76.968 161.761 -0.500
vt 0.000 5.800
v 3.569 197.226 0.200
vt 2.250 5.800
v -78.055 163.453 -0.500
vt 0.000 5.850
v 2.431 199.034 0.200
vt 2.250 5.850
v -78.695 164.940 -0.500
vt 0.000 5.900
v 2.888 197.926 0.200
vt 2.250 5.900
v -79.898 166.663 -0.500
vt 0.000 5.950
v 1.340 200.492 0.200
vt 2.250 5.950
v -80.745 168.639 -0.500
vt 0.000 6.000
v 0.076 203.452 0.200
vt 2.250 6.000
v -81.916 170.524 -0.500
vt 0.000 6.050
v -1.775 206.875 0.200
vt 2.250 6.050
v -85.334 175.873 -0.500
vt 0.000 6.100
v -23.543 238.530 0.200
vt 2.250 6.100
v -83.834 173.964 -0.500
vt 0.000 6.150
v -3.625 210.166 0.200
vt 2.250 6.150
v -87.501 179.503 -0.500
vt 0.000 6.200
v -27.187 243.582 0.200
vt 2.250 6.200
v -85.403 176.781 -0.500
vt 0.000 6.250
v -3.140 208.036 0.200
vt 2.250 6.250
v -87.202 179.825 -0.500
vt 0.000 6.300
v -9.729 221.562 0.200
vt 2.250 6.300
v -87.366 180.285 -0.500
vt 0.000 6.350
v -5.249 211.920 0.200
vt 2.250 6.350
v -89.040 183.070 -0.500
vt 0.000 6.400
v -10.775 223.301 0.200
vt 2.250 6.400
v -89.211 183.724 -0.500
vt 0.000 6.450
v -6.969 215.033 0.200
vt 2.250 6.450
v -91.247 187.205 -0.500
vt 0.000 6.500
v -15.598 232.164 0.200
vt 2.250 6.500
v -93.451 190.846 -0.500
vt 0.000 6.550
v -27.676 249.307 0.200
vt 2.250 6.550
v -92.555 189.469 -0.500
vt 0.000 6.600
v -12.346 225.669 0.200
vt 2.250 6.600
v -94.644 193.379 -0.500
vt 0.000 6.650
v -23.417 245.058 0.200
vt 2.250 6.650
v -94.352 192.810 -0.500
vt 0.000 6.700
v -13.581 227.740 0.200
vt 2.250 6.700
v -96.680 196.603 -0.500
vt 0.000 6.750
v -24.808 247.381 0.200
vt 2.250 6.750
v -96.212 196.074 -0.500
vt 0.000 6.800
v -14.856 229.618 0.200
vt 2.250 6.800
v -97.993 199.050 -0.500
vt 0.000 6.850
v -21.460 242.485 0.200
vt 2.250 6.850
v -98.241 199.944 -0.500
vt 0.000 6.900
v -18.110 236.317 0.200
vt 2.250 6.900
v -100.798 203.992 -0.500
vt 0.000 6.950
v -31.341 258.027 0.200
vt 2.250 6.950
v -101.389 205.462 -0.500
vt 0.000 7.000
v -30.064 257.005 0.200
vt 2.250 7.000
v -100.708 203.660 -0.500
vt 0.000 7.050
v -16.690 229.831 0.200
vt 2.250 7.050
v -102.608 208.000 -0.500
vt 0.000 7.100
v -26.704 252.527 0.200
vt 2.250 7.100
v -102.943 207.988 -0.500
vt 0.000 7.150
v -21.186 240.542 0.200
vt 2.250 7.150
v -104.816 211.872 -0.500
vt 0.000 7.200
v -30.823 259.506 0.200
vt 2.250 7.200
v -104.475 210.451 -0.500
vt 0.000 7.250
v -20.138 235.577 0.200
vt 2.250 7.250
v -108.446 217.160 -0.500
vt 0.000 7.300
v -45.872 279.035 0.200
vt 2.250 7.300
v -106.952 215.426 -0.500
vt 0.000 7.350
v -26.744 251.629 0.200
vt 2.250 7.350
v -110.255 220.446 -0.500
vt 0.000 7.400
v -46.580 281.187 0.200
vt 2.250 7.400
v -108.418 217.925 -0.500
vt 0.000 7.450
v -25.317 246.877 0.200
vt 2.250 7.450
v -109.736 220.033 -0.500
vt 0.000 7.500
v -27.976 252.580 0.200
vt 2.250 7.500
v -110.731 222.369 -0.500
vt 0.000 7.550
v -30.502 258.528 0.200
vt 2.250 7.550
v -111.672 223.464 -0.500
vt 0.000 7.600
v -29.852 255.860 0.200
vt 2.250 7.600
v -112.462 225.562 -0.500
vt 0.000 7.650
v -31.300 259.573 0.200
vt 2.250 7.650
v -113.606 227.130 -0.500
vt 0.000 7.700
v -32.325 260.856 0.200
vt 2.250 7.700
v -117.297 232.905 -0.500
vt 0.000 7.750
v -56.164 296.203 0.200
vt 2.250 7.750
v -115.730 231.041 -0.500
vt 0.000 7.800
v -35.897 268.065 0.200
vt 2.250 7.800
v -119.003 236.320 -0.500
vt 0.000 7.850
v -57.097 298.862 0.200
vt 2.250 7.850
v -117.264 233.804 -0.500
vt 0.000 7.900
v -35.157 265.465 0.200
vt 2.250 7.900
v -118.762 236.227 -0.500
vt 0.000 7.950
v -39.207 273.843 0.200
vt 2.250 7.950
v -119.221 237.306 -0.500
vt 0.000 8.000
v -37.252 269.323 0.200
vt 2.250 8.000
v -120.273 238.701 -0.500
vt 0.000 8.050
v -37.684 269.083 0.200
vt 2.250 8.050
v -121.070 240.743 -0.500
vt 0.000 8.100
v -38.975 272.435 0.200
vt 2.250 8.100
v -122.736 243.520 -0.500
vt 0.000 8.150
v -44.461 283.732 0.200
vt 2.250 8.150
v -125.795 248.293 -0.500
vt 0.000 8.200
v -63.482 310.431 0.200
vt 2.250 8.200
v -124.161 246.118 -0.500
vt 0.000 8.250
v -42.837 279.740 0.200
vt 2.250 8.250
v -127.051 251.195 -0.500
vt 0.000 8.300
v -60.585 308.870 0.200
vt 2.250 8.300
v -126.083 249.524 -0.500
vt 0.000 8.350
v -44.619 282.807 0.200
vt 2.250 8.350
v -128.183 253.034 -0.500
vt 0.000 8.400
v -53.852 300.140 0.200
vt 2.250 8.400
v -127.908 252.916 -0.500
vt 0.000 8.450
v -46.172 285.522 0.200
vt 2.250 8.450
v -130.624 257.396 -0.500
vt 0.000 8.500
v -60.710 310.838 0.200
vt 2.250 8.500
v -129.972 256.667 -0.500
vt 0.000 8.550
v -49.142 291.458 0.200
vt 2.250 8.550
v -132.281 260.438 -0.500
vt 0.000 8.600
v -60.200 310.919 0.200
vt 2.250 8.600
v -131.660 259.717 -0.500
vt 0.000 8.650
v -49.535 291.331 0.200
vt 2.250 8.650
v -134.716 264.726 -0.500
vt 0.000 8.700
v -67.044 320.980 0.200
vt 2.250 8.700
v -134.768 265.456 -0.500
vt 0.000 8.750
v -61.246 313.814 0.200
vt 2.250 8.750
v -134.725 264.810 -0.500
vt 0.000 8.800
v -52.631 296.505 0.200
vt 2.250 8.800
v -136.152 268.185 -0.500
vt 0.000 8.850
v -59.235 310.938 0.200
vt 2.250 8.850
v -136.601 268.329 -0.500
vt 0.000 8.900
v -54.607 300.281 0.200
vt 2.250 8.900
v -138.259 271.913 -0.500
vt 0.000 8.950
v -62.515 316.711 0.200
vt 2.250 8.950
v -138.509 271.691 -0.500
vt 0.000 9.000
v -56.262 302.987 0.200
vt 2.250 9.000
v -142.356 277.839 -0.500
vt 0.000 9.050
v -81.579 341.480 0.200
vt 2.250 9.050
v -140.639 275.848 -0.500
vt 0.000 9.100
v -60.426 312.040 0.200
vt 2.250 9.100
v -144.063 281.022 -0.500
vt 0.000 9.150
v -81.396 342.802 0.200
vt 2.250 9.150
v -142.548 279.214 -0.500
vt 0.000 9.200
v -62.058 314.788 0.200
vt 2.250 9.200
v -146.200 284.853 -0.500
vt 0.000 9.250
v -85.896 348.943 0.200
vt 2.250 9.250
v -144.328 282.586 -0.500
vt 0.000 9.300
v -63.434 317.230 0.200
vt 2.250 9.300
v -145.360 283.898 -0.500
vt 0.000 9.350
v -63.568 316.364 0.200
vt 2.250 9.350
v -146.373 286.259 -0.500
vt 0.000 9.400
v -66.205 322.551 0.200
vt 2.250 9.400
v -147.366 287.741 -0.500
vt 0.000 9.450
v -66.567 322.605 0.200
vt 2.250 9.450
v -148.093 289.433 -0.500
vt 0.000 9.500
v -66.832 323.206 0.200
vt 2.250 9.500
v -149.208 290.942 -0.500
vt 0.000 9.550
v -67.646 323.983 0.200
vt 2.250 9.550
v -151.797 295.624 -0.500
vt 0.000 9.600
v -82.589 349.977 0.200
vt 2.250 9.600
v -151.247 294.897 -0.500
vt 0.000 9.650
v -71.039 331.100 0.200
vt 2.250 9.650
v -154.754 300.300 -0.500
vt 0.000 9.700
v -93.343 363.329 0.200
vt 2.250 9.700
v -153.256 298.485 -0.500
vt 0.000 9.750
v -73.509 335.694 0.200
vt 2.250 9.750
v -156.319 303.569 -0.500
vt 0.000 9.800
v -93.094 364.779 0.200
vt 2.250 9.800
v -155.049 301.835 -0.500
vt 0.000 9.850
v -74.840 338.036 0.200
vt 2.250 9.850
v -158.438 307.159 -0.500
vt 0.000 9.900
v -96.330 369.500 0.200
vt 2.250 9.900
v -156.799 304.864 -0.500
vt 0.000 9.950
v -75.248 337.932 0.200
vt 2.250 9.950
v -158.433 307.749 -0.500
vt 0.000 10.000
v -81.042 349.638 0.200
vt 2.250 10.000
v -158.610 308.217 -0.500
vt 0.000 10.050
v -76.591 340.105 0.200
vt 2.250 10.050
v -160.360 311.155 -0.500
vt 0.000 10.100
v -82.804 352.737 0.200
vt 2.250 10.100
v -160.218 310.762 -0.500
vt 0.000 10.150
v -75.897 335.943 0.200
vt 2.250 10.150
v -162.718 315.511 -0.500
vt 0.000 10.200
v -88.905 363.423 0.200
vt 2.250 10.200
v -164.441 318.496 -0.500
vt 0.000 10.250
v -97.027 375.059 0.200
vt 2.250 10.250
v -163.783 317.367 -0.500
vt 0.000 10.300
v -83.572 353.563 0.200
vt 2.250 10.300
v -165.766 321.150 -0.500
vt 0.000 10.350
v -93.834 371.844 0.200
vt 2.250 10.350
v -165.641 320.848 -0.500
vt 0.000 10.400
v -85.320 356.800 0.200
vt 2.250 10.400
v -168.083 325.268 -0.500
vt 0.000 10.450
v -99.465 380.364 0.200
vt 2.250 10.450
v -167.541 324.207 -0.500
vt 0.000 10.500
v -86.915 359.470 0.200
vt 2.250 10.500
v -169.683 327.917 -0.500
vt 0.000 10.550
v -97.244 377.882 0.200
vt 2.250 10.550
v -169.471 327.849 -0.500
vt 0.000 10.600
v -89.262 364.049 0.200
vt 2.250 10.600
v -172.153 332.075 -0.500
vt 0.000 10.650
v -103.574 387.220 0.200
vt 2.250 10.650
v -171.399 331.271 -0.500
vt 0.000 10.700
v -91.088 367.246 0.200
vt 2.250 10.700
v -173.563 334.989 -0.500
vt 0.000 10.750
v -101.646 385.704 0.200
vt 2.250 10.750
v -173.877 335.983 -0.500
vt 0.000 10.800
v -98.087 380.703 0.200
vt 2.250 10.800
v -174.200 335.954 -0.500
vt 0.000 10.850
v -92.466 368.567 0.200
vt 2.250 10.850
v -176.089 339.858 -0.500
vt 0.000 10.900
v -102.233 387.704 0.200
vt 2.250 10.900
v -175.730 338.415 -0.500
vt 0.000 10.950
v -91.409 363.594 0.200
vt 2.250 10.950
v -177.428 342.488 -0.500
vt 0.000 11.000
v -99.840 384.010 0.200
vt 2.250 11.000
v -177.965 342.790 -0.500
vt 0.000 11.050
v -95.944 374.671 0.200
vt 2.250 11.050
v -181.499 348.391 -0.500
vt 0.000 11.100
v -117.742 409.046 0.200
vt 2.250 11.100
v -179.695 345.868 -0.500
vt 0.000 11.150
v -96.590 374.809 0.200
vt 2.250 11.150
v -183.595 352.182 -0.500
vt 0.000 11.200
v -121.855 414.889 0.200
vt 2.250 11.200
v -181.992 350.344 -0.500
vt 0.000 11.250
v -101.822 386.631 0.200
vt 2.250 11.250
v -182.892 351.351 -0.500
vt 0.000 11.300
v -100.864 383.218 0.200
vt 2.250 11.300
v -183.401 352.583 -0.500
vt 0.000 11.350
v -99.724 379.825 0.200
vt 2.250 11.350
v -184.854 355.075 -0.500
vt 0.000 11.400
v -103.537 388.714 0.200
vt 2.250 11.400
v -188.553 360.861 -0.500
vt 0.000 11.450
v -127.426 424.166 0.200
vt 2.250 11.450
v -186.928 358.888 -0.500
vt 0.000 11.500
v -106.719 395.090 0.200
vt 2.250 11.500
v -190.606 364.377 -0.500
vt 0.000 11.550
v -130.101 428.277 0.200
vt 2.250 11.550
v -188.524 361.795 -0.500
vt 0.000 11.600
v -106.510 393.696 0.200
vt 2.250 11.600
v -190.007 364.166 -0.500
vt 0.000 11.650
v -110.388 401.646 0.200
vt 2.250 11.650
v -190.477 365.270 -0.500
vt 0.000 11.700
v -108.527 397.337 0.200
vt 2.250 11.700
v -191.902 367.511 -0.500
vt 0.000 11.750
v -111.923 404.216 0.200
vt 2.250 11.750
v -194.681 372.394 -0.500
vt 0.000 11.800
v -129.432 431.440 0.200
vt 2.250 11.800
v -193.708 370.940 -0.500
vt 0.000 11.850
v -113.500 407.143 0.200
vt 2.250 11.850
v -196.915 376.117 -0.500
vt 0.000 11.900
v -133.632 437.266 0.200
vt 2.250 11.900
v -195.720 374.541 -0.500
vt 0.000 11.950
v -116.013 411.836 0.200
vt 2.250 11.950
v -198.156 378.988 -0.500
vt 0.000 12.000
v -130.642 435.431 0.200
vt 2.250 12.000
v -197.332 377.472 -0.500
vt 0.000 12.050
v -115.840 410.683 0.200
vt 2.250 12.050
v -199.392 380.919 -0.500
vt 0.000 12.100
v -124.733 427.503 0.200
vt 2.250 12.100
v -199.289 380.966 -0.500
vt 0.000 12.150
v -117.922 414.482 0.200
vt 2.250 12.150
v -201.266 384.461 -0.500
vt 0.000 12.200
v -126.704 431.200 0.200
vt 2.250 12.200
v -202.757 387.204 -0.500
vt 0.000 12.250
v -132.944 440.778 0.200
vt 2.250 12.250
v -202.443 386.474 -0.500
vt 0.000 12.300
v -122.235 422.678 0.200
vt 2.250 12.300
v -204.984 390.991 -0.500
vt 0.000 12.350
v -137.169 447.072 0.200
vt 2.250 12.350
v -204.040 389.093 -0.500
vt 0.000 12.400
v -121.340 419.173 0.200
vt 2.250 12.400
v -207.350 394.649 -0.500
vt 0.000 12.450
v -141.575 453.110 0.200
vt 2.250 12.450
v -206.244 393.412 -0.500
vt 0.000 12.500
v -126.036 429.616 0.200
vt 2.250 12.500
v 46.719 21.086 -0.188
vt 1.004 1.250
v 46.719 21.086 -0.187
vt 1.005 1.300
v 9.996 26.608 -0.418
vt 0.263 1.700
v 9.996 26.608 -0.417
vt 0.268 1.750
v 11.821 27.488 -0.400
vt 0.320 1.750
v 11.821 27.488 -0.397
vt 0.330 1.800
v 1.265 29.638 -0.464
vt 0.115 1.900
v 1.265 29.638 -0.461
vt 0.125 1.950
v 33.465 48.960 -0.163
vt 1.083 2.050
v 33.465 48.960 -0.159
vt 1.095 2.100
v 1.055 42.384 -0.411
vt 0.287 2.250
v 1.055 42.384 -0.410
vt 0.289 2.300
v 30.809 60.747 -0.133
vt 1.180 2.350
v 19.816 106.658 -0.028
vt 1.517 3.100
v 19.816 106.658 -0.031
vt 1.507 3.150
v -8.367 103.927 -0.243
vt 0.827 3.750
v -8.367 103.927 -0.239
vt 0.839 3.800
v -27.242 113.329 -0.339
vt 0.518 4.150
v -27.242 113.329 -0.339
vt 0.516 4.200
v -46.264 108.730 -0.489
vt 0.034 4.250
v -46.264 108.730 -0.489
vt 0.035 4.300
v -46.148 114.224 -0.468
vt 0.102 4.350
v -46.148 114.224 -0.469
vt 0.101 4.400
v -53.443 119.868 -0.498
vt 0.008 4.550
v -53.443 119.868 -0.498
vt 0.006 4.600
v -63.858 145.456 -0.472
vt 0.089 5.250
v -63.858 145.456 -0.471
vt 0.095 5.300
v -65.040 148.959 -0.468
vt 0.104 5.350
v -65.040 148.959 -0.465
vt 0.113 5.400
v -31.812 183.896 -0.098
vt 1.293 5.850
v -83.795 181.660 -0.469
vt 0.099 6.300
v -83.795 181.660 -0.470
vt 0.098 6.350
v -83.646 185.842 -0.452
vt 0.155 6.400
v -83.646 185.842 -0.453
vt 0.152 6.450
v -89.132 204.079 -0.419
vt 0.261 6.850
v -89.132 204.079 -0.420
vt 0.256 6.900
v -66.515 230.664 -0.154
vt 1.111 6.950
v -66.515 230.664 -0.158
vt 1.100 7.000
v -101.961 208.380 -0.494
vt 0.019 7.100
v -101.961 208.380 -0.492
vt 0.027 7.150
v -83.925 234.450 -0.266
vt 0.752 7.550
v -83.925 234.450 -0.263
vt 0.763 7.600
v -103.463 243.461 -0.365
vt 0.433 7.950
v -40.816 267.931 0.170
vt 2.152 8.000
v -40.816 267.931 0.173
vt 2.165 8.050
v -130.315 268.385 -0.454
vt 0.146 8.700
v -130.315 268.385 -0.458
vt 0.136 8.750
v -134.232 269.252 -0.483
vt 0.056 8.850
v -134.232 269.252 -0.480
vt 0.065 8.900
v -89.364 306.125 -0.024
vt 1.529 9.300
v -89.364 306.125 -0.021
vt 1.540 9.350
v -154.918 309.652 -0.468
vt 0.102 10.000
v -154.918 309.652 -0.468
vt 0.101 10.050
v -163.316 342.215 -0.400
vt 0.321 10.750
v -163.316 342.215 -0.402
vt 0.314 10.800
v -173.358 336.289 -0.495
vt 0.015 10.800
v -173.358 336.289 -0.493
vt 0.023 10.850
v -173.942 344.354 -0.469
vt 0.101 11.000
v -173.942 344.354 -0.466
vt 0.110 11.050
v -160.832 359.921 -0.315
vt 0.594 11.250
v -160.832 359.921 -0.312
vt 0.605 11.300
v -160.682 359.980 -0.310
vt 0.609 11.300
v -160.682 359.980 -0.310
vt 0.611 11.350
v -173.791 371.799 -0.357
vt 0.458 11.650
mtllib Roads\3D_Road\Road_0cfada4c-b3d8-4a80-b43c-1d824436a9b5_2.mtl
usemtl Grass (Light)
g g1
s 1
f  1/1 2/2 4/4 3/3
f  3/3 4/4 6/6 5/5
f  5/5 6/6 8/8 7/7
f  7/7 8/8 10/10 9/9
f  9/9 10/10 12/12 11/11
f  11/11 12/12 14/14 13/13
f  13/13 14/14 16/16 15/15
f  15/15 16/16 18/18 17/17
f  17/17 18/18 20/20 19/19
f  19/19 20/20 22/22 21/21
f  21/21 22/22 24/24 23/23
f  23/23 24/24 26/26 25/25
f  25/25 26/26 28/28 27/27
f  27/27 28/28 30/30 29/29
f  29/29 30/30 32/32 31/31
f  31/31 32/32 34/34 33/33
f  33/33 34/34 36/36 35/35
f  35/35 36/36 38/38 37/37
f  37/37 38/38 40/40 39/39
f  39/39 40/40 42/42 41/41
f  41/41 42/42 44/44 43/43
f  43/43 44/44 46/46 45/45
f  45/45 46/46 48/48 47/47
f  47/47 48/48 50/50 49/49
f  49/49 50/50 52/52 51/51
f  51/51 503/503 53/53
f  53/53 54/54 56/56 55/55
f  55/55 56/56 58/58 57/57
f  57/57 58/58 60/60 59/59
f  59/59 60/60 62/62 61/61
f  61/61 62/62 64/64 63/63
f  63/63 64/64 66/66 65/65
f  65/65 66/66 68/68 67/67
f  67/67 68/68 70/70 69/69
f  69/69 505/505 71/71
f  71/71 507/507 73/73
f  73/73 74/74 76/76 75/75
f  75/75 76/76 78/78 77/77
f  77/77 509/509 79/79
f  79/79 80/80 82/82 81/81
f  81/81 82/82 84/84 83/83
f  83/83 511/511 85/85
f  85/85 86/86 88/88 87/87
f  87/87 88/88 90/90 89/89
f  89/89 90/90 92/92 91/91
f  91/91 513/513 93/93
f  93/93 94/94 96/96 95/95
f  95/95 515/515 97/97
f  97/97 98/98 100/100 99/99
f  99/99 100/100 102/102 101/101
f  101/101 102/102 104/104 103/103
f  103/103 104/104 106/106 105/105
f  105/105 106/106 108/108 107/107
f  107/107 108/108 110/110 109/109
f  109/109 110/110 112/112 111/111
f  111/111 112/112 114/114 113/113
f  113/113 114/114 116/116 115/115
f  115/115 116/116 118/118 117/117
f  117/117 118/118 120/120 119/119
f  119/119 120/120 122/122 121/121
f  121/121 122/122 124/124 123/123
f  123/123 124/124 126/126 125/125
f  125/125 516/516 127/127
f  127/127 128/128 130/130 129/129
f  129/129 130/130 132/132 131/131
f  131/131 132/132 134/134 133/133
f  133/133 134/134 136/136 135/135
f  135/135 136/136 138/138 137/137
f  137/137 138/138 140/140 139/139
f  139/139 140/140 142/142 141/141
f  141/141 142/142 144/144 143/143
f  143/143 144/144 146/146 145/145
f  145/145 146/146 148/148 147/147
f  147/147 148/148 150/150 149/149
f  149/149 150/150 152/152 151/151
f  151/151 518/518 153/153
f  153/153 154/154 156/156 155/155
f  155/155 156/156 158/158 157/157
f  157/157 158/158 160/160 159/159
f  159/159 160/160 162/162 161/161
f  161/161 162/162 164/164 163/163
f  163/163 164/164 166/166 165/165
f  165/165 166/166 168/168 167/167
f  167/167 520/520 169/169
f  169/169 170/170 172/172 171/171
f  171/171 522/522 173/173
f  173/173 174/174 176/176 175/175
f  175/175 524/524 177/177
f  177/177 178/178 180/180 179/179
f  179/179 180/180 182/182 181/181
f  181/181 182/182 184/184 183/183
f  183/183 526/526 185/185
f  185/185 186/186 188/188 187/187
f  187/187 188/188 190/190 189/189
f  189/189 190/190 192/192 191/191
f  191/191 192/192 194/194 193/193
f  193/193 194/194 196/196 195/195
f  195/195 196/196 198/198 197/197
f  197/197 198/198 200/200 199/199
f  199/199 200/200 202/202 201/201
f  201/201 202/202 204/204 203/203
f  203/203 204/204 206/206 205/205
f  205/205 206/206 208/208 207/207
f  207/207 208/208 210/210 209/209
f  209/209 210/210 212/212 211/211
f  211/211 528/528 213/213
f  213/213 214/214 216/216 215/215
f  215/215 530/530 217/217
f  217/217 218/218 220/220 219/219
f  219/219 220/220 222/222 221/221
f  221/221 222/222 224/224 223/223
f  223/223 224/224 226/226 225/225
f  225/225 226/226 228/228 227/227
f  227/227 228/228 230/230 229/229
f  229/229 230/230 232/232 231/231
f  231/231 232/232 234/234 233/233
f  233/233 234/234 236/236 235/235
f  235/235 532/532 237/237
f  237/237 238/238 240/240 239/239
f  239/239 240/240 242/242 241/241
f  241/241 242/242 244/244 243/243
f  243/243 244/244 246/246 245/245
f  245/245 246/246 248/248 247/247
f  247/247 248/248 250/250 249/249
f  249/249 250/250 252/252 251/251
f  251/251 252/252 254/254 253/253
f  253/253 533/533 255/255
f  255/255 256/256 258/258 257/257
f  257/257 535/535 259/259
f  259/259 260/260 262/262 261/261
f  261/261 262/262 264/264 263/263
f  263/263 264/264 266/266 265/265
f  265/265 266/266 268/268 267/267
f  267/267 268/268 270/270 269/269
f  269/269 270/270 272/272 271/271
f  271/271 272/272 274/274 273/273
f  273/273 274/274 276/276 275/275
f  275/275 537/537 277/277
f  277/277 278/278 280/280 279/279
f  279/279 539/539 281/281
f  281/281 282/282 284/284 283/283
f  283/283 284/284 286/286 285/285
f  285/285 541/541 287/287
f  287/287 288/288 290/290 289/289
f  289/289 290/290 292/292 291/291
f  291/291 292/292 294/294 293/293
f  293/293 294/294 296/296 295/295
f  295/295 296/296 298/298 297/297
f  297/297 298/298 300/300 299/299
f  299/299 300/300 302/302 301/301
f  301/301 302/302 304/304 303/303
f  303/303 543/543 305/305
f  305/305 306/306 308/308 307/307
f  307/307 308/308 310/310 309/309
f  309/309 310/310 312/312 311/311
f  311/311 312/312 314/314 313/313
f  313/313 314/314 316/316 315/315
f  315/315 316/316 318/318 317/317
f  317/317 318/318 320/320 319/319
f  319/319 545/545 321/321
f  321/321 546/546 323/323
f  323/323 324/324 326/326 325/325
f  325/325 326/326 328/328 327/327
f  327/327 328/328 330/330 329/329
f  329/329 330/330 332/332 331/331
f  331/331 332/332 334/334 333/333
f  333/333 334/334 336/336 335/335
f  335/335 336/336 338/338 337/337
f  337/337 338/338 340/340 339/339
f  339/339 340/340 342/342 341/341
f  341/341 342/342 344/344 343/343
f  343/343 344/344 346/346 345/345
f  345/345 346/346 348/348 347/347
f  347/347 348/348 350/350 349/349
f  349/349 548/548 351/351
f  351/351 352/352 354/354 353/353
f  353/353 354/354 356/356 355/355
f  355/355 550/550 357/357
f  357/357 358/358 360/360 359/359
f  359/359 360/360 362/362 361/361
f  361/361 362/362 364/364 363/363
f  363/363 364/364 366/366 365/365
f  365/365 366/366 368/368 367/367
f  367/367 368/368 370/370 369/369
f  369/369 370/370 372/372 371/371
f  371/371 372/372 374/374 373/373
f  373/373 552/552 375/375
f  375/375 376/376 378/378 377/377
f  377/377 378/378 380/380 379/379
f  379/379 380/380 382/382 381/381
f  381/381 382/382 384/384 383/383
f  383/383 384/384 386/386 385/385
f  385/385 386/386 388/388 387/387
f  387/387 388/388 390/390 389/389
f  389/389 390/390 392/392 391/391
f  391/391 392/392 394/394 393/393
f  393/393 394/394 396/396 395/395
f  395/395 396/396 398/398 397/397
f  397/397 398/398 400/400 399/399
f  399/399 400/400 402/402 401/401
f  401/401 554/554 403/403
f  403/403 404/404 406/406 405/405
f  405/405 406/406 408/408 407/407
f  407/407 408/408 410/410 409/409
f  409/409 410/410 412/412 411/411
f  411/411 412/412 414/414 413/413
f  413/413 414/414 416/416 415/415
f  415/415 416/416 418/418 417/417
f  417/417 418/418 420/420 419/419
f  419/419 420/420 422/422 421/421
f  421/421 422/422 424/424 423/423
f  423/423 424/424 426/426 425/425
f  425/425 426/426 428/428 427/427
f  427/427 428/428 430/430 429/429
f  429/429 430/430 432/432 431/431
f  431/431 556/556 433/433
f  433/433 558/558 435/435
f  435/435 436/436 438/438 437/437
f  437/437 438/438 440/440 439/439
f  439/439 440/440 442/442 441/441
f  441/441 560/560 443/443
f  443/443 444/444 446/446 445/445
f  445/445 446/446 448/448 447/447
f  447/447 448/448 450/450 449/449
f  449/449 450/450 452/452 451/451
f  451/451 562/562 453/453
f  453/453 564/564 455/455
f  455/455 456/456 458/458 457/457
f  457/457 458/458 460/460 459/459
f  459/459 460/460 462/462 461/461
f  461/461 462/462 464/464 463/463
f  463/463 464/464 466/466 465/465
f  465/465 466/466 468/468 467/467
f  467/467 566/566 469/469
f  469/469 470/470 472/472 471/471
f  471/471 472/472 474/474 473/473
f  473/473 474/474 476/476 475/475
f  475/475 476/476 478/478 477/477
f  477/477 478/478 480/480 479/479
f  479/479 480/480 482/482 481/481
f  481/481 482/482 484/484 483/483
f  483/483 484/484 486/486 485/485
f  485/485 486/486 488/488 487/487
f  487/487 488/488 490/490 489/489
f  489/489 490/490 492/492 491/491
f  491/491 492/492 494/494 493/493
f  493/493 494/494 496/496 495/495
f  495/495 496/496 498/498 497/497
f  497/497 498/498 500/500 499/499
f  499/499 500/500 502/502 501/501
g g2
s 2
f  503/503 52/52 54/54
f  505/505 70/70 72/72
f  507/507 72/72 74/74
f  509/509 78/78 80/80
f  511/511 84/84 86/86
f  513/513 92/92 94/94
f  515/515 96/96 98/98
f  516/516 126/126 128/128
f  518/518 152/152 154/154
f  520/520 168/168 170/170
f  522/522 172/172 174/174
f  524/524 176/176 178/178
f  526/526 184/184 186/186
f  528/528 212/212 214/214
f  530/530 216/216 218/218
f  532/532 236/236 238/238
f  533/533 254/254 256/256
f  535/535 258/258 260/260
f  537/537 276/276 278/278
f  539/539 280/280 282/282
f  541/541 286/286 288/288
f  543/543 304/304 306/306
f  545/545 320/320 322/322
f  546/546 322/322 324/324
f  548/548 350/350 352/352
f  550/550 356/356 358/358
f  552/552 374/374 376/376
f  554/554 402/402 404/404
f  556/556 432/432 434/434
f  558/558 434/434 436/436
f  560/560 442/442 444/444
f  562/562 452/452 454/454
f  564/564 454/454 456/456
f  566/566 468/468 470/470
g g3
s 3
f  53/51 503/503 504/504
f  71/69 505/505 506/506
f  73/71 507/507 508/508
f  79/77 509/509 510/510
f  85/83 511/511 512/512
f  93/91 513/513 514/514
f  127/125 516/516 517/517
f  153/151 518/518 519/519
f  169/167 520/520 521/521
f  173/171 522/522 523/523
f  177/175 524/524 525/525
f  185/183 526/526 527/527
f  213/211 528/528 529/529
f  217/215 530/530 531/531
f  255/253 533/533 534/534
f  259/257 535/535 536/536
f  277/275 537/537 538/538
f  281/279 539/539 540/540
f  287/285 541/541 542/542
f  305/303 543/543 544/544
f  323/321 546/546 547/547
f  351/349 548/548 549/549
f  357/355 550/550 551/551
f  375/373 552/552 553/553
f  403/401 554/554 555/555
f  433/431 556/556 557/557
f  435/433 558/558 559/559
f  443/441 560/560 561/561
f  453/451 562/562 563/563
f  455/453 564/564 565/565
g g4
s 4
f  503/503 54/52 504/504
f  505/505 72/70 506/506
f  507/507 74/72 508/508
f  509/509 80/78 510/510
f  511/511 86/84 512/512
f  513/513 94/92 514/514
f  516/516 128/126 517/517
f  518/518 154/152 519/519
f  520/520 170/168 521/521
f  522/522 174/172 523/523
f  524/524 178/176 525/525
f  526/526 186/184 527/527
f  528/528 214/212 529/529
f  530/530 218/216 531/531
f  533/533 256/254 534/534
f  535/535 260/258 536/536
f  537/537 278/276 538/538
f  539/539 282/280 540/540
f  541/541 288/286 542/542
f  543/543 306/304 544/544
f  546/546 324/322 547/547
f  548/548 352/350 549/549
f  550/550 358/356 551/551
f  552/552 376/374 553/553
f  554/554 404/402 555/555
f  556/556 434/432 557/557
f  558/558 436/434 559/559
f  560/560 444/442 561/561
f  562/562 454/452 563/563
f  564/564 456/454 565/565
