# Shape file for lane 5
v -100.000 8.000 -5.000
vt 0.000 0.000
v -100.000 4.000 -5.000
vt 1.000 0.000
v 50.000 8.000 -5.000
vt 0.000 5.000
v 50.000 4.000 -5.000
vt 1.000 5.000
v 54.960 8.012 -5.000
vt 0.000 5.167
v 54.980 4.012 -5.000
vt 1.000 5.167
v 59.920 8.050 -5.000
vt 0.000 5.333
v 59.960 4.050 -5.000
vt 1.000 5.333
v 64.879 8.112 -5.000
vt 0.000 5.500
v 64.939 4.112 -5.000
vt 1.000 5.500
v 69.839 8.198 -5.000
vt 0.000 5.667
v 69.919 4.199 -5.000
vt 1.000 5.667
v 74.797 8.310 -5.000
vt 0.000 5.833
v 74.897 4.311 -5.000
vt 1.000 5.833
v 79.756 8.446 -5.000
vt 0.000 6.000
v 79.876 4.448 -5.000
vt 1.000 6.000
v 84.713 8.608 -5.000
vt 0.000 6.167
v 84.853 4.610 -5.000
vt 1.000 6.167
v 89.669 8.793 -5.000
vt 0.000 6.333
v 89.829 4.797 -5.000
vt 1.000 6.333
v 94.625 9.004 -5.000
vt 0.000 6.500
v 94.805 5.008 -5.000
vt 1.000 6.500
v 99.579 9.240 -5.000
vt 0.000 6.667
v 99.779 5.245 -5.000
vt 1.000 6.667
v 104.532 9.500 -5.000
vt 0.000 6.833
v 104.752 5.506 -5.000
vt 1.000 6.833
v 109.484 9.785 -5.000
vt 0.000 7.000
v 109.724 5.792 -5.000
vt 1.000 7.000
v 114.435 10.095 -5.000
vt 0.000 7.167
v 114.694 6.103 -5.000
vt 1.000 7.167
v 119.383 10.429 -5.000
vt 0.000 7.333
v 119.663 6.439 -5.000
vt 1.000 7.333
v 124.330 10.789 -5.000
vt 0.000 7.500
v 124.630 6.800 -5.000
vt 1.000 7.500
v 129.275 11.173 -5.000
vt 0.000 7.667
v 129.595 7.186 -5.000
vt 1.000 7.667
v 134.219 11.581 -5.000
vt 0.000 7.833
v 134.558 7.596 -5.000
vt 1.000 7.833
v 139.160 12.015 -5.000
vt 0.000 8.000
v 139.519 8.031 -5.000
vt 1.000 8.000
v 144.098 12.473 -5.000
vt 0.000 8.167
v 144.478 8.491 -5.000
vt 1.000 8.167
v 149.035 12.956 -5.000
vt 0.000 8.333
v 149.434 8.976 -5.000
vt 1.000 8.333
v 153.969 13.463 -5.000
vt 0.000 8.500
v 154.388 9.485 -5.000
vt 1.000 8.500
v 158.900 13.996 -5.000
vt 0.000 8.667
v 159.339 10.020 -5.000
vt 1.000 8.667
v 163.829 14.552 -5.000
vt 0.000 8.833
v 164.288 10.579 -5.000
vt 1.000 8.833
v 168.755 15.134 -5.000
vt 0.000 9.000
v 169.233 11.163 -5.000
vt 1.000 9.000
v 173.677 15.740 -5.000
vt 0.000 9.167
v 174.176 11.771 -5.000
vt 1.000 9.167
v 178.597 16.371 -5.000
vt 0.000 9.333
v 179.116 12.404 -5.000
vt 1.000 9.333
v 183.514 17.026 -5.000
vt 0.000 9.500
v 184.052 13.062 -5.000
vt 1.000 9.500
v 188.427 17.706 -5.000
vt 0.000 9.667
v 188.985 13.745 -5.000
vt 1.000 9.667
v 193.336 18.410 -5.000
vt 0.000 9.833
v 193.914 14.452 -5.000
vt 1.000 9.833
v 198.243 19.139 -5.000
vt 0.000 10.000
v 198.840 15.184 -5.000
vt 1.000 10.000
v 203.145 19.893 -4.998
vt 0.000 10.167
v 203.763 15.941 -4.998
vt 1.000 10.167
v 208.044 20.671 -4.993
vt 0.000 10.333
v 208.681 16.722 -4.993
vt 1.000 10.333
v 212.938 21.473 -4.985
vt 0.000 10.500
v 213.595 17.527 -4.985
vt 1.000 10.500
v 217.829 22.300 -4.973
vt 0.000 10.667
v 218.506 18.358 -4.973
vt 1.000 10.667
v 222.715 23.151 -4.957
vt 0.000 10.833
v 223.412 19.212 -4.957
vt 1.000 10.833
v 227.597 24.027 -4.938
vt 0.000 11.000
v 228.313 20.092 -4.938
vt 1.000 11.000
v 232.475 24.927 -4.916
vt 0.000 11.167
v 233.211 20.995 -4.916
vt 1.000 11.167
v 237.348 25.852 -4.891
vt 0.000 11.333
v 238.103 21.924 -4.891
vt 1.000 11.333
v 242.216 26.801 -4.862
vt 0.000 11.500
v 242.991 22.877 -4.862
vt 1.000 11.500
v 247.080 27.774 -4.830
vt 0.000 11.667
v 247.875 23.854 -4.830
vt 1.000 11.667
v 251.939 28.772 -4.794
vt 0.000 11.833
v 252.753 24.855 -4.794
vt 1.000 11.833
v 256.792 29.793 -4.755
vt 0.000 12.000
v 257.626 25.881 -4.755
vt 1.000 12.000
v 261.641 30.839 -4.713
vt 0.000 12.167
v 262.494 26.932 -4.713
vt 1.000 12.167
v 266.484 31.910 -4.668
vt 0.000 12.333
v 267.357 28.006 -4.668
vt 1.000 12.333
v 271.322 33.004 -4.619
vt 0.000 12.500
v 272.214 29.105 -4.619
vt 1.000 12.500
v 276.154 34.123 -4.568
vt 0.000 12.667
v 277.066 30.228 -4.568
vt 1.000 12.667
v 280.980 35.266 -4.513
vt 0.000 12.833
v 281.912 31.376 -4.513
vt 1.000 12.833
v 285.801 36.433 -4.455
vt 0.000 13.000
v 286.752 32.547 -4.455
vt 1.000 13.000
v 290.616 37.624 -4.394
vt 0.000 13.167
v 291.586 33.743 -4.394
vt 1.000 13.167
v 295.425 38.839 -4.330
vt 0.000 13.333
v 296.414 34.963 -4.330
vt 1.000 13.333
v 300.227 40.078 -4.263
vt 0.000 13.500
v 301.236 36.207 -4.263
vt 1.000 13.500
v 305.024 41.341 -4.193
vt 0.000 13.667
v 306.052 37.476 -4.193
vt 1.000 13.667
v 309.814 42.628 -4.121
vt 0.000 13.833
v 310.862 38.768 -4.121
vt 1.000 13.833
v 314.598 43.939 -4.045
vt 0.000 14.000
v 315.665 40.084 -4.045
vt 1.000 14.000
v 319.375 45.274 -3.967
vt 0.000 14.167
v 320.461 41.425 -3.967
vt 1.000 14.167
v 324.145 46.633 -3.886
vt 0.000 14.333
v 325.250 42.789 -3.886
vt 1.000 14.333
v 328.908 48.016 -3.802
vt 0.000 14.500
v 330.033 44.177 -3.802
vt 1.000 14.500
v 333.665 49.422 -3.716
vt 0.000 14.667
v 334.808 45.589 -3.716
vt 1.000 14.667
v 338.414 50.852 -3.627
vt 0.000 14.833
v 339.577 47.025 -3.627
vt 1.000 14.833
v 343.156 52.306 -3.535
vt 0.000 15.000
v 344.338 48.485 -3.535
vt 1.000 15.000
v 347.891 53.784 -3.442
vt 0.000 15.167
v 349.092 49.968 -3.442
vt 1.000 15.167
v 352.618 55.285 -3.346
vt 0.000 15.333
v 353.838 51.476 -3.346
vt 1.000 15.333
v 357.338 56.810 -3.247
vt 0.000 15.500
v 358.577 53.007 -3.247
vt 1.000 15.500
v 362.050 58.358 -3.147
vt 0.000 15.667
v 363.308 54.562 -3.147
vt 1.000 15.667
v 366.754 59.930 -3.044
vt 0.000 15.833
v 368.032 56.140 -3.044
vt 1.000 15.833
v 371.451 61.526 -2.939
vt 0.000 16.000
v 372.747 57.742 -2.939
vt 1.000 16.000
v 376.139 63.145 -2.832
vt 0.000 16.167
v 377.454 59.367 -2.832
vt 1.000 16.167
v 380.819 64.787 -2.723
vt 0.000 16.333
v 382.153 61.016 -2.723
vt 1.000 16.333
v 385.491 66.453 -2.612
vt 0.000 16.500
v 386.844 62.689 -2.612
vt 1.000 16.500
v 390.155 68.142 -2.500
vt 0.000 16.667
v 391.526 64.385 -2.500
vt 1.000 16.667
v 394.810 69.855 -2.386
vt 0.000 16.833
v 396.200 66.104 -2.386
vt 1.000 16.833
v 399.456 71.590 -2.270
vt 0.000 17.000
v 400.865 67.847 -2.270
vt 1.000 17.000
v 404.094 73.349 -2.153
vt 0.000 17.167
v 405.521 69.613 -2.153
vt 1.000 17.167
v 408.723 75.131 -2.034
vt 0.000 17.333
v 410.169 71.402 -2.034
vt 1.000 17.333
v 413.342 76.936 -1.913
vt 0.000 17.500
v 414.807 73.214 -1.913
vt 1.000 17.500
v 417.953 78.765 -1.792
vt 0.000 17.667
v 419.437 75.050 -1.792
vt 1.000 17.667
v 422.555 80.616 -1.669
vt 0.000 17.833
v 424.057 76.909 -1.669
vt 1.000 17.833
v 427.147 82.490 -1.545
vt 0.000 18.000
v 428.668 78.791 -1.545
vt 1.000 18.000
v 431.730 84.387 -1.420
vt 0.000 18.167
v 433.269 80.695 -1.420
vt 1.000 18.167
v 436.303 86.307 -1.294
vt 0.000 18.333
v 437.861 82.623 -1.294
vt 1.000 18.333
v 440.867 88.250 -1.167
vt 0.000 18.500
v 442.443 84.574 -1.167
vt 1.000 18.500
v 445.420 90.216 -1.040
vt 0.000 18.667
v 447.015 86.548 -1.040
vt 1.000 18.667
v 449.964 92.205 -0.911
vt 0.000 18.833
v 451.577 88.544 -0.911
vt 1.000 18.833
v 454.498 94.216 -0.782
vt 0.000 19.000
v 456.129 90.563 -0.782
vt 1.000 19.000
v 459.022 96.250 -0.653
vt 0.000 19.167
v 460.671 92.605 -0.653
vt 1.000 19.167
v 463.536 98.306 -0.523
vt 0.000 19.333
v 465.203 94.670 -0.523
vt 1.000 19.333
v 468.039 100.385 -0.392
vt 0.000 19.500
v 469.725 96.757 -0.392
vt 1.000 19.500
v 472.532 102.486 -0.262
vt 0.000 19.667
v 474.236 98.867 -0.262
vt 1.000 19.667
v 477.014 104.610 -0.131
vt 0.000 19.833
v 478.736 101.000 -0.131
vt 1.000 19.833
v 481.486 106.756 -0.000
vt 0.000 20.000
v 483.226 103.155 -0.000
vt 1.000 20.000
v 485.947 108.925 0.131
vt 0.000 20.167
v 487.704 105.332 0.131
vt 1.000 20.167
v 490.397 111.116 0.262
vt 0.000 20.333
v 492.172 107.532 0.262
vt 1.000 20.333
v 494.835 113.329 0.392
vt 0.000 20.500
v 496.629 109.754 0.392
vt 1.000 20.500
v 499.263 115.564 0.523
vt 0.000 20.667
v 501.075 111.998 0.523
vt 1.000 20.667
v 503.680 117.822 0.653
vt 0.000 20.833
v 505.509 114.264 0.653
vt 1.000 20.833
v 508.085 120.101 0.782
vt 0.000 21.000
v 509.932 116.553 0.782
vt 1.000 21.000
v 512.479 122.402 0.911
vt 0.000 21.167
v 514.344 118.864 0.911
vt 1.000 21.167
v 516.861 124.726 1.040
vt 0.000 21.333
v 518.743 121.196 1.040
vt 1.000 21.333
v 521.231 127.071 1.167
vt 0.000 21.500
v 523.132 123.551 1.167
vt 1.000 21.500
v 525.590 129.438 1.294
vt 0.000 21.667
v 527.508 125.928 1.294
vt 1.000 21.667
v 529.937 131.827 1.420
vt 0.000 21.833
v 531.872 128.326 1.420
vt 1.000 21.833
v 534.272 134.237 1.545
vt 0.000 22.000
v 536.225 130.746 1.545
vt 1.000 22.000
v 538.595 136.670 1.669
vt 0.000 22.167
v 540.565 133.188 1.669
vt 1.000 22.167
v 542.905 139.123 1.792
vt 0.000 22.333
v 544.893 135.652 1.792
vt 1.000 22.333
v 547.203 141.599 1.913
vt 0.000 22.500
v 549.208 138.137 1.913
vt 1.000 22.500
v 551.489 144.095 2.034
vt 0.000 22.667
v 553.511 140.644 2.034
vt 1.000 22.667
v 555.762 146.614 2.153
vt 0.000 22.833
v 557.802 143.172 2.153
vt 1.000 22.833
v 560.023 149.153 2.270
vt 0.000 23.000
v 562.079 145.722 2.270
vt 1.000 23.000
v 564.271 151.714 2.386
vt 0.000 23.167
v 566.344 148.293 2.386
vt 1.000 23.167
v 568.506 154.296 2.500
vt 0.000 23.333
v 570.596 150.886 2.500
vt 1.000 23.333
v 572.728 156.899 2.612
vt 0.000 23.500
v 574.836 153.499 2.612
vt 1.000 23.500
v 576.937 159.523 2.723
vt 0.000 23.667
v 579.061 156.134 2.723
vt 1.000 23.667
v 581.132 162.168 2.832
vt 0.000 23.833
v 583.274 158.790 2.832
vt 1.000 23.833
v 585.315 164.834 2.939
vt 0.000 24.000
v 587.474 161.467 2.939
vt 1.000 24.000
v 589.484 167.521 3.044
vt 0.000 24.167
v 591.659 164.164 3.044
vt 1.000 24.167
v 593.640 170.229 3.147
vt 0.000 24.333
v 595.832 166.883 3.147
vt 1.000 24.333
v 597.782 172.958 3.247
vt 0.000 24.500
v 599.991 169.623 3.247
vt 1.000 24.500
v 601.910 175.707 3.346
vt 0.000 24.667
v 604.136 172.383 3.346
vt 1.000 24.667
v 606.025 178.477 3.442
vt 0.000 24.833
v 608.267 175.164 3.442
vt 1.000 24.833
v 610.125 181.267 3.535
vt 0.000 25.000
v 612.384 177.966 3.535
vt 1.000 25.000
v 614.212 184.078 3.627
vt 0.000 25.167
v 616.487 180.788 3.627
vt 1.000 25.167
v 618.285 186.909 3.716
vt 0.000 25.333
v 620.576 183.631 3.716
vt 1.000 25.333
v 622.343 189.761 3.802
vt 0.000 25.500
v 624.651 186.494 3.802
vt 1.000 25.500
v 626.387 192.633 3.886
vt 0.000 25.667
v 628.711 189.377 3.886
vt 1.000 25.667
v 630.416 195.525 3.967
vt 0.000 25.833
v 632.757 192.281 3.967
vt 1.000 25.833
v 634.432 198.437 4.045
vt 0.000 26.000
v 636.788 195.205 4.045
vt 1.000 26.000
v 638.432 201.369 4.121
vt 0.000 26.167
v 640.805 198.149 4.121
vt 1.000 26.167
v 642.418 204.321 4.193
vt 0.000 26.333
v 644.807 201.113 4.193
vt 1.000 26.333
v 646.389 207.293 4.263
vt 0.000 26.500
v 648.794 204.097 4.263
vt 1.000 26.500
v 650.345 210.285 4.330
vt 0.000 26.667
v 652.766 207.101 4.330
vt 1.000 26.667
v 654.286 213.296 4.394
vt 0.000 26.833
v 656.723 210.124 4.394
vt 1.000 26.833
v 658.212 216.328 4.455
vt 0.000 27.000
v 660.664 213.168 4.455
vt 1.000 27.000
v 662.123 219.379 4.513
vt 0.000 27.167
v 664.591 216.231 4.513
vt 1.000 27.167
v 666.018 222.449 4.568
vt 0.000 27.333
v 668.502 219.314 4.568
vt 1.000 27.333
v 669.898 225.539 4.619
vt 0.000 27.500
v 672.398 222.416 4.619
vt 1.000 27.500
v 673.763 228.648 4.668
vt 0.000 27.667
v 676.278 225.538 4.668
vt 1.000 27.667
v 677.612 231.776 4.713
vt 0.000 27.833
v 680.142 228.679 4.713
vt 1.000 27.833
v 681.445 234.924 4.755
vt 0.000 28.000
v 683.991 231.839 4.755
vt 1.000 28.000
v 685.262 238.091 4.794
vt 0.000 28.167
v 687.824 235.019 4.794
vt 1.000 28.167
v 689.064 241.277 4.830
vt 0.000 28.333
v 691.641 238.217 4.830
vt 1.000 28.333
v 692.850 244.481 4.862
vt 0.000 28.500
v 695.442 241.435 4.862
vt 1.000 28.500
v 696.619 247.705 4.891
vt 0.000 28.667
v 699.226 244.672 4.891
vt 1.000 28.667
v 700.372 250.948 4.916
vt 0.000 28.833
v 702.995 247.927 4.916
vt 1.000 28.833
v 704.110 254.209 4.938
vt 0.000 29.000
v 706.747 251.201 4.938
vt 1.000 29.000
v 707.830 257.489 4.957
vt 0.000 29.167
v 710.483 254.495 4.957
vt 1.000 29.167
v 711.535 260.787 4.973
vt 0.000 29.333
v 714.202 257.806 4.973
vt 1.000 29.333
v 715.222 264.104 4.985
vt 0.000 29.500
v 717.905 261.137 4.985
vt 1.000 29.500
v 718.894 267.439 4.993
vt 0.000 29.667
v 721.591 264.485 4.993
vt 1.000 29.667
v 722.548 270.793 4.998
vt 0.000 29.833
v 725.260 267.852 4.998
vt 1.000 29.833
v 726.186 274.165 5.000
vt 0.000 30.000
v 728.912 271.238 5.000
vt 1.000 30.000
v 729.806 277.555 4.998
vt 0.000 30.167
v 732.548 274.642 4.998
vt 1.000 30.167
v 733.410 280.963 4.993
vt 0.000 30.333
v 736.166 278.063 4.993
vt 1.000 30.333
v 736.997 284.389 4.985
vt 0.000 30.500
v 739.767 281.503 4.985
vt 1.000 30.500
v 740.566 287.833 4.973
vt 0.000 30.667
v 743.351 284.961 4.973
vt 1.000 30.667
v 744.118 291.294 4.957
vt 0.000 30.833
v 746.917 288.437 4.957
vt 1.000 30.833
v 747.653 294.774 4.938
vt 0.000 31.000
v 750.466 291.930 4.938
vt 1.000 31.000
v 751.171 298.271 4.916
vt 0.000 31.167
v 753.998 295.441 4.916
vt 1.000 31.167
v 754.670 301.785 4.891
vt 0.000 31.333
v 757.512 298.970 4.891
vt 1.000 31.333
v 758.153 305.318 4.862
vt 0.000 31.500
v 761.008 302.516 4.862
vt 1.000 31.500
v 761.617 308.867 4.830
vt 0.000 31.667
v 764.487 306.080 4.830
vt 1.000 31.667
v 765.101 312.454 4.794
vt 0.000 31.833
v 767.970 309.667 4.794
vt 1.000 31.833
v 768.584 316.041 4.755
vt 0.000 32.000
v 771.454 313.254 4.755
vt 1.000 32.000
v 772.068 319.627 4.713
vt 0.000 32.167
v 774.937 316.840 4.713
vt 1.000 32.167
v 775.551 323.214 4.668
vt 0.000 32.333
v 778.421 320.427 4.668
vt 1.000 32.333
v 779.035 326.801 4.619
vt 0.000 32.500
v 781.904 324.014 4.619
vt 1.000 32.500
v 782.518 330.388 4.568
vt 0.000 32.667
v 785.388 327.601 4.568
vt 1.000 32.667
v 786.002 333.974 4.513
vt 0.000 32.833
v 788.871 331.188 4.513
vt 1.000 32.833
v 789.486 337.561 4.455
vt 0.000 33.000
v 792.355 334.774 4.455
vt 1.000 33.000
v 792.969 341.148 4.394
vt 0.000 33.167
v 795.838 338.361 4.394
vt 1.000 33.167
v 796.453 344.735 4.330
vt 0.000 33.333
v 799.322 341.948 4.330
vt 1.000 33.333
v 799.936 348.322 4.263
vt 0.000 33.500
v 802.806 345.535 4.263
vt 1.000 33.500
v 803.420 351.908 4.193
vt 0.000 33.667
v 806.289 349.121 4.193
vt 1.000 33.667
v 806.903 355.495 4.121
vt 0.000 33.833
v 809.773 352.708 4.121
vt 1.000 33.833
v 810.387 359.082 4.045
vt 0.000 34.000
v 813.256 356.295 4.045
vt 1.000 34.000
v 813.870 362.669 3.967
vt 0.000 34.167
v 816.740 359.882 3.967
vt 1.000 34.167
v 817.354 366.255 3.886
vt 0.000 34.333
v 820.223 363.469 3.886
vt 1.000 34.333
v 820.837 369.842 3.802
vt 0.000 34.500
v 823.707 367.055 3.802
vt 1.000 34.500
v 824.321 373.429 3.716
vt 0.000 34.667
v 827.190 370.642 3.716
vt 1.000 34.667
v 827.804 377.016 3.627
vt 0.000 34.833
v 830.674 374.229 3.627
vt 1.000 34.833
v 831.288 380.603 3.535
vt 0.000 35.000
v 834.157 377.816 3.535
vt 1.000 35.000
v 834.771 384.189 3.442
vt 0.000 35.167
v 837.641 381.403 3.442
vt 1.000 35.167
v 838.255 387.776 3.346
vt 0.000 35.333
v 841.124 384.989 3.346
vt 1.000 35.333
v 841.739 391.363 3.247
vt 0.000 35.500
v 844.608 388.576 3.247
vt 1.000 35.500
v 845.222 394.950 3.147
vt 0.000 35.667
v 848.091 392.163 3.147
vt 1.000 35.667
v 848.706 398.536 3.044
vt 0.000 35.833
v 851.575 395.750 3.044
vt 1.000 35.833
v 852.189 402.123 2.939
vt 0.000 36.000
v 855.059 399.336 2.939
vt 1.000 36.000
v 855.673 405.710 2.832
vt 0.000 36.167
v 858.542 402.923 2.832
vt 1.000 36.167
v 859.156 409.297 2.723
vt 0.000 36.333
v 862.026 406.510 2.723
vt 1.000 36.333
v 862.640 412.884 2.612
vt 0.000 36.500
v 865.509 410.097 2.612
vt 1.000 36.500
v 866.123 416.470 2.500
vt 0.000 36.667
v 868.993 413.684 2.500
vt 1.000 36.667
v 869.607 420.057 2.386
vt 0.000 36.833
v 872.476 417.270 2.386
vt 1.000 36.833
v 873.090 423.644 2.270
vt 0.000 37.000
v 875.960 420.857 2.270
vt 1.000 37.000
v 876.574 427.231 2.153
vt 0.000 37.167
v 879.443 424.444 2.153
vt 1.000 37.167
v 880.057 430.817 2.034
vt 0.000 37.333
v 882.927 428.031 2.034
vt 1.000 37.333
v 883.541 434.404 1.913
vt 0.000 37.500
v 886.410 431.617 1.913
vt 1.000 37.500
v 887.024 437.991 1.792
vt 0.000 37.667
v 889.894 435.204 1.792
vt 1.000 37.667
v 890.508 441.578 1.669
vt 0.000 37.833
v 893.377 438.791 1.669
vt 1.000 37.833
v 893.992 445.165 1.545
vt 0.000 38.000
v 896.861 442.378 1.545
vt 1.000 38.000
v 900.959 452.338 1.294
vt 0.000 38.333
v 903.828 449.551 1.294
vt 1.000 38.333
v 907.926 459.512 1.040
vt 0.000 38.667
v 910.795 456.725 1.040
vt 1.000 38.667
v 914.893 466.685 0.782
vt 0.000 39.000
v 917.762 463.898 0.782
vt 1.000 39.000
v 921.860 473.859 0.523
vt 0.000 39.333
v 924.729 471.072 0.523
vt 1.000 39.333
v 932.310 484.619 0.131
vt 0.000 39.833
v 935.180 481.832 0.131
vt 1.000 39.833
v 949.728 502.553 -0.523
vt 0.000 40.667
v 952.597 499.766 -0.523
vt 1.000 40.667
v 956.695 509.727 -0.782
vt 0.000 41.000
v 959.565 506.940 -0.782
vt 1.000 41.000
v 963.662 516.900 -1.040
vt 0.000 41.333
v 966.532 514.113 -1.040
vt 1.000 41.333
v 970.629 524.074 -1.294
vt 0.000 41.667
v 973.499 521.287 -1.294
vt 1.000 41.667
v 977.596 531.247 -1.545
vt 0.000 42.000
v 980.466 528.461 -1.545
vt 1.000 42.000
v 981.080 534.834 -1.669
vt 0.000 42.167
v 983.949 532.047 -1.669
vt 1.000 42.167
v 984.563 538.421 -1.792
vt 0.000 42.333
v 987.433 535.634 -1.792
vt 1.000 42.333
v 988.047 542.008 -1.913
vt 0.000 42.500
v 990.916 539.221 -1.913
vt 1.000 42.500
v 991.530 545.594 -2.034
vt 0.000 42.667
v 994.400 542.808 -2.034
vt 1.000 42.667
v 995.014 549.181 -2.153
vt 0.000 42.833
v 997.883 546.394 -2.153
vt 1.000 42.833
v 998.498 552.768 -2.270
vt 0.000 43.000
v 1001.367 549.981 -2.270
vt 1.000 43.000
v 1001.981 556.355 -2.386
vt 0.000 43.167
v 1004.850 553.568 -2.386
vt 1.000 43.167
v 1005.465 559.942 -2.500
vt 0.000 43.333
v 1008.334 557.155 -2.500
vt 1.000 43.333
v 1008.948 563.528 -2.612
vt 0.000 43.500
v 1011.818 560.742 -2.612
vt 1.000 43.500
v 1012.432 567.115 -2.723
vt 0.000 43.667
v 1015.301 564.328 -2.723
vt 1.000 43.667
v 1015.915 570.702 -2.832
vt 0.000 43.833
v 1018.785 567.915 -2.832
vt 1.000 43.833
v 1019.399 574.289 -2.939
vt 0.000 44.000
v 1022.268 571.502 -2.939
vt 1.000 44.000
v 1022.882 577.875 -3.044
vt 0.000 44.167
v 1025.752 575.089 -3.044
vt 1.000 44.167
v 1026.366 581.462 -3.147
vt 0.000 44.333
v 1029.235 578.675 -3.147
vt 1.000 44.333
v 1029.849 585.049 -3.247
vt 0.000 44.500
v 1032.719 582.262 -3.247
vt 1.000 44.500
v 1033.333 588.636 -3.346
vt 0.000 44.667
v 1036.202 585.849 -3.346
vt 1.000 44.667
v 1036.816 592.223 -3.442
vt 0.000 44.833
v 1039.686 589.436 -3.442
vt 1.000 44.833
v 1040.300 595.809 -3.535
vt 0.000 45.000
v 1043.169 593.023 -3.535
vt 1.000 45.000
v 1043.783 599.396 -3.627
vt 0.000 45.167
v 1046.653 596.609 -3.627
vt 1.000 45.167
v 1047.267 602.983 -3.716
vt 0.000 45.333
v 1050.136 600.196 -3.716
vt 1.000 45.333
v 1050.751 606.570 -3.802
vt 0.000 45.500
v 1053.620 603.783 -3.802
vt 1.000 45.500
v 1054.234 610.157 -3.886
vt 0.000 45.667
v 1057.103 607.370 -3.886
vt 1.000 45.667
v 1057.718 613.743 -3.967
vt 0.000 45.833
v 1060.587 610.956 -3.967
vt 1.000 45.833
v 1061.201 617.330 -4.045
vt 0.000 46.000
v 1064.071 614.543 -4.045
vt 1.000 46.000
v 1064.685 620.917 -4.121
vt 0.000 46.167
v 1067.554 618.130 -4.121
vt 1.000 46.167
v 1068.168 624.504 -4.193
vt 0.000 46.333
v 1071.038 621.717 -4.193
vt 1.000 46.333
v 1071.652 628.090 -4.263
vt 0.000 46.500
v 1074.521 625.304 -4.263
vt 1.000 46.500
v 1075.135 631.677 -4.330
vt 0.000 46.667
v 1078.005 628.890 -4.330
vt 1.000 46.667
v 1078.619 635.264 -4.394
vt 0.000 46.833
v 1081.488 632.477 -4.394
vt 1.000 46.833
v 1082.102 638.851 -4.455
vt 0.000 47.000
v 1084.972 636.064 -4.455
vt 1.000 47.000
v 1085.586 642.438 -4.513
vt 0.000 47.167
v 1088.455 639.651 -4.513
vt 1.000 47.167
v 1089.069 646.024 -4.568
vt 0.000 47.333
v 1091.939 643.237 -4.568
vt 1.000 47.333
v 1092.553 649.611 -4.619
vt 0.000 47.500
v 1095.422 646.824 -4.619
vt 1.000 47.500
v 1096.036 653.198 -4.668
vt 0.000 47.667
v 1098.906 650.411 -4.668
vt 1.000 47.667
v 1099.520 656.785 -4.713
vt 0.000 47.833
v 1102.389 653.998 -4.713
vt 1.000 47.833
v 1103.004 660.371 -4.755
vt 0.000 48.000
v 1105.873 657.585 -4.755
vt 1.000 48.000
v 1106.487 663.958 -4.794
vt 0.000 48.167
v 1109.356 661.171 -4.794
vt 1.000 48.167
v 1109.971 667.545 -4.830
vt 0.000 48.333
v 1112.840 664.758 -4.830
vt 1.000 48.333
v 1113.454 671.132 -4.862
vt 0.000 48.500
v 1116.324 668.345 -4.862
vt 1.000 48.500
v 1116.938 674.719 -4.891
vt 0.000 48.667
v 1119.807 671.932 -4.891
vt 1.000 48.667
v 1120.421 678.305 -4.916
vt 0.000 48.833
v 1123.291 675.519 -4.916
vt 1.000 48.833
v 1123.905 681.892 -4.938
vt 0.000 49.000
v 1126.774 679.105 -4.938
vt 1.000 49.000
v 1127.388 685.479 -4.957
vt 0.000 49.167
v 1130.258 682.692 -4.957
vt 1.000 49.167
v 1130.872 689.066 -4.973
vt 0.000 49.333
v 1133.741 686.279 -4.973
vt 1.000 49.333
v 1134.355 692.652 -4.985
vt 0.000 49.500
v 1137.225 689.866 -4.985
vt 1.000 49.500
v 1137.839 696.239 -4.993
vt 0.000 49.667
v 1140.708 693.452 -4.993
vt 1.000 49.667
v 1141.322 699.826 -4.998
vt 0.000 49.833
v 1144.192 697.039 -4.998
vt 1.000 49.833
v 1144.806 703.413 -5.000
vt 0.000 50.000
v 1147.675 700.626 -5.000
vt 1.000 50.000
v 1562.830 1133.826 -5.000
vt 0.000 70.000
v 1565.699 1131.040 -5.000
vt 1.000 70.000
mtllib Roads\3D_Road\Road_63b804b3-ef93-4518-9d84-9c807f03fd6c_5.mtl
usemtl Road Transition (Dark)
g g1
s 1
f  1/1 2/2 4/4 3/3
f  3/3 4/4 6/6 5/5
f  5/5 6/6 8/8 7/7
f  7/7 8/8 10/10 9/9
f  9/9 10/10 12/12 11/11
f  11/11 12/12 14/14 13/13
f  13/13 14/14 16/16 15/15
f  15/15 16/16 18/18 17/17
f  17/17 18/18 20/20 19/19
f  19/19 20/20 22/22 21/21
f  21/21 22/22 24/24 23/23
f  23/23 24/24 26/26 25/25
f  25/25 26/26 28/28 27/27
f  27/27 28/28 30/30 29/29
f  29/29 30/30 32/32 31/31
f  31/31 32/32 34/34 33/33
f  33/33 34/34 36/36 35/35
f  35/35 36/36 38/38 37/37
f  37/37 38/38 40/40 39/39
f  39/39 40/40 42/42 41/41
f  41/41 42/42 44/44 43/43
f  43/43 44/44 46/46 45/45
f  45/45 46/46 48/48 47/47
f  47/47 48/48 50/50 49/49
f  49/49 50/50 52/52 51/51
f  51/51 52/52 54/54 53/53
f  53/53 54/54 56/56 55/55
f  55/55 56/56 58/58 57/57
f  57/57 58/58 60/60 59/59
f  59/59 60/60 62/62 61/61
f  61/61 62/62 64/64 63/63
f  63/63 64/64 66/66 65/65
f  65/65 66/66 68/68 67/67
f  67/67 68/68 70/70 69/69
f  69/69 70/70 72/72 71/71
f  71/71 72/72 74/74 73/73
f  73/73 74/74 76/76 75/75
f  75/75 76/76 78/78 77/77
f  77/77 78/78 80/80 79/79
f  79/79 80/80 82/82 81/81
f  81/81 82/82 84/84 83/83
f  83/83 84/84 86/86 85/85
f  85/85 86/86 88/88 87/87
f  87/87 88/88 90/90 89/89
f  89/89 90/90 92/92 91/91
f  91/91 92/92 94/94 93/93
f  93/93 94/94 96/96 95/95
f  95/95 96/96 98/98 97/97
f  97/97 98/98 100/100 99/99
f  99/99 100/100 102/102 101/101
f  101/101 102/102 104/104 103/103
f  103/103 104/104 106/106 105/105
f  105/105 106/106 108/108 107/107
f  107/107 108/108 110/110 109/109
f  109/109 110/110 112/112 111/111
f  111/111 112/112 114/114 113/113
f  113/113 114/114 116/116 115/115
f  115/115 116/116 118/118 117/117
f  117/117 118/118 120/120 119/119
f  119/119 120/120 122/122 121/121
f  121/121 122/122 124/124 123/123
f  123/123 124/124 126/126 125/125
f  125/125 126/126 128/128 127/127
f  127/127 128/128 130/130 129/129
f  129/129 130/130 132/132 131/131
f  131/131 132/132 134/134 133/133
f  133/133 134/134 136/136 135/135
f  135/135 136/136 138/138 137/137
f  137/137 138/138 140/140 139/139
f  139/139 140/140 142/142 141/141
f  141/141 142/142 144/144 143/143
f  143/143 144/144 146/146 145/145
f  145/145 146/146 148/148 147/147
f  147/147 148/148 150/150 149/149
f  149/149 150/150 152/152 151/151
f  151/151 152/152 154/154 153/153
f  153/153 154/154 156/156 155/155
f  155/155 156/156 158/158 157/157
f  157/157 158/158 160/160 159/159
f  159/159 160/160 162/162 161/161
f  161/161 162/162 164/164 163/163
f  163/163 164/164 166/166 165/165
f  165/165 166/166 168/168 167/167
f  167/167 168/168 170/170 169/169
f  169/169 170/170 172/172 171/171
f  171/171 172/172 174/174 173/173
f  173/173 174/174 176/176 175/175
f  175/175 176/176 178/178 177/177
f  177/177 178/178 180/180 179/179
f  179/179 180/180 182/182 181/181
f  181/181 182/182 184/184 183/183
f  183/183 184/184 186/186 185/185
f  185/185 186/186 188/188 187/187
f  187/187 188/188 190/190 189/189
f  189/189 190/190 192/192 191/191
f  191/191 192/192 194/194 193/193
f  193/193 194/194 196/196 195/195
f  195/195 196/196 198/198 197/197
f  197/197 198/198 200/200 199/199
f  199/199 200/200 202/202 201/201
f  201/201 202/202 204/204 203/203
f  203/203 204/204 206/206 205/205
f  205/205 206/206 208/208 207/207
f  207/207 208/208 210/210 209/209
f  209/209 210/210 212/212 211/211
f  211/211 212/212 214/214 213/213
f  213/213 214/214 216/216 215/215
f  215/215 216/216 218/218 217/217
f  217/217 218/218 220/220 219/219
f  219/219 220/220 222/222 221/221
f  221/221 222/222 224/224 223/223
f  223/223 224/224 226/226 225/225
f  225/225 226/226 228/228 227/227
f  227/227 228/228 230/230 229/229
f  229/229 230/230 232/232 231/231
f  231/231 232/232 234/234 233/233
f  233/233 234/234 236/236 235/235
f  235/235 236/236 238/238 237/237
f  237/237 238/238 240/240 239/239
f  239/239 240/240 242/242 241/241
f  241/241 242/242 244/244 243/243
f  243/243 244/244 246/246 245/245
f  245/245 246/246 248/248 247/247
f  247/247 248/248 250/250 249/249
f  249/249 250/250 252/252 251/251
f  251/251 252/252 254/254 253/253
f  253/253 254/254 256/256 255/255
f  255/255 256/256 258/258 257/257
f  257/257 258/258 260/260 259/259
f  259/259 260/260 262/262 261/261
f  261/261 262/262 264/264 263/263
f  263/263 264/264 266/266 265/265
f  265/265 266/266 268/268 267/267
f  267/267 268/268 270/270 269/269
f  269/269 270/270 272/272 271/271
f  271/271 272/272 274/274 273/273
f  273/273 274/274 276/276 275/275
f  275/275 276/276 278/278 277/277
f  277/277 278/278 280/280 279/279
f  279/279 280/280 282/282 281/281
f  281/281 282/282 284/284 283/283
f  283/283 284/284 286/286 285/285
f  285/285 286/286 288/288 287/287
f  287/287 288/288 290/290 289/289
f  289/289 290/290 292/292 291/291
f  291/291 292/292 294/294 293/293
f  293/293 294/294 296/296 295/295
f  295/295 296/296 298/298 297/297
f  297/297 298/298 300/300 299/299
f  299/299 300/300 302/302 301/301
f  301/301 302/302 304/304 303/303
f  303/303 304/304 306/306 305/305
f  305/305 306/306 308/308 307/307
f  307/307 308/308 310/310 309/309
f  309/309 310/310 312/312 311/311
f  311/311 312/312 314/314 313/313
f  313/313 314/314 316/316 315/315
f  315/315 316/316 318/318 317/317
f  317/317 318/318 320/320 319/319
f  319/319 320/320 322/322 321/321
f  321/321 322/322 324/324 323/323
f  323/323 324/324 326/326 325/325
f  325/325 326/326 328/328 327/327
f  327/327 328/328 330/330 329/329
f  329/329 330/330 332/332 331/331
f  331/331 332/332 334/334 333/333
f  333/333 334/334 336/336 335/335
f  335/335 336/336 338/338 337/337
f  337/337 338/338 340/340 339/339
f  339/339 340/340 342/342 341/341
f  341/341 342/342 344/344 343/343
f  343/343 344/344 346/346 345/345
f  345/345 346/346 348/348 347/347
f  347/347 348/348 350/350 349/349
f  349/349 350/350 352/352 351/351
f  351/351 352/352 354/354 353/353
f  353/353 354/354 356/356 355/355
f  355/355 356/356 358/358 357/357
f  357/357 358/358 360/360 359/359
f  359/359 360/360 362/362 361/361
f  361/361 362/362 364/364 363/363
f  363/363 364/364 366/366 365/365
f  365/365 366/366 368/368 367/367
f  367/367 368/368 370/370 369/369
f  369/369 370/370 372/372 371/371
f  371/371 372/372 374/374 373/373
f  373/373 374/374 376/376 375/375
f  375/375 376/376 378/378 377/377
f  377/377 378/378 380/380 379/379
f  379/379 380/380 382/382 381/381
f  381/381 382/382 384/384 383/383
f  383/383 384/384 386/386 385/385
f  385/385 386/386 388/388 387/387
f  387/387 388/388 390/390 389/389
f  389/389 390/390 392/392 391/391
f  391/391 392/392 394/394 393/393
f  393/393 394/394 396/396 395/395
f  395/395 396/396 398/398 397/397
f  397/397 398/398 400/400 399/399
f  399/399 400/400 402/402 401/401
f  401/401 402/402 404/404 403/403
f  403/403 404/404 406/406 405/405
f  405/405 406/406 408/408 407/407
f  407/407 408/408 410/410 409/409
f  409/409 410/410 412/412 411/411
f  411/411 412/412 414/414 413/413
f  413/413 414/414 416/416 415/415
f  415/415 416/416 418/418 417/417
f  417/417 418/418 420/420 419/419
f  419/419 420/420 422/422 421/421
f  421/421 422/422 424/424 423/423
f  423/423 424/424 426/426 425/425
f  425/425 426/426 428/428 427/427
f  427/427 428/428 430/430 429/429
f  429/429 430/430 432/432 431/431
f  431/431 432/432 434/434 433/433
f  433/433 434/434 436/436 435/435
f  435/435 436/436 438/438 437/437
f  437/437 438/438 440/440 439/439
f  439/439 440/440 442/442 441/441
f  441/441 442/442 444/444 443/443
f  443/443 444/444 446/446 445/445
f  445/445 446/446 448/448 447/447
f  447/447 448/448 450/450 449/449
f  449/449 450/450 452/452 451/451
f  451/451 452/452 454/454 453/453
f  453/453 454/454 456/456 455/455
f  455/455 456/456 458/458 457/457
f  457/457 458/458 460/460 459/459
f  459/459 460/460 462/462 461/461
f  461/461 462/462 464/464 463/463
f  463/463 464/464 466/466 465/465
f  465/465 466/466 468/468 467/467
f  467/467 468/468 470/470 469/469
f  469/469 470/470 472/472 471/471
f  471/471 472/472 474/474 473/473
f  473/473 474/474 476/476 475/475
f  475/475 476/476 478/478 477/477
f  477/477 478/478 480/480 479/479
f  479/479 480/480 482/482 481/481
f  481/481 482/482 484/484 483/483
f  483/483 484/484 486/486 485/485
f  485/485 486/486 488/488 487/487
f  487/487 488/488 490/490 489/489
f  489/489 490/490 492/492 491/491
f  491/491 492/492 494/494 493/493
f  493/493 494/494 496/496 495/495
f  495/495 496/496 498/498 497/497
f  497/497 498/498 500/500 499/499
f  499/499 500/500 502/502 501/501
f  501/501 502/502 504/504 503/503
f  503/503 504/504 506/506 505/505
f  505/505 506/506 508/508 507/507
f  507/507 508/508 510/510 509/509
f  509/509 510/510 512/512 511/511
f  511/511 512/512 514/514 513/513
f  513/513 514/514 516/516 515/515
f  515/515 516/516 518/518 517/517
g g2
s 2
g g3
s 3
g g4
s 4
