# Shape file for lane 6
v -100.000 12.000 -5.000
vt 0.000 0.000
v -100.000 8.000 -5.000
vt -1.000 0.000
v 50.000 12.000 -5.000
vt 0.000 5.000
v 50.000 8.000 -5.000
vt -1.000 5.000
v 54.940 12.012 -5.000
vt 0.000 5.167
v 54.960 8.012 -5.000
vt -1.000 5.167
v 59.880 12.049 -5.000
vt 0.000 5.333
v 59.920 8.050 -5.000
vt -1.000 5.333
v 64.819 12.111 -5.000
vt 0.000 5.500
v 64.879 8.112 -5.000
vt -1.000 5.500
v 69.759 12.198 -5.000
vt 0.000 5.667
v 69.839 8.198 -5.000
vt -1.000 5.667
v 74.697 12.309 -5.000
vt 0.000 5.833
v 74.797 8.310 -5.000
vt -1.000 5.833
v 79.636 12.445 -5.000
vt 0.000 6.000
v 79.756 8.446 -5.000
vt -1.000 6.000
v 84.573 12.605 -5.000
vt 0.000 6.167
v 84.713 8.608 -5.000
vt -1.000 6.167
v 89.509 12.790 -5.000
vt 0.000 6.333
v 89.669 8.793 -5.000
vt -1.000 6.333
v 94.445 13.000 -5.000
vt 0.000 6.500
v 94.625 9.004 -5.000
vt -1.000 6.500
v 99.379 13.235 -5.000
vt 0.000 6.667
v 99.579 9.240 -5.000
vt -1.000 6.667
v 104.313 13.494 -5.000
vt 0.000 6.833
v 104.532 9.500 -5.000
vt -1.000 6.833
v 109.244 13.778 -5.000
vt 0.000 7.000
v 109.484 9.785 -5.000
vt -1.000 7.000
v 114.175 14.086 -5.000
vt 0.000 7.167
v 114.435 10.095 -5.000
vt -1.000 7.167
v 119.104 14.420 -5.000
vt 0.000 7.333
v 119.383 10.429 -5.000
vt -1.000 7.333
v 124.031 14.777 -5.000
vt 0.000 7.500
v 124.330 10.789 -5.000
vt -1.000 7.500
v 128.956 15.160 -5.000
vt 0.000 7.667
v 129.275 11.173 -5.000
vt -1.000 7.667
v 133.879 15.567 -5.000
vt 0.000 7.833
v 134.219 11.581 -5.000
vt -1.000 7.833
v 138.800 15.999 -5.000
vt 0.000 8.000
v 139.160 12.015 -5.000
vt -1.000 8.000
v 143.719 16.455 -5.000
vt 0.000 8.167
v 144.098 12.473 -5.000
vt -1.000 8.167
v 148.635 16.936 -5.000
vt 0.000 8.333
v 149.035 12.956 -5.000
vt -1.000 8.333
v 153.549 17.441 -5.000
vt 0.000 8.500
v 153.969 13.463 -5.000
vt -1.000 8.500
v 158.461 17.971 -5.000
vt 0.000 8.667
v 158.900 13.996 -5.000
vt -1.000 8.667
v 163.370 18.526 -5.000
vt 0.000 8.833
v 163.829 14.552 -5.000
vt -1.000 8.833
v 168.276 19.105 -5.000
vt 0.000 9.000
v 168.755 15.134 -5.000
vt -1.000 9.000
v 173.179 19.709 -5.000
vt 0.000 9.167
v 173.677 15.740 -5.000
vt -1.000 9.167
v 178.079 20.337 -5.000
vt 0.000 9.333
v 178.597 16.371 -5.000
vt -1.000 9.333
v 182.975 20.989 -5.000
vt 0.000 9.500
v 183.514 17.026 -5.000
vt -1.000 9.500
v 187.869 21.667 -5.000
vt 0.000 9.667
v 188.427 17.706 -5.000
vt -1.000 9.667
v 192.759 22.368 -5.000
vt 0.000 9.833
v 193.336 18.410 -5.000
vt -1.000 9.833
v 197.645 23.094 -5.000
vt 0.000 10.000
v 198.243 19.139 -5.000
vt -1.000 10.000
v 202.528 23.845 -4.998
vt 0.000 10.167
v 203.145 19.893 -4.998
vt -1.000 10.167
v 207.406 24.619 -4.993
vt 0.000 10.333
v 208.044 20.671 -4.993
vt -1.000 10.333
v 212.281 25.419 -4.985
vt 0.000 10.500
v 212.938 21.473 -4.985
vt -1.000 10.500
v 217.152 26.242 -4.973
vt 0.000 10.667
v 217.829 22.300 -4.973
vt -1.000 10.667
v 222.019 27.090 -4.957
vt 0.000 10.833
v 222.715 23.151 -4.957
vt -1.000 10.833
v 226.881 27.962 -4.938
vt 0.000 11.000
v 227.597 24.027 -4.938
vt -1.000 11.000
v 231.739 28.859 -4.916
vt 0.000 11.167
v 232.475 24.927 -4.916
vt -1.000 11.167
v 236.593 29.780 -4.891
vt 0.000 11.333
v 237.348 25.852 -4.891
vt -1.000 11.333
v 241.441 30.725 -4.862
vt 0.000 11.500
v 242.216 26.801 -4.862
vt -1.000 11.500
v 246.285 31.694 -4.830
vt 0.000 11.667
v 247.080 27.774 -4.830
vt -1.000 11.667
v 251.124 32.688 -4.794
vt 0.000 11.833
v 251.939 28.772 -4.794
vt -1.000 11.833
v 255.958 33.705 -4.755
vt 0.000 12.000
v 256.792 29.793 -4.755
vt -1.000 12.000
v 260.787 34.747 -4.713
vt 0.000 12.167
v 261.641 30.839 -4.713
vt -1.000 12.167
v 265.611 35.813 -4.668
vt 0.000 12.333
v 266.484 31.910 -4.668
vt -1.000 12.333
v 270.429 36.903 -4.619
vt 0.000 12.500
v 271.322 33.004 -4.619
vt -1.000 12.500
v 275.242 38.018 -4.568
vt 0.000 12.667
v 276.154 34.123 -4.568
vt -1.000 12.667
v 280.049 39.156 -4.513
vt 0.000 12.833
v 280.980 35.266 -4.513
vt -1.000 12.833
v 284.850 40.318 -4.455
vt 0.000 13.000
v 285.801 36.433 -4.455
vt -1.000 13.000
v 289.646 41.504 -4.394
vt 0.000 13.167
v 290.616 37.624 -4.394
vt -1.000 13.167
v 294.435 42.715 -4.330
vt 0.000 13.333
v 295.425 38.839 -4.330
vt -1.000 13.333
v 299.218 43.949 -4.263
vt 0.000 13.500
v 300.227 40.078 -4.263
vt -1.000 13.500
v 303.996 45.207 -4.193
vt 0.000 13.667
v 305.024 41.341 -4.193
vt -1.000 13.667
v 308.766 46.489 -4.121
vt 0.000 13.833
v 309.814 42.628 -4.121
vt -1.000 13.833
v 313.531 47.794 -4.045
vt 0.000 14.000
v 314.598 43.939 -4.045
vt -1.000 14.000
v 318.288 49.124 -3.967
vt 0.000 14.167
v 319.375 45.274 -3.967
vt -1.000 14.167
v 323.039 50.477 -3.886
vt 0.000 14.333
v 324.145 46.633 -3.886
vt -1.000 14.333
v 327.784 51.854 -3.802
vt 0.000 14.500
v 328.908 48.016 -3.802
vt -1.000 14.500
v 332.521 53.255 -3.716
vt 0.000 14.667
v 333.665 49.422 -3.716
vt -1.000 14.667
v 337.251 54.679 -3.627
vt 0.000 14.833
v 338.414 50.852 -3.627
vt -1.000 14.833
v 341.974 56.128 -3.535
vt 0.000 15.000
v 343.156 52.306 -3.535
vt -1.000 15.000
v 346.690 57.599 -3.442
vt 0.000 15.167
v 347.891 53.784 -3.442
vt -1.000 15.167
v 351.398 59.094 -3.346
vt 0.000 15.333
v 352.618 55.285 -3.346
vt -1.000 15.333
v 356.099 60.613 -3.247
vt 0.000 15.500
v 357.338 56.810 -3.247
vt -1.000 15.500
v 360.792 62.155 -3.147
vt 0.000 15.667
v 362.050 58.358 -3.147
vt -1.000 15.667
v 365.477 63.721 -3.044
vt 0.000 15.833
v 366.754 59.930 -3.044
vt -1.000 15.833
v 370.155 65.310 -2.939
vt 0.000 16.000
v 371.451 61.526 -2.939
vt -1.000 16.000
v 374.824 66.923 -2.832
vt 0.000 16.167
v 376.139 63.145 -2.832
vt -1.000 16.167
v 379.485 68.558 -2.723
vt 0.000 16.333
v 380.819 64.787 -2.723
vt -1.000 16.333
v 384.138 70.217 -2.612
vt 0.000 16.500
v 385.491 66.453 -2.612
vt -1.000 16.500
v 388.783 71.900 -2.500
vt 0.000 16.667
v 390.155 68.142 -2.500
vt -1.000 16.667
v 393.419 73.605 -2.386
vt 0.000 16.833
v 394.810 69.855 -2.386
vt -1.000 16.833
v 398.047 75.334 -2.270
vt 0.000 17.000
v 399.456 71.590 -2.270
vt -1.000 17.000
v 402.666 77.086 -2.153
vt 0.000 17.167
v 404.094 73.349 -2.153
vt -1.000 17.167
v 407.276 78.861 -2.034
vt 0.000 17.333
v 408.723 75.131 -2.034
vt -1.000 17.333
v 411.877 80.658 -1.913
vt 0.000 17.500
v 413.342 76.936 -1.913
vt -1.000 17.500
v 416.469 82.479 -1.792
vt 0.000 17.667
v 417.953 78.765 -1.792
vt -1.000 17.667
v 421.052 84.323 -1.669
vt 0.000 17.833
v 422.555 80.616 -1.669
vt -1.000 17.833
v 425.626 86.190 -1.545
vt 0.000 18.000
v 427.147 82.490 -1.545
vt -1.000 18.000
v 430.190 88.079 -1.420
vt 0.000 18.167
v 431.730 84.387 -1.420
vt -1.000 18.167
v 434.745 89.992 -1.294
vt 0.000 18.333
v 436.303 86.307 -1.294
vt -1.000 18.333
v 439.291 91.927 -1.167
vt 0.000 18.500
v 440.867 88.250 -1.167
vt -1.000 18.500
v 443.826 93.885 -1.040
vt 0.000 18.667
v 445.420 90.216 -1.040
vt -1.000 18.667
v 448.352 95.865 -0.911
vt 0.000 18.833
v 449.964 92.205 -0.911
vt -1.000 18.833
v 452.867 97.868 -0.782
vt 0.000 19.000
v 454.498 94.216 -0.782
vt -1.000 19.000
v 457.373 99.894 -0.653
vt 0.000 19.167
v 459.022 96.250 -0.653
vt -1.000 19.167
v 461.868 101.942 -0.523
vt 0.000 19.333
v 463.536 98.306 -0.523
vt -1.000 19.333
v 466.353 104.012 -0.392
vt 0.000 19.500
v 468.039 100.385 -0.392
vt -1.000 19.500
v 470.828 106.105 -0.262
vt 0.000 19.667
v 472.532 102.486 -0.262
vt -1.000 19.667
v 475.292 108.221 -0.131
vt 0.000 19.833
v 477.014 104.610 -0.131
vt -1.000 19.833
v 479.746 110.358 -0.000
vt 0.000 20.000
v 481.486 106.756 -0.000
vt -1.000 20.000
v 484.189 112.518 0.131
vt 0.000 20.167
v 485.947 108.925 0.131
vt -1.000 20.167
v 488.621 114.700 0.262
vt 0.000 20.333
v 490.397 111.116 0.262
vt -1.000 20.333
v 493.042 116.904 0.392
vt 0.000 20.500
v 494.835 113.329 0.392
vt -1.000 20.500
v 497.452 119.131 0.523
vt 0.000 20.667
v 499.263 115.564 0.523
vt -1.000 20.667
v 501.850 121.379 0.653
vt 0.000 20.833
v 503.680 117.822 0.653
vt -1.000 20.833
v 506.238 123.649 0.782
vt 0.000 21.000
v 508.085 120.101 0.782
vt -1.000 21.000
v 510.614 125.941 0.911
vt 0.000 21.167
v 512.479 122.402 0.911
vt -1.000 21.167
v 514.978 128.255 1.040
vt 0.000 21.333
v 516.861 124.726 1.040
vt -1.000 21.333
v 519.331 130.591 1.167
vt 0.000 21.500
v 521.231 127.071 1.167
vt -1.000 21.500
v 523.672 132.948 1.294
vt 0.000 21.667
v 525.590 129.438 1.294
vt -1.000 21.667
v 528.002 135.328 1.420
vt 0.000 21.833
v 529.937 131.827 1.420
vt -1.000 21.833
v 532.319 137.728 1.545
vt 0.000 22.000
v 534.272 134.237 1.545
vt -1.000 22.000
v 536.624 140.151 1.669
vt 0.000 22.167
v 538.595 136.670 1.669
vt -1.000 22.167
v 540.918 142.595 1.792
vt 0.000 22.333
v 542.905 139.123 1.792
vt -1.000 22.333
v 545.198 145.060 1.913
vt 0.000 22.500
v 547.203 141.599 1.913
vt -1.000 22.500
v 549.467 147.547 2.034
vt 0.000 22.667
v 551.489 144.095 2.034
vt -1.000 22.667
v 553.723 150.055 2.153
vt 0.000 22.833
v 555.762 146.614 2.153
vt -1.000 22.833
v 557.966 152.584 2.270
vt 0.000 23.000
v 560.023 149.153 2.270
vt -1.000 23.000
v 562.197 155.134 2.386
vt 0.000 23.167
v 564.271 151.714 2.386
vt -1.000 23.167
v 566.415 157.706 2.500
vt 0.000 23.333
v 568.506 154.296 2.500
vt -1.000 23.333
v 570.620 160.298 2.612
vt 0.000 23.500
v 572.728 156.899 2.612
vt -1.000 23.500
v 574.812 162.912 2.723
vt 0.000 23.667
v 576.937 159.523 2.723
vt -1.000 23.667
v 578.991 165.546 2.832
vt 0.000 23.833
v 581.132 162.168 2.832
vt -1.000 23.833
v 583.156 168.202 2.939
vt 0.000 24.000
v 585.315 164.834 2.939
vt -1.000 24.000
v 587.309 170.878 3.044
vt 0.000 24.167
v 589.484 167.521 3.044
vt -1.000 24.167
v 591.448 173.575 3.147
vt 0.000 24.333
v 593.640 170.229 3.147
vt -1.000 24.333
v 595.573 176.292 3.247
vt 0.000 24.500
v 597.782 172.958 3.247
vt -1.000 24.500
v 599.685 179.031 3.346
vt 0.000 24.667
v 601.910 175.707 3.346
vt -1.000 24.667
v 603.783 181.789 3.442
vt 0.000 24.833
v 606.025 178.477 3.442
vt -1.000 24.833
v 607.867 184.568 3.535
vt 0.000 25.000
v 610.125 181.267 3.535
vt -1.000 25.000
v 611.937 187.368 3.627
vt 0.000 25.167
v 614.212 184.078 3.627
vt -1.000 25.167
v 615.993 190.188 3.716
vt 0.000 25.333
v 618.285 186.909 3.716
vt -1.000 25.333
v 620.035 193.028 3.802
vt 0.000 25.500
v 622.343 189.761 3.802
vt -1.000 25.500
v 624.063 195.888 3.886
vt 0.000 25.667
v 626.387 192.633 3.886
vt -1.000 25.667
v 628.076 198.768 3.967
vt 0.000 25.833
v 630.416 195.525 3.967
vt -1.000 25.833
v 632.075 201.669 4.045
vt 0.000 26.000
v 634.432 198.437 4.045
vt -1.000 26.000
v 636.059 204.589 4.121
vt 0.000 26.167
v 638.432 201.369 4.121
vt -1.000 26.167
v 640.029 207.529 4.193
vt 0.000 26.333
v 642.418 204.321 4.193
vt -1.000 26.333
v 643.984 210.489 4.263
vt 0.000 26.500
v 646.389 207.293 4.263
vt -1.000 26.500
v 647.924 213.469 4.330
vt 0.000 26.667
v 650.345 210.285 4.330
vt -1.000 26.667
v 651.849 216.469 4.394
vt 0.000 26.833
v 654.286 213.296 4.394
vt -1.000 26.833
v 655.759 219.488 4.455
vt 0.000 27.000
v 658.212 216.328 4.455
vt -1.000 27.000
v 659.654 222.526 4.513
vt 0.000 27.167
v 662.123 219.379 4.513
vt -1.000 27.167
v 663.534 225.584 4.568
vt 0.000 27.333
v 666.018 222.449 4.568
vt -1.000 27.333
v 667.399 228.662 4.619
vt 0.000 27.500
v 669.898 225.539 4.619
vt -1.000 27.500
v 671.248 231.758 4.668
vt 0.000 27.667
v 673.763 228.648 4.668
vt -1.000 27.667
v 675.081 234.874 4.713
vt 0.000 27.833
v 677.612 231.776 4.713
vt -1.000 27.833
v 678.899 238.009 4.755
vt 0.000 28.000
v 681.445 234.924 4.755
vt -1.000 28.000
v 682.701 241.163 4.794
vt 0.000 28.167
v 685.262 238.091 4.794
vt -1.000 28.167
v 686.487 244.336 4.830
vt 0.000 28.333
v 689.064 241.277 4.830
vt -1.000 28.333
v 690.257 247.528 4.862
vt 0.000 28.500
v 692.850 244.481 4.862
vt -1.000 28.500
v 694.012 250.738 4.891
vt 0.000 28.667
v 696.619 247.705 4.891
vt -1.000 28.667
v 697.750 253.968 4.916
vt 0.000 28.833
v 700.372 250.948 4.916
vt -1.000 28.833
v 701.472 257.216 4.938
vt 0.000 29.000
v 704.110 254.209 4.938
vt -1.000 29.000
v 705.178 260.483 4.957
vt 0.000 29.167
v 707.830 257.489 4.957
vt -1.000 29.167
v 708.867 263.768 4.973
vt 0.000 29.333
v 711.535 260.787 4.973
vt -1.000 29.333
v 712.540 267.071 4.985
vt 0.000 29.500
v 715.222 264.104 4.985
vt -1.000 29.500
v 716.196 270.393 4.993
vt 0.000 29.667
v 718.894 267.439 4.993
vt -1.000 29.667
v 719.836 273.733 4.998
vt 0.000 29.833
v 722.548 270.793 4.998
vt -1.000 29.833
v 723.459 277.091 5.000
vt 0.000 30.000
v 726.186 274.165 5.000
vt -1.000 30.000
v 727.065 280.468 4.998
vt 0.000 30.167
v 729.806 277.555 4.998
vt -1.000 30.167
v 730.654 283.862 4.993
vt 0.000 30.333
v 733.410 280.963 4.993
vt -1.000 30.333
v 734.227 287.274 4.985
vt 0.000 30.500
v 736.997 284.389 4.985
vt -1.000 30.500
v 737.782 290.704 4.973
vt 0.000 30.667
v 740.566 287.833 4.973
vt -1.000 30.667
v 741.319 294.152 4.957
vt 0.000 30.833
v 744.118 291.294 4.957
vt -1.000 30.833
v 744.840 297.617 4.938
vt 0.000 31.000
v 747.653 294.774 4.938
vt -1.000 31.000
v 748.343 301.100 4.916
vt 0.000 31.167
v 751.171 298.271 4.916
vt -1.000 31.167
v 751.829 304.601 4.891
vt 0.000 31.333
v 754.670 301.785 4.891
vt -1.000 31.333
v 755.297 308.119 4.862
vt 0.000 31.500
v 758.153 305.318 4.862
vt -1.000 31.500
v 758.748 311.654 4.830
vt 0.000 31.667
v 761.617 308.867 4.830
vt -1.000 31.667
v 762.231 315.241 4.794
vt 0.000 31.833
v 765.101 312.454 4.794
vt -1.000 31.833
v 765.715 318.827 4.755
vt 0.000 32.000
v 768.584 316.041 4.755
vt -1.000 32.000
v 769.198 322.414 4.713
vt 0.000 32.167
v 772.068 319.627 4.713
vt -1.000 32.167
v 772.682 326.001 4.668
vt 0.000 32.333
v 775.551 323.214 4.668
vt -1.000 32.333
v 776.165 329.588 4.619
vt 0.000 32.500
v 779.035 326.801 4.619
vt -1.000 32.500
v 779.649 333.174 4.568
vt 0.000 32.667
v 782.518 330.388 4.568
vt -1.000 32.667
v 783.133 336.761 4.513
vt 0.000 32.833
v 786.002 333.974 4.513
vt -1.000 32.833
v 786.616 340.348 4.455
vt 0.000 33.000
v 789.486 337.561 4.455
vt -1.000 33.000
v 790.100 343.935 4.394
vt 0.000 33.167
v 792.969 341.148 4.394
vt -1.000 33.167
v 793.583 347.522 4.330
vt 0.000 33.333
v 796.453 344.735 4.330
vt -1.000 33.333
v 797.067 351.108 4.263
vt 0.000 33.500
v 799.936 348.322 4.263
vt -1.000 33.500
v 800.550 354.695 4.193
vt 0.000 33.667
v 803.420 351.908 4.193
vt -1.000 33.667
v 804.034 358.282 4.121
vt 0.000 33.833
v 806.903 355.495 4.121
vt -1.000 33.833
v 807.517 361.869 4.045
vt 0.000 34.000
v 810.387 359.082 4.045
vt -1.000 34.000
v 811.001 365.455 3.967
vt 0.000 34.167
v 813.870 362.669 3.967
vt -1.000 34.167
v 814.484 369.042 3.886
vt 0.000 34.333
v 817.354 366.255 3.886
vt -1.000 34.333
v 817.968 372.629 3.802
vt 0.000 34.500
v 820.837 369.842 3.802
vt -1.000 34.500
v 821.451 376.216 3.716
vt 0.000 34.667
v 824.321 373.429 3.716
vt -1.000 34.667
v 824.935 379.803 3.627
vt 0.000 34.833
v 827.804 377.016 3.627
vt -1.000 34.833
v 828.418 383.389 3.535
vt 0.000 35.000
v 831.288 380.603 3.535
vt -1.000 35.000
v 831.902 386.976 3.442
vt 0.000 35.167
v 834.771 384.189 3.442
vt -1.000 35.167
v 835.386 390.563 3.346
vt 0.000 35.333
v 838.255 387.776 3.346
vt -1.000 35.333
v 838.869 394.150 3.247
vt 0.000 35.500
v 841.739 391.363 3.247
vt -1.000 35.500
v 842.353 397.737 3.147
vt 0.000 35.667
v 845.222 394.950 3.147
vt -1.000 35.667
v 845.836 401.323 3.044
vt 0.000 35.833
v 848.706 398.536 3.044
vt -1.000 35.833
v 849.320 404.910 2.939
vt 0.000 36.000
v 852.189 402.123 2.939
vt -1.000 36.000
v 852.803 408.497 2.832
vt 0.000 36.167
v 855.673 405.710 2.832
vt -1.000 36.167
v 856.287 412.084 2.723
vt 0.000 36.333
v 859.156 409.297 2.723
vt -1.000 36.333
v 859.770 415.670 2.612
vt 0.000 36.500
v 862.640 412.884 2.612
vt -1.000 36.500
v 863.254 419.257 2.500
vt 0.000 36.667
v 866.123 416.470 2.500
vt -1.000 36.667
v 866.737 422.844 2.386
vt 0.000 36.833
v 869.607 420.057 2.386
vt -1.000 36.833
v 870.221 426.431 2.270
vt 0.000 37.000
v 873.090 423.644 2.270
vt -1.000 37.000
v 873.704 430.018 2.153
vt 0.000 37.167
v 876.574 427.231 2.153
vt -1.000 37.167
v 877.188 433.604 2.034
vt 0.000 37.333
v 880.057 430.817 2.034
vt -1.000 37.333
v 880.671 437.191 1.913
vt 0.000 37.500
v 883.541 434.404 1.913
vt -1.000 37.500
v 884.155 440.778 1.792
vt 0.000 37.667
v 887.024 437.991 1.792
vt -1.000 37.667
v 887.639 444.365 1.669
vt 0.000 37.833
v 890.508 441.578 1.669
vt -1.000 37.833
v 891.122 447.951 1.545
vt 0.000 38.000
v 893.992 445.165 1.545
vt -1.000 38.000
v 898.089 455.125 1.294
vt 0.000 38.333
v 900.959 452.338 1.294
vt -1.000 38.333
v 905.056 462.299 1.040
vt 0.000 38.667
v 907.926 459.512 1.040
vt -1.000 38.667
v 912.023 469.472 0.782
vt 0.000 39.000
v 914.893 466.685 0.782
vt -1.000 39.000
v 918.990 476.646 0.523
vt 0.000 39.333
v 921.860 473.859 0.523
vt -1.000 39.333
v 929.441 487.406 0.131
vt 0.000 39.833
v 932.310 484.619 0.131
vt -1.000 39.833
v 946.859 505.340 -0.523
vt 0.000 40.667
v 949.728 502.553 -0.523
vt -1.000 40.667
v 953.826 512.513 -0.782
vt 0.000 41.000
v 956.695 509.727 -0.782
vt -1.000 41.000
v 960.793 519.687 -1.040
vt 0.000 41.333
v 963.662 516.900 -1.040
vt -1.000 41.333
v 967.760 526.861 -1.294
vt 0.000 41.667
v 970.629 524.074 -1.294
vt -1.000 41.667
v 974.727 534.034 -1.545
vt 0.000 42.000
v 977.596 531.247 -1.545
vt -1.000 42.000
v 978.210 537.621 -1.669
vt 0.000 42.167
v 981.080 534.834 -1.669
vt -1.000 42.167
v 981.694 541.208 -1.792
vt 0.000 42.333
v 984.563 538.421 -1.792
vt -1.000 42.333
v 985.177 544.795 -1.913
vt 0.000 42.500
v 988.047 542.008 -1.913
vt -1.000 42.500
v 988.661 548.381 -2.034
vt 0.000 42.667
v 991.530 545.594 -2.034
vt -1.000 42.667
v 992.145 551.968 -2.153
vt 0.000 42.833
v 995.014 549.181 -2.153
vt -1.000 42.833
v 995.628 555.555 -2.270
vt 0.000 43.000
v 998.498 552.768 -2.270
vt -1.000 43.000
v 999.112 559.142 -2.386
vt 0.000 43.167
v 1001.981 556.355 -2.386
vt -1.000 43.167
v 1002.595 562.728 -2.500
vt 0.000 43.333
v 1005.465 559.942 -2.500
vt -1.000 43.333
v 1006.079 566.315 -2.612
vt 0.000 43.500
v 1008.948 563.528 -2.612
vt -1.000 43.500
v 1009.562 569.902 -2.723
vt 0.000 43.667
v 1012.432 567.115 -2.723
vt -1.000 43.667
v 1013.046 573.489 -2.832
vt 0.000 43.833
v 1015.915 570.702 -2.832
vt -1.000 43.833
v 1016.529 577.076 -2.939
vt 0.000 44.000
v 1019.399 574.289 -2.939
vt -1.000 44.000
v 1020.013 580.662 -3.044
vt 0.000 44.167
v 1022.882 577.875 -3.044
vt -1.000 44.167
v 1023.496 584.249 -3.147
vt 0.000 44.333
v 1026.366 581.462 -3.147
vt -1.000 44.333
v 1026.980 587.836 -3.247
vt 0.000 44.500
v 1029.849 585.049 -3.247
vt -1.000 44.500
v 1030.463 591.423 -3.346
vt 0.000 44.667
v 1033.333 588.636 -3.346
vt -1.000 44.667
v 1033.947 595.009 -3.442
vt 0.000 44.833
v 1036.816 592.223 -3.442
vt -1.000 44.833
v 1037.430 598.596 -3.535
vt 0.000 45.000
v 1040.300 595.809 -3.535
vt -1.000 45.000
v 1040.914 602.183 -3.627
vt 0.000 45.167
v 1043.783 599.396 -3.627
vt -1.000 45.167
v 1044.398 605.770 -3.716
vt 0.000 45.333
v 1047.267 602.983 -3.716
vt -1.000 45.333
v 1047.881 609.357 -3.802
vt 0.000 45.500
v 1050.751 606.570 -3.802
vt -1.000 45.500
v 1051.365 612.943 -3.886
vt 0.000 45.667
v 1054.234 610.157 -3.886
vt -1.000 45.667
v 1054.848 616.530 -3.967
vt 0.000 45.833
v 1057.718 613.743 -3.967
vt -1.000 45.833
v 1058.332 620.117 -4.045
vt 0.000 46.000
v 1061.201 617.330 -4.045
vt -1.000 46.000
v 1061.815 623.704 -4.121
vt 0.000 46.167
v 1064.685 620.917 -4.121
vt -1.000 46.167
v 1065.299 627.290 -4.193
vt 0.000 46.333
v 1068.168 624.504 -4.193
vt -1.000 46.333
v 1068.782 630.877 -4.263
vt 0.000 46.500
v 1071.652 628.090 -4.263
vt -1.000 46.500
v 1072.266 634.464 -4.330
vt 0.000 46.667
v 1075.135 631.677 -4.330
vt -1.000 46.667
v 1075.749 638.051 -4.394
vt 0.000 46.833
v 1078.619 635.264 -4.394
vt -1.000 46.833
v 1079.233 641.638 -4.455
vt 0.000 47.000
v 1082.102 638.851 -4.455
vt -1.000 47.000
v 1082.716 645.224 -4.513
vt 0.000 47.167
v 1085.586 642.438 -4.513
vt -1.000 47.167
v 1086.200 648.811 -4.568
vt 0.000 47.333
v 1089.069 646.024 -4.568
vt -1.000 47.333
v 1089.684 652.398 -4.619
vt 0.000 47.500
v 1092.553 649.611 -4.619
vt -1.000 47.500
v 1093.167 655.985 -4.668
vt 0.000 47.667
v 1096.036 653.198 -4.668
vt -1.000 47.667
v 1096.651 659.571 -4.713
vt 0.000 47.833
v 1099.520 656.785 -4.713
vt -1.000 47.833
v 1100.134 663.158 -4.755
vt 0.000 48.000
v 1103.004 660.371 -4.755
vt -1.000 48.000
v 1103.618 666.745 -4.794
vt 0.000 48.167
v 1106.487 663.958 -4.794
vt -1.000 48.167
v 1107.101 670.332 -4.830
vt 0.000 48.333
v 1109.971 667.545 -4.830
vt -1.000 48.333
v 1110.585 673.919 -4.862
vt 0.000 48.500
v 1113.454 671.132 -4.862
vt -1.000 48.500
v 1114.068 677.505 -4.891
vt 0.000 48.667
v 1116.938 674.719 -4.891
vt -1.000 48.667
v 1117.552 681.092 -4.916
vt 0.000 48.833
v 1120.421 678.305 -4.916
vt -1.000 48.833
v 1121.035 684.679 -4.938
vt 0.000 49.000
v 1123.905 681.892 -4.938
vt -1.000 49.000
v 1124.519 688.266 -4.957
vt 0.000 49.167
v 1127.388 685.479 -4.957
vt -1.000 49.167
v 1128.002 691.853 -4.973
vt 0.000 49.333
v 1130.872 689.066 -4.973
vt -1.000 49.333
v 1131.486 695.439 -4.985
vt 0.000 49.500
v 1134.355 692.652 -4.985
vt -1.000 49.500
v 1134.969 699.026 -4.993
vt 0.000 49.667
v 1137.839 696.239 -4.993
vt -1.000 49.667
v 1138.453 702.613 -4.998
vt 0.000 49.833
v 1141.322 699.826 -4.998
vt -1.000 49.833
v 1141.937 706.200 -5.000
vt 0.000 50.000
v 1144.806 703.413 -5.000
vt -1.000 50.000
v 1559.961 1136.613 -5.000
vt 0.000 70.000
v 1562.830 1133.826 -5.000
vt -1.000 70.000
mtllib Roads\3D_Road\Road_63b804b3-ef93-4518-9d84-9c807f03fd6c_6.mtl
usemtl Road Transition (Dark)
g g1
s 1
f  1/1 2/2 4/4 3/3
f  3/3 4/4 6/6 5/5
f  5/5 6/6 8/8 7/7
f  7/7 8/8 10/10 9/9
f  9/9 10/10 12/12 11/11
f  11/11 12/12 14/14 13/13
f  13/13 14/14 16/16 15/15
f  15/15 16/16 18/18 17/17
f  17/17 18/18 20/20 19/19
f  19/19 20/20 22/22 21/21
f  21/21 22/22 24/24 23/23
f  23/23 24/24 26/26 25/25
f  25/25 26/26 28/28 27/27
f  27/27 28/28 30/30 29/29
f  29/29 30/30 32/32 31/31
f  31/31 32/32 34/34 33/33
f  33/33 34/34 36/36 35/35
f  35/35 36/36 38/38 37/37
f  37/37 38/38 40/40 39/39
f  39/39 40/40 42/42 41/41
f  41/41 42/42 44/44 43/43
f  43/43 44/44 46/46 45/45
f  45/45 46/46 48/48 47/47
f  47/47 48/48 50/50 49/49
f  49/49 50/50 52/52 51/51
f  51/51 52/52 54/54 53/53
f  53/53 54/54 56/56 55/55
f  55/55 56/56 58/58 57/57
f  57/57 58/58 60/60 59/59
f  59/59 60/60 62/62 61/61
f  61/61 62/62 64/64 63/63
f  63/63 64/64 66/66 65/65
f  65/65 66/66 68/68 67/67
f  67/67 68/68 70/70 69/69
f  69/69 70/70 72/72 71/71
f  71/71 72/72 74/74 73/73
f  73/73 74/74 76/76 75/75
f  75/75 76/76 78/78 77/77
f  77/77 78/78 80/80 79/79
f  79/79 80/80 82/82 81/81
f  81/81 82/82 84/84 83/83
f  83/83 84/84 86/86 85/85
f  85/85 86/86 88/88 87/87
f  87/87 88/88 90/90 89/89
f  89/89 90/90 92/92 91/91
f  91/91 92/92 94/94 93/93
f  93/93 94/94 96/96 95/95
f  95/95 96/96 98/98 97/97
f  97/97 98/98 100/100 99/99
f  99/99 100/100 102/102 101/101
f  101/101 102/102 104/104 103/103
f  103/103 104/104 106/106 105/105
f  105/105 106/106 108/108 107/107
f  107/107 108/108 110/110 109/109
f  109/109 110/110 112/112 111/111
f  111/111 112/112 114/114 113/113
f  113/113 114/114 116/116 115/115
f  115/115 116/116 118/118 117/117
f  117/117 118/118 120/120 119/119
f  119/119 120/120 122/122 121/121
f  121/121 122/122 124/124 123/123
f  123/123 124/124 126/126 125/125
f  125/125 126/126 128/128 127/127
f  127/127 128/128 130/130 129/129
f  129/129 130/130 132/132 131/131
f  131/131 132/132 134/134 133/133
f  133/133 134/134 136/136 135/135
f  135/135 136/136 138/138 137/137
f  137/137 138/138 140/140 139/139
f  139/139 140/140 142/142 141/141
f  141/141 142/142 144/144 143/143
f  143/143 144/144 146/146 145/145
f  145/145 146/146 148/148 147/147
f  147/147 148/148 150/150 149/149
f  149/149 150/150 152/152 151/151
f  151/151 152/152 154/154 153/153
f  153/153 154/154 156/156 155/155
f  155/155 156/156 158/158 157/157
f  157/157 158/158 160/160 159/159
f  159/159 160/160 162/162 161/161
f  161/161 162/162 164/164 163/163
f  163/163 164/164 166/166 165/165
f  165/165 166/166 168/168 167/167
f  167/167 168/168 170/170 169/169
f  169/169 170/170 172/172 171/171
f  171/171 172/172 174/174 173/173
f  173/173 174/174 176/176 175/175
f  175/175 176/176 178/178 177/177
f  177/177 178/178 180/180 179/179
f  179/179 180/180 182/182 181/181
f  181/181 182/182 184/184 183/183
f  183/183 184/184 186/186 185/185
f  185/185 186/186 188/188 187/187
f  187/187 188/188 190/190 189/189
f  189/189 190/190 192/192 191/191
f  191/191 192/192 194/194 193/193
f  193/193 194/194 196/196 195/195
f  195/195 196/196 198/198 197/197
f  197/197 198/198 200/200 199/199
f  199/199 200/200 202/202 201/201
f  201/201 202/202 204/204 203/203
f  203/203 204/204 206/206 205/205
f  205/205 206/206 208/208 207/207
f  207/207 208/208 210/210 209/209
f  209/209 210/210 212/212 211/211
f  211/211 212/212 214/214 213/213
f  213/213 214/214 216/216 215/215
f  215/215 216/216 218/218 217/217
f  217/217 218/218 220/220 219/219
f  219/219 220/220 222/222 221/221
f  221/221 222/222 224/224 223/223
f  223/223 224/224 226/226 225/225
f  225/225 226/226 228/228 227/227
f  227/227 228/228 230/230 229/229
f  229/229 230/230 232/232 231/231
f  231/231 232/232 234/234 233/233
f  233/233 234/234 236/236 235/235
f  235/235 236/236 238/238 237/237
f  237/237 238/238 240/240 239/239
f  239/239 240/240 242/242 241/241
f  241/241 242/242 244/244 243/243
f  243/243 244/244 246/246 245/245
f  245/245 246/246 248/248 247/247
f  247/247 248/248 250/250 249/249
f  249/249 250/250 252/252 251/251
f  251/251 252/252 254/254 253/253
f  253/253 254/254 256/256 255/255
f  255/255 256/256 258/258 257/257
f  257/257 258/258 260/260 259/259
f  259/259 260/260 262/262 261/261
f  261/261 262/262 264/264 263/263
f  263/263 264/264 266/266 265/265
f  265/265 266/266 268/268 267/267
f  267/267 268/268 270/270 269/269
f  269/269 270/270 272/272 271/271
f  271/271 272/272 274/274 273/273
f  273/273 274/274 276/276 275/275
f  275/275 276/276 278/278 277/277
f  277/277 278/278 280/280 279/279
f  279/279 280/280 282/282 281/281
f  281/281 282/282 284/284 283/283
f  283/283 284/284 286/286 285/285
f  285/285 286/286 288/288 287/287
f  287/287 288/288 290/290 289/289
f  289/289 290/290 292/292 291/291
f  291/291 292/292 294/294 293/293
f  293/293 294/294 296/296 295/295
f  295/295 296/296 298/298 297/297
f  297/297 298/298 300/300 299/299
f  299/299 300/300 302/302 301/301
f  301/301 302/302 304/304 303/303
f  303/303 304/304 306/306 305/305
f  305/305 306/306 308/308 307/307
f  307/307 308/308 310/310 309/309
f  309/309 310/310 312/312 311/311
f  311/311 312/312 314/314 313/313
f  313/313 314/314 316/316 315/315
f  315/315 316/316 318/318 317/317
f  317/317 318/318 320/320 319/319
f  319/319 320/320 322/322 321/321
f  321/321 322/322 324/324 323/323
f  323/323 324/324 326/326 325/325
f  325/325 326/326 328/328 327/327
f  327/327 328/328 330/330 329/329
f  329/329 330/330 332/332 331/331
f  331/331 332/332 334/334 333/333
f  333/333 334/334 336/336 335/335
f  335/335 336/336 338/338 337/337
f  337/337 338/338 340/340 339/339
f  339/339 340/340 342/342 341/341
f  341/341 342/342 344/344 343/343
f  343/343 344/344 346/346 345/345
f  345/345 346/346 348/348 347/347
f  347/347 348/348 350/350 349/349
f  349/349 350/350 352/352 351/351
f  351/351 352/352 354/354 353/353
f  353/353 354/354 356/356 355/355
f  355/355 356/356 358/358 357/357
f  357/357 358/358 360/360 359/359
f  359/359 360/360 362/362 361/361
f  361/361 362/362 364/364 363/363
f  363/363 364/364 366/366 365/365
f  365/365 366/366 368/368 367/367
f  367/367 368/368 370/370 369/369
f  369/369 370/370 372/372 371/371
f  371/371 372/372 374/374 373/373
f  373/373 374/374 376/376 375/375
f  375/375 376/376 378/378 377/377
f  377/377 378/378 380/380 379/379
f  379/379 380/380 382/382 381/381
f  381/381 382/382 384/384 383/383
f  383/383 384/384 386/386 385/385
f  385/385 386/386 388/388 387/387
f  387/387 388/388 390/390 389/389
f  389/389 390/390 392/392 391/391
f  391/391 392/392 394/394 393/393
f  393/393 394/394 396/396 395/395
f  395/395 396/396 398/398 397/397
f  397/397 398/398 400/400 399/399
f  399/399 400/400 402/402 401/401
f  401/401 402/402 404/404 403/403
f  403/403 404/404 406/406 405/405
f  405/405 406/406 408/408 407/407
f  407/407 408/408 410/410 409/409
f  409/409 410/410 412/412 411/411
f  411/411 412/412 414/414 413/413
f  413/413 414/414 416/416 415/415
f  415/415 416/416 418/418 417/417
f  417/417 418/418 420/420 419/419
f  419/419 420/420 422/422 421/421
f  421/421 422/422 424/424 423/423
f  423/423 424/424 426/426 425/425
f  425/425 426/426 428/428 427/427
f  427/427 428/428 430/430 429/429
f  429/429 430/430 432/432 431/431
f  431/431 432/432 434/434 433/433
f  433/433 434/434 436/436 435/435
f  435/435 436/436 438/438 437/437
f  437/437 438/438 440/440 439/439
f  439/439 440/440 442/442 441/441
f  441/441 442/442 444/444 443/443
f  443/443 444/444 446/446 445/445
f  445/445 446/446 448/448 447/447
f  447/447 448/448 450/450 449/449
f  449/449 450/450 452/452 451/451
f  451/451 452/452 454/454 453/453
f  453/453 454/454 456/456 455/455
f  455/455 456/456 458/458 457/457
f  457/457 458/458 460/460 459/459
f  459/459 460/460 462/462 461/461
f  461/461 462/462 464/464 463/463
f  463/463 464/464 466/466 465/465
f  465/465 466/466 468/468 467/467
f  467/467 468/468 470/470 469/469
f  469/469 470/470 472/472 471/471
f  471/471 472/472 474/474 473/473
f  473/473 474/474 476/476 475/475
f  475/475 476/476 478/478 477/477
f  477/477 478/478 480/480 479/479
f  479/479 480/480 482/482 481/481
f  481/481 482/482 484/484 483/483
f  483/483 484/484 486/486 485/485
f  485/485 486/486 488/488 487/487
f  487/487 488/488 490/490 489/489
f  489/489 490/490 492/492 491/491
f  491/491 492/492 494/494 493/493
f  493/493 494/494 496/496 495/495
f  495/495 496/496 498/498 497/497
f  497/497 498/498 500/500 499/499
f  499/499 500/500 502/502 501/501
f  501/501 502/502 504/504 503/503
f  503/503 504/504 506/506 505/505
f  505/505 506/506 508/508 507/507
f  507/507 508/508 510/510 509/509
f  509/509 510/510 512/512 511/511
f  511/511 512/512 514/514 513/513
f  513/513 514/514 516/516 515/515
f  515/515 516/516 518/518 517/517
g g2
s 2
g g3
s 3
g g4
s 4
