# Shape file for lane 4
v 9.632 -50.510 0.200
vt 0.000 0.000
v 11.454 -49.687 0.200
vt 1.000 0.000
v 8.809 -48.687 0.200
vt 0.000 0.040
v 10.632 -47.864 0.200
vt 1.000 0.040
v 7.986 -46.864 0.200
vt 0.000 0.080
v 9.809 -46.041 0.200
vt 1.000 0.080
v 7.163 -45.041 0.200
vt 0.000 0.120
v 8.986 -44.218 0.200
vt 1.000 0.120
v 6.341 -43.218 0.200
vt 0.000 0.160
v 8.163 -42.395 0.200
vt 1.000 0.160
v 5.518 -41.395 0.200
vt 0.000 0.200
v 7.341 -40.572 0.200
vt 1.000 0.200
v 4.695 -39.572 0.200
vt 0.000 0.240
v 6.518 -38.749 0.200
vt 1.000 0.240
v 3.872 -37.749 0.200
vt 0.000 0.280
v 5.695 -36.926 0.200
vt 1.000 0.280
v 3.049 -35.926 0.200
vt 0.000 0.320
v 4.872 -35.104 0.200
vt 1.000 0.320
v 2.227 -34.103 0.200
vt 0.000 0.360
v 4.050 -33.281 0.200
vt 1.000 0.360
v 1.404 -32.280 0.200
vt 0.000 0.400
v 3.227 -31.458 0.200
vt 1.000 0.400
v 0.581 -30.458 0.200
vt 0.000 0.440
v 2.404 -29.635 0.200
vt 1.000 0.440
v -0.242 -28.635 0.200
vt 0.000 0.480
v 1.581 -27.812 0.200
vt 1.000 0.480
v -1.064 -26.812 0.200
vt 0.000 0.520
v 0.759 -25.989 0.200
vt 1.000 0.520
v -1.887 -24.989 0.200
vt 0.000 0.560
v -0.064 -24.166 0.200
vt 1.000 0.560
v -2.710 -23.166 0.200
vt 0.000 0.600
v -0.887 -22.343 0.200
vt 1.000 0.600
v -3.533 -21.343 0.200
vt 0.000 0.640
v -1.710 -20.520 0.200
vt 1.000 0.640
v -4.355 -19.520 0.200
vt 0.000 0.680
v -2.533 -18.697 0.200
vt 1.000 0.680
v -5.178 -17.697 0.200
vt 0.000 0.720
v -3.355 -16.874 0.200
vt 1.000 0.720
v -6.001 -15.874 0.200
vt 0.000 0.760
v -4.178 -15.051 0.200
vt 1.000 0.760
v -6.824 -14.051 0.200
vt 0.000 0.800
v -5.001 -13.228 0.200
vt 1.000 0.800
v -7.646 -12.228 0.200
vt 0.000 0.840
v -5.824 -11.406 0.200
vt 1.000 0.840
v -8.469 -10.405 0.200
vt 0.000 0.880
v -6.646 -9.583 0.200
vt 1.000 0.880
v -9.292 -8.582 0.200
vt 0.000 0.920
v -7.469 -7.760 0.200
vt 1.000 0.920
v -10.115 -6.760 0.200
vt 0.000 0.960
v -8.292 -5.937 0.200
vt 1.000 0.960
v -10.938 -4.937 0.200
vt 0.000 1.000
v -9.115 -4.114 0.200
vt 1.000 1.000
v -11.942 -2.682 0.200
vt 0.000 1.040
v -10.088 -1.931 0.200
vt 1.000 1.040
v -12.498 -2.267 0.200
vt 0.000 1.080
v -10.739 -1.314 0.200
vt 1.000 1.080
v -12.139 -2.081 0.200
vt 0.000 1.120
v -10.563 -0.849 0.200
vt 1.000 1.120
v -13.449 -0.382 0.200
vt 0.000 1.160
v -11.854 0.823 0.200
vt 1.000 1.160
v -15.921 3.559 0.200
vt 0.000 1.200
v -14.098 4.381 0.200
vt 1.000 1.200
v -15.677 2.912 0.200
vt 0.000 1.240
v -14.078 4.115 0.200
vt 1.000 1.240
v -16.452 4.135 0.200
vt 0.000 1.280
v -14.908 5.407 0.200
vt 1.000 1.280
v -17.266 5.440 0.200
vt 0.000 1.320
v -15.770 6.768 0.200
vt 1.000 1.320
v -19.459 9.066 0.200
vt 0.000 1.360
v -17.740 10.090 0.200
vt 1.000 1.360
v -21.073 11.625 0.200
vt 0.000 1.400
v -19.272 12.494 0.200
vt 1.000 1.400
v -22.587 14.106 0.200
vt 0.000 1.440
v -20.723 14.831 0.200
vt 1.000 1.440
v -21.147 11.869 0.200
vt 0.000 1.480
v -19.697 13.246 0.200
vt 1.000 1.480
v -23.928 16.310 0.200
vt 0.000 1.520
v -22.160 17.245 0.200
vt 1.000 1.520
v -25.651 19.198 0.200
vt 0.000 1.560
v -23.786 19.922 0.200
vt 1.000 1.560
v -24.230 16.967 0.200
vt 0.000 1.600
v -22.776 18.342 0.200
vt 1.000 1.600
v -27.274 22.202 0.200
vt 0.000 1.640
v -25.444 23.008 0.200
vt 1.000 1.640
v -28.598 24.200 0.200
vt 0.000 1.680
v -26.740 24.942 0.200
vt 1.000 1.680
v -26.761 21.748 0.200
vt 0.000 1.720
v -25.371 23.185 0.200
vt 1.000 1.720
v -30.418 27.467 0.200
vt 0.000 1.760
v -28.574 28.243 0.200
vt 1.000 1.760
v -31.649 29.259 0.200
vt 0.000 1.800
v -29.793 30.004 0.200
vt 1.000 1.800
v -32.731 32.093 0.200
vt 0.000 1.840
v -30.818 32.676 0.200
vt 1.000 1.840
v -33.349 32.356 0.200
vt 0.000 1.880
v -31.520 33.166 0.200
vt 1.000 1.880
v -34.295 34.581 0.200
vt 0.000 1.920
v -32.439 35.327 0.200
vt 1.000 1.920
v -35.322 35.874 0.200
vt 0.000 1.960
v -33.488 36.672 0.200
vt 1.000 1.960
v -33.776 34.192 0.200
vt 0.000 2.000
v -32.331 35.575 0.200
vt 1.000 2.000
v -37.094 39.225 0.200
vt 0.000 2.040
v -35.271 40.048 0.200
vt 1.000 2.040
v -35.569 37.449 0.200
vt 0.000 2.080
v -34.153 38.861 0.200
vt 1.000 2.080
v -38.968 42.524 0.200
vt 0.000 2.120
v -37.157 43.372 0.200
vt 1.000 2.120
v -37.824 41.428 0.200
vt 0.000 2.160
v -36.335 42.763 0.200
vt 1.000 2.160
v -41.116 46.695 0.200
vt 0.000 2.200
v -39.255 47.430 0.200
vt 1.000 2.200
v -41.511 46.772 0.200
vt 0.000 2.240
v -39.775 47.764 0.200
vt 1.000 2.240
v -43.349 51.036 0.200
vt 0.000 2.280
v -41.438 51.623 0.200
vt 1.000 2.280
v -42.765 49.335 0.200
vt 0.000 2.320
v -41.127 50.481 0.200
vt 1.000 2.320
v -44.861 53.486 0.200
vt 0.000 2.360
v -43.011 54.245 0.200
vt 1.000 2.360
v -45.001 53.209 0.200
vt 0.000 2.400
v -43.315 54.284 0.200
vt 1.000 2.400
v -46.771 57.086 0.200
vt 0.000 2.440
v -44.912 57.825 0.200
vt 1.000 2.440
v -46.234 55.844 0.200
vt 0.000 2.480
v -44.649 57.063 0.200
vt 1.000 2.480
v -47.278 57.917 0.200
vt 0.000 2.520
v -45.660 59.093 0.200
vt 1.000 2.520
v -49.839 62.188 0.200
vt 0.000 2.560
v -47.979 62.924 0.200
vt 1.000 2.560
v -49.686 62.268 0.200
vt 0.000 2.600
v -47.974 63.301 0.200
vt 1.000 2.600
v -51.686 65.632 0.200
vt 0.000 2.640
v -49.829 66.374 0.200
vt 1.000 2.640
v -51.409 65.356 0.200
vt 0.000 2.680
v -49.734 66.449 0.200
vt 1.000 2.680
v -53.923 70.123 0.200
vt 0.000 2.720
v -52.007 70.696 0.200
vt 1.000 2.720
v -54.161 70.461 0.200
vt 0.000 2.760
v -52.338 71.284 0.200
vt 1.000 2.760
v -53.234 69.052 0.200
vt 0.000 2.800
v -51.744 70.386 0.200
vt 1.000 2.800
v -56.410 74.860 0.200
vt 0.000 2.840
v -54.525 75.529 0.200
vt 1.000 2.840
v -54.677 72.156 0.200
vt 0.000 2.880
v -53.251 73.558 0.200
vt 1.000 2.880
v -57.963 77.399 0.200
vt 0.000 2.920
v -56.140 78.221 0.200
vt 1.000 2.920
v -56.866 75.824 0.200
vt 0.000 2.960
v -55.402 77.187 0.200
vt 1.000 2.960
v -59.818 80.938 0.200
vt 0.000 3.000
v -57.992 81.754 0.200
vt 1.000 3.000
v -61.178 83.025 0.200
vt 0.000 3.040
v -59.318 83.761 0.200
vt 1.000 3.040
v -61.775 84.347 0.200
vt 0.000 3.080
v -59.951 85.167 0.200
vt 1.000 3.080
v -59.931 82.294 0.200
vt 0.000 3.120
v -58.561 83.751 0.200
vt 1.000 3.120
v -63.625 87.822 0.200
vt 0.000 3.160
v -61.802 88.645 0.200
vt 1.000 3.160
v -61.957 85.774 0.200
vt 0.000 3.200
v -60.578 87.222 0.200
vt 1.000 3.200
v -65.458 91.262 0.200
vt 0.000 3.240
v -63.639 92.092 0.200
vt 1.000 3.240
v -63.856 89.375 0.200
vt 0.000 3.280
v -62.462 90.810 0.200
vt 1.000 3.280
v -67.369 94.624 0.200
vt 0.000 3.320
v -65.557 95.469 0.200
vt 1.000 3.320
v -68.382 97.176 0.200
vt 0.000 3.360
v -66.520 97.906 0.200
vt 1.000 3.360
v -69.274 98.161 0.200
vt 0.000 3.400
v -67.457 98.996 0.200
vt 1.000 3.400
v -70.659 101.700 0.200
vt 0.000 3.440
v -68.737 102.254 0.200
vt 1.000 3.440
v -70.796 100.976 0.200
vt 0.000 3.480
v -69.034 101.923 0.200
vt 1.000 3.480
v -72.221 104.182 0.200
vt 0.000 3.520
v -70.354 104.901 0.200
vt 1.000 3.520
v -72.917 104.769 0.200
vt 0.000 3.560
v -71.126 105.659 0.200
vt 1.000 3.560
v -74.460 108.600 0.200
vt 0.000 3.600
v -72.540 109.160 0.200
vt 1.000 3.600
v -74.345 107.480 0.200
vt 0.000 3.640
v -72.624 108.499 0.200
vt 1.000 3.640
v -76.008 111.072 0.200
vt 0.000 3.680
v -74.145 111.799 0.200
vt 1.000 3.680
v -76.454 111.211 0.200
vt 0.000 3.720
v -74.706 112.183 0.200
vt 1.000 3.720
v -76.477 111.938 0.200
vt 0.000 3.760
v -74.848 113.099 0.200
vt 1.000 3.760
v -78.750 115.605 0.200
vt 0.000 3.800
v -76.927 116.428 0.200
vt 1.000 3.800
v -77.898 114.682 0.200
vt 0.000 3.840
v -76.359 115.960 0.200
vt 1.000 3.840
v -80.948 119.682 0.200
vt 0.000 3.880
v -79.082 120.401 0.200
vt 1.000 3.880
v -80.334 118.973 0.200
vt 0.000 3.920
v -78.695 120.119 0.200
vt 1.000 3.920
v -82.639 122.740 0.200
vt 0.000 3.960
v -80.802 123.530 0.200
vt 1.000 3.960
v -82.052 121.593 0.200
vt 0.000 4.000
v -80.495 122.848 0.200
vt 1.000 4.000
v -84.711 126.511 0.200
vt 0.000 4.040
v -82.852 127.248 0.200
vt 1.000 4.040
v -83.246 124.377 0.200
vt 0.000 4.080
v -81.794 125.753 0.200
vt 1.000 4.080
v -86.353 129.481 0.200
vt 0.000 4.120
v -84.530 130.304 0.200
vt 1.000 4.120
v -85.553 128.201 0.200
vt 0.000 4.160
v -84.043 129.513 0.200
vt 1.000 4.160
v -87.813 131.994 0.200
vt 0.000 4.200
v -86.069 132.974 0.200
vt 1.000 4.200
v -89.536 135.051 0.200
vt 0.000 4.240
v -87.682 135.802 0.200
vt 1.000 4.240
v -89.800 135.742 0.200
vt 0.000 4.280
v -88.036 136.684 0.200
vt 1.000 4.280
v -91.541 138.664 0.200
vt 0.000 4.320
v -89.677 139.389 0.200
vt 1.000 4.320
v -92.295 140.590 0.200
vt 0.000 4.360
v -90.427 141.304 0.200
vt 1.000 4.360
v -93.411 142.154 0.200
vt 0.000 4.400
v -91.546 142.877 0.200
vt 1.000 4.400
v -91.635 139.645 0.200
vt 0.000 4.440
v -90.232 141.071 0.200
vt 1.000 4.440
v -95.088 145.014 0.200
vt 0.000 4.480
v -93.265 145.837 0.200
vt 1.000 4.480
v -94.560 144.301 0.200
vt 0.000 4.520
v -92.985 145.534 0.200
vt 1.000 4.520
v -96.961 148.529 0.200
vt 0.000 4.560
v -95.138 149.351 0.200
vt 1.000 4.560
v -95.394 146.577 0.200
vt 0.000 4.600
v -93.998 148.010 0.200
vt 1.000 4.600
v -98.933 152.089 0.200
vt 0.000 4.640
v -97.103 152.895 0.200
vt 1.000 4.640
v -100.005 153.749 0.200
vt 0.000 4.680
v -98.176 154.558 0.200
vt 1.000 4.680
v -100.945 155.943 0.200
vt 0.000 4.720
v -99.091 156.693 0.200
vt 1.000 4.720
v -102.054 157.437 0.200
vt 0.000 4.760
v -100.208 158.206 0.200
vt 1.000 4.760
v -102.787 159.144 0.200
vt 0.000 4.800
v -100.950 159.935 0.200
vt 1.000 4.800
v -103.773 160.611 0.200
vt 0.000 4.840
v -101.952 161.437 0.200
vt 1.000 4.840
v -102.186 158.785 0.200
vt 0.000 4.880
v -100.782 160.209 0.200
vt 1.000 4.880
v -105.709 164.091 0.200
vt 0.000 4.920
v -103.886 164.914 0.200
vt 1.000 4.920
v -103.951 162.027 0.200
vt 0.000 4.960
v -102.580 163.483 0.200
vt 1.000 4.960
v -107.838 168.257 0.200
vt 0.000 5.000
v -105.968 168.967 0.200
vt 1.000 5.000
v -108.331 168.442 0.200
vt 0.000 5.040
v -106.570 169.390 0.200
vt 1.000 5.040
v -109.761 171.657 0.200
vt 0.000 5.080
v -107.895 172.376 0.200
vt 1.000 5.080
v -110.385 172.097 0.200
vt 0.000 5.120
v -108.606 173.012 0.200
vt 1.000 5.120
v -111.640 175.185 0.200
vt 0.000 5.160
v -109.771 175.896 0.200
vt 1.000 5.160
v -111.878 174.943 0.200
vt 0.000 5.200
v -110.159 175.965 0.200
vt 1.000 5.200
v -111.390 174.903 0.200
vt 0.000 5.240
v -109.895 176.231 0.200
vt 1.000 5.240
v -114.431 179.596 0.200
vt 0.000 5.280
v -112.608 180.419 0.200
vt 1.000 5.280
v -114.070 179.285 0.200
vt 0.000 5.320
v -112.451 180.460 0.200
vt 1.000 5.320
v -116.380 183.284 0.200
vt 0.000 5.360
v -114.545 184.077 0.200
vt 1.000 5.360
v -116.281 182.754 0.200
vt 0.000 5.400
v -114.648 183.908 0.200
vt 1.000 5.400
v -118.400 186.926 0.200
vt 0.000 5.440
v -116.551 187.688 0.200
vt 1.000 5.440
v -118.866 187.204 0.200
vt 0.000 5.480
v -117.126 188.191 0.200
vt 1.000 5.480
v -120.095 190.024 0.200
vt 0.000 5.520
v -118.274 190.851 0.200
vt 1.000 5.520
v -119.740 189.256 0.200
vt 0.000 5.560
v -118.162 190.484 0.200
vt 1.000 5.560
v -120.842 191.405 0.200
vt 0.000 5.600
v -119.221 192.576 0.200
vt 1.000 5.600
v -123.622 196.522 0.200
vt 0.000 5.640
v -121.713 197.117 0.200
vt 1.000 5.640
v -123.309 195.857 0.200
vt 0.000 5.680
v -121.584 196.868 0.200
vt 1.000 5.680
v -125.241 199.110 0.200
vt 0.000 5.720
v -123.382 199.850 0.200
vt 1.000 5.720
v -124.996 198.881 0.200
vt 0.000 5.760
v -123.315 199.964 0.200
vt 1.000 5.760
v -127.476 203.599 0.200
vt 0.000 5.800
v -125.559 204.170 0.200
vt 1.000 5.800
v -125.511 200.285 0.200
vt 0.000 5.840
v -124.089 201.692 0.200
vt 1.000 5.840
v -128.827 205.552 0.200
vt 0.000 5.880
v -127.004 206.375 0.200
vt 1.000 5.880
v -127.621 203.880 0.200
vt 0.000 5.920
v -126.174 205.261 0.200
vt 1.000 5.920
v -131.082 210.028 0.200
vt 0.000 5.960
v -129.194 210.686 0.200
vt 1.000 5.960
v -132.034 211.156 0.200
vt 0.000 6.000
v -130.176 211.896 0.200
vt 1.000 6.000
v -132.611 212.508 0.200
vt 0.000 6.040
v -130.788 213.329 0.200
vt 1.000 6.040
v -133.986 214.629 0.200
vt 0.000 6.080
v -132.127 215.365 0.200
vt 1.000 6.080
v -134.597 216.286 0.200
vt 0.000 6.120
v -132.752 217.059 0.200
vt 1.000 6.120
v -135.773 217.932 0.200
vt 0.000 6.160
v -133.926 218.699 0.200
vt 1.000 6.160
v -133.970 215.641 0.200
vt 0.000 6.200
v -132.580 217.080 0.200
vt 1.000 6.200
v -137.502 220.944 0.200
vt 0.000 6.240
v -135.688 221.785 0.200
vt 1.000 6.240
v -135.887 219.262 0.200
vt 0.000 6.280
v -134.480 220.684 0.200
vt 1.000 6.280
v -139.656 225.169 0.200
vt 0.000 6.320
v -137.790 225.888 0.200
vt 1.000 6.320
v -140.459 225.968 0.200
vt 0.000 6.360
v -138.651 226.823 0.200
vt 1.000 6.360
v -141.576 228.574 0.200
vt 0.000 6.400
v -139.713 229.302 0.200
vt 1.000 6.400
v -142.797 230.415 0.200
vt 0.000 6.440
v -140.920 231.106 0.200
vt 1.000 6.440
v -143.460 232.100 0.200
vt 0.000 6.480
v -141.594 232.821 0.200
vt 1.000 6.480
v -144.084 232.553 0.200
vt 0.000 6.520
v -142.305 233.467 0.200
vt 1.000 6.520
v -142.790 231.347 0.200
vt 0.000 6.560
v -141.374 232.759 0.200
vt 1.000 6.560
v -146.340 236.948 0.200
vt 0.000 6.600
v -144.491 237.712 0.200
vt 1.000 6.600
v -145.178 235.466 0.200
vt 0.000 6.640
v -143.667 236.777 0.200
vt 1.000 6.640
v -148.300 240.447 0.200
vt 0.000 6.680
v -146.449 241.204 0.200
vt 1.000 6.680
v -148.455 240.187 0.200
vt 0.000 6.720
v -146.765 241.257 0.200
vt 1.000 6.720
v -150.200 244.023 0.200
vt 0.000 6.760
v -148.342 244.764 0.200
vt 1.000 6.760
v -149.691 242.820 0.200
vt 0.000 6.800
v -148.102 244.035 0.200
vt 1.000 6.800
v -152.017 247.178 0.200
vt 0.000 6.840
v -150.180 247.969 0.200
vt 1.000 6.840
v -151.939 246.670 0.200
vt 0.000 6.880
v -150.301 247.817 0.200
vt 1.000 6.880
v -154.058 251.095 0.200
vt 0.000 6.920
v -152.191 251.813 0.200
vt 1.000 6.920
v -153.172 249.384 0.200
vt 0.000 6.960
v -151.634 250.663 0.200
vt 1.000 6.960
v -154.820 252.267 0.200
vt 0.000 7.000
v -153.149 253.366 0.200
vt 1.000 7.000
v -157.114 256.165 0.200
vt 0.000 7.040
v -155.248 256.886 0.200
vt 1.000 7.040
v -157.129 256.524 0.200
vt 0.000 7.080
v -155.381 257.496 0.200
vt 1.000 7.080
v -158.963 259.614 0.200
vt 0.000 7.120
v -157.099 260.340 0.200
vt 1.000 7.120
v -158.916 259.695 0.200
vt 0.000 7.160
v -157.194 260.713 0.200
vt 1.000 7.160
v -160.940 263.156 0.200
vt 0.000 7.200
v -159.071 263.867 0.200
vt 1.000 7.200
v -158.932 260.482 0.200
vt 0.000 7.240
v -157.550 261.929 0.200
vt 1.000 7.240
v -162.515 265.977 0.200
vt 0.000 7.280
v -160.692 266.800 0.200
vt 1.000 7.280
v -161.154 264.173 0.200
vt 0.000 7.320
v -159.730 265.577 0.200
vt 1.000 7.320
v -164.499 269.512 0.200
vt 0.000 7.360
v -162.670 270.320 0.200
vt 1.000 7.360
v -162.646 267.374 0.200
vt 0.000 7.400
v -161.275 268.831 0.200
vt 1.000 7.400
v -166.389 273.137 0.200
vt 0.000 7.440
v -164.551 273.925 0.200
vt 1.000 7.440
v -167.667 275.043 0.200
vt 0.000 7.480
v -165.808 275.781 0.200
vt 1.000 7.480
v -168.237 276.361 0.200
vt 0.000 7.520
v -166.415 277.186 0.200
vt 1.000 7.520
v -169.402 278.232 0.200
vt 0.000 7.560
v -167.566 279.025 0.200
vt 1.000 7.560
v -170.255 280.222 0.200
vt 0.000 7.600
v -168.408 280.990 0.200
vt 1.000 7.600
v -171.452 281.931 0.200
vt 0.000 7.640
v -169.598 282.682 0.200
vt 1.000 7.640
v -170.671 280.800 0.200
vt 0.000 7.680
v -169.098 282.035 0.200
vt 1.000 7.680
v -173.122 285.024 0.200
vt 0.000 7.720
v -171.299 285.846 0.200
vt 1.000 7.720
v -171.502 283.110 0.200
vt 0.000 7.760
v -170.106 284.543 0.200
vt 1.000 7.760
v -175.005 288.337 0.200
vt 0.000 7.800
v -173.192 289.183 0.200
vt 1.000 7.800
v -173.562 286.875 0.200
vt 0.000 7.840
v -172.125 288.267 0.200
vt 1.000 7.840
v -176.924 291.961 0.200
vt 0.000 7.880
v -175.101 292.784 0.200
vt 1.000 7.880
v -175.377 290.156 0.200
vt 0.000 7.920
v -173.966 291.573 0.200
vt 1.000 7.920
v -179.040 295.845 0.200
vt 0.000 7.960
v -177.187 296.597 0.200
vt 1.000 7.960
v -179.540 296.325 0.200
vt 0.000 8.000
v -177.781 297.277 0.200
vt 1.000 8.000
v -180.979 299.520 0.200
vt 0.000 8.040
v -179.115 300.245 0.200
vt 1.000 8.040
v -181.512 299.815 0.200
vt 0.000 8.080
v -179.749 300.760 0.200
vt 1.000 8.080
v -183.214 303.895 0.200
vt 0.000 8.120
v -181.298 304.467 0.200
vt 1.000 8.120
v -182.849 302.444 0.200
vt 0.000 8.160
v -181.171 303.533 0.200
vt 1.000 8.160
v -182.827 303.070 0.200
vt 0.000 8.200
v -181.295 304.355 0.200
vt 1.000 8.200
v -185.659 307.496 0.200
vt 0.000 8.240
v -183.836 308.319 0.200
vt 1.000 8.240
v -185.384 307.325 0.200
vt 0.000 8.280
v -183.749 308.477 0.200
vt 1.000 8.280
v -187.547 311.043 0.200
vt 0.000 8.320
v -185.722 311.860 0.200
vt 1.000 8.320
v -186.797 310.242 0.200
vt 0.000 8.360
v -185.237 311.494 0.200
vt 1.000 8.360
v -189.530 314.590 0.200
vt 0.000 8.400
v -187.697 315.391 0.200
vt 1.000 8.400
v -189.439 314.290 0.200
vt 0.000 8.440
v -187.793 315.425 0.200
vt 1.000 8.440
v -191.347 317.976 0.200
vt 0.000 8.480
v -189.524 318.799 0.200
vt 1.000 8.480
v -190.856 317.036 0.200
vt 0.000 8.520
v -189.297 318.289 0.200
vt 1.000 8.520
v -193.301 321.459 0.200
vt 0.000 8.560
v -191.476 322.277 0.200
vt 1.000 8.560
v -193.176 321.157 0.200
vt 0.000 8.600
v -191.542 322.310 0.200
vt 1.000 8.600
v -194.547 323.787 0.200
vt 0.000 8.640
v -192.825 324.803 0.200
vt 1.000 8.640
v -196.491 327.059 0.200
vt 0.000 8.680
v -194.633 327.800 0.200
vt 1.000 8.680
v -196.232 326.809 0.200
vt 0.000 8.720
v -194.553 327.896 0.200
vt 1.000 8.720
v -198.727 331.549 0.200
vt 0.000 8.760
v -196.811 332.121 0.200
vt 1.000 8.760
v -198.589 331.164 0.200
vt 0.000 8.800
v -196.825 332.107 0.200
vt 1.000 8.800
v -200.335 334.095 0.200
vt 0.000 8.840
v -198.471 334.819 0.200
vt 1.000 8.840
v -198.887 331.848 0.200
vt 0.000 8.880
v -197.438 333.227 0.200
vt 1.000 8.880
v -202.360 337.975 0.200
vt 0.000 8.920
v -200.471 338.633 0.200
vt 1.000 8.920
v -200.433 335.080 0.200
vt 0.000 8.960
v -199.030 336.505 0.200
vt 1.000 8.960
v -203.857 340.447 0.200
vt 0.000 9.000
v -202.035 341.272 0.200
vt 1.000 9.000
v -205.263 342.660 0.200
vt 0.000 9.040
v -203.399 343.384 0.200
vt 1.000 9.040
v -206.222 345.154 0.200
vt 0.000 9.080
v -204.321 345.773 0.200
vt 1.000 9.080
v -207.032 345.901 0.200
vt 0.000 9.120
v -205.183 346.665 0.200
vt 1.000 9.120
v -205.224 343.596 0.200
vt 0.000 9.160
v -203.835 345.035 0.200
vt 1.000 9.160
v -208.803 349.014 0.200
vt 0.000 9.200
v -206.980 349.837 0.200
vt 1.000 9.200
v -207.107 346.950 0.200
vt 0.000 9.240
v -205.732 348.402 0.200
vt 1.000 9.240
v -210.892 353.095 0.200
vt 0.000 9.280
v -209.028 353.820 0.200
vt 1.000 9.280
v -211.721 353.944 0.200
vt 0.000 9.320
v -209.912 354.795 0.200
vt 1.000 9.320
v -212.827 356.524 0.200
vt 0.000 9.360
v -210.964 357.253 0.200
vt 1.000 9.360
v -213.715 357.500 0.200
vt 0.000 9.400
v -211.897 358.335 0.200
vt 1.000 9.400
v -212.476 356.290 0.200
vt 0.000 9.440
v -210.993 357.632 0.200
vt 1.000 9.440
v -215.583 361.067 0.200
vt 0.000 9.480
v -213.760 361.890 0.200
vt 1.000 9.480
v -214.174 359.440 0.200
vt 0.000 9.520
v -212.736 360.829 0.200
vt 1.000 9.520
v -217.458 364.370 0.200
vt 0.000 9.560
v -215.646 365.217 0.200
vt 1.000 9.560
v -216.569 363.594 0.200
vt 0.000 9.600
v -215.035 364.877 0.200
vt 1.000 9.600
v -219.557 368.414 0.200
vt 0.000 9.640
v -217.705 369.169 0.200
vt 1.000 9.640
v -219.753 368.215 0.200
vt 0.000 9.680
v -218.057 369.273 0.200
vt 1.000 9.680
v -221.481 371.825 0.200
vt 0.000 9.720
v -219.631 372.587 0.200
vt 1.000 9.720
v -221.601 371.714 0.200
vt 0.000 9.760
v -219.906 372.777 0.200
vt 1.000 9.760
v -221.797 372.593 0.200
vt 0.000 9.800
v -220.210 373.811 0.200
vt 1.000 9.800
v -224.318 376.601 0.200
vt 0.000 9.840
v -222.495 377.423 0.200
vt 1.000 9.840
v -223.479 375.696 0.200
vt 0.000 9.880
v -221.938 376.970 0.200
vt 1.000 9.880
v -226.594 380.890 0.200
vt 0.000 9.920
v -224.715 381.574 0.200
vt 1.000 9.920
v -225.288 378.705 0.200
vt 0.000 9.960
v -223.793 380.034 0.200
vt 1.000 9.960
v -228.119 383.538 0.200
vt 0.000 10.000
v -226.296 384.361 0.200
vt 1.000 10.000
v -12.105 -2.054 0.200
vt 0.223 1.080
v -44.036 53.824 0.200
vt 0.446 2.360
v -49.881 66.354 0.200
vt 0.972 2.640
v -111.171 175.363 0.200
vt 0.251 5.160
v -110.266 175.902 0.200
vt 0.938 5.200
v -123.669 199.736 0.200
vt 0.846 5.720
v -147.578 240.742 0.200
vt 0.390 6.680
v -184.218 308.146 0.200
vt 0.791 8.240
v -188.093 315.218 0.200
vt 0.784 8.400
v -191.786 322.138 0.200
vt 0.830 8.560
v -194.812 327.729 0.200
vt 0.904 8.680
v -219.202 368.559 0.200
vt 0.192 9.640
v -221.316 371.893 0.200
vt 0.089 9.720
mtllib Roads\3D_Road\Road_96fe92ac-11a1-4401-a1f4-c3f456a99d39_4.mtl
usemtl Road Transition (Light)
g g1
s 1
f  1/1 2/2 4/4 3/3
f  3/3 4/4 6/6 5/5
f  5/5 6/6 8/8 7/7
f  7/7 8/8 10/10 9/9
f  9/9 10/10 12/12 11/11
f  11/11 12/12 14/14 13/13
f  13/13 14/14 16/16 15/15
f  15/15 16/16 18/18 17/17
f  17/17 18/18 20/20 19/19
f  19/19 20/20 22/22 21/21
f  21/21 22/22 24/24 23/23
f  23/23 24/24 26/26 25/25
f  25/25 26/26 28/28 27/27
f  27/27 28/28 30/30 29/29
f  29/29 30/30 32/32 31/31
f  31/31 32/32 34/34 33/33
f  33/33 34/34 36/36 35/35
f  35/35 36/36 38/38 37/37
f  37/37 38/38 40/40 39/39
f  39/39 40/40 42/42 41/41
f  41/41 42/42 44/44 43/43
f  43/43 44/44 46/46 45/45
f  45/45 46/46 48/48 47/47
f  47/47 48/48 50/50 49/49
f  49/49 50/50 52/52 51/51
f  51/51 52/52 54/54 53/53
f  53/53 54/54 56/56 55/55
f  503/503 56/56 58/58
f  57/57 58/58 60/60 59/59
f  59/59 60/60 62/62 61/61
f  61/61 62/62 64/64 63/63
f  63/63 64/64 66/66 65/65
f  65/65 66/66 68/68 67/67
f  67/67 68/68 70/70 69/69
f  69/69 70/70 72/72 71/71
f  71/71 72/72 74/74 73/73
f  73/73 74/74 76/76 75/75
f  75/75 76/76 78/78 77/77
f  77/77 78/78 80/80 79/79
f  79/79 80/80 82/82 81/81
f  81/81 82/82 84/84 83/83
f  83/83 84/84 86/86 85/85
f  85/85 86/86 88/88 87/87
f  87/87 88/88 90/90 89/89
f  89/89 90/90 92/92 91/91
f  91/91 92/92 94/94 93/93
f  93/93 94/94 96/96 95/95
f  95/95 96/96 98/98 97/97
f  97/97 98/98 100/100 99/99
f  99/99 100/100 102/102 101/101
f  101/101 102/102 104/104 103/103
f  103/103 104/104 106/106 105/105
f  105/105 106/106 108/108 107/107
f  107/107 108/108 110/110 109/109
f  109/109 110/110 112/112 111/111
f  111/111 112/112 114/114 113/113
f  113/113 114/114 116/116 115/115
f  115/115 116/116 118/118 117/117
f  117/117 118/118 120/120 119/119
f  504/504 120/120 122/122
f  121/121 122/122 124/124 123/123
f  123/123 124/124 126/126 125/125
f  125/125 126/126 128/128 127/127
f  127/127 128/128 130/130 129/129
f  129/129 130/130 132/132 131/131
f  131/131 132/132 134/134 133/133
f  505/505 134/134 136/136
f  135/135 136/136 138/138 137/137
f  137/137 138/138 140/140 139/139
f  139/139 140/140 142/142 141/141
f  141/141 142/142 144/144 143/143
f  143/143 144/144 146/146 145/145
f  145/145 146/146 148/148 147/147
f  147/147 148/148 150/150 149/149
f  149/149 150/150 152/152 151/151
f  151/151 152/152 154/154 153/153
f  153/153 154/154 156/156 155/155
f  155/155 156/156 158/158 157/157
f  157/157 158/158 160/160 159/159
f  159/159 160/160 162/162 161/161
f  161/161 162/162 164/164 163/163
f  163/163 164/164 166/166 165/165
f  165/165 166/166 168/168 167/167
f  167/167 168/168 170/170 169/169
f  169/169 170/170 172/172 171/171
f  171/171 172/172 174/174 173/173
f  173/173 174/174 176/176 175/175
f  175/175 176/176 178/178 177/177
f  177/177 178/178 180/180 179/179
f  179/179 180/180 182/182 181/181
f  181/181 182/182 184/184 183/183
f  183/183 184/184 186/186 185/185
f  185/185 186/186 188/188 187/187
f  187/187 188/188 190/190 189/189
f  189/189 190/190 192/192 191/191
f  191/191 192/192 194/194 193/193
f  193/193 194/194 196/196 195/195
f  195/195 196/196 198/198 197/197
f  197/197 198/198 200/200 199/199
f  199/199 200/200 202/202 201/201
f  201/201 202/202 204/204 203/203
f  203/203 204/204 206/206 205/205
f  205/205 206/206 208/208 207/207
f  207/207 208/208 210/210 209/209
f  209/209 210/210 212/212 211/211
f  211/211 212/212 214/214 213/213
f  213/213 214/214 216/216 215/215
f  215/215 216/216 218/218 217/217
f  217/217 218/218 220/220 219/219
f  219/219 220/220 222/222 221/221
f  221/221 222/222 224/224 223/223
f  223/223 224/224 226/226 225/225
f  225/225 226/226 228/228 227/227
f  227/227 228/228 230/230 229/229
f  229/229 230/230 232/232 231/231
f  231/231 232/232 234/234 233/233
f  233/233 234/234 236/236 235/235
f  235/235 236/236 238/238 237/237
f  237/237 238/238 240/240 239/239
f  239/239 240/240 242/242 241/241
f  241/241 242/242 244/244 243/243
f  243/243 244/244 246/246 245/245
f  245/245 246/246 248/248 247/247
f  247/247 248/248 250/250 249/249
f  249/249 250/250 252/252 251/251
f  251/251 252/252 254/254 253/253
f  253/253 254/254 256/256 255/255
f  255/255 256/256 258/258 257/257
f  257/257 258/258 260/260 259/259
f  506/506 260/260 262/262
f  507/507 262/262 264/264
f  263/263 264/264 266/266 265/265
f  265/265 266/266 268/268 267/267
f  267/267 268/268 270/270 269/269
f  269/269 270/270 272/272 271/271
f  271/271 272/272 274/274 273/273
f  273/273 274/274 276/276 275/275
f  275/275 276/276 278/278 277/277
f  277/277 278/278 280/280 279/279
f  279/279 280/280 282/282 281/281
f  281/281 282/282 284/284 283/283
f  283/283 284/284 286/286 285/285
f  285/285 286/286 288/288 287/287
f  508/508 288/288 290/290
f  289/289 290/290 292/292 291/291
f  291/291 292/292 294/294 293/293
f  293/293 294/294 296/296 295/295
f  295/295 296/296 298/298 297/297
f  297/297 298/298 300/300 299/299
f  299/299 300/300 302/302 301/301
f  301/301 302/302 304/304 303/303
f  303/303 304/304 306/306 305/305
f  305/305 306/306 308/308 307/307
f  307/307 308/308 310/310 309/309
f  309/309 310/310 312/312 311/311
f  311/311 312/312 314/314 313/313
f  313/313 314/314 316/316 315/315
f  315/315 316/316 318/318 317/317
f  317/317 318/318 320/320 319/319
f  319/319 320/320 322/322 321/321
f  321/321 322/322 324/324 323/323
f  323/323 324/324 326/326 325/325
f  325/325 326/326 328/328 327/327
f  327/327 328/328 330/330 329/329
f  329/329 330/330 332/332 331/331
f  331/331 332/332 334/334 333/333
f  333/333 334/334 336/336 335/335
f  509/509 336/336 338/338
f  337/337 338/338 340/340 339/339
f  339/339 340/340 342/342 341/341
f  341/341 342/342 344/344 343/343
f  343/343 344/344 346/346 345/345
f  345/345 346/346 348/348 347/347
f  347/347 348/348 350/350 349/349
f  349/349 350/350 352/352 351/351
f  351/351 352/352 354/354 353/353
f  353/353 354/354 356/356 355/355
f  355/355 356/356 358/358 357/357
f  357/357 358/358 360/360 359/359
f  359/359 360/360 362/362 361/361
f  361/361 362/362 364/364 363/363
f  363/363 364/364 366/366 365/365
f  365/365 366/366 368/368 367/367
f  367/367 368/368 370/370 369/369
f  369/369 370/370 372/372 371/371
f  371/371 372/372 374/374 373/373
f  373/373 374/374 376/376 375/375
f  375/375 376/376 378/378 377/377
f  377/377 378/378 380/380 379/379
f  379/379 380/380 382/382 381/381
f  381/381 382/382 384/384 383/383
f  383/383 384/384 386/386 385/385
f  385/385 386/386 388/388 387/387
f  387/387 388/388 390/390 389/389
f  389/389 390/390 392/392 391/391
f  391/391 392/392 394/394 393/393
f  393/393 394/394 396/396 395/395
f  395/395 396/396 398/398 397/397
f  397/397 398/398 400/400 399/399
f  399/399 400/400 402/402 401/401
f  401/401 402/402 404/404 403/403
f  403/403 404/404 406/406 405/405
f  405/405 406/406 408/408 407/407
f  407/407 408/408 410/410 409/409
f  409/409 410/410 412/412 411/411
f  411/411 412/412 414/414 413/413
f  510/510 414/414 416/416
f  415/415 416/416 418/418 417/417
f  417/417 418/418 420/420 419/419
f  419/419 420/420 422/422 421/421
f  511/511 422/422 424/424
f  423/423 424/424 426/426 425/425
f  425/425 426/426 428/428 427/427
f  427/427 428/428 430/430 429/429
f  512/512 430/430 432/432
f  431/431 432/432 434/434 433/433
f  433/433 434/434 436/436 435/435
f  513/513 436/436 438/438
f  437/437 438/438 440/440 439/439
f  439/439 440/440 442/442 441/441
f  441/441 442/442 444/444 443/443
f  443/443 444/444 446/446 445/445
f  445/445 446/446 448/448 447/447
f  447/447 448/448 450/450 449/449
f  449/449 450/450 452/452 451/451
f  451/451 452/452 454/454 453/453
f  453/453 454/454 456/456 455/455
f  455/455 456/456 458/458 457/457
f  457/457 458/458 460/460 459/459
f  459/459 460/460 462/462 461/461
f  461/461 462/462 464/464 463/463
f  463/463 464/464 466/466 465/465
f  465/465 466/466 468/468 467/467
f  467/467 468/468 470/470 469/469
f  469/469 470/470 472/472 471/471
f  471/471 472/472 474/474 473/473
f  473/473 474/474 476/476 475/475
f  475/475 476/476 478/478 477/477
f  477/477 478/478 480/480 479/479
f  479/479 480/480 482/482 481/481
f  481/481 482/482 484/484 483/483
f  514/514 484/484 486/486
f  485/485 486/486 488/488 487/487
f  515/515 488/488 490/490
f  489/489 490/490 492/492 491/491
f  491/491 492/492 494/494 493/493
f  493/493 494/494 496/496 495/495
f  495/495 496/496 498/498 497/497
f  497/497 498/498 500/500 499/499
f  499/499 500/500 502/502 501/501
g g2
s 2
f  55/55 503/503 57/57
f  119/119 504/504 121/121
f  133/133 505/505 135/135
f  259/259 506/506 261/261
f  261/261 507/507 263/263
f  287/287 508/508 289/289
f  335/335 509/509 337/337
f  413/413 510/510 415/415
f  421/421 511/511 423/423
f  429/429 512/512 431/431
f  435/435 513/513 437/437
f  483/483 514/514 485/485
f  487/487 515/515 489/489
g g3
s 3
g g4
s 4
