# Shape file for lane 3
v -90.534 43.059 49.829
vt 0.000 0.000
v -136.276 -37.799 49.839
vt 3.100 0.000
v 0.856 -8.642 47.065
vt 0.000 5.250
v -44.887 -89.500 47.074
vt 3.100 5.250
v 5.208 -11.103 46.931
vt 0.000 5.500
v -40.539 -91.959 46.941
vt 3.100 5.500
v 9.559 -13.566 46.799
vt 0.000 5.750
v -36.188 -94.421 46.808
vt 3.100 5.750
v 13.911 -16.028 46.666
vt 0.000 6.000
v -31.839 -96.882 46.675
vt 3.100 6.000
v 18.262 -18.490 46.533
vt 0.000 6.250
v -27.488 -99.344 46.542
vt 3.100 6.250
v 22.614 -20.952 46.399
vt 0.000 6.500
v -23.132 -101.808 46.409
vt 3.100 6.500
v 26.966 -23.415 46.267
vt 0.000 6.750
v -18.781 -104.270 46.276
vt 3.100 6.750
v 31.318 -25.877 46.133
vt 0.000 7.000
v -14.425 -106.735 46.142
vt 3.100 7.000
v 35.670 -28.339 46.000
vt 0.000 7.250
v -10.073 -109.197 46.009
vt 3.100 7.250
v 40.022 -30.801 45.866
vt 0.000 7.500
v -5.721 -111.659 45.875
vt 3.100 7.500
v 44.374 -33.262 45.733
vt 0.000 7.750
v -1.373 -114.118 45.742
vt 3.100 7.750
v 48.725 -35.724 45.599
vt 0.000 8.000
v 2.971 -116.576 45.608
vt 3.100 8.000
v 53.076 -38.187 45.466
vt 0.000 8.250
v 7.327 -119.041 45.475
vt 3.100 8.250
v 57.429 -40.650 45.332
vt 0.000 8.500
v 11.686 -121.508 45.341
vt 3.100 8.500
v 61.780 -43.111 45.198
vt 0.000 8.750
v 16.034 -123.967 45.208
vt 3.100 8.750
v 66.132 -45.574 45.064
vt 0.000 9.000
v 20.385 -126.429 45.074
vt 3.100 9.000
v 70.484 -48.036 44.931
vt 0.000 9.250
v 24.742 -128.894 44.940
vt 3.100 9.250
v 74.836 -50.498 44.797
vt 0.000 9.500
v 29.093 -131.356 44.806
vt 3.100 9.500
v 79.188 -52.960 44.664
vt 0.000 9.750
v 33.445 -133.818 44.673
vt 3.100 9.750
v 83.540 -55.421 44.529
vt 0.000 10.000
v 37.793 -136.277 44.539
vt 3.100 10.000
v 87.891 -57.883 44.396
vt 0.000 10.250
v 42.137 -138.735 44.406
vt 3.100 10.250
v 92.242 -60.346 44.262
vt 0.000 10.500
v 46.493 -141.200 44.272
vt 3.100 10.500
v 96.595 -62.809 44.129
vt 0.000 10.750
v 50.852 -143.667 44.138
vt 3.100 10.750
v 100.946 -65.270 43.995
vt 0.000 11.000
v 55.200 -146.126 44.004
vt 3.100 11.000
v 105.298 -67.733 43.862
vt 0.000 11.250
v 59.551 -148.588 43.872
vt 3.100 11.250
v 109.650 -70.195 43.728
vt 0.000 11.500
v 63.908 -151.053 43.738
vt 3.100 11.500
v 118.354 -75.119 43.462
vt 0.000 12.000
v 72.611 -155.977 43.471
vt 3.100 12.000
v 122.705 -77.580 43.329
vt 0.000 12.250
v 76.951 -158.432 43.338
vt 3.100 12.250
v 127.056 -80.043 43.196
vt 0.000 12.500
v 81.303 -160.895 43.205
vt 3.100 12.500
v 131.409 -82.506 43.063
vt 0.000 12.750
v 85.666 -163.364 43.073
vt 3.100 12.750
v 135.761 -84.968 42.930
vt 0.000 13.000
v 90.018 -165.826 42.939
vt 3.100 13.000
v 140.112 -87.429 42.798
vt 0.000 13.250
v 94.366 -168.285 42.807
vt 3.100 13.250
v 144.464 -89.892 42.665
vt 0.000 13.500
v 98.717 -170.747 42.674
vt 3.100 13.500
v 148.816 -92.354 42.533
vt 0.000 13.750
v 103.074 -173.212 42.542
vt 3.100 13.750
v 153.168 -94.816 42.400
vt 0.000 14.000
v 107.425 -175.674 42.409
vt 3.100 14.000
v 157.520 -97.277 42.268
vt 0.000 14.250
v 111.770 -178.131 42.278
vt 3.100 14.250
v 161.871 -99.740 42.136
vt 0.000 14.500
v 116.117 -180.592 42.145
vt 3.100 14.500
v 166.223 -102.203 42.005
vt 0.000 14.750
v 120.476 -183.058 42.014
vt 3.100 14.750
v 170.575 -104.665 41.873
vt 0.000 15.000
v 124.832 -185.523 41.882
vt 3.100 15.000
v 174.927 -107.127 41.742
vt 0.000 15.250
v 129.184 -187.985 41.751
vt 3.100 15.250
v 179.278 -109.588 41.610
vt 0.000 15.500
v 133.532 -190.444 41.620
vt 3.100 15.500
v 183.630 -112.051 41.480
vt 0.000 15.750
v 137.883 -192.906 41.489
vt 3.100 15.750
v 187.982 -114.513 41.349
vt 0.000 16.000
v 142.240 -195.371 41.358
vt 3.100 16.000
v 192.334 -116.975 41.219
vt 0.000 16.250
v 146.591 -197.833 41.228
vt 3.100 16.250
v 196.686 -119.436 41.088
vt 0.000 16.500
v 150.936 -200.290 41.097
vt 3.100 16.500
v 201.037 -121.899 40.958
vt 0.000 16.750
v 155.283 -202.751 40.968
vt 3.100 16.750
v 205.389 -124.362 40.828
vt 0.000 17.000
v 159.642 -205.217 40.837
vt 3.100 17.000
v 209.741 -126.824 40.699
vt 0.000 17.250
v 163.998 -207.682 40.708
vt 3.100 17.250
v 214.093 -129.286 40.569
vt 0.000 17.500
v 168.350 -210.144 40.579
vt 3.100 17.500
v 218.445 -131.747 40.433
vt 0.000 17.750
v 172.698 -212.603 40.442
vt 3.100 17.750
v 222.796 -134.210 40.301
vt 0.000 18.000
v 177.049 -215.065 40.310
vt 3.100 18.000
v 227.148 -136.672 40.187
vt 0.000 18.250
v 181.406 -217.530 40.196
vt 3.100 18.250
v 231.500 -139.133 40.081
vt 0.000 18.500
v 185.750 -219.987 40.090
vt 3.100 18.500
v 235.851 -141.596 39.971
vt 0.000 18.750
v 190.101 -222.450 39.980
vt 3.100 18.750
v 240.211 -144.063 39.835
vt 0.000 19.000
v 194.566 -224.976 39.845
vt 3.100 19.000
v 244.657 -146.563 39.680
vt 0.000 19.250
v 200.172 -228.120 39.690
vt 3.100 19.250
v 249.262 -148.997 39.537
vt 0.000 19.500
v 207.181 -231.820 39.547
vt 3.100 19.500
v 253.961 -151.289 39.397
vt 0.000 19.750
v 214.574 -235.426 39.406
vt 3.100 19.750
v 258.732 -153.430 39.267
vt 0.000 20.000
v 222.076 -238.793 39.277
vt 3.100 20.000
v 263.570 -155.415 39.166
vt 0.000 20.250
v 229.691 -241.917 39.175
vt 3.100 20.250
v 268.469 -157.244 39.148
vt 0.000 20.500
v 237.400 -244.794 39.157
vt 3.100 20.500
v 273.424 -158.912 39.070
vt 0.000 20.750
v 245.189 -247.418 39.079
vt 3.100 20.750
v 278.430 -160.422 38.983
vt 0.000 21.000
v 253.064 -249.791 38.992
vt 3.100 21.000
v 283.484 -161.768 38.907
vt 0.000 21.250
v 261.016 -251.910 38.916
vt 3.100 21.250
v 288.577 -162.950 38.841
vt 0.000 21.500
v 269.028 -253.770 38.850
vt 3.100 21.500
v 293.706 -163.968 38.785
vt 0.000 21.750
v 277.094 -255.371 38.794
vt 3.100 21.750
v 298.865 -164.820 38.738
vt 0.000 22.000
v 285.208 -256.711 38.747
vt 3.100 22.000
v 304.050 -165.505 38.702
vt 0.000 22.250
v 293.375 -257.790 38.711
vt 3.100 22.250
v 309.253 -166.022 38.677
vt 0.000 22.500
v 301.562 -258.603 38.685
vt 3.100 22.500
v 314.470 -166.371 38.660
vt 0.000 22.750
v 309.761 -259.152 38.669
vt 3.100 22.750
v 319.696 -166.552 38.656
vt 0.000 23.000
v 317.978 -259.436 38.665
vt 3.100 23.000
v 324.924 -166.564 38.661
vt 0.000 23.250
v 326.200 -259.456 38.670
vt 3.100 23.250
v 330.151 -166.408 38.678
vt 0.000 23.500
v 334.428 -259.210 38.687
vt 3.100 23.500
v 335.370 -166.083 38.706
vt 0.000 23.750
v 342.639 -258.698 38.715
vt 3.100 23.750
v 340.576 -165.590 38.735
vt 0.000 24.000
v 350.827 -257.923 38.744
vt 3.100 24.000
v 345.763 -164.929 38.751
vt 0.000 24.250
v 358.989 -256.883 38.761
vt 3.100 24.250
v 350.927 -164.102 38.761
vt 0.000 24.500
v 367.114 -255.580 38.771
vt 3.100 24.500
v 356.060 -163.107 38.772
vt 0.000 24.750
v 375.185 -254.017 38.783
vt 3.100 24.750
v 361.154 -161.950 38.790
vt 0.000 25.000
v 383.133 -252.213 38.800
vt 3.100 25.000
v 366.125 -160.659 38.818
vt 0.000 25.250
v 389.832 -250.483 38.829
vt 3.100 25.250
v 370.981 -159.358 38.853
vt 0.000 25.500
v 395.024 -249.093 38.863
vt 3.100 25.500
v 380.640 -156.770 38.924
vt 0.000 26.000
v 404.683 -246.505 38.935
vt 3.100 26.000
v 385.470 -155.476 38.962
vt 0.000 26.250
v 409.522 -245.208 38.973
vt 3.100 26.250
v 390.299 -154.181 39.001
vt 0.000 26.500
v 414.349 -243.914 39.012
vt 3.100 26.500
v 395.129 -152.887 39.040
vt 0.000 26.750
v 419.172 -242.622 39.050
vt 3.100 26.750
v 399.958 -151.593 39.080
vt 0.000 27.000
v 424.001 -241.328 39.090
vt 3.100 27.000
v 404.788 -150.299 39.121
vt 0.000 27.250
v 428.829 -240.034 39.131
vt 3.100 27.250
v 409.617 -149.005 39.161
vt 0.000 27.500
v 433.661 -238.740 39.171
vt 3.100 27.500
v 419.277 -146.417 39.242
vt 0.000 28.000
v 443.320 -236.152 39.252
vt 3.100 28.000
v 424.107 -145.123 39.282
vt 0.000 28.250
v 448.159 -234.855 39.291
vt 3.100 28.250
v 428.936 -143.828 39.321
vt 0.000 28.500
v 452.986 -233.561 39.331
vt 3.100 28.500
v 433.765 -142.534 39.361
vt 0.000 28.750
v 457.809 -232.269 39.370
vt 3.100 28.750
v 438.595 -141.240 39.399
vt 0.000 29.000
v 462.638 -230.975 39.409
vt 3.100 29.000
v 443.425 -139.946 39.439
vt 0.000 29.250
v 467.466 -229.681 39.449
vt 3.100 29.250
v 448.254 -138.652 39.480
vt 0.000 29.500
v 472.298 -228.387 39.489
vt 3.100 29.500
v 453.084 -137.358 39.520
vt 0.000 29.750
v 477.127 -227.093 39.529
vt 3.100 29.750
v 457.914 -136.064 39.561
vt 0.000 30.000
v 481.957 -225.799 39.570
vt 3.100 30.000
v 462.744 -134.770 39.602
vt 0.000 30.250
v 486.796 -224.502 39.611
vt 3.100 30.250
v 467.573 -133.475 39.642
vt 0.000 30.500
v 491.623 -223.208 39.650
vt 3.100 30.500
v 472.402 -132.181 39.682
vt 0.000 30.750
v 496.446 -221.916 39.690
vt 3.100 30.750
v 477.232 -130.887 39.722
vt 0.000 31.000
v 501.275 -220.622 39.730
vt 3.100 31.000
v 486.891 -128.299 39.798
vt 0.000 31.500
v 510.935 -218.034 39.806
vt 3.100 31.500
v 491.721 -127.005 39.835
vt 0.000 31.750
v 515.762 -216.740 39.843
vt 3.100 31.750
v 496.551 -125.711 39.869
vt 0.000 32.000
v 520.595 -215.445 39.878
vt 3.100 32.000
v 501.333 -124.429 39.904
vt 0.000 32.250
v 524.753 -214.329 39.912
vt 3.100 32.250
v 506.017 -123.243 39.931
vt 0.000 32.500
v 527.309 -213.670 39.939
vt 3.100 32.500
v 510.672 -122.228 39.946
vt 0.000 32.750
v 528.948 -213.313 39.954
vt 3.100 32.750
v 515.357 -121.369 39.956
vt 0.000 33.000
v 530.584 -213.013 39.965
vt 3.100 33.000
v 520.068 -120.667 39.968
vt 0.000 33.250
v 532.227 -212.768 39.977
vt 3.100 33.250
v 524.800 -120.122 39.986
vt 0.000 33.500
v 533.883 -212.577 39.995
vt 3.100 33.500
v 529.548 -119.736 40.018
vt 0.000 33.750
v 535.547 -212.442 40.027
vt 3.100 33.750
v 534.306 -119.507 40.050
vt 0.000 34.000
v 537.210 -212.362 40.059
vt 3.100 34.000
v 539.069 -119.438 40.083
vt 0.000 34.250
v 538.879 -212.338 40.093
vt 3.100 34.250
v 543.831 -119.527 40.119
vt 0.000 34.500
v 540.547 -212.369 40.129
vt 3.100 34.500
v 548.587 -119.775 40.157
vt 0.000 34.750
v 542.199 -212.455 40.167
vt 3.100 34.750
v 553.334 -120.182 40.197
vt 0.000 35.000
v 543.870 -212.599 40.206
vt 3.100 35.000
v 558.064 -120.745 40.238
vt 0.000 35.250
v 545.525 -212.795 40.247
vt 3.100 35.250
v 562.772 -121.467 40.280
vt 0.000 35.500
v 547.166 -213.047 40.289
vt 3.100 35.500
v 567.454 -122.345 40.322
vt 0.000 35.750
v 548.810 -213.355 40.332
vt 3.100 35.750
v 572.104 -123.379 40.366
vt 0.000 36.000
v 550.441 -213.718 40.375
vt 3.100 36.000
v 576.716 -124.566 40.409
vt 0.000 36.250
v 552.050 -214.132 40.418
vt 3.100 36.250
v 581.287 -125.908 40.452
vt 0.000 36.500
v 553.647 -214.601 40.462
vt 3.100 36.500
v 585.811 -127.400 40.495
vt 0.000 36.750
v 555.238 -215.126 40.504
vt 3.100 36.750
v 590.282 -129.043 40.537
vt 0.000 37.000
v 556.801 -215.700 40.546
vt 3.100 37.000
v 594.696 -130.833 40.578
vt 0.000 37.250
v 558.341 -216.325 40.587
vt 3.100 37.250
v 599.047 -132.770 40.614
vt 0.000 37.500
v 559.858 -217.000 40.624
vt 3.100 37.500
v 603.332 -134.852 40.640
vt 0.000 37.750
v 561.365 -217.732 40.649
vt 3.100 37.750
v 607.546 -137.073 40.655
vt 0.000 38.000
v 562.840 -218.509 40.665
vt 3.100 38.000
v 611.681 -139.435 40.660
vt 0.000 38.250
v 564.279 -219.332 40.670
vt 3.100 38.250
v 615.737 -141.934 40.656
vt 0.000 38.500
v 565.703 -220.208 40.666
vt 3.100 38.500
v 619.707 -144.565 40.643
vt 0.000 38.750
v 567.090 -221.128 40.652
vt 3.100 38.750
v 623.587 -147.328 40.620
vt 0.000 39.000
v 568.446 -222.094 40.629
vt 3.100 39.000
v 627.374 -150.220 40.588
vt 0.000 39.250
v 569.777 -223.110 40.598
vt 3.100 39.250
v 631.062 -153.235 40.549
vt 0.000 39.500
v 571.072 -224.169 40.558
vt 3.100 39.500
v 634.647 -156.370 40.500
vt 0.000 39.750
v 572.323 -225.263 40.509
vt 3.100 39.750
v 638.125 -159.624 40.446
vt 0.000 40.000
v 573.530 -226.392 40.456
vt 3.100 40.000
v 641.492 -162.993 40.379
vt 0.000 40.250
v 574.710 -227.573 40.389
vt 3.100 40.250
v 644.747 -166.472 40.315
vt 0.000 40.500
v 575.853 -228.795 40.325
vt 3.100 40.500
v 647.883 -170.057 40.254
vt 0.000 40.750
v 576.952 -230.050 40.264
vt 3.100 40.750
v 650.898 -173.745 40.197
vt 0.000 41.000
v 578.011 -231.346 40.208
vt 3.100 41.000
v 653.789 -177.531 40.145
vt 0.000 41.250
v 579.020 -232.668 40.155
vt 3.100 41.250
v 656.592 -181.468 40.096
vt 0.000 41.500
v 580.548 -234.832 40.106
vt 3.100 41.500
v 659.408 -185.540 40.050
vt 0.000 41.750
v 582.999 -238.381 40.061
vt 3.100 41.750
v 662.252 -189.653 40.009
vt 0.000 42.000
v 585.843 -242.494 40.020
vt 3.100 42.000
v 665.096 -193.765 39.971
vt 0.000 42.250
v 588.687 -246.606 39.982
vt 3.100 42.250
v 667.940 -197.878 39.935
vt 0.000 42.500
v 591.531 -250.718 39.945
vt 3.100 42.500
v 670.784 -201.990 39.899
vt 0.000 42.750
v 594.374 -254.828 39.909
vt 3.100 42.750
v 673.627 -206.102 39.861
vt 0.000 43.000
v 597.214 -258.937 39.871
vt 3.100 43.000
v 676.471 -210.215 39.822
vt 0.000 43.250
v 600.062 -263.056 39.832
vt 3.100 43.250
v 679.315 -214.328 39.780
vt 0.000 43.500
v 602.906 -267.168 39.790
vt 3.100 43.500
v 682.159 -218.440 39.734
vt 0.000 43.750
v 605.750 -271.281 39.744
vt 3.100 43.750
v 685.003 -222.553 39.684
vt 0.000 44.000
v 608.594 -275.393 39.693
vt 3.100 44.000
v 687.847 -226.665 39.632
vt 0.000 44.250
v 611.438 -279.506 39.641
vt 3.100 44.250
v 690.691 -230.778 39.578
vt 0.000 44.500
v 614.285 -283.623 39.587
vt 3.100 44.500
v 693.535 -234.890 39.523
vt 0.000 44.750
v 617.126 -287.730 39.533
vt 3.100 44.750
v 696.379 -239.002 39.467
vt 0.000 45.000
v 619.970 -291.843 39.477
vt 3.100 45.000
v 699.223 -243.114 39.413
vt 0.000 45.250
v 622.814 -295.955 39.423
vt 3.100 45.250
v 702.067 -247.227 39.361
vt 0.000 45.500
v 625.656 -300.064 39.371
vt 3.100 45.500
v 704.941 -251.382 39.311
vt 0.000 45.750
v 628.923 -304.783 39.321
vt 3.100 45.750
v 707.959 -255.609 39.266
vt 0.000 46.000
v 633.424 -311.062 39.276
vt 3.100 46.000
v 711.195 -259.784 39.229
vt 0.000 46.250
v 638.925 -318.157 39.239
vt 3.100 46.250
v 714.597 -263.827 39.196
vt 0.000 46.500
v 644.722 -325.047 39.205
vt 3.100 46.500
v 718.158 -267.732 39.160
vt 0.000 46.750
v 650.793 -331.702 39.169
vt 3.100 46.750
v 721.872 -271.489 39.117
vt 0.000 47.000
v 657.112 -338.096 39.126
vt 3.100 47.000
v 725.733 -275.096 39.061
vt 0.000 47.250
v 663.687 -344.239 39.070
vt 3.100 47.250
v 729.737 -278.546 39.007
vt 0.000 47.500
v 670.516 -350.124 39.016
vt 3.100 47.500
v 733.874 -281.832 38.957
vt 0.000 47.750
v 677.553 -355.713 38.966
vt 3.100 47.750
v 738.139 -284.951 38.908
vt 0.000 48.000
v 684.820 -361.027 38.917
vt 3.100 48.000
v 742.527 -287.896 38.858
vt 0.000 48.250
v 692.292 -366.043 38.868
vt 3.100 48.250
v 747.027 -290.665 38.810
vt 0.000 48.500
v 699.952 -370.754 38.819
vt 3.100 48.500
v 751.636 -293.251 38.761
vt 0.000 48.750
v 707.817 -375.167 38.770
vt 3.100 48.750
v 756.344 -295.649 38.712
vt 0.000 49.000
v 715.831 -379.250 38.721
vt 3.100 49.000
v 761.143 -297.858 38.662
vt 0.000 49.250
v 723.996 -383.008 38.671
vt 3.100 49.250
v 766.028 -299.873 38.612
vt 0.000 49.500
v 732.320 -386.442 38.621
vt 3.100 49.500
v 770.990 -301.692 38.560
vt 0.000 49.750
v 740.773 -389.540 38.569
vt 3.100 49.750
v 776.020 -303.310 38.508
vt 0.000 50.000
v 749.343 -392.298 38.517
vt 3.100 50.000
v 781.111 -304.726 38.454
vt 0.000 50.250
v 758.014 -394.709 38.463
vt 3.100 50.250
v 786.254 -305.937 38.399
vt 0.000 50.500
v 766.773 -396.772 38.409
vt 3.100 50.500
v 791.441 -306.941 38.342
vt 0.000 50.750
v 775.603 -398.481 38.351
vt 3.100 50.750
v 796.664 -307.738 38.284
vt 0.000 51.000
v 784.496 -399.838 38.293
vt 3.100 51.000
v 801.916 -308.325 38.223
vt 0.000 51.250
v 793.447 -400.838 38.232
vt 3.100 51.250
v 807.187 -308.702 38.161
vt 0.000 51.500
v 802.426 -401.480 38.170
vt 3.100 51.500
v 812.469 -308.867 38.095
vt 0.000 51.750
v 811.425 -401.761 38.104
vt 3.100 51.750
v 817.752 -308.820 38.028
vt 0.000 52.000
v 820.426 -401.682 38.037
vt 3.100 52.000
v 823.030 -308.563 37.957
vt 0.000 52.250
v 829.411 -401.243 37.966
vt 3.100 52.250
v 828.293 -308.095 37.884
vt 0.000 52.500
v 838.373 -400.446 37.893
vt 3.100 52.500
v 833.533 -307.416 37.807
vt 0.000 52.750
v 847.303 -399.290 37.816
vt 3.100 52.750
v 838.742 -306.529 37.728
vt 0.000 53.000
v 856.173 -397.779 37.737
vt 3.100 53.000
v 843.911 -305.434 37.603
vt 0.000 53.250
v 864.976 -395.914 37.612
vt 3.100 53.250
v 849.033 -304.133 37.434
vt 0.000 53.500
v 873.703 -393.697 37.443
vt 3.100 53.500
v 854.098 -302.628 37.247
vt 0.000 53.750
v 882.327 -391.135 37.257
vt 3.100 53.750
v 859.099 -300.922 37.068
vt 0.000 54.000
v 890.842 -388.231 37.077
vt 3.100 54.000
v 864.025 -299.019 36.923
vt 0.000 54.250
v 899.204 -385.001 36.932
vt 3.100 54.250
v 868.778 -296.968 36.836
vt 0.000 54.500
v 906.085 -382.048 36.846
vt 3.100 54.500
v 873.383 -294.918 36.786
vt 0.000 54.750
v 911.164 -379.789 36.795
vt 3.100 54.750
v 877.951 -292.884 36.752
vt 0.000 55.000
v 915.740 -377.751 36.761
vt 3.100 55.000
v 882.518 -290.851 36.731
vt 0.000 55.250
v 920.307 -375.718 36.740
vt 3.100 55.250
v 887.086 -288.817 36.719
vt 0.000 55.500
v 924.875 -373.684 36.729
vt 3.100 55.500
v 891.654 -286.783 36.715
vt 0.000 55.750
v 929.443 -371.650 36.724
vt 3.100 55.750
v 900.789 -282.715 36.711
vt 0.000 56.250
v 938.578 -367.582 36.720
vt 3.100 56.250
v 905.357 -280.681 36.705
vt 0.000 56.500
v 943.146 -365.548 36.714
vt 3.100 56.500
v 909.924 -278.647 36.691
vt 0.000 56.750
v 947.713 -363.514 36.700
vt 3.100 56.750
v 914.492 -276.614 36.667
vt 0.000 57.000
v 952.281 -361.481 36.676
vt 3.100 57.000
v 919.060 -274.580 36.631
vt 0.000 57.250
v 956.849 -359.447 36.640
vt 3.100 57.250
v 928.195 -270.512 36.556
vt 0.000 57.750
v 965.984 -355.379 36.565
vt 3.100 57.750
v 937.330 -266.444 36.478
vt 0.000 58.250
v 975.119 -351.311 36.487
vt 3.100 58.250
v 946.466 -262.377 36.398
vt 0.000 58.750
v 984.254 -347.244 36.407
vt 3.100 58.750
v 955.601 -258.309 36.316
vt 0.000 59.250
v 993.390 -343.176 36.325
vt 3.100 59.250
v 964.736 -254.241 36.232
vt 0.000 59.750
v 1002.525 -339.108 36.241
vt 3.100 59.750
v 978.439 -248.140 36.103
vt 0.000 60.500
v 1016.228 -333.007 36.112
vt 3.100 60.500
v 992.142 -242.038 35.972
vt 0.000 61.250
v 1029.931 -326.905 35.981
vt 3.100 61.250
v 1014.980 -231.869 35.751
vt 0.000 62.500
v 1052.769 -316.736 35.760
vt 3.100 62.500
v 1037.819 -221.700 35.530
vt 0.000 63.750
v 1075.608 -306.567 35.540
vt 3.100 63.750
v 1051.522 -215.598 35.400
vt 0.000 64.500
v 1089.311 -300.465 35.410
vt 3.100 64.500
v 1060.657 -211.531 35.315
vt 0.000 65.000
v 1098.446 -296.398 35.324
vt 3.100 65.000
mtllib Roads\3D_Road\Road_3c09687f-3630-4619-9c60-5cf045f4e0a5_3.mtl
usemtl Grass (Light)
g g1
s 1
f  1/1 2/2 4/4 3/3
f  3/3 4/4 6/6 5/5
f  5/5 6/6 8/8 7/7
f  7/7 8/8 10/10 9/9
f  9/9 10/10 12/12 11/11
f  11/11 12/12 14/14 13/13
f  13/13 14/14 16/16 15/15
f  15/15 16/16 18/18 17/17
f  17/17 18/18 20/20 19/19
f  19/19 20/20 22/22 21/21
f  21/21 22/22 24/24 23/23
f  23/23 24/24 26/26 25/25
f  25/25 26/26 28/28 27/27
f  27/27 28/28 30/30 29/29
f  29/29 30/30 32/32 31/31
f  31/31 32/32 34/34 33/33
f  33/33 34/34 36/36 35/35
f  35/35 36/36 38/38 37/37
f  37/37 38/38 40/40 39/39
f  39/39 40/40 42/42 41/41
f  41/41 42/42 44/44 43/43
f  43/43 44/44 46/46 45/45
f  45/45 46/46 48/48 47/47
f  47/47 48/48 50/50 49/49
f  49/49 50/50 52/52 51/51
f  51/51 52/52 54/54 53/53
f  53/53 54/54 56/56 55/55
f  55/55 56/56 58/58 57/57
f  57/57 58/58 60/60 59/59
f  59/59 60/60 62/62 61/61
f  61/61 62/62 64/64 63/63
f  63/63 64/64 66/66 65/65
f  65/65 66/66 68/68 67/67
f  67/67 68/68 70/70 69/69
f  69/69 70/70 72/72 71/71
f  71/71 72/72 74/74 73/73
f  73/73 74/74 76/76 75/75
f  75/75 76/76 78/78 77/77
f  77/77 78/78 80/80 79/79
f  79/79 80/80 82/82 81/81
f  81/81 82/82 84/84 83/83
f  83/83 84/84 86/86 85/85
f  85/85 86/86 88/88 87/87
f  87/87 88/88 90/90 89/89
f  89/89 90/90 92/92 91/91
f  91/91 92/92 94/94 93/93
f  93/93 94/94 96/96 95/95
f  95/95 96/96 98/98 97/97
f  97/97 98/98 100/100 99/99
f  99/99 100/100 102/102 101/101
f  101/101 102/102 104/104 103/103
f  103/103 104/104 106/106 105/105
f  105/105 106/106 108/108 107/107
f  107/107 108/108 110/110 109/109
f  109/109 110/110 112/112 111/111
f  111/111 112/112 114/114 113/113
f  113/113 114/114 116/116 115/115
f  115/115 116/116 118/118 117/117
f  117/117 118/118 120/120 119/119
f  119/119 120/120 122/122 121/121
f  121/121 122/122 124/124 123/123
f  123/123 124/124 126/126 125/125
f  125/125 126/126 128/128 127/127
f  127/127 128/128 130/130 129/129
f  129/129 130/130 132/132 131/131
f  131/131 132/132 134/134 133/133
f  133/133 134/134 136/136 135/135
f  135/135 136/136 138/138 137/137
f  137/137 138/138 140/140 139/139
f  139/139 140/140 142/142 141/141
f  141/141 142/142 144/144 143/143
f  143/143 144/144 146/146 145/145
f  145/145 146/146 148/148 147/147
f  147/147 148/148 150/150 149/149
f  149/149 150/150 152/152 151/151
f  151/151 152/152 154/154 153/153
f  153/153 154/154 156/156 155/155
f  155/155 156/156 158/158 157/157
f  157/157 158/158 160/160 159/159
f  159/159 160/160 162/162 161/161
f  161/161 162/162 164/164 163/163
f  163/163 164/164 166/166 165/165
f  165/165 166/166 168/168 167/167
f  167/167 168/168 170/170 169/169
f  169/169 170/170 172/172 171/171
f  171/171 172/172 174/174 173/173
f  173/173 174/174 176/176 175/175
f  175/175 176/176 178/178 177/177
f  177/177 178/178 180/180 179/179
f  179/179 180/180 182/182 181/181
f  181/181 182/182 184/184 183/183
f  183/183 184/184 186/186 185/185
f  185/185 186/186 188/188 187/187
f  187/187 188/188 190/190 189/189
f  189/189 190/190 192/192 191/191
f  191/191 192/192 194/194 193/193
f  193/193 194/194 196/196 195/195
f  195/195 196/196 198/198 197/197
f  197/197 198/198 200/200 199/199
f  199/199 200/200 202/202 201/201
f  201/201 202/202 204/204 203/203
f  203/203 204/204 206/206 205/205
f  205/205 206/206 208/208 207/207
f  207/207 208/208 210/210 209/209
f  209/209 210/210 212/212 211/211
f  211/211 212/212 214/214 213/213
f  213/213 214/214 216/216 215/215
f  215/215 216/216 218/218 217/217
f  217/217 218/218 220/220 219/219
f  219/219 220/220 222/222 221/221
f  221/221 222/222 224/224 223/223
f  223/223 224/224 226/226 225/225
f  225/225 226/226 228/228 227/227
f  227/227 228/228 230/230 229/229
f  229/229 230/230 232/232 231/231
f  231/231 232/232 234/234 233/233
f  233/233 234/234 236/236 235/235
f  235/235 236/236 238/238 237/237
f  237/237 238/238 240/240 239/239
f  239/239 240/240 242/242 241/241
f  241/241 242/242 244/244 243/243
f  243/243 244/244 246/246 245/245
f  245/245 246/246 248/248 247/247
f  247/247 248/248 250/250 249/249
f  249/249 250/250 252/252 251/251
f  251/251 252/252 254/254 253/253
f  253/253 254/254 256/256 255/255
f  255/255 256/256 258/258 257/257
f  257/257 258/258 260/260 259/259
f  259/259 260/260 262/262 261/261
f  261/261 262/262 264/264 263/263
f  263/263 264/264 266/266 265/265
f  265/265 266/266 268/268 267/267
f  267/267 268/268 270/270 269/269
f  269/269 270/270 272/272 271/271
f  271/271 272/272 274/274 273/273
f  273/273 274/274 276/276 275/275
f  275/275 276/276 278/278 277/277
f  277/277 278/278 280/280 279/279
f  279/279 280/280 282/282 281/281
f  281/281 282/282 284/284 283/283
f  283/283 284/284 286/286 285/285
f  285/285 286/286 288/288 287/287
f  287/287 288/288 290/290 289/289
f  289/289 290/290 292/292 291/291
f  291/291 292/292 294/294 293/293
f  293/293 294/294 296/296 295/295
f  295/295 296/296 298/298 297/297
f  297/297 298/298 300/300 299/299
f  299/299 300/300 302/302 301/301
f  301/301 302/302 304/304 303/303
f  303/303 304/304 306/306 305/305
f  305/305 306/306 308/308 307/307
f  307/307 308/308 310/310 309/309
f  309/309 310/310 312/312 311/311
f  311/311 312/312 314/314 313/313
f  313/313 314/314 316/316 315/315
f  315/315 316/316 318/318 317/317
f  317/317 318/318 320/320 319/319
f  319/319 320/320 322/322 321/321
f  321/321 322/322 324/324 323/323
f  323/323 324/324 326/326 325/325
f  325/325 326/326 328/328 327/327
f  327/327 328/328 330/330 329/329
f  329/329 330/330 332/332 331/331
f  331/331 332/332 334/334 333/333
f  333/333 334/334 336/336 335/335
f  335/335 336/336 338/338 337/337
f  337/337 338/338 340/340 339/339
f  339/339 340/340 342/342 341/341
f  341/341 342/342 344/344 343/343
f  343/343 344/344 346/346 345/345
f  345/345 346/346 348/348 347/347
f  347/347 348/348 350/350 349/349
f  349/349 350/350 352/352 351/351
f  351/351 352/352 354/354 353/353
f  353/353 354/354 356/356 355/355
f  355/355 356/356 358/358 357/357
f  357/357 358/358 360/360 359/359
f  359/359 360/360 362/362 361/361
f  361/361 362/362 364/364 363/363
f  363/363 364/364 366/366 365/365
f  365/365 366/366 368/368 367/367
f  367/367 368/368 370/370 369/369
f  369/369 370/370 372/372 371/371
f  371/371 372/372 374/374 373/373
f  373/373 374/374 376/376 375/375
f  375/375 376/376 378/378 377/377
f  377/377 378/378 380/380 379/379
f  379/379 380/380 382/382 381/381
f  381/381 382/382 384/384 383/383
f  383/383 384/384 386/386 385/385
f  385/385 386/386 388/388 387/387
f  387/387 388/388 390/390 389/389
f  389/389 390/390 392/392 391/391
f  391/391 392/392 394/394 393/393
f  393/393 394/394 396/396 395/395
f  395/395 396/396 398/398 397/397
f  397/397 398/398 400/400 399/399
f  399/399 400/400 402/402 401/401
f  401/401 402/402 404/404 403/403
f  403/403 404/404 406/406 405/405
f  405/405 406/406 408/408 407/407
f  407/407 408/408 410/410 409/409
f  409/409 410/410 412/412 411/411
f  411/411 412/412 414/414 413/413
f  413/413 414/414 416/416 415/415
f  415/415 416/416 418/418 417/417
f  417/417 418/418 420/420 419/419
f  419/419 420/420 422/422 421/421
f  421/421 422/422 424/424 423/423
f  423/423 424/424 426/426 425/425
f  425/425 426/426 428/428 427/427
f  427/427 428/428 430/430 429/429
f  429/429 430/430 432/432 431/431
g g2
s 2
g g3
s 3
g g4
s 4
