# Shape file for lane 8
v -100.000 -9.000 -5.000
vt 0.000 0.000
v -100.000 -35.000 -5.000
vt 1.000 0.000
v 50.000 -9.000 -5.000
vt 0.000 5.000
v 50.000 -35.000 -5.000
vt 1.000 5.000
v 55.045 -8.987 -5.000
vt 0.000 5.167
v 55.175 -34.987 -5.000
vt 1.000 5.167
v 60.090 -8.950 -5.000
vt 0.000 5.333
v 60.350 -34.948 -5.000
vt 1.000 5.333
v 65.134 -8.886 -5.000
vt 0.000 5.500
v 65.524 -34.884 -5.000
vt 1.000 5.500
v 70.179 -8.798 -5.000
vt 0.000 5.667
v 70.699 -34.793 -5.000
vt 1.000 5.667
v 75.222 -8.685 -5.000
vt 0.000 5.833
v 75.872 -34.677 -5.000
vt 1.000 5.833
v 80.265 -8.546 -5.000
vt 0.000 6.000
v 81.045 -34.534 -5.000
vt 1.000 6.000
v 85.308 -8.382 -5.000
vt 0.000 6.167
v 86.218 -34.366 -5.000
vt 1.000 6.167
v 90.349 -8.193 -5.000
vt 0.000 6.333
v 91.389 -34.172 -5.000
vt 1.000 6.333
v 95.390 -7.979 -5.000
vt 0.000 6.500
v 96.559 -33.952 -5.000
vt 1.000 6.500
v 100.429 -7.739 -5.000
vt 0.000 6.667
v 101.728 -33.707 -5.000
vt 1.000 6.667
v 105.467 -7.474 -5.000
vt 0.000 6.833
v 106.896 -33.435 -5.000
vt 1.000 6.833
v 110.504 -7.184 -5.000
vt 0.000 7.000
v 112.063 -33.138 -5.000
vt 1.000 7.000
v 115.539 -6.869 -5.000
vt 0.000 7.167
v 117.228 -32.814 -5.000
vt 1.000 7.167
v 120.572 -6.529 -5.000
vt 0.000 7.333
v 122.391 -32.465 -5.000
vt 1.000 7.333
v 125.604 -6.164 -5.000
vt 0.000 7.500
v 127.552 -32.090 -5.000
vt 1.000 7.500
v 130.634 -5.773 -5.000
vt 0.000 7.667
v 132.712 -31.690 -5.000
vt 1.000 7.667
v 135.662 -5.357 -5.000
vt 0.000 7.833
v 137.869 -31.263 -5.000
vt 1.000 7.833
v 140.687 -4.916 -5.000
vt 0.000 8.000
v 143.024 -30.811 -5.000
vt 1.000 8.000
v 145.711 -4.450 -5.000
vt 0.000 8.167
v 148.177 -30.333 -5.000
vt 1.000 8.167
v 150.732 -3.959 -5.000
vt 0.000 8.333
v 153.328 -29.829 -5.000
vt 1.000 8.333
v 155.750 -3.443 -5.000
vt 0.000 8.500
v 158.475 -29.300 -5.000
vt 1.000 8.500
v 160.766 -2.902 -5.000
vt 0.000 8.667
v 163.621 -28.745 -5.000
vt 1.000 8.667
v 165.779 -2.335 -5.000
vt 0.000 8.833
v 168.763 -28.164 -5.000
vt 1.000 8.833
v 170.790 -1.744 -5.000
vt 0.000 9.000
v 173.902 -27.557 -5.000
vt 1.000 9.000
v 175.797 -1.127 -5.000
vt 0.000 9.167
v 179.038 -26.925 -5.000
vt 1.000 9.167
v 180.801 -0.486 -5.000
vt 0.000 9.333
v 184.171 -26.267 -5.000
vt 1.000 9.333
v 185.802 0.181 -5.000
vt 0.000 9.500
v 189.301 -25.583 -5.000
vt 1.000 9.500
v 190.799 0.872 -5.000
vt 0.000 9.667
v 194.427 -24.874 -5.000
vt 1.000 9.667
v 195.793 1.589 -5.000
vt 0.000 9.833
v 199.550 -24.139 -5.000
vt 1.000 9.833
v 200.783 2.330 -5.000
vt 0.000 10.000
v 204.668 -23.378 -5.000
vt 1.000 10.000
v 205.770 3.096 -4.998
vt 0.000 10.167
v 209.783 -22.592 -4.998
vt 1.000 10.167
v 210.752 3.888 -4.993
vt 0.000 10.333
v 214.894 -21.780 -4.993
vt 1.000 10.333
v 215.731 4.704 -4.985
vt 0.000 10.500
v 220.001 -20.943 -4.985
vt 1.000 10.500
v 220.705 5.545 -4.973
vt 0.000 10.667
v 225.104 -20.080 -4.973
vt 1.000 10.667
v 225.675 6.411 -4.957
vt 0.000 10.833
v 230.202 -19.192 -4.957
vt 1.000 10.833
v 230.641 7.302 -4.938
vt 0.000 11.000
v 235.296 -18.278 -4.938
vt 1.000 11.000
v 235.602 8.217 -4.916
vt 0.000 11.167
v 240.385 -17.339 -4.916
vt 1.000 11.167
v 240.559 9.158 -4.891
vt 0.000 11.333
v 245.469 -16.374 -4.891
vt 1.000 11.333
v 245.510 10.123 -4.862
vt 0.000 11.500
v 250.548 -15.384 -4.862
vt 1.000 11.500
v 250.457 11.113 -4.830
vt 0.000 11.667
v 255.623 -14.369 -4.830
vt 1.000 11.667
v 255.399 12.127 -4.794
vt 0.000 11.833
v 260.692 -13.328 -4.794
vt 1.000 11.833
v 260.336 13.167 -4.755
vt 0.000 12.000
v 265.756 -12.262 -4.755
vt 1.000 12.000
v 265.268 14.231 -4.713
vt 0.000 12.167
v 270.815 -11.171 -4.713
vt 1.000 12.167
v 270.194 15.319 -4.668
vt 0.000 12.333
v 275.868 -10.054 -4.668
vt 1.000 12.333
v 275.114 16.433 -4.619
vt 0.000 12.500
v 280.915 -8.912 -4.619
vt 1.000 12.500
v 280.029 17.571 -4.568
vt 0.000 12.667
v 285.957 -7.745 -4.568
vt 1.000 12.667
v 284.939 18.733 -4.513
vt 0.000 12.833
v 290.992 -6.552 -4.513
vt 1.000 12.833
v 289.842 19.920 -4.455
vt 0.000 13.000
v 296.022 -5.335 -4.455
vt 1.000 13.000
v 294.739 21.131 -4.394
vt 0.000 13.167
v 301.046 -4.092 -4.394
vt 1.000 13.167
v 299.631 22.367 -4.330
vt 0.000 13.333
v 306.063 -2.824 -4.330
vt 1.000 13.333
v 304.516 23.628 -4.263
vt 0.000 13.500
v 311.074 -1.532 -4.263
vt 1.000 13.500
v 309.394 24.913 -4.193
vt 0.000 13.667
v 316.078 -0.214 -4.193
vt 1.000 13.667
v 314.266 26.222 -4.121
vt 0.000 13.833
v 321.076 1.129 -4.121
vt 1.000 13.833
v 319.132 27.555 -4.045
vt 0.000 14.000
v 326.067 2.497 -4.045
vt 1.000 14.000
v 323.991 28.913 -3.967
vt 0.000 14.167
v 331.051 3.890 -3.967
vt 1.000 14.167
v 328.843 30.295 -3.886
vt 0.000 14.333
v 336.028 5.308 -3.886
vt 1.000 14.333
v 333.688 31.701 -3.802
vt 0.000 14.500
v 340.998 6.750 -3.802
vt 1.000 14.500
v 338.526 33.132 -3.716
vt 0.000 14.667
v 345.961 8.218 -3.716
vt 1.000 14.667
v 343.357 34.587 -3.627
vt 0.000 14.833
v 350.916 9.710 -3.627
vt 1.000 14.833
v 348.180 36.065 -3.535
vt 0.000 15.000
v 355.863 11.227 -3.535
vt 1.000 15.000
v 352.996 37.568 -3.442
vt 0.000 15.167
v 360.803 12.768 -3.442
vt 1.000 15.167
v 357.804 39.095 -3.346
vt 0.000 15.333
v 365.736 14.335 -3.346
vt 1.000 15.333
v 362.605 40.646 -3.247
vt 0.000 15.500
v 370.660 15.926 -3.247
vt 1.000 15.500
v 367.398 42.221 -3.147
vt 0.000 15.667
v 375.576 17.541 -3.147
vt 1.000 15.667
v 372.183 43.820 -3.044
vt 0.000 15.833
v 380.485 19.181 -3.044
vt 1.000 15.833
v 376.959 45.443 -2.939
vt 0.000 16.000
v 385.385 20.846 -2.939
vt 1.000 16.000
v 381.728 47.090 -2.832
vt 0.000 16.167
v 390.276 22.535 -2.832
vt 1.000 16.167
v 386.488 48.761 -2.723
vt 0.000 16.333
v 395.159 24.249 -2.723
vt 1.000 16.333
v 391.240 50.455 -2.612
vt 0.000 16.500
v 400.034 25.987 -2.612
vt 1.000 16.500
v 395.984 52.173 -2.500
vt 0.000 16.667
v 404.899 27.749 -2.500
vt 1.000 16.667
v 400.719 53.915 -2.386
vt 0.000 16.833
v 409.756 29.536 -2.386
vt 1.000 16.833
v 405.445 55.680 -2.270
vt 0.000 17.000
v 414.604 31.347 -2.270
vt 1.000 17.000
v 410.162 57.469 -2.153
vt 0.000 17.167
v 419.443 33.182 -2.153
vt 1.000 17.167
v 414.870 59.282 -2.034
vt 0.000 17.333
v 424.272 35.041 -2.034
vt 1.000 17.333
v 419.569 61.118 -1.913
vt 0.000 17.500
v 429.092 36.925 -1.913
vt 1.000 17.500
v 424.259 62.977 -1.792
vt 0.000 17.667
v 433.903 38.832 -1.792
vt 1.000 17.667
v 428.939 64.860 -1.669
vt 0.000 17.833
v 438.704 40.764 -1.669
vt 1.000 17.833
v 433.610 66.767 -1.545
vt 0.000 18.000
v 443.495 42.719 -1.545
vt 1.000 18.000
v 438.271 68.696 -1.420
vt 0.000 18.167
v 448.276 44.699 -1.420
vt 1.000 18.167
v 442.923 70.649 -1.294
vt 0.000 18.333
v 453.048 46.702 -1.294
vt 1.000 18.333
v 447.565 72.626 -1.167
vt 0.000 18.500
v 457.809 48.729 -1.167
vt 1.000 18.500
v 452.197 74.625 -1.040
vt 0.000 18.667
v 462.561 50.780 -1.040
vt 1.000 18.667
v 456.819 76.648 -0.911
vt 0.000 18.833
v 467.302 52.855 -0.911
vt 1.000 18.833
v 461.430 78.693 -0.782
vt 0.000 19.000
v 472.032 54.953 -0.782
vt 1.000 19.000
v 466.032 80.762 -0.653
vt 0.000 19.167
v 476.752 57.075 -0.653
vt 1.000 19.167
v 470.623 82.854 -0.523
vt 0.000 19.333
v 481.461 59.220 -0.523
vt 1.000 19.333
v 475.203 84.968 -0.392
vt 0.000 19.500
v 486.160 61.390 -0.392
vt 1.000 19.500
v 479.773 87.106 -0.262
vt 0.000 19.667
v 490.847 63.582 -0.262
vt 1.000 19.667
v 484.332 89.266 -0.131
vt 0.000 19.833
v 495.524 65.798 -0.131
vt 1.000 19.833
v 488.880 91.449 -0.000
vt 0.000 20.000
v 500.189 68.037 -0.000
vt 1.000 20.000
v 493.417 93.655 0.131
vt 0.000 20.167
v 504.843 70.300 0.131
vt 1.000 20.167
v 497.944 95.883 0.262
vt 0.000 20.333
v 509.486 72.586 0.262
vt 1.000 20.333
v 502.459 98.134 0.392
vt 0.000 20.500
v 514.118 74.895 0.392
vt 1.000 20.500
v 506.962 100.408 0.523
vt 0.000 20.667
v 518.737 77.227 0.523
vt 1.000 20.667
v 511.454 102.704 0.653
vt 0.000 20.833
v 523.345 79.582 0.653
vt 1.000 20.833
v 515.935 105.022 0.782
vt 0.000 21.000
v 527.941 81.960 0.782
vt 1.000 21.000
v 520.404 107.363 0.911
vt 0.000 21.167
v 532.526 84.361 0.911
vt 1.000 21.167
v 524.862 109.726 1.040
vt 0.000 21.333
v 537.098 86.785 1.040
vt 1.000 21.333
v 529.307 112.112 1.167
vt 0.000 21.500
v 541.658 89.232 1.167
vt 1.000 21.500
v 533.740 114.519 1.294
vt 0.000 21.667
v 546.205 91.702 1.294
vt 1.000 21.667
v 538.162 116.949 1.420
vt 0.000 21.833
v 550.741 94.194 1.420
vt 1.000 21.833
v 542.571 119.401 1.545
vt 0.000 22.000
v 555.263 96.709 1.545
vt 1.000 22.000
v 546.968 121.875 1.669
vt 0.000 22.167
v 559.774 99.247 1.669
vt 1.000 22.167
v 551.352 124.370 1.792
vt 0.000 22.333
v 564.271 101.807 1.792
vt 1.000 22.333
v 555.724 126.888 1.913
vt 0.000 22.500
v 568.755 104.390 1.913
vt 1.000 22.500
v 560.083 129.428 2.034
vt 0.000 22.667
v 573.227 106.995 2.034
vt 1.000 22.667
v 564.430 131.989 2.153
vt 0.000 22.833
v 577.685 109.622 2.153
vt 1.000 22.833
v 568.763 134.572 2.270
vt 0.000 23.000
v 582.131 112.272 2.270
vt 1.000 23.000
v 573.084 137.177 2.386
vt 0.000 23.167
v 586.563 114.943 2.386
vt 1.000 23.167
v 577.391 139.803 2.500
vt 0.000 23.333
v 590.981 117.637 2.500
vt 1.000 23.333
v 581.686 142.450 2.612
vt 0.000 23.500
v 595.386 120.353 2.612
vt 1.000 23.500
v 585.967 145.120 2.723
vt 0.000 23.667
v 599.778 123.091 2.723
vt 1.000 23.667
v 590.235 147.810 2.832
vt 0.000 23.833
v 604.155 125.851 2.832
vt 1.000 23.833
v 594.489 150.522 2.939
vt 0.000 24.000
v 608.519 128.632 2.939
vt 1.000 24.000
v 598.729 153.255 3.044
vt 0.000 24.167
v 612.869 131.436 3.044
vt 1.000 24.167
v 602.956 156.009 3.147
vt 0.000 24.333
v 617.205 134.261 3.147
vt 1.000 24.333
v 607.169 158.785 3.247
vt 0.000 24.500
v 621.526 137.108 3.247
vt 1.000 24.500
v 611.368 161.581 3.346
vt 0.000 24.667
v 625.834 139.976 3.346
vt 1.000 24.667
v 615.553 164.398 3.442
vt 0.000 24.833
v 630.127 142.866 3.442
vt 1.000 24.833
v 619.724 167.236 3.535
vt 0.000 25.000
v 634.405 145.778 3.535
vt 1.000 25.000
v 623.881 170.095 3.627
vt 0.000 25.167
v 638.669 148.710 3.627
vt 1.000 25.167
v 628.023 172.975 3.716
vt 0.000 25.333
v 642.918 151.664 3.716
vt 1.000 25.333
v 632.151 175.876 3.802
vt 0.000 25.500
v 647.152 154.639 3.802
vt 1.000 25.500
v 636.264 178.797 3.886
vt 0.000 25.667
v 651.371 157.636 3.886
vt 1.000 25.667
v 640.363 181.738 3.967
vt 0.000 25.833
v 655.576 160.653 3.967
vt 1.000 25.833
v 644.447 184.700 4.045
vt 0.000 26.000
v 659.765 163.692 4.045
vt 1.000 26.000
v 648.516 187.683 4.121
vt 0.000 26.167
v 663.939 166.751 4.121
vt 1.000 26.167
v 652.570 190.685 4.193
vt 0.000 26.333
v 668.097 169.831 4.193
vt 1.000 26.333
v 656.609 193.708 4.263
vt 0.000 26.500
v 672.240 172.932 4.263
vt 1.000 26.500
v 660.633 196.751 4.330
vt 0.000 26.667
v 676.368 176.053 4.330
vt 1.000 26.667
v 664.642 199.815 4.394
vt 0.000 26.833
v 680.480 179.195 4.394
vt 1.000 26.833
v 668.635 202.898 4.455
vt 0.000 27.000
v 684.576 182.358 4.455
vt 1.000 27.000
v 672.613 206.001 4.513
vt 0.000 27.167
v 688.656 185.541 4.513
vt 1.000 27.167
v 676.575 209.124 4.568
vt 0.000 27.333
v 692.720 188.745 4.568
vt 1.000 27.333
v 680.521 212.267 4.619
vt 0.000 27.500
v 696.769 191.968 4.619
vt 1.000 27.500
v 684.452 215.429 4.668
vt 0.000 27.667
v 700.801 195.212 4.668
vt 1.000 27.667
v 688.367 218.611 4.713
vt 0.000 27.833
v 704.817 198.476 4.713
vt 1.000 27.833
v 692.266 221.813 4.755
vt 0.000 28.000
v 708.816 201.760 4.755
vt 1.000 28.000
v 696.149 225.034 4.794
vt 0.000 28.167
v 712.799 205.064 4.794
vt 1.000 28.167
v 700.016 228.274 4.830
vt 0.000 28.333
v 716.765 208.388 4.830
vt 1.000 28.333
v 703.866 231.534 4.862
vt 0.000 28.500
v 720.715 211.732 4.862
vt 1.000 28.500
v 707.700 234.813 4.891
vt 0.000 28.667
v 724.648 215.095 4.891
vt 1.000 28.667
v 711.518 238.111 4.916
vt 0.000 28.833
v 728.564 218.478 4.916
vt 1.000 28.833
v 715.319 241.428 4.938
vt 0.000 29.000
v 732.463 221.881 4.938
vt 1.000 29.000
v 719.104 244.764 4.957
vt 0.000 29.167
v 736.345 225.303 4.957
vt 1.000 29.167
v 722.871 248.119 4.973
vt 0.000 29.333
v 740.210 228.744 4.973
vt 1.000 29.333
v 726.622 251.493 4.985
vt 0.000 29.500
v 744.058 232.205 4.985
vt 1.000 29.500
v 730.357 254.885 4.993
vt 0.000 29.667
v 747.888 235.685 4.993
vt 1.000 29.667
v 734.074 258.296 4.998
vt 0.000 29.833
v 751.701 239.184 4.998
vt 1.000 29.833
v 737.774 261.726 5.000
vt 0.000 30.000
v 755.496 242.702 5.000
vt 1.000 30.000
v 741.456 265.174 4.998
vt 0.000 30.167
v 759.274 246.239 4.998
vt 1.000 30.167
v 745.122 268.640 4.993
vt 0.000 30.333
v 763.034 249.795 4.993
vt 1.000 30.333
v 748.770 272.125 4.985
vt 0.000 30.500
v 766.776 253.369 4.985
vt 1.000 30.500
v 752.400 275.628 4.973
vt 0.000 30.667
v 770.500 256.962 4.973
vt 1.000 30.667
v 756.014 279.149 4.957
vt 0.000 30.833
v 774.206 260.574 4.957
vt 1.000 30.833
v 759.609 282.688 4.938
vt 0.000 31.000
v 777.894 264.204 4.938
vt 1.000 31.000
v 763.187 286.245 4.916
vt 0.000 31.167
v 781.564 267.853 4.916
vt 1.000 31.167
v 766.746 289.820 4.891
vt 0.000 31.333
v 785.216 271.520 4.891
vt 1.000 31.333
v 770.288 293.413 4.862
vt 0.000 31.500
v 788.849 275.205 4.862
vt 1.000 31.500
v 773.812 297.023 4.830
vt 0.000 31.667
v 792.464 278.909 4.830
vt 1.000 31.667
v 777.296 300.610 4.794
vt 0.000 31.833
v 795.947 282.495 4.794
vt 1.000 31.833
v 780.779 304.196 4.755
vt 0.000 32.000
v 799.431 286.082 4.755
vt 1.000 32.000
v 784.263 307.783 4.713
vt 0.000 32.167
v 802.914 289.669 4.713
vt 1.000 32.167
v 787.746 311.370 4.668
vt 0.000 32.333
v 806.398 293.256 4.668
vt 1.000 32.333
v 791.230 314.957 4.619
vt 0.000 32.500
v 809.881 296.842 4.619
vt 1.000 32.500
v 794.713 318.544 4.568
vt 0.000 32.667
v 813.365 300.429 4.568
vt 1.000 32.667
v 798.197 322.130 4.513
vt 0.000 32.833
v 816.848 304.016 4.513
vt 1.000 32.833
v 801.681 325.717 4.455
vt 0.000 33.000
v 820.332 307.603 4.455
vt 1.000 33.000
v 805.164 329.304 4.394
vt 0.000 33.167
v 823.815 311.190 4.394
vt 1.000 33.167
v 808.648 332.891 4.330
vt 0.000 33.333
v 827.299 314.776 4.330
vt 1.000 33.333
v 812.131 336.478 4.263
vt 0.000 33.500
v 830.782 318.363 4.263
vt 1.000 33.500
v 815.615 340.064 4.193
vt 0.000 33.667
v 834.266 321.950 4.193
vt 1.000 33.667
v 819.098 343.651 4.121
vt 0.000 33.833
v 837.749 325.537 4.121
vt 1.000 33.833
v 822.582 347.238 4.045
vt 0.000 34.000
v 841.233 329.123 4.045
vt 1.000 34.000
v 826.065 350.825 3.967
vt 0.000 34.167
v 844.717 332.710 3.967
vt 1.000 34.167
v 829.549 354.411 3.886
vt 0.000 34.333
v 848.200 336.297 3.886
vt 1.000 34.333
v 833.032 357.998 3.802
vt 0.000 34.500
v 851.684 339.884 3.802
vt 1.000 34.500
v 836.516 361.585 3.716
vt 0.000 34.667
v 855.167 343.471 3.716
vt 1.000 34.667
v 839.999 365.172 3.627
vt 0.000 34.833
v 858.651 347.057 3.627
vt 1.000 34.833
v 843.483 368.759 3.535
vt 0.000 35.000
v 862.134 350.644 3.535
vt 1.000 35.000
v 846.966 372.345 3.442
vt 0.000 35.167
v 865.618 354.231 3.442
vt 1.000 35.167
v 850.450 375.932 3.346
vt 0.000 35.333
v 869.101 357.818 3.346
vt 1.000 35.333
v 853.934 379.519 3.247
vt 0.000 35.500
v 872.585 361.405 3.247
vt 1.000 35.500
v 857.417 383.106 3.147
vt 0.000 35.667
v 876.068 364.991 3.147
vt 1.000 35.667
v 860.901 386.692 3.044
vt 0.000 35.833
v 879.552 368.578 3.044
vt 1.000 35.833
v 864.384 390.279 2.939
vt 0.000 36.000
v 883.035 372.165 2.939
vt 1.000 36.000
v 867.868 393.866 2.832
vt 0.000 36.167
v 886.519 375.752 2.832
vt 1.000 36.167
v 871.351 397.453 2.723
vt 0.000 36.333
v 890.002 379.338 2.723
vt 1.000 36.333
v 874.835 401.040 2.612
vt 0.000 36.500
v 893.486 382.925 2.612
vt 1.000 36.500
v 878.318 404.626 2.500
vt 0.000 36.667
v 896.970 386.512 2.500
vt 1.000 36.667
v 881.802 408.213 2.386
vt 0.000 36.833
v 900.453 390.099 2.386
vt 1.000 36.833
v 885.285 411.800 2.270
vt 0.000 37.000
v 903.937 393.686 2.270
vt 1.000 37.000
v 888.769 415.387 2.153
vt 0.000 37.167
v 907.420 397.272 2.153
vt 1.000 37.167
v 892.252 418.973 2.034
vt 0.000 37.333
v 910.904 400.859 2.034
vt 1.000 37.333
v 895.736 422.560 1.913
vt 0.000 37.500
v 914.387 404.446 1.913
vt 1.000 37.500
v 899.220 426.147 1.792
vt 0.000 37.667
v 917.871 408.033 1.792
vt 1.000 37.667
v 902.703 429.734 1.669
vt 0.000 37.833
v 921.354 411.619 1.669
vt 1.000 37.833
v 906.187 433.321 1.545
vt 0.000 38.000
v 924.838 415.206 1.545
vt 1.000 38.000
v 913.154 440.494 1.294
vt 0.000 38.333
v 931.805 422.380 1.294
vt 1.000 38.333
v 920.121 447.668 1.040
vt 0.000 38.667
v 938.772 429.553 1.040
vt 1.000 38.667
v 927.088 454.841 0.782
vt 0.000 39.000
v 945.739 436.727 0.782
vt 1.000 39.000
v 934.055 462.015 0.523
vt 0.000 39.333
v 952.706 443.900 0.523
vt 1.000 39.333
v 944.505 472.775 0.131
vt 0.000 39.833
v 963.157 454.661 0.131
vt 1.000 39.833
v 961.923 490.709 -0.523
vt 0.000 40.667
v 980.574 472.595 -0.523
vt 1.000 40.667
v 968.890 497.883 -0.782
vt 0.000 41.000
v 987.541 479.768 -0.782
vt 1.000 41.000
v 975.857 505.056 -1.040
vt 0.000 41.333
v 994.508 486.942 -1.040
vt 1.000 41.333
v 982.824 512.230 -1.294
vt 0.000 41.667
v 1001.476 494.115 -1.294
vt 1.000 41.667
v 989.791 519.403 -1.545
vt 0.000 42.000
v 1008.443 501.289 -1.545
vt 1.000 42.000
v 993.275 522.990 -1.669
vt 0.000 42.167
v 1011.926 504.876 -1.669
vt 1.000 42.167
v 996.758 526.577 -1.792
vt 0.000 42.333
v 1015.410 508.463 -1.792
vt 1.000 42.333
v 1000.242 530.164 -1.913
vt 0.000 42.500
v 1018.893 512.049 -1.913
vt 1.000 42.500
v 1003.726 533.750 -2.034
vt 0.000 42.667
v 1022.377 515.636 -2.034
vt 1.000 42.667
v 1007.209 537.337 -2.153
vt 0.000 42.833
v 1025.860 519.223 -2.153
vt 1.000 42.833
v 1010.693 540.924 -2.270
vt 0.000 43.000
v 1029.344 522.810 -2.270
vt 1.000 43.000
v 1014.176 544.511 -2.386
vt 0.000 43.167
v 1032.827 526.396 -2.386
vt 1.000 43.167
v 1017.660 548.098 -2.500
vt 0.000 43.333
v 1036.311 529.983 -2.500
vt 1.000 43.333
v 1021.143 551.684 -2.612
vt 0.000 43.500
v 1039.794 533.570 -2.612
vt 1.000 43.500
v 1024.627 555.271 -2.723
vt 0.000 43.667
v 1043.278 537.157 -2.723
vt 1.000 43.667
v 1028.110 558.858 -2.832
vt 0.000 43.833
v 1046.762 540.744 -2.832
vt 1.000 43.833
v 1031.594 562.445 -2.939
vt 0.000 44.000
v 1050.245 544.330 -2.939
vt 1.000 44.000
v 1035.077 566.031 -3.044
vt 0.000 44.167
v 1053.729 547.917 -3.044
vt 1.000 44.167
v 1038.561 569.618 -3.147
vt 0.000 44.333
v 1057.212 551.504 -3.147
vt 1.000 44.333
v 1042.044 573.205 -3.247
vt 0.000 44.500
v 1060.696 555.091 -3.247
vt 1.000 44.500
v 1045.528 576.792 -3.346
vt 0.000 44.667
v 1064.179 558.677 -3.346
vt 1.000 44.667
v 1049.011 580.379 -3.442
vt 0.000 44.833
v 1067.663 562.264 -3.442
vt 1.000 44.833
v 1052.495 583.965 -3.535
vt 0.000 45.000
v 1071.146 565.851 -3.535
vt 1.000 45.000
v 1055.979 587.552 -3.627
vt 0.000 45.167
v 1074.630 569.438 -3.627
vt 1.000 45.167
v 1059.462 591.139 -3.716
vt 0.000 45.333
v 1078.113 573.025 -3.716
vt 1.000 45.333
v 1062.946 594.726 -3.802
vt 0.000 45.500
v 1081.597 576.611 -3.802
vt 1.000 45.500
v 1066.429 598.312 -3.886
vt 0.000 45.667
v 1085.080 580.198 -3.886
vt 1.000 45.667
v 1069.913 601.899 -3.967
vt 0.000 45.833
v 1088.564 583.785 -3.967
vt 1.000 45.833
v 1073.396 605.486 -4.045
vt 0.000 46.000
v 1092.047 587.372 -4.045
vt 1.000 46.000
v 1076.880 609.073 -4.121
vt 0.000 46.167
v 1095.531 590.958 -4.121
vt 1.000 46.167
v 1080.363 612.660 -4.193
vt 0.000 46.333
v 1099.015 594.545 -4.193
vt 1.000 46.333
v 1083.847 616.246 -4.263
vt 0.000 46.500
v 1102.498 598.132 -4.263
vt 1.000 46.500
v 1087.330 619.833 -4.330
vt 0.000 46.667
v 1105.982 601.719 -4.330
vt 1.000 46.667
v 1090.814 623.420 -4.394
vt 0.000 46.833
v 1109.465 605.306 -4.394
vt 1.000 46.833
v 1094.297 627.007 -4.455
vt 0.000 47.000
v 1112.949 608.892 -4.455
vt 1.000 47.000
v 1097.781 630.594 -4.513
vt 0.000 47.167
v 1116.432 612.479 -4.513
vt 1.000 47.167
v 1101.264 634.180 -4.568
vt 0.000 47.333
v 1119.916 616.066 -4.568
vt 1.000 47.333
v 1104.748 637.767 -4.619
vt 0.000 47.500
v 1123.399 619.653 -4.619
vt 1.000 47.500
v 1108.232 641.354 -4.668
vt 0.000 47.667
v 1126.883 623.239 -4.668
vt 1.000 47.667
v 1111.715 644.941 -4.713
vt 0.000 47.833
v 1130.366 626.826 -4.713
vt 1.000 47.833
v 1115.199 648.527 -4.755
vt 0.000 48.000
v 1133.850 630.413 -4.755
vt 1.000 48.000
v 1118.682 652.114 -4.794
vt 0.000 48.167
v 1137.333 634.000 -4.794
vt 1.000 48.167
v 1122.166 655.701 -4.830
vt 0.000 48.333
v 1140.817 637.587 -4.830
vt 1.000 48.333
v 1125.649 659.288 -4.862
vt 0.000 48.500
v 1144.300 641.173 -4.862
vt 1.000 48.500
v 1129.133 662.875 -4.891
vt 0.000 48.667
v 1147.784 644.760 -4.891
vt 1.000 48.667
v 1132.616 666.461 -4.916
vt 0.000 48.833
v 1151.268 648.347 -4.916
vt 1.000 48.833
v 1136.100 670.048 -4.938
vt 0.000 49.000
v 1154.751 651.934 -4.938
vt 1.000 49.000
v 1139.583 673.635 -4.957
vt 0.000 49.167
v 1158.235 655.521 -4.957
vt 1.000 49.167
v 1143.067 677.222 -4.973
vt 0.000 49.333
v 1161.718 659.107 -4.973
vt 1.000 49.333
v 1146.550 680.808 -4.985
vt 0.000 49.500
v 1165.202 662.694 -4.985
vt 1.000 49.500
v 1150.034 684.395 -4.993
vt 0.000 49.667
v 1168.685 666.281 -4.993
vt 1.000 49.667
v 1153.517 687.982 -4.998
vt 0.000 49.833
v 1172.169 669.868 -4.998
vt 1.000 49.833
v 1157.001 691.569 -5.000
vt 0.000 50.000
v 1175.652 673.454 -5.000
vt 1.000 50.000
v 1575.025 1121.982 -5.000
vt 0.000 70.000
v 1593.676 1103.868 -5.000
vt 1.000 70.000
mtllib Roads\3D_Road\Road_63b804b3-ef93-4518-9d84-9c807f03fd6c_8.mtl
usemtl Grass (Light)
g g1
s 1
f  1/1 2/2 4/4 3/3
f  3/3 4/4 6/6 5/5
f  5/5 6/6 8/8 7/7
f  7/7 8/8 10/10 9/9
f  9/9 10/10 12/12 11/11
f  11/11 12/12 14/14 13/13
f  13/13 14/14 16/16 15/15
f  15/15 16/16 18/18 17/17
f  17/17 18/18 20/20 19/19
f  19/19 20/20 22/22 21/21
f  21/21 22/22 24/24 23/23
f  23/23 24/24 26/26 25/25
f  25/25 26/26 28/28 27/27
f  27/27 28/28 30/30 29/29
f  29/29 30/30 32/32 31/31
f  31/31 32/32 34/34 33/33
f  33/33 34/34 36/36 35/35
f  35/35 36/36 38/38 37/37
f  37/37 38/38 40/40 39/39
f  39/39 40/40 42/42 41/41
f  41/41 42/42 44/44 43/43
f  43/43 44/44 46/46 45/45
f  45/45 46/46 48/48 47/47
f  47/47 48/48 50/50 49/49
f  49/49 50/50 52/52 51/51
f  51/51 52/52 54/54 53/53
f  53/53 54/54 56/56 55/55
f  55/55 56/56 58/58 57/57
f  57/57 58/58 60/60 59/59
f  59/59 60/60 62/62 61/61
f  61/61 62/62 64/64 63/63
f  63/63 64/64 66/66 65/65
f  65/65 66/66 68/68 67/67
f  67/67 68/68 70/70 69/69
f  69/69 70/70 72/72 71/71
f  71/71 72/72 74/74 73/73
f  73/73 74/74 76/76 75/75
f  75/75 76/76 78/78 77/77
f  77/77 78/78 80/80 79/79
f  79/79 80/80 82/82 81/81
f  81/81 82/82 84/84 83/83
f  83/83 84/84 86/86 85/85
f  85/85 86/86 88/88 87/87
f  87/87 88/88 90/90 89/89
f  89/89 90/90 92/92 91/91
f  91/91 92/92 94/94 93/93
f  93/93 94/94 96/96 95/95
f  95/95 96/96 98/98 97/97
f  97/97 98/98 100/100 99/99
f  99/99 100/100 102/102 101/101
f  101/101 102/102 104/104 103/103
f  103/103 104/104 106/106 105/105
f  105/105 106/106 108/108 107/107
f  107/107 108/108 110/110 109/109
f  109/109 110/110 112/112 111/111
f  111/111 112/112 114/114 113/113
f  113/113 114/114 116/116 115/115
f  115/115 116/116 118/118 117/117
f  117/117 118/118 120/120 119/119
f  119/119 120/120 122/122 121/121
f  121/121 122/122 124/124 123/123
f  123/123 124/124 126/126 125/125
f  125/125 126/126 128/128 127/127
f  127/127 128/128 130/130 129/129
f  129/129 130/130 132/132 131/131
f  131/131 132/132 134/134 133/133
f  133/133 134/134 136/136 135/135
f  135/135 136/136 138/138 137/137
f  137/137 138/138 140/140 139/139
f  139/139 140/140 142/142 141/141
f  141/141 142/142 144/144 143/143
f  143/143 144/144 146/146 145/145
f  145/145 146/146 148/148 147/147
f  147/147 148/148 150/150 149/149
f  149/149 150/150 152/152 151/151
f  151/151 152/152 154/154 153/153
f  153/153 154/154 156/156 155/155
f  155/155 156/156 158/158 157/157
f  157/157 158/158 160/160 159/159
f  159/159 160/160 162/162 161/161
f  161/161 162/162 164/164 163/163
f  163/163 164/164 166/166 165/165
f  165/165 166/166 168/168 167/167
f  167/167 168/168 170/170 169/169
f  169/169 170/170 172/172 171/171
f  171/171 172/172 174/174 173/173
f  173/173 174/174 176/176 175/175
f  175/175 176/176 178/178 177/177
f  177/177 178/178 180/180 179/179
f  179/179 180/180 182/182 181/181
f  181/181 182/182 184/184 183/183
f  183/183 184/184 186/186 185/185
f  185/185 186/186 188/188 187/187
f  187/187 188/188 190/190 189/189
f  189/189 190/190 192/192 191/191
f  191/191 192/192 194/194 193/193
f  193/193 194/194 196/196 195/195
f  195/195 196/196 198/198 197/197
f  197/197 198/198 200/200 199/199
f  199/199 200/200 202/202 201/201
f  201/201 202/202 204/204 203/203
f  203/203 204/204 206/206 205/205
f  205/205 206/206 208/208 207/207
f  207/207 208/208 210/210 209/209
f  209/209 210/210 212/212 211/211
f  211/211 212/212 214/214 213/213
f  213/213 214/214 216/216 215/215
f  215/215 216/216 218/218 217/217
f  217/217 218/218 220/220 219/219
f  219/219 220/220 222/222 221/221
f  221/221 222/222 224/224 223/223
f  223/223 224/224 226/226 225/225
f  225/225 226/226 228/228 227/227
f  227/227 228/228 230/230 229/229
f  229/229 230/230 232/232 231/231
f  231/231 232/232 234/234 233/233
f  233/233 234/234 236/236 235/235
f  235/235 236/236 238/238 237/237
f  237/237 238/238 240/240 239/239
f  239/239 240/240 242/242 241/241
f  241/241 242/242 244/244 243/243
f  243/243 244/244 246/246 245/245
f  245/245 246/246 248/248 247/247
f  247/247 248/248 250/250 249/249
f  249/249 250/250 252/252 251/251
f  251/251 252/252 254/254 253/253
f  253/253 254/254 256/256 255/255
f  255/255 256/256 258/258 257/257
f  257/257 258/258 260/260 259/259
f  259/259 260/260 262/262 261/261
f  261/261 262/262 264/264 263/263
f  263/263 264/264 266/266 265/265
f  265/265 266/266 268/268 267/267
f  267/267 268/268 270/270 269/269
f  269/269 270/270 272/272 271/271
f  271/271 272/272 274/274 273/273
f  273/273 274/274 276/276 275/275
f  275/275 276/276 278/278 277/277
f  277/277 278/278 280/280 279/279
f  279/279 280/280 282/282 281/281
f  281/281 282/282 284/284 283/283
f  283/283 284/284 286/286 285/285
f  285/285 286/286 288/288 287/287
f  287/287 288/288 290/290 289/289
f  289/289 290/290 292/292 291/291
f  291/291 292/292 294/294 293/293
f  293/293 294/294 296/296 295/295
f  295/295 296/296 298/298 297/297
f  297/297 298/298 300/300 299/299
f  299/299 300/300 302/302 301/301
f  301/301 302/302 304/304 303/303
f  303/303 304/304 306/306 305/305
f  305/305 306/306 308/308 307/307
f  307/307 308/308 310/310 309/309
f  309/309 310/310 312/312 311/311
f  311/311 312/312 314/314 313/313
f  313/313 314/314 316/316 315/315
f  315/315 316/316 318/318 317/317
f  317/317 318/318 320/320 319/319
f  319/319 320/320 322/322 321/321
f  321/321 322/322 324/324 323/323
f  323/323 324/324 326/326 325/325
f  325/325 326/326 328/328 327/327
f  327/327 328/328 330/330 329/329
f  329/329 330/330 332/332 331/331
f  331/331 332/332 334/334 333/333
f  333/333 334/334 336/336 335/335
f  335/335 336/336 338/338 337/337
f  337/337 338/338 340/340 339/339
f  339/339 340/340 342/342 341/341
f  341/341 342/342 344/344 343/343
f  343/343 344/344 346/346 345/345
f  345/345 346/346 348/348 347/347
f  347/347 348/348 350/350 349/349
f  349/349 350/350 352/352 351/351
f  351/351 352/352 354/354 353/353
f  353/353 354/354 356/356 355/355
f  355/355 356/356 358/358 357/357
f  357/357 358/358 360/360 359/359
f  359/359 360/360 362/362 361/361
f  361/361 362/362 364/364 363/363
f  363/363 364/364 366/366 365/365
f  365/365 366/366 368/368 367/367
f  367/367 368/368 370/370 369/369
f  369/369 370/370 372/372 371/371
f  371/371 372/372 374/374 373/373
f  373/373 374/374 376/376 375/375
f  375/375 376/376 378/378 377/377
f  377/377 378/378 380/380 379/379
f  379/379 380/380 382/382 381/381
f  381/381 382/382 384/384 383/383
f  383/383 384/384 386/386 385/385
f  385/385 386/386 388/388 387/387
f  387/387 388/388 390/390 389/389
f  389/389 390/390 392/392 391/391
f  391/391 392/392 394/394 393/393
f  393/393 394/394 396/396 395/395
f  395/395 396/396 398/398 397/397
f  397/397 398/398 400/400 399/399
f  399/399 400/400 402/402 401/401
f  401/401 402/402 404/404 403/403
f  403/403 404/404 406/406 405/405
f  405/405 406/406 408/408 407/407
f  407/407 408/408 410/410 409/409
f  409/409 410/410 412/412 411/411
f  411/411 412/412 414/414 413/413
f  413/413 414/414 416/416 415/415
f  415/415 416/416 418/418 417/417
f  417/417 418/418 420/420 419/419
f  419/419 420/420 422/422 421/421
f  421/421 422/422 424/424 423/423
f  423/423 424/424 426/426 425/425
f  425/425 426/426 428/428 427/427
f  427/427 428/428 430/430 429/429
f  429/429 430/430 432/432 431/431
f  431/431 432/432 434/434 433/433
f  433/433 434/434 436/436 435/435
f  435/435 436/436 438/438 437/437
f  437/437 438/438 440/440 439/439
f  439/439 440/440 442/442 441/441
f  441/441 442/442 444/444 443/443
f  443/443 444/444 446/446 445/445
f  445/445 446/446 448/448 447/447
f  447/447 448/448 450/450 449/449
f  449/449 450/450 452/452 451/451
f  451/451 452/452 454/454 453/453
f  453/453 454/454 456/456 455/455
f  455/455 456/456 458/458 457/457
f  457/457 458/458 460/460 459/459
f  459/459 460/460 462/462 461/461
f  461/461 462/462 464/464 463/463
f  463/463 464/464 466/466 465/465
f  465/465 466/466 468/468 467/467
f  467/467 468/468 470/470 469/469
f  469/469 470/470 472/472 471/471
f  471/471 472/472 474/474 473/473
f  473/473 474/474 476/476 475/475
f  475/475 476/476 478/478 477/477
f  477/477 478/478 480/480 479/479
f  479/479 480/480 482/482 481/481
f  481/481 482/482 484/484 483/483
f  483/483 484/484 486/486 485/485
f  485/485 486/486 488/488 487/487
f  487/487 488/488 490/490 489/489
f  489/489 490/490 492/492 491/491
f  491/491 492/492 494/494 493/493
f  493/493 494/494 496/496 495/495
f  495/495 496/496 498/498 497/497
f  497/497 498/498 500/500 499/499
f  499/499 500/500 502/502 501/501
f  501/501 502/502 504/504 503/503
f  503/503 504/504 506/506 505/505
f  505/505 506/506 508/508 507/507
f  507/507 508/508 510/510 509/509
f  509/509 510/510 512/512 511/511
f  511/511 512/512 514/514 513/513
f  513/513 514/514 516/516 515/515
f  515/515 516/516 518/518 517/517
g g2
s 2
g g3
s 3
g g4
s 4
