# Shape file for lane 6
v -100.000 9.000 0.020
vt 0.000 0.000
v -100.000 -9.000 0.020
vt 2.000 0.000
v -95.000 9.000 0.020
vt 0.000 0.500
v -95.000 -9.000 0.020
vt 2.000 0.500
v -90.000 9.000 0.020
vt 0.000 1.000
v -90.000 -9.000 0.020
vt 2.000 1.000
v -85.000 9.000 0.020
vt 0.000 1.500
v -85.000 -9.000 0.020
vt 2.000 1.500
v -80.000 9.000 0.020
vt 0.000 2.000
v -80.000 -9.000 0.020
vt 2.000 2.000
v -75.000 9.000 0.020
vt 0.000 2.500
v -75.000 -9.000 0.020
vt 2.000 2.500
v -70.000 9.000 0.020
vt 0.000 3.000
v -70.000 -9.000 0.020
vt 2.000 3.000
v -65.000 9.000 0.020
vt 0.000 3.500
v -65.000 -9.000 0.020
vt 2.000 3.500
v -60.000 9.000 0.020
vt 0.000 4.000
v -60.000 -9.000 0.020
vt 2.000 4.000
v -55.000 9.000 0.020
vt 0.000 4.500
v -55.000 -9.000 0.020
vt 2.000 4.500
v -50.000 9.000 0.020
vt 0.000 5.000
v -50.000 -9.000 0.020
vt 2.000 5.000
v -45.000 9.000 0.020
vt 0.000 5.500
v -45.000 -9.000 0.020
vt 2.000 5.500
v -40.000 9.000 0.020
vt 0.000 6.000
v -40.000 -9.000 0.020
vt 2.000 6.000
v -35.000 9.000 0.020
vt 0.000 6.500
v -35.000 -9.000 0.020
vt 2.000 6.500
v -30.000 9.000 0.020
vt 0.000 7.000
v -30.000 -9.000 0.020
vt 2.000 7.000
v -25.000 9.000 0.020
vt 0.000 7.500
v -25.000 -9.000 0.020
vt 2.000 7.500
v -20.000 9.000 0.020
vt 0.000 8.000
v -20.000 -9.000 0.020
vt 2.000 8.000
v -15.000 9.000 0.020
vt 0.000 8.500
v -15.000 -9.000 0.020
vt 2.000 8.500
v -10.000 9.000 0.020
vt 0.000 9.000
v -10.000 -9.000 0.020
vt 2.000 9.000
v -5.000 9.000 0.020
vt 0.000 9.500
v -5.000 -9.000 0.020
vt 2.000 9.500
v 0.000 9.000 0.020
vt 0.000 10.000
v 0.000 -9.000 0.020
vt 2.000 10.000
v 5.000 9.000 0.020
vt 0.000 10.500
v 5.000 -9.000 0.020
vt 2.000 10.500
v 10.000 9.000 0.020
vt 0.000 11.000
v 10.000 -9.000 0.020
vt 2.000 11.000
v 15.000 9.000 0.020
vt 0.000 11.500
v 15.000 -9.000 0.020
vt 2.000 11.500
v 20.000 9.000 0.020
vt 0.000 12.000
v 20.000 -9.000 0.020
vt 2.000 12.000
v 25.000 9.000 0.020
vt 0.000 12.500
v 25.000 -9.000 0.020
vt 2.000 12.500
v 30.000 9.000 0.020
vt 0.000 13.000
v 30.000 -9.000 0.020
vt 2.000 13.000
v 35.000 9.000 0.020
vt 0.000 13.500
v 35.000 -9.000 0.020
vt 2.000 13.500
v 40.000 9.000 0.020
vt 0.000 14.000
v 40.000 -9.000 0.020
vt 2.000 14.000
v 45.000 9.000 0.020
vt 0.000 14.500
v 45.000 -9.000 0.020
vt 2.000 14.500
v 50.000 9.000 0.020
vt 0.000 15.000
v 50.000 -9.000 0.020
vt 2.000 15.000
v 55.000 9.000 0.020
vt 0.000 15.500
v 55.000 -9.000 0.020
vt 2.000 15.500
v 60.000 9.000 0.020
vt 0.000 16.000
v 60.000 -9.000 0.020
vt 2.000 16.000
v 65.000 9.000 0.020
vt 0.000 16.500
v 65.000 -9.000 0.020
vt 2.000 16.500
v 70.000 9.000 0.020
vt 0.000 17.000
v 70.000 -9.000 0.020
vt 2.000 17.000
v 75.000 9.000 0.020
vt 0.000 17.500
v 75.000 -9.000 0.020
vt 2.000 17.500
v 80.000 9.000 0.020
vt 0.000 18.000
v 80.000 -9.000 0.020
vt 2.000 18.000
v 85.000 9.000 0.020
vt 0.000 18.500
v 85.000 -9.000 0.020
vt 2.000 18.500
v 90.000 9.000 0.020
vt 0.000 19.000
v 90.000 -9.000 0.020
vt 2.000 19.000
v 95.000 9.000 0.020
vt 0.000 19.500
v 95.000 -9.000 0.020
vt 2.000 19.500
v 100.000 9.000 0.020
vt 0.000 20.000
v 100.000 -9.000 0.020
vt 2.000 20.000
v 105.000 9.000 0.020
vt 0.000 20.500
v 105.000 -9.000 0.020
vt 2.000 20.500
v 110.000 9.000 0.020
vt 0.000 21.000
v 110.000 -9.000 0.020
vt 2.000 21.000
v 115.000 9.000 0.020
vt 0.000 21.500
v 115.000 -9.000 0.020
vt 2.000 21.500
v 120.000 9.000 0.020
vt 0.000 22.000
v 120.000 -9.000 0.020
vt 2.000 22.000
v 125.000 9.000 0.020
vt 0.000 22.500
v 125.000 -9.000 0.020
vt 2.000 22.500
v 130.000 9.000 0.020
vt 0.000 23.000
v 130.000 -9.000 0.020
vt 2.000 23.000
v 135.000 9.000 0.020
vt 0.000 23.500
v 135.000 -9.000 0.020
vt 2.000 23.500
v 140.000 9.000 0.020
vt 0.000 24.000
v 140.000 -9.000 0.020
vt 2.000 24.000
v 145.000 9.000 0.020
vt 0.000 24.500
v 145.000 -9.000 0.020
vt 2.000 24.500
v 150.000 9.000 0.020
vt 0.000 25.000
v 150.000 -9.000 0.020
vt 2.000 25.000
v 155.000 9.000 0.020
vt 0.000 25.500
v 155.000 -9.000 0.020
vt 2.000 25.500
v 160.000 9.000 0.020
vt 0.000 26.000
v 160.000 -9.000 0.020
vt 2.000 26.000
v 165.000 9.000 0.020
vt 0.000 26.500
v 165.000 -9.000 0.020
vt 2.000 26.500
v 170.000 9.000 0.020
vt 0.000 27.000
v 170.000 -9.000 0.020
vt 2.000 27.000
v 175.000 9.000 0.020
vt 0.000 27.500
v 175.000 -9.000 0.020
vt 2.000 27.500
v 180.000 9.000 0.020
vt 0.000 28.000
v 180.000 -9.000 0.020
vt 2.000 28.000
v 185.000 9.000 0.020
vt 0.000 28.500
v 185.000 -9.000 0.020
vt 2.000 28.500
v 190.000 9.000 0.020
vt 0.000 29.000
v 190.000 -9.000 0.020
vt 2.000 29.000
v 195.000 9.000 0.020
vt 0.000 29.500
v 195.000 -9.000 0.020
vt 2.000 29.500
v 200.000 9.000 0.020
vt 0.000 30.000
v 200.000 -9.000 0.020
vt 2.000 30.000
v 205.000 9.000 0.020
vt 0.000 30.500
v 205.000 -9.000 0.020
vt 2.000 30.500
v 210.000 9.000 0.020
vt 0.000 31.000
v 210.000 -9.000 0.020
vt 2.000 31.000
v 215.000 9.000 0.020
vt 0.000 31.500
v 215.000 -9.000 0.020
vt 2.000 31.500
v 220.000 9.000 0.020
vt 0.000 32.000
v 220.000 -9.000 0.020
vt 2.000 32.000
v 225.000 9.000 0.020
vt 0.000 32.500
v 225.000 -9.000 0.020
vt 2.000 32.500
v 230.000 9.000 0.020
vt 0.000 33.000
v 230.000 -9.000 0.020
vt 2.000 33.000
v 235.000 9.000 0.020
vt 0.000 33.500
v 235.000 -9.000 0.020
vt 2.000 33.500
v 240.000 9.000 0.020
vt 0.000 34.000
v 240.000 -9.000 0.020
vt 2.000 34.000
v 245.000 9.000 0.020
vt 0.000 34.500
v 245.000 -9.000 0.020
vt 2.000 34.500
v 250.000 9.000 0.020
vt 0.000 35.000
v 250.000 -9.000 0.020
vt 2.000 35.000
v 255.000 9.000 0.020
vt 0.000 35.500
v 255.000 -9.000 0.020
vt 2.000 35.500
v 260.000 9.000 0.020
vt 0.000 36.000
v 260.000 -9.000 0.020
vt 2.000 36.000
v 265.000 9.000 0.020
vt 0.000 36.500
v 265.000 -9.000 0.020
vt 2.000 36.500
v 270.000 9.000 0.020
vt 0.000 37.000
v 270.000 -9.000 0.020
vt 2.000 37.000
v 275.000 9.000 0.020
vt 0.000 37.500
v 275.000 -9.000 0.020
vt 2.000 37.500
v 280.000 9.000 0.020
vt 0.000 38.000
v 280.000 -9.000 0.020
vt 2.000 38.000
v 285.000 9.000 0.020
vt 0.000 38.500
v 285.000 -9.000 0.020
vt 2.000 38.500
v 290.000 9.000 0.020
vt 0.000 39.000
v 290.000 -9.000 0.020
vt 2.000 39.000
v 295.000 9.000 0.020
vt 0.000 39.500
v 295.000 -9.000 0.020
vt 2.000 39.500
v 300.000 9.000 0.020
vt 0.000 40.000
v 300.000 -9.000 0.020
vt 2.000 40.000
v 305.000 9.000 0.020
vt 0.000 40.500
v 305.000 -9.000 0.020
vt 2.000 40.500
v 310.000 9.000 0.020
vt 0.000 41.000
v 310.000 -9.000 0.020
vt 2.000 41.000
v 315.000 9.000 0.020
vt 0.000 41.500
v 315.000 -9.000 0.020
vt 2.000 41.500
v 320.000 9.000 0.020
vt 0.000 42.000
v 320.000 -9.000 0.020
vt 2.000 42.000
v 325.000 9.000 0.020
vt 0.000 42.500
v 325.000 -9.000 0.020
vt 2.000 42.500
v 330.000 9.000 0.020
vt 0.000 43.000
v 330.000 -9.000 0.020
vt 2.000 43.000
v 335.000 9.000 0.020
vt 0.000 43.500
v 335.000 -9.000 0.020
vt 2.000 43.500
v 340.000 9.000 0.020
vt 0.000 44.000
v 340.000 -9.000 0.020
vt 2.000 44.000
v 345.000 9.000 0.020
vt 0.000 44.500
v 345.000 -9.000 0.020
vt 2.000 44.500
v 350.000 9.000 0.020
vt 0.000 45.000
v 350.000 -9.000 0.020
vt 2.000 45.000
v 355.000 9.000 0.020
vt 0.000 45.500
v 355.000 -9.000 0.020
vt 2.000 45.500
v 360.000 9.000 0.020
vt 0.000 46.000
v 360.000 -9.000 0.020
vt 2.000 46.000
v 365.000 9.000 0.020
vt 0.000 46.500
v 365.000 -9.000 0.020
vt 2.000 46.500
v 370.000 9.000 0.020
vt 0.000 47.000
v 370.000 -9.000 0.020
vt 2.000 47.000
v 375.000 9.000 0.020
vt 0.000 47.500
v 375.000 -9.000 0.020
vt 2.000 47.500
v 380.000 9.000 0.020
vt 0.000 48.000
v 380.000 -9.000 0.020
vt 2.000 48.000
v 385.000 9.000 0.020
vt 0.000 48.500
v 385.000 -9.000 0.020
vt 2.000 48.500
v 390.000 9.000 0.020
vt 0.000 49.000
v 390.000 -9.000 0.020
vt 2.000 49.000
v 395.000 9.000 0.020
vt 0.000 49.500
v 395.000 -9.000 0.020
vt 2.000 49.500
v 400.000 9.000 0.020
vt 0.000 50.000
v 400.000 -9.000 0.020
vt 2.000 50.000
mtllib Roads\3D_Road\Road_20acdffb-81f3-4ae3-9c6f-cdbfe0db69fc_6.mtl
usemtl Tile Ice
g g1
s 1
f  1/1 2/2 4/4 3/3
f  3/3 4/4 6/6 5/5
f  5/5 6/6 8/8 7/7
f  7/7 8/8 10/10 9/9
f  9/9 10/10 12/12 11/11
f  11/11 12/12 14/14 13/13
f  13/13 14/14 16/16 15/15
f  15/15 16/16 18/18 17/17
f  17/17 18/18 20/20 19/19
f  19/19 20/20 22/22 21/21
f  21/21 22/22 24/24 23/23
f  23/23 24/24 26/26 25/25
f  25/25 26/26 28/28 27/27
f  27/27 28/28 30/30 29/29
f  29/29 30/30 32/32 31/31
f  31/31 32/32 34/34 33/33
f  33/33 34/34 36/36 35/35
f  35/35 36/36 38/38 37/37
f  37/37 38/38 40/40 39/39
f  39/39 40/40 42/42 41/41
f  41/41 42/42 44/44 43/43
f  43/43 44/44 46/46 45/45
f  45/45 46/46 48/48 47/47
f  47/47 48/48 50/50 49/49
f  49/49 50/50 52/52 51/51
f  51/51 52/52 54/54 53/53
f  53/53 54/54 56/56 55/55
f  55/55 56/56 58/58 57/57
f  57/57 58/58 60/60 59/59
f  59/59 60/60 62/62 61/61
f  61/61 62/62 64/64 63/63
f  63/63 64/64 66/66 65/65
f  65/65 66/66 68/68 67/67
f  67/67 68/68 70/70 69/69
f  69/69 70/70 72/72 71/71
f  71/71 72/72 74/74 73/73
f  73/73 74/74 76/76 75/75
f  75/75 76/76 78/78 77/77
f  77/77 78/78 80/80 79/79
f  79/79 80/80 82/82 81/81
f  81/81 82/82 84/84 83/83
f  83/83 84/84 86/86 85/85
f  85/85 86/86 88/88 87/87
f  87/87 88/88 90/90 89/89
f  89/89 90/90 92/92 91/91
f  91/91 92/92 94/94 93/93
f  93/93 94/94 96/96 95/95
f  95/95 96/96 98/98 97/97
f  97/97 98/98 100/100 99/99
f  99/99 100/100 102/102 101/101
f  101/101 102/102 104/104 103/103
f  103/103 104/104 106/106 105/105
f  105/105 106/106 108/108 107/107
f  107/107 108/108 110/110 109/109
f  109/109 110/110 112/112 111/111
f  111/111 112/112 114/114 113/113
f  113/113 114/114 116/116 115/115
f  115/115 116/116 118/118 117/117
f  117/117 118/118 120/120 119/119
f  119/119 120/120 122/122 121/121
f  121/121 122/122 124/124 123/123
f  123/123 124/124 126/126 125/125
f  125/125 126/126 128/128 127/127
f  127/127 128/128 130/130 129/129
f  129/129 130/130 132/132 131/131
f  131/131 132/132 134/134 133/133
f  133/133 134/134 136/136 135/135
f  135/135 136/136 138/138 137/137
f  137/137 138/138 140/140 139/139
f  139/139 140/140 142/142 141/141
f  141/141 142/142 144/144 143/143
f  143/143 144/144 146/146 145/145
f  145/145 146/146 148/148 147/147
f  147/147 148/148 150/150 149/149
f  149/149 150/150 152/152 151/151
f  151/151 152/152 154/154 153/153
f  153/153 154/154 156/156 155/155
f  155/155 156/156 158/158 157/157
f  157/157 158/158 160/160 159/159
f  159/159 160/160 162/162 161/161
f  161/161 162/162 164/164 163/163
f  163/163 164/164 166/166 165/165
f  165/165 166/166 168/168 167/167
f  167/167 168/168 170/170 169/169
f  169/169 170/170 172/172 171/171
f  171/171 172/172 174/174 173/173
f  173/173 174/174 176/176 175/175
f  175/175 176/176 178/178 177/177
f  177/177 178/178 180/180 179/179
f  179/179 180/180 182/182 181/181
f  181/181 182/182 184/184 183/183
f  183/183 184/184 186/186 185/185
f  185/185 186/186 188/188 187/187
f  187/187 188/188 190/190 189/189
f  189/189 190/190 192/192 191/191
f  191/191 192/192 194/194 193/193
f  193/193 194/194 196/196 195/195
f  195/195 196/196 198/198 197/197
f  197/197 198/198 200/200 199/199
f  199/199 200/200 202/202 201/201
g g2
s 2
g g3
s 3
g g4
s 4
