# Shape file for lane 4
v -37.799 136.276 49.839
vt 0.000 0.000
v -83.542 55.418 49.829
vt 3.100 0.000
v 53.591 84.576 47.074
vt 0.000 5.250
v 7.848 3.718 47.065
vt 3.100 5.250
v 57.947 82.111 46.941
vt 0.000 5.500
v 12.200 1.256 46.932
vt 3.100 5.500
v 62.298 79.649 46.809
vt 0.000 5.750
v 16.552 -1.207 46.800
vt 3.100 5.750
v 66.654 77.185 46.676
vt 0.000 6.000
v 20.904 -3.669 46.667
vt 3.100 6.000
v 71.005 74.723 46.544
vt 0.000 6.250
v 25.255 -6.131 46.535
vt 3.100 6.250
v 75.354 72.262 46.411
vt 0.000 6.500
v 29.607 -8.593 46.402
vt 3.100 6.500
v 79.705 69.800 46.279
vt 0.000 6.750
v 33.959 -11.056 46.270
vt 3.100 6.750
v 84.053 67.341 46.146
vt 0.000 7.000
v 38.310 -13.517 46.137
vt 3.100 7.000
v 88.405 64.879 46.014
vt 0.000 7.250
v 42.662 -15.979 46.005
vt 3.100 7.250
v 92.757 62.417 45.881
vt 0.000 7.500
v 47.014 -18.441 45.872
vt 3.100 7.500
v 97.113 59.952 45.749
vt 0.000 7.750
v 51.366 -20.903 45.740
vt 3.100 7.750
v 101.472 57.486 45.616
vt 0.000 8.000
v 55.718 -23.366 45.607
vt 3.100 8.000
v 105.819 55.025 45.484
vt 0.000 8.250
v 60.069 -25.829 45.475
vt 3.100 8.250
v 110.163 52.568 45.351
vt 0.000 8.500
v 64.421 -28.290 45.342
vt 3.100 8.500
v 114.520 50.103 45.219
vt 0.000 8.750
v 68.773 -30.752 45.210
vt 3.100 8.750
v 118.871 47.641 45.086
vt 0.000 9.000
v 73.125 -33.215 45.077
vt 3.100 9.000
v 123.219 45.182 44.954
vt 0.000 9.250
v 77.476 -35.676 44.945
vt 3.100 9.250
v 127.571 42.720 44.821
vt 0.000 9.500
v 81.828 -38.138 44.812
vt 3.100 9.500
v 131.923 40.258 44.689
vt 0.000 9.750
v 86.180 -40.600 44.680
vt 3.100 9.750
v 136.279 37.793 44.556
vt 0.000 10.000
v 90.532 -43.062 44.547
vt 3.100 10.000
v 140.638 35.327 44.424
vt 0.000 10.250
v 94.884 -45.525 44.415
vt 3.100 10.250
v 144.985 32.866 44.291
vt 0.000 10.500
v 99.235 -47.988 44.282
vt 3.100 10.500
v 149.329 30.409 44.159
vt 0.000 10.750
v 103.587 -50.449 44.150
vt 3.100 10.750
v 153.686 27.944 44.026
vt 0.000 11.000
v 107.939 -52.911 44.017
vt 3.100 11.000
v 158.037 25.482 43.894
vt 0.000 11.250
v 112.291 -55.374 43.885
vt 3.100 11.250
v 162.385 23.023 43.761
vt 0.000 11.500
v 116.642 -57.835 43.752
vt 3.100 11.500
v 166.737 20.561 43.629
vt 0.000 11.750
v 120.994 -60.297 43.620
vt 3.100 11.750
v 171.089 18.099 43.496
vt 0.000 12.000
v 125.346 -62.759 43.487
vt 3.100 12.000
v 175.452 15.630 43.364
vt 0.000 12.250
v 129.699 -65.222 43.355
vt 3.100 12.250
v 179.804 13.167 43.231
vt 0.000 12.500
v 134.050 -67.685 43.222
vt 3.100 12.500
v 184.144 10.712 43.099
vt 0.000 12.750
v 138.401 -70.146 43.090
vt 3.100 12.750
v 188.496 8.250 42.966
vt 0.000 13.000
v 142.753 -72.608 42.957
vt 3.100 13.000
v 192.852 5.785 42.834
vt 0.000 13.250
v 147.105 -75.070 42.825
vt 3.100 13.250
v 197.203 3.323 42.701
vt 0.000 13.500
v 151.457 -77.533 42.692
vt 3.100 13.500
v 201.551 0.864 42.569
vt 0.000 13.750
v 155.808 -79.994 42.560
vt 3.100 13.750
v 205.903 -1.598 42.436
vt 0.000 14.000
v 160.160 -82.456 42.427
vt 3.100 14.000
v 210.262 -4.065 42.304
vt 0.000 14.250
v 164.512 -84.919 42.295
vt 3.100 14.250
v 214.618 -6.530 42.171
vt 0.000 14.500
v 168.864 -87.381 42.162
vt 3.100 14.500
v 218.962 -8.988 42.039
vt 0.000 14.750
v 173.215 -89.844 42.030
vt 3.100 14.750
v 223.310 -11.447 41.906
vt 0.000 15.000
v 177.567 -92.305 41.897
vt 3.100 15.000
v 227.662 -13.909 41.774
vt 0.000 15.250
v 181.919 -94.767 41.765
vt 3.100 15.250
v 232.018 -16.374 41.641
vt 0.000 15.500
v 186.271 -97.229 41.632
vt 3.100 15.500
v 236.369 -18.836 41.509
vt 0.000 15.750
v 190.623 -99.692 41.500
vt 3.100 15.750
v 240.717 -21.295 41.376
vt 0.000 16.000
v 194.974 -102.153 41.367
vt 3.100 16.000
v 245.069 -23.757 41.244
vt 0.000 16.250
v 199.326 -104.615 41.235
vt 3.100 16.250
v 249.428 -26.224 41.111
vt 0.000 16.500
v 203.679 -107.078 41.102
vt 3.100 16.500
v 253.784 -28.689 40.979
vt 0.000 16.750
v 208.030 -109.541 40.970
vt 3.100 16.750
v 258.128 -31.147 40.846
vt 0.000 17.000
v 212.381 -112.003 40.837
vt 3.100 17.000
v 262.476 -33.606 40.714
vt 0.000 17.250
v 216.733 -114.464 40.705
vt 3.100 17.250
v 266.828 -36.068 40.581
vt 0.000 17.500
v 221.085 -116.926 40.572
vt 3.100 17.500
v 271.184 -38.533 40.439
vt 0.000 17.750
v 225.437 -119.388 40.430
vt 3.100 17.750
v 275.535 -40.995 40.280
vt 0.000 18.000
v 229.789 -121.851 40.271
vt 3.100 18.000
v 279.883 -43.455 40.120
vt 0.000 18.250
v 234.140 -124.312 40.111
vt 3.100 18.250
v 284.242 -45.921 39.961
vt 0.000 18.500
v 238.493 -126.775 39.952
vt 3.100 18.500
v 288.594 -48.383 39.802
vt 0.000 18.750
v 242.844 -129.237 39.793
vt 3.100 18.750
v 292.833 -50.782 39.646
vt 0.000 19.000
v 247.188 -131.695 39.637
vt 3.100 19.000
v 295.942 -52.541 39.467
vt 0.000 19.250
v 251.457 -134.097 39.458
vt 3.100 19.250
v 297.774 -53.514 39.262
vt 0.000 19.500
v 255.694 -136.337 39.253
vt 3.100 19.500
v 299.369 -54.292 39.050
vt 0.000 19.750
v 259.982 -138.429 39.041
vt 3.100 19.750
v 300.990 -55.019 38.839
vt 0.000 20.000
v 264.335 -140.382 38.829
vt 3.100 20.000
v 302.627 -55.691 38.627
vt 0.000 20.250
v 268.748 -142.193 38.618
vt 3.100 20.250
v 304.287 -56.311 38.415
vt 0.000 20.500
v 273.218 -143.861 38.406
vt 3.100 20.500
v 305.974 -56.879 38.270
vt 0.000 20.750
v 277.740 -145.384 38.260
vt 3.100 20.750
v 307.674 -57.391 38.166
vt 0.000 21.000
v 282.308 -146.761 38.157
vt 3.100 21.000
v 309.385 -57.847 38.077
vt 0.000 21.250
v 286.918 -147.989 38.067
vt 3.100 21.250
v 311.114 -58.249 38.001
vt 0.000 21.500
v 291.565 -149.068 37.991
vt 3.100 21.500
v 312.857 -58.594 37.939
vt 0.000 21.750
v 296.245 -149.997 37.929
vt 3.100 21.750
v 314.609 -58.884 37.890
vt 0.000 22.000
v 300.952 -150.775 37.880
vt 3.100 22.000
v 316.356 -59.115 37.854
vt 0.000 22.250
v 305.681 -151.399 37.844
vt 3.100 22.250
v 318.120 -59.290 37.832
vt 0.000 22.500
v 310.429 -151.871 37.823
vt 3.100 22.500
v 319.899 -59.409 37.822
vt 0.000 22.750
v 315.190 -152.189 37.813
vt 3.100 22.750
v 321.675 -59.470 37.828
vt 0.000 23.000
v 319.958 -152.354 37.818
vt 3.100 23.000
v 323.454 -59.474 37.844
vt 0.000 23.250
v 324.729 -152.366 37.835
vt 3.100 23.250
v 325.222 -59.422 37.875
vt 0.000 23.500
v 329.498 -152.223 37.866
vt 3.100 23.500
v 326.991 -59.311 37.921
vt 0.000 23.750
v 334.259 -151.926 37.911
vt 3.100 23.750
v 328.758 -59.144 37.984
vt 0.000 24.000
v 339.009 -151.477 37.974
vt 3.100 24.000
v 330.517 -58.920 38.052
vt 0.000 24.250
v 343.742 -150.874 38.042
vt 3.100 24.250
v 332.265 -58.640 38.122
vt 0.000 24.500
v 348.452 -150.119 38.112
vt 3.100 24.500
v 334.012 -58.301 38.195
vt 0.000 24.750
v 353.137 -149.211 38.185
vt 3.100 24.750
v 335.816 -57.891 38.269
vt 0.000 25.000
v 357.794 -148.153 38.259
vt 3.100 25.000
v 338.795 -57.105 38.341
vt 0.000 25.250
v 362.501 -146.929 38.331
vt 3.100 25.250
v 343.262 -55.907 38.415
vt 0.000 25.500
v 367.305 -145.642 38.405
vt 3.100 25.500
v 352.921 -53.319 38.563
vt 0.000 26.000
v 376.965 -143.054 38.553
vt 3.100 26.000
v 357.742 -52.027 38.638
vt 0.000 26.250
v 381.794 -141.760 38.629
vt 3.100 26.250
v 362.574 -50.732 38.714
vt 0.000 26.500
v 386.623 -140.465 38.704
vt 3.100 26.500
v 367.410 -49.436 38.788
vt 0.000 26.750
v 391.453 -139.171 38.779
vt 3.100 26.750
v 372.240 -48.142 38.864
vt 0.000 27.000
v 396.283 -137.877 38.855
vt 3.100 27.000
v 377.072 -46.847 38.939
vt 0.000 27.250
v 401.113 -136.583 38.930
vt 3.100 27.250
v 381.899 -45.554 39.013
vt 0.000 27.500
v 405.942 -135.289 39.004
vt 3.100 27.500
v 391.558 -42.966 39.162
vt 0.000 28.000
v 415.602 -132.701 39.152
vt 3.100 28.000
v 396.379 -41.674 39.234
vt 0.000 28.250
v 420.431 -131.407 39.224
vt 3.100 28.250
v 401.211 -40.379 39.306
vt 0.000 28.500
v 425.260 -130.112 39.296
vt 3.100 28.500
v 406.047 -39.083 39.377
vt 0.000 28.750
v 430.090 -128.818 39.367
vt 3.100 28.750
v 410.877 -37.789 39.445
vt 0.000 29.000
v 434.920 -127.524 39.436
vt 3.100 29.000
v 415.709 -36.494 39.513
vt 0.000 29.250
v 439.750 -126.230 39.504
vt 3.100 29.250
v 420.536 -35.201 39.580
vt 0.000 29.500
v 444.579 -124.936 39.570
vt 3.100 29.500
v 430.195 -32.613 39.710
vt 0.000 30.000
v 454.239 -122.348 39.700
vt 3.100 30.000
v 435.016 -31.321 39.774
vt 0.000 30.250
v 459.068 -121.054 39.765
vt 3.100 30.250
v 439.848 -30.026 39.838
vt 0.000 30.500
v 463.897 -119.759 39.828
vt 3.100 30.500
v 444.684 -28.730 39.903
vt 0.000 30.750
v 468.727 -118.465 39.893
vt 3.100 30.750
v 454.343 -26.142 40.033
vt 0.000 31.250
v 478.387 -115.877 40.023
vt 3.100 31.250
v 459.173 -24.848 40.100
vt 0.000 31.500
v 483.216 -114.583 40.089
vt 3.100 31.500
v 464.005 -23.553 40.168
vt 0.000 31.750
v 488.046 -113.289 40.158
vt 3.100 31.750
v 468.831 -22.260 40.237
vt 0.000 32.000
v 492.876 -111.995 40.226
vt 3.100 32.000
v 474.332 -20.789 40.308
vt 0.000 32.250
v 497.753 -110.688 40.298
vt 3.100 32.250
v 481.471 -18.994 40.387
vt 0.000 32.500
v 502.763 -109.421 40.377
vt 3.100 32.500
v 489.603 -17.221 40.476
vt 0.000 32.750
v 507.879 -108.306 40.466
vt 3.100 32.750
v 497.802 -15.718 40.571
vt 0.000 33.000
v 513.029 -107.361 40.561
vt 3.100 33.000
v 506.050 -14.489 40.665
vt 0.000 33.250
v 518.209 -106.589 40.656
vt 3.100 33.250
v 514.329 -13.536 40.751
vt 0.000 33.500
v 523.412 -105.990 40.742
vt 3.100 33.500
v 522.632 -12.859 40.825
vt 0.000 33.750
v 528.631 -105.565 40.816
vt 3.100 33.750
v 530.957 -12.460 40.875
vt 0.000 34.000
v 533.862 -105.314 40.866
vt 3.100 34.000
v 539.287 -12.338 40.921
vt 0.000 34.250
v 539.098 -105.238 40.912
vt 3.100 34.250
v 547.617 -12.494 40.965
vt 0.000 34.500
v 544.333 -105.336 40.956
vt 3.100 34.500
v 555.951 -12.928 41.007
vt 0.000 34.750
v 549.564 -105.608 40.998
vt 3.100 34.750
v 564.244 -13.639 41.048
vt 0.000 35.000
v 554.780 -106.056 41.039
vt 3.100 35.000
v 572.519 -14.625 41.087
vt 0.000 35.250
v 559.980 -106.675 41.078
vt 3.100 35.250
v 580.762 -15.889 41.125
vt 0.000 35.500
v 565.157 -107.469 41.116
vt 3.100 35.500
v 588.947 -17.424 41.162
vt 0.000 35.750
v 570.303 -108.434 41.153
vt 3.100 35.750
v 597.078 -19.231 41.199
vt 0.000 36.000
v 575.415 -109.571 41.190
vt 3.100 36.000
v 605.153 -21.310 41.236
vt 0.000 36.250
v 580.487 -110.876 41.227
vt 3.100 36.250
v 613.152 -23.658 41.273
vt 0.000 36.500
v 585.512 -112.351 41.263
vt 3.100 36.500
v 621.057 -26.266 41.310
vt 0.000 36.750
v 590.484 -113.991 41.301
vt 3.100 36.750
v 628.881 -29.140 41.348
vt 0.000 37.000
v 595.400 -115.797 41.339
vt 3.100 37.000
v 636.607 -32.274 41.387
vt 0.000 37.250
v 600.253 -117.766 41.378
vt 3.100 37.250
v 644.226 -35.666 41.425
vt 0.000 37.500
v 605.037 -119.895 41.416
vt 3.100 37.500
v 651.714 -39.303 41.454
vt 0.000 37.750
v 609.747 -122.183 41.445
vt 3.100 37.750
v 659.085 -43.190 41.475
vt 0.000 38.000
v 614.379 -124.626 41.466
vt 3.100 38.000
v 666.329 -47.326 41.486
vt 0.000 38.250
v 618.927 -127.223 41.476
vt 3.100 38.250
v 673.420 -51.694 41.487
vt 0.000 38.500
v 623.385 -129.969 41.478
vt 3.100 38.500
v 680.367 -56.300 41.478
vt 0.000 38.750
v 627.750 -132.863 41.469
vt 3.100 38.750
v 687.157 -61.135 41.458
vt 0.000 39.000
v 632.016 -135.900 41.449
vt 3.100 39.000
v 693.774 -66.187 41.425
vt 0.000 39.250
v 636.177 -139.078 41.416
vt 3.100 39.250
v 700.221 -71.458 41.381
vt 0.000 39.500
v 640.231 -142.392 41.372
vt 3.100 39.500
v 706.497 -76.948 41.323
vt 0.000 39.750
v 644.173 -145.840 41.314
vt 3.100 39.750
v 712.593 -82.650 41.253
vt 0.000 40.000
v 647.998 -149.418 41.244
vt 3.100 40.000
v 718.482 -88.542 41.158
vt 0.000 40.250
v 651.700 -153.122 41.148
vt 3.100 40.250
v 724.170 -94.623 41.051
vt 0.000 40.500
v 655.277 -156.946 41.042
vt 3.100 40.500
v 729.656 -100.894 40.937
vt 0.000 40.750
v 658.725 -160.887 40.927
vt 3.100 40.750
v 734.927 -107.340 40.821
vt 0.000 41.000
v 662.039 -164.941 40.811
vt 3.100 41.000
v 739.986 -113.966 40.708
vt 0.000 41.250
v 665.218 -169.103 40.698
vt 3.100 41.250
v 744.259 -119.947 40.601
vt 0.000 41.500
v 668.215 -173.311 40.592
vt 3.100 41.500
v 747.496 -124.623 40.499
vt 0.000 41.750
v 671.087 -177.464 40.489
vt 3.100 41.750
v 750.340 -128.736 40.399
vt 0.000 42.000
v 673.931 -181.576 40.389
vt 3.100 42.000
v 753.184 -132.848 40.300
vt 0.000 42.250
v 676.775 -185.689 40.290
vt 3.100 42.250
v 756.028 -136.961 40.202
vt 0.000 42.500
v 679.619 -189.801 40.192
vt 3.100 42.500
v 758.873 -141.075 40.104
vt 0.000 42.750
v 682.463 -193.914 40.095
vt 3.100 42.750
v 761.720 -145.192 40.006
vt 0.000 43.000
v 685.307 -198.027 39.996
vt 3.100 43.000
v 764.559 -149.298 39.909
vt 0.000 43.250
v 688.150 -202.139 39.899
vt 3.100 43.250
v 770.247 -157.523 39.713
vt 0.000 43.750
v 693.838 -210.363 39.704
vt 3.100 43.750
v 773.091 -161.635 39.615
vt 0.000 44.000
v 696.682 -214.476 39.606
vt 3.100 44.000
v 775.935 -165.748 39.518
vt 0.000 44.250
v 699.526 -218.588 39.509
vt 3.100 44.250
v 778.776 -169.855 39.422
vt 0.000 44.500
v 702.370 -222.700 39.413
vt 3.100 44.500
v 781.623 -173.972 39.325
vt 0.000 44.750
v 705.214 -226.813 39.316
vt 3.100 44.750
v 787.311 -182.197 39.129
vt 0.000 45.250
v 710.902 -235.038 39.120
vt 3.100 45.250
v 790.157 -186.313 39.029
vt 0.000 45.500
v 713.746 -239.150 39.021
vt 3.100 45.500
v 792.578 -189.819 38.929
vt 0.000 45.750
v 716.560 -243.220 38.920
vt 3.100 45.750
v 793.886 -191.680 38.822
vt 0.000 46.000
v 719.351 -247.133 38.813
vt 3.100 46.000
v 794.512 -192.488 38.708
vt 0.000 46.250
v 722.242 -250.861 38.700
vt 3.100 46.250
v 795.153 -193.250 38.592
vt 0.000 46.500
v 725.278 -254.470 38.583
vt 3.100 46.500
v 795.821 -193.983 38.478
vt 0.000 46.750
v 728.455 -257.953 38.469
vt 3.100 46.750
v 796.532 -194.701 38.371
vt 0.000 47.000
v 731.771 -261.308 38.362
vt 3.100 47.000
v 797.263 -195.385 38.276
vt 0.000 47.250
v 735.217 -264.528 38.266
vt 3.100 47.250
v 798.010 -196.028 38.206
vt 0.000 47.500
v 738.789 -267.606 38.197
vt 3.100 47.500
v 798.804 -196.658 38.142
vt 0.000 47.750
v 742.483 -270.539 38.133
vt 3.100 47.750
v 799.609 -197.248 38.080
vt 0.000 48.000
v 746.289 -273.323 38.070
vt 3.100 48.000
v 800.439 -197.805 38.017
vt 0.000 48.250
v 750.205 -275.951 38.008
vt 3.100 48.250
v 801.297 -198.333 37.956
vt 0.000 48.500
v 754.222 -278.423 37.947
vt 3.100 48.500
v 802.154 -198.813 37.895
vt 0.000 48.750
v 758.334 -280.730 37.885
vt 3.100 48.750
v 803.050 -199.269 37.835
vt 0.000 49.000
v 762.537 -282.870 37.826
vt 3.100 49.000
v 803.969 -199.693 37.775
vt 0.000 49.250
v 766.821 -284.842 37.766
vt 3.100 49.250
v 804.889 -200.072 37.717
vt 0.000 49.500
v 771.181 -286.641 37.708
vt 3.100 49.500
v 805.825 -200.415 37.658
vt 0.000 49.750
v 775.608 -288.264 37.649
vt 3.100 49.750
v 806.775 -200.721 37.601
vt 0.000 50.000
v 780.097 -289.708 37.592
vt 3.100 50.000
v 807.738 -200.989 37.544
vt 0.000 50.250
v 784.641 -290.972 37.534
vt 3.100 50.250
v 808.713 -201.218 37.488
vt 0.000 50.500
v 789.232 -292.053 37.478
vt 3.100 50.500
v 809.700 -201.409 37.431
vt 0.000 50.750
v 793.862 -292.949 37.422
vt 3.100 50.750
v 810.692 -201.561 37.376
vt 0.000 51.000
v 798.524 -293.661 37.367
vt 3.100 51.000
v 811.680 -201.671 37.321
vt 0.000 51.250
v 803.211 -294.184 37.311
vt 3.100 51.250
v 812.676 -201.742 37.267
vt 0.000 51.500
v 807.915 -294.520 37.257
vt 3.100 51.500
v 813.672 -201.774 37.212
vt 0.000 51.750
v 812.628 -294.668 37.203
vt 3.100 51.750
v 814.671 -201.765 37.159
vt 0.000 52.000
v 817.344 -294.626 37.150
vt 3.100 52.000
v 815.674 -201.716 37.105
vt 0.000 52.250
v 822.054 -294.396 37.096
vt 3.100 52.250
v 816.672 -201.627 37.053
vt 0.000 52.500
v 826.752 -293.979 37.043
vt 3.100 52.500
v 817.659 -201.499 37.000
vt 0.000 52.750
v 831.429 -293.373 36.990
vt 3.100 52.750
v 818.647 -201.331 36.955
vt 0.000 53.000
v 836.078 -292.581 36.945
vt 3.100 53.000
v 819.627 -201.123 36.928
vt 0.000 53.250
v 840.692 -291.604 36.919
vt 3.100 53.250
v 820.593 -200.878 36.909
vt 0.000 53.500
v 845.262 -290.443 36.900
vt 3.100 53.500
v 821.554 -200.592 36.897
vt 0.000 53.750
v 849.783 -289.100 36.888
vt 3.100 53.750
v 822.504 -200.268 36.885
vt 0.000 54.000
v 854.247 -287.577 36.876
vt 3.100 54.000
v 823.470 -199.894 36.873
vt 0.000 54.250
v 858.648 -285.876 36.864
vt 3.100 54.250
v 825.769 -198.883 36.857
vt 0.000 54.500
v 863.076 -283.963 36.847
vt 3.100 54.500
v 829.826 -197.075 36.842
vt 0.000 54.750
v 867.608 -281.946 36.832
vt 3.100 54.750
v 834.386 -195.045 36.828
vt 0.000 55.000
v 872.175 -279.912 36.818
vt 3.100 55.000
v 848.089 -188.944 36.788
vt 0.000 55.750
v 885.878 -273.811 36.779
vt 3.100 55.750
v 852.656 -186.910 36.773
vt 0.000 56.000
v 890.445 -271.777 36.763
vt 3.100 56.000
v 857.224 -184.876 36.755
vt 0.000 56.250
v 895.013 -269.743 36.745
vt 3.100 56.250
v 861.792 -182.842 36.733
vt 0.000 56.500
v 899.581 -267.709 36.724
vt 3.100 56.500
v 866.359 -180.808 36.708
vt 0.000 56.750
v 904.148 -265.675 36.698
vt 3.100 56.750
v 870.927 -178.774 36.677
vt 0.000 57.000
v 908.716 -263.641 36.667
vt 3.100 57.000
v 875.495 -176.741 36.640
vt 0.000 57.250
v 913.284 -261.608 36.631
vt 3.100 57.250
v 884.630 -172.673 36.565
vt 0.000 57.750
v 922.419 -257.540 36.556
vt 3.100 57.750
v 893.765 -168.605 36.487
vt 0.000 58.250
v 931.554 -253.472 36.478
vt 3.100 58.250
v 902.901 -164.538 36.407
vt 0.000 58.750
v 940.690 -249.405 36.398
vt 3.100 58.750
v 912.036 -160.470 36.325
vt 0.000 59.250
v 949.825 -245.337 36.316
vt 3.100 59.250
v 921.171 -156.402 36.241
vt 0.000 59.750
v 958.960 -241.269 36.232
vt 3.100 59.750
v 934.874 -150.301 36.112
vt 0.000 60.500
v 972.663 -235.168 36.103
vt 3.100 60.500
v 948.577 -144.199 35.981
vt 0.000 61.250
v 986.366 -229.066 35.972
vt 3.100 61.250
v 971.415 -134.030 35.760
vt 0.000 62.500
v 1009.204 -218.897 35.751
vt 3.100 62.500
v 994.254 -123.861 35.540
vt 0.000 63.750
v 1032.043 -208.728 35.530
vt 3.100 63.750
v 1007.957 -117.759 35.410
vt 0.000 64.500
v 1045.746 -202.626 35.400
vt 3.100 64.500
v 1017.092 -113.691 35.324
vt 0.000 65.000
v 1054.881 -198.558 35.315
vt 3.100 65.000
mtllib Roads\3D_Road\Road_3c09687f-3630-4619-9c60-5cf045f4e0a5_4.mtl
usemtl Grass (Light)
g g1
s 1
f  1/1 2/2 4/4 3/3
f  3/3 4/4 6/6 5/5
f  5/5 6/6 8/8 7/7
f  7/7 8/8 10/10 9/9
f  9/9 10/10 12/12 11/11
f  11/11 12/12 14/14 13/13
f  13/13 14/14 16/16 15/15
f  15/15 16/16 18/18 17/17
f  17/17 18/18 20/20 19/19
f  19/19 20/20 22/22 21/21
f  21/21 22/22 24/24 23/23
f  23/23 24/24 26/26 25/25
f  25/25 26/26 28/28 27/27
f  27/27 28/28 30/30 29/29
f  29/29 30/30 32/32 31/31
f  31/31 32/32 34/34 33/33
f  33/33 34/34 36/36 35/35
f  35/35 36/36 38/38 37/37
f  37/37 38/38 40/40 39/39
f  39/39 40/40 42/42 41/41
f  41/41 42/42 44/44 43/43
f  43/43 44/44 46/46 45/45
f  45/45 46/46 48/48 47/47
f  47/47 48/48 50/50 49/49
f  49/49 50/50 52/52 51/51
f  51/51 52/52 54/54 53/53
f  53/53 54/54 56/56 55/55
f  55/55 56/56 58/58 57/57
f  57/57 58/58 60/60 59/59
f  59/59 60/60 62/62 61/61
f  61/61 62/62 64/64 63/63
f  63/63 64/64 66/66 65/65
f  65/65 66/66 68/68 67/67
f  67/67 68/68 70/70 69/69
f  69/69 70/70 72/72 71/71
f  71/71 72/72 74/74 73/73
f  73/73 74/74 76/76 75/75
f  75/75 76/76 78/78 77/77
f  77/77 78/78 80/80 79/79
f  79/79 80/80 82/82 81/81
f  81/81 82/82 84/84 83/83
f  83/83 84/84 86/86 85/85
f  85/85 86/86 88/88 87/87
f  87/87 88/88 90/90 89/89
f  89/89 90/90 92/92 91/91
f  91/91 92/92 94/94 93/93
f  93/93 94/94 96/96 95/95
f  95/95 96/96 98/98 97/97
f  97/97 98/98 100/100 99/99
f  99/99 100/100 102/102 101/101
f  101/101 102/102 104/104 103/103
f  103/103 104/104 106/106 105/105
f  105/105 106/106 108/108 107/107
f  107/107 108/108 110/110 109/109
f  109/109 110/110 112/112 111/111
f  111/111 112/112 114/114 113/113
f  113/113 114/114 116/116 115/115
f  115/115 116/116 118/118 117/117
f  117/117 118/118 120/120 119/119
f  119/119 120/120 122/122 121/121
f  121/121 122/122 124/124 123/123
f  123/123 124/124 126/126 125/125
f  125/125 126/126 128/128 127/127
f  127/127 128/128 130/130 129/129
f  129/129 130/130 132/132 131/131
f  131/131 132/132 134/134 133/133
f  133/133 134/134 136/136 135/135
f  135/135 136/136 138/138 137/137
f  137/137 138/138 140/140 139/139
f  139/139 140/140 142/142 141/141
f  141/141 142/142 144/144 143/143
f  143/143 144/144 146/146 145/145
f  145/145 146/146 148/148 147/147
f  147/147 148/148 150/150 149/149
f  149/149 150/150 152/152 151/151
f  151/151 152/152 154/154 153/153
f  153/153 154/154 156/156 155/155
f  155/155 156/156 158/158 157/157
f  157/157 158/158 160/160 159/159
f  159/159 160/160 162/162 161/161
f  161/161 162/162 164/164 163/163
f  163/163 164/164 166/166 165/165
f  165/165 166/166 168/168 167/167
f  167/167 168/168 170/170 169/169
f  169/169 170/170 172/172 171/171
f  171/171 172/172 174/174 173/173
f  173/173 174/174 176/176 175/175
f  175/175 176/176 178/178 177/177
f  177/177 178/178 180/180 179/179
f  179/179 180/180 182/182 181/181
f  181/181 182/182 184/184 183/183
f  183/183 184/184 186/186 185/185
f  185/185 186/186 188/188 187/187
f  187/187 188/188 190/190 189/189
f  189/189 190/190 192/192 191/191
f  191/191 192/192 194/194 193/193
f  193/193 194/194 196/196 195/195
f  195/195 196/196 198/198 197/197
f  197/197 198/198 200/200 199/199
f  199/199 200/200 202/202 201/201
f  201/201 202/202 204/204 203/203
f  203/203 204/204 206/206 205/205
f  205/205 206/206 208/208 207/207
f  207/207 208/208 210/210 209/209
f  209/209 210/210 212/212 211/211
f  211/211 212/212 214/214 213/213
f  213/213 214/214 216/216 215/215
f  215/215 216/216 218/218 217/217
f  217/217 218/218 220/220 219/219
f  219/219 220/220 222/222 221/221
f  221/221 222/222 224/224 223/223
f  223/223 224/224 226/226 225/225
f  225/225 226/226 228/228 227/227
f  227/227 228/228 230/230 229/229
f  229/229 230/230 232/232 231/231
f  231/231 232/232 234/234 233/233
f  233/233 234/234 236/236 235/235
f  235/235 236/236 238/238 237/237
f  237/237 238/238 240/240 239/239
f  239/239 240/240 242/242 241/241
f  241/241 242/242 244/244 243/243
f  243/243 244/244 246/246 245/245
f  245/245 246/246 248/248 247/247
f  247/247 248/248 250/250 249/249
f  249/249 250/250 252/252 251/251
f  251/251 252/252 254/254 253/253
f  253/253 254/254 256/256 255/255
f  255/255 256/256 258/258 257/257
f  257/257 258/258 260/260 259/259
f  259/259 260/260 262/262 261/261
f  261/261 262/262 264/264 263/263
f  263/263 264/264 266/266 265/265
f  265/265 266/266 268/268 267/267
f  267/267 268/268 270/270 269/269
f  269/269 270/270 272/272 271/271
f  271/271 272/272 274/274 273/273
f  273/273 274/274 276/276 275/275
f  275/275 276/276 278/278 277/277
f  277/277 278/278 280/280 279/279
f  279/279 280/280 282/282 281/281
f  281/281 282/282 284/284 283/283
f  283/283 284/284 286/286 285/285
f  285/285 286/286 288/288 287/287
f  287/287 288/288 290/290 289/289
f  289/289 290/290 292/292 291/291
f  291/291 292/292 294/294 293/293
f  293/293 294/294 296/296 295/295
f  295/295 296/296 298/298 297/297
f  297/297 298/298 300/300 299/299
f  299/299 300/300 302/302 301/301
f  301/301 302/302 304/304 303/303
f  303/303 304/304 306/306 305/305
f  305/305 306/306 308/308 307/307
f  307/307 308/308 310/310 309/309
f  309/309 310/310 312/312 311/311
f  311/311 312/312 314/314 313/313
f  313/313 314/314 316/316 315/315
f  315/315 316/316 318/318 317/317
f  317/317 318/318 320/320 319/319
f  319/319 320/320 322/322 321/321
f  321/321 322/322 324/324 323/323
f  323/323 324/324 326/326 325/325
f  325/325 326/326 328/328 327/327
f  327/327 328/328 330/330 329/329
f  329/329 330/330 332/332 331/331
f  331/331 332/332 334/334 333/333
f  333/333 334/334 336/336 335/335
f  335/335 336/336 338/338 337/337
f  337/337 338/338 340/340 339/339
f  339/339 340/340 342/342 341/341
f  341/341 342/342 344/344 343/343
f  343/343 344/344 346/346 345/345
f  345/345 346/346 348/348 347/347
f  347/347 348/348 350/350 349/349
f  349/349 350/350 352/352 351/351
f  351/351 352/352 354/354 353/353
f  353/353 354/354 356/356 355/355
f  355/355 356/356 358/358 357/357
f  357/357 358/358 360/360 359/359
f  359/359 360/360 362/362 361/361
f  361/361 362/362 364/364 363/363
f  363/363 364/364 366/366 365/365
f  365/365 366/366 368/368 367/367
f  367/367 368/368 370/370 369/369
f  369/369 370/370 372/372 371/371
f  371/371 372/372 374/374 373/373
f  373/373 374/374 376/376 375/375
f  375/375 376/376 378/378 377/377
f  377/377 378/378 380/380 379/379
f  379/379 380/380 382/382 381/381
f  381/381 382/382 384/384 383/383
f  383/383 384/384 386/386 385/385
f  385/385 386/386 388/388 387/387
f  387/387 388/388 390/390 389/389
f  389/389 390/390 392/392 391/391
f  391/391 392/392 394/394 393/393
f  393/393 394/394 396/396 395/395
f  395/395 396/396 398/398 397/397
f  397/397 398/398 400/400 399/399
f  399/399 400/400 402/402 401/401
f  401/401 402/402 404/404 403/403
f  403/403 404/404 406/406 405/405
f  405/405 406/406 408/408 407/407
f  407/407 408/408 410/410 409/409
f  409/409 410/410 412/412 411/411
f  411/411 412/412 414/414 413/413
f  413/413 414/414 416/416 415/415
f  415/415 416/416 418/418 417/417
f  417/417 418/418 420/420 419/419
f  419/419 420/420 422/422 421/421
f  421/421 422/422 424/424 423/423
f  423/423 424/424 426/426 425/425
g g2
s 2
g g3
s 3
g g4
s 4
