# Shape file for lane 5
v 29.684 -41.459 -0.300
vt 0.000 0.000
v 31.507 -40.637 -0.500
vt -1.000 0.000
v 28.861 -39.636 -0.300
vt 0.000 0.040
v 30.684 -38.814 -0.500
vt -1.000 0.040
v 28.038 -37.813 -0.300
vt 0.000 0.080
v 29.861 -36.991 -0.500
vt -1.000 0.080
v 27.215 -35.991 -0.300
vt 0.000 0.120
v 29.038 -35.168 -0.500
vt -1.000 0.120
v 26.393 -34.168 -0.300
vt 0.000 0.160
v 28.216 -33.345 -0.500
vt -1.000 0.160
v 25.570 -32.345 -0.300
vt 0.000 0.200
v 27.393 -31.522 -0.500
vt -1.000 0.200
v 24.747 -30.522 -0.300
vt 0.000 0.240
v 26.570 -29.699 -0.500
vt -1.000 0.240
v 23.924 -28.699 -0.300
vt 0.000 0.280
v 25.747 -27.876 -0.500
vt -1.000 0.280
v 23.102 -26.876 -0.300
vt 0.000 0.320
v 24.925 -26.053 -0.500
vt -1.000 0.320
v 22.279 -25.053 -0.300
vt 0.000 0.360
v 24.102 -24.230 -0.500
vt -1.000 0.360
v 21.456 -23.230 -0.300
vt 0.000 0.400
v 23.279 -22.407 -0.500
vt -1.000 0.400
v 20.633 -21.407 -0.300
vt 0.000 0.440
v 22.456 -20.584 -0.500
vt -1.000 0.440
v 19.811 -19.584 -0.300
vt 0.000 0.480
v 21.633 -18.761 -0.500
vt -1.000 0.480
v 18.988 -17.761 -0.300
vt 0.000 0.520
v 20.811 -16.939 -0.500
vt -1.000 0.520
v 18.165 -15.938 -0.300
vt 0.000 0.560
v 19.988 -15.116 -0.500
vt -1.000 0.560
v 17.342 -14.115 -0.300
vt 0.000 0.600
v 19.165 -13.293 -0.500
vt -1.000 0.600
v 16.520 -12.293 -0.300
vt 0.000 0.640
v 18.342 -11.470 -0.500
vt -1.000 0.640
v 15.697 -10.470 -0.300
vt 0.000 0.680
v 17.520 -9.647 -0.500
vt -1.000 0.680
v 14.874 -8.647 -0.300
vt 0.000 0.720
v 16.697 -7.824 -0.500
vt -1.000 0.720
v 14.051 -6.824 -0.300
vt 0.000 0.760
v 15.874 -6.001 -0.500
vt -1.000 0.760
v 13.228 -5.001 -0.300
vt 0.000 0.800
v 15.051 -4.178 -0.500
vt -1.000 0.800
v 12.406 -3.178 -0.300
vt 0.000 0.840
v 14.229 -2.355 -0.500
vt -1.000 0.840
v 11.583 -1.355 -0.300
vt 0.000 0.880
v 13.406 -0.532 -0.500
vt -1.000 0.880
v 10.760 0.468 -0.300
vt 0.000 0.920
v 12.583 1.291 -0.500
vt -1.000 0.920
v 9.937 2.291 -0.300
vt 0.000 0.960
v 11.760 3.114 -0.500
vt -1.000 0.960
v 9.115 4.114 -0.300
vt 0.000 1.000
v 10.938 4.937 -0.500
vt -1.000 1.000
v 8.448 5.580 -0.300
vt 0.000 1.040
v 10.302 6.331 -0.500
vt -1.000 1.040
v 6.846 8.213 -0.300
vt 0.000 1.080
v 8.604 9.166 -0.500
vt -1.000 1.080
v 5.196 11.465 -0.300
vt 0.000 1.120
v 6.772 12.696 -0.500
vt -1.000 1.120
v 4.103 12.881 -0.300
vt 0.000 1.160
v 5.699 14.087 -0.500
vt -1.000 1.160
v 4.136 12.598 -0.300
vt 0.000 1.200
v 5.960 13.420 -0.500
vt -1.000 1.200
v 1.905 16.137 -0.300
vt 0.000 1.240
v 3.503 17.340 -0.500
vt -1.000 1.240
v 0.528 18.123 -0.300
vt 0.000 1.280
v 2.072 19.395 -0.500
vt -1.000 1.280
v -0.812 20.044 -0.300
vt 0.000 1.320
v 0.684 21.372 -0.500
vt -1.000 1.320
v -0.557 20.323 -0.300
vt 0.000 1.360
v 1.161 21.347 -0.500
vt -1.000 1.360
v -1.257 21.181 -0.300
vt 0.000 1.400
v 0.544 22.050 -0.500
vt -1.000 1.400
v -2.083 22.081 -0.300
vt 0.000 1.440
v -0.219 22.806 -0.500
vt -1.000 1.440
v -5.195 27.019 -0.300
vt 0.000 1.480
v -3.745 28.396 -0.500
vt -1.000 1.480
v -4.481 26.598 -0.300
vt 0.000 1.520
v -2.713 27.533 -0.500
vt -1.000 1.520
v -5.140 27.154 -0.300
vt 0.000 1.560
v -3.275 27.877 -0.500
vt -1.000 1.560
v -8.244 32.082 -0.300
vt 0.000 1.600
v -6.791 33.457 -0.500
vt -1.000 1.600
v -7.142 31.071 -0.300
vt 0.000 1.640
v -5.311 31.878 -0.500
vt -1.000 1.640
v -8.164 32.353 -0.300
vt 0.000 1.680
v -6.306 33.094 -0.500
vt -1.000 1.680
v -11.467 37.562 -0.300
vt 0.000 1.720
v -10.077 39.000 -0.500
vt -1.000 1.720
v -10.139 35.997 -0.300
vt 0.000 1.760
v -8.295 36.772 -0.500
vt -1.000 1.760
v -11.232 37.453 -0.300
vt 0.000 1.800
v -9.376 38.198 -0.500
vt -1.000 1.800
v -11.686 38.504 -0.300
vt 0.000 1.840
v -9.773 39.086 -0.500
vt -1.000 1.840
v -13.231 41.259 -0.300
vt 0.000 1.880
v -11.402 42.068 -0.500
vt -1.000 1.880
v -13.882 42.786 -0.300
vt 0.000 1.920
v -12.026 43.531 -0.500
vt -1.000 1.920
v -15.151 44.655 -0.300
vt 0.000 1.960
v -13.317 45.454 -0.500
vt -1.000 1.960
v -17.882 49.402 -0.300
vt 0.000 2.000
v -16.437 50.785 -0.500
vt -1.000 2.000
v -17.042 48.275 -0.300
vt 0.000 2.040
v -15.219 49.098 -0.500
vt -1.000 2.040
v -19.994 52.986 -0.300
vt 0.000 2.080
v -18.578 54.399 -0.500
vt -1.000 2.080
v -19.045 51.854 -0.300
vt 0.000 2.120
v -17.233 52.702 -0.500
vt -1.000 2.120
v -21.443 56.114 -0.300
vt 0.000 2.160
v -19.954 57.449 -0.500
vt -1.000 2.160
v -20.652 54.773 -0.300
vt 0.000 2.200
v -18.792 55.508 -0.500
vt -1.000 2.200
v -22.405 57.679 -0.300
vt 0.000 2.240
v -20.669 58.671 -0.500
vt -1.000 2.240
v -22.320 57.498 -0.300
vt 0.000 2.280
v -20.408 58.085 -0.500
vt -1.000 2.280
v -24.742 61.950 -0.300
vt 0.000 2.320
v -23.103 63.097 -0.500
vt -1.000 2.320
v -24.505 61.831 -0.300
vt 0.000 2.360
v -22.655 62.590 -0.500
vt -1.000 2.360
v -26.454 65.042 -0.300
vt 0.000 2.400
v -24.768 66.117 -0.500
vt -1.000 2.400
v -26.329 65.219 -0.300
vt 0.000 2.440
v -24.471 65.958 -0.500
vt -1.000 2.440
v -28.797 69.259 -0.300
vt 0.000 2.480
v -27.212 70.478 -0.500
vt -1.000 2.480
v -29.479 70.848 -0.300
vt 0.000 2.520
v -27.861 72.023 -0.500
vt -1.000 2.520
v -29.383 70.284 -0.300
vt 0.000 2.560
v -27.523 71.020 -0.500
vt -1.000 2.560
v -30.848 73.631 -0.300
vt 0.000 2.600
v -29.136 74.664 -0.500
vt -1.000 2.600
v -31.259 73.801 -0.300
vt 0.000 2.640
v -29.402 74.543 -0.500
vt -1.000 2.640
v -32.985 77.379 -0.300
vt 0.000 2.680
v -31.310 78.472 -0.500
vt -1.000 2.680
v -32.847 76.430 -0.300
vt 0.000 2.720
v -30.931 77.004 -0.500
vt -1.000 2.720
v -34.109 79.511 -0.300
vt 0.000 2.760
v -32.286 80.334 -0.500
vt -1.000 2.760
v -36.844 83.728 -0.300
vt 0.000 2.800
v -35.354 85.062 -0.500
vt -1.000 2.800
v -35.678 82.222 -0.300
vt 0.000 2.840
v -33.793 82.891 -0.500
vt -1.000 2.840
v -38.984 87.575 -0.300
vt 0.000 2.880
v -37.558 88.977 -0.500
vt -1.000 2.880
v -37.911 86.449 -0.300
vt 0.000 2.920
v -36.088 87.272 -0.500
vt -1.000 2.920
v -40.766 90.817 -0.300
vt 0.000 2.960
v -39.302 92.180 -0.500
vt -1.000 2.960
v -39.732 89.913 -0.300
vt 0.000 3.000
v -37.906 90.728 -0.500
vt -1.000 3.000
v -40.722 91.121 -0.300
vt 0.000 3.040
v -38.862 91.857 -0.500
vt -1.000 3.040
v -41.713 93.374 -0.300
vt 0.000 3.080
v -39.889 94.195 -0.500
vt -1.000 3.080
v -44.860 98.321 -0.300
vt 0.000 3.120
v -43.489 99.778 -0.500
vt -1.000 3.120
v -43.572 96.871 -0.300
vt 0.000 3.160
v -41.749 97.694 -0.500
vt -1.000 3.160
v -46.791 101.711 -0.300
vt 0.000 3.200
v -45.412 103.159 -0.500
vt -1.000 3.200
v -45.445 100.399 -0.300
vt 0.000 3.240
v -43.626 101.230 -0.500
vt -1.000 3.240
v -48.530 105.159 -0.300
vt 0.000 3.280
v -47.137 106.594 -0.500
vt -1.000 3.280
v -47.429 103.919 -0.300
vt 0.000 3.320
v -45.616 104.764 -0.500
vt -1.000 3.320
v -47.904 105.216 -0.300
vt 0.000 3.360
v -46.042 105.947 -0.500
vt -1.000 3.360
v -49.282 107.344 -0.300
vt 0.000 3.400
v -47.465 108.179 -0.500
vt -1.000 3.400
v -49.519 107.792 -0.300
vt 0.000 3.440
v -47.598 108.346 -0.500
vt -1.000 3.440
v -51.417 111.392 -0.300
vt 0.000 3.480
v -49.656 112.338 -0.500
vt -1.000 3.480
v -51.691 112.089 -0.300
vt 0.000 3.520
v -49.824 112.808 -0.500
vt -1.000 3.520
v -53.214 114.557 -0.300
vt 0.000 3.560
v -51.423 115.447 -0.500
vt -1.000 3.560
v -53.338 114.754 -0.300
vt 0.000 3.600
v -51.418 115.313 -0.500
vt -1.000 3.600
v -55.419 118.697 -0.300
vt 0.000 3.640
v -53.699 119.717 -0.500
vt -1.000 3.640
v -55.510 119.063 -0.300
vt 0.000 3.680
v -53.647 119.789 -0.500
vt -1.000 3.680
v -57.232 121.912 -0.300
vt 0.000 3.720
v -55.484 122.884 -0.500
vt -1.000 3.720
v -58.565 124.711 -0.300
vt 0.000 3.760
v -56.936 125.872 -0.500
vt -1.000 3.760
v -58.698 124.656 -0.300
vt 0.000 3.800
v -56.875 125.478 -0.500
vt -1.000 3.800
v -60.970 128.734 -0.300
vt 0.000 3.840
v -59.431 130.012 -0.500
vt -1.000 3.840
v -60.419 127.591 -0.300
vt 0.000 3.880
v -58.552 128.310 -0.500
vt -1.000 3.880
v -62.303 131.577 -0.300
vt 0.000 3.920
v -60.663 132.723 -0.500
vt -1.000 3.920
v -62.428 131.429 -0.300
vt 0.000 3.960
v -60.590 132.219 -0.500
vt -1.000 3.960
v -64.923 135.399 -0.300
vt 0.000 4.000
v -63.366 136.654 -0.500
vt -1.000 4.000
v -64.258 134.616 -0.300
vt 0.000 4.040
v -62.399 135.353 -0.500
vt -1.000 4.040
v -67.276 139.509 -0.300
vt 0.000 4.080
v -65.824 140.884 -0.500
vt -1.000 4.080
v -66.301 138.531 -0.300
vt 0.000 4.120
v -64.478 139.354 -0.500
vt -1.000 4.120
v -68.946 142.630 -0.300
vt 0.000 4.160
v -67.436 143.942 -0.500
vt -1.000 4.160
v -68.634 142.772 -0.300
vt 0.000 4.200
v -66.890 143.752 -0.500
vt -1.000 4.200
v -69.147 143.313 -0.300
vt 0.000 4.240
v -67.293 144.064 -0.500
vt -1.000 4.240
v -70.392 146.102 -0.300
vt 0.000 4.280
v -68.628 147.044 -0.500
vt -1.000 4.280
v -71.034 146.631 -0.300
vt 0.000 4.320
v -69.170 147.355 -0.500
vt -1.000 4.320
v -71.744 148.442 -0.300
vt 0.000 4.360
v -69.876 149.156 -0.500
vt -1.000 4.360
v -72.899 150.106 -0.300
vt 0.000 4.400
v -71.034 150.829 -0.500
vt -1.000 4.400
v -76.205 155.327 -0.300
vt 0.000 4.440
v -74.802 156.752 -0.500
vt -1.000 4.440
v -75.036 154.065 -0.300
vt 0.000 4.480
v -73.213 154.888 -0.500
vt -1.000 4.480
v -77.233 157.857 -0.300
vt 0.000 4.520
v -75.658 159.089 -0.500
vt -1.000 4.520
v -76.909 157.579 -0.300
vt 0.000 4.560
v -75.086 158.402 -0.500
vt -1.000 4.560
v -80.044 162.337 -0.300
vt 0.000 4.600
v -78.648 163.770 -0.500
vt -1.000 4.600
v -78.799 160.955 -0.300
vt 0.000 4.640
v -76.968 161.761 -0.500
vt -1.000 4.640
v -79.884 162.645 -0.300
vt 0.000 4.680
v -78.055 163.453 -0.500
vt -1.000 4.680
v -80.550 164.190 -0.300
vt 0.000 4.720
v -78.695 164.940 -0.500
vt -1.000 4.720
v -81.745 165.895 -0.300
vt 0.000 4.760
v -79.898 166.663 -0.500
vt -1.000 4.760
v -82.582 167.847 -0.300
vt 0.000 4.800
v -80.745 168.639 -0.500
vt -1.000 4.800
v -83.738 169.698 -0.300
vt 0.000 4.840
v -81.916 170.524 -0.500
vt -1.000 4.840
v -86.738 174.449 -0.300
vt 0.000 4.880
v -85.334 175.873 -0.500
vt -1.000 4.880
v -85.657 173.141 -0.300
vt 0.000 4.920
v -83.834 173.964 -0.500
vt -1.000 4.920
v -88.872 178.046 -0.300
vt 0.000 4.960
v -87.501 179.503 -0.500
vt -1.000 4.960
v -87.272 176.070 -0.300
vt 0.000 5.000
v -85.403 176.781 -0.500
vt -1.000 5.000
v -88.963 178.876 -0.300
vt 0.000 5.040
v -87.202 179.825 -0.500
vt -1.000 5.040
v -89.232 179.566 -0.300
vt 0.000 5.080
v -87.366 180.285 -0.500
vt -1.000 5.080
v -90.819 182.155 -0.300
vt 0.000 5.120
v -89.040 183.070 -0.500
vt -1.000 5.120
v -91.080 183.012 -0.300
vt 0.000 5.160
v -89.211 183.724 -0.500
vt -1.000 5.160
v -92.966 186.183 -0.300
vt 0.000 5.200
v -91.247 187.205 -0.500
vt -1.000 5.200
v -94.946 189.518 -0.300
vt 0.000 5.240
v -93.451 190.846 -0.500
vt -1.000 5.240
v -94.378 188.646 -0.300
vt 0.000 5.280
v -92.555 189.469 -0.500
vt -1.000 5.280
v -96.263 192.205 -0.300
vt 0.000 5.320
v -94.644 193.379 -0.500
vt -1.000 5.320
v -96.188 192.016 -0.300
vt 0.000 5.360
v -94.352 192.810 -0.500
vt -1.000 5.360
v -98.313 195.449 -0.300
vt 0.000 5.400
v -96.680 196.603 -0.500
vt -1.000 5.400
v -98.061 195.312 -0.300
vt 0.000 5.440
v -96.212 196.074 -0.500
vt -1.000 5.440
v -99.732 198.063 -0.300
vt 0.000 5.480
v -97.993 199.050 -0.500
vt -1.000 5.480
v -100.062 199.117 -0.300
vt 0.000 5.520
v -98.241 199.944 -0.500
vt -1.000 5.520
v -102.376 202.764 -0.300
vt 0.000 5.560
v -100.798 203.992 -0.500
vt -1.000 5.560
v -103.010 204.290 -0.300
vt 0.000 5.600
v -101.389 205.462 -0.500
vt -1.000 5.600
v -102.618 203.065 -0.300
vt 0.000 5.640
v -100.708 203.660 -0.500
vt -1.000 5.640
v -104.333 206.988 -0.300
vt 0.000 5.680
v -102.608 208.000 -0.500
vt -1.000 5.680
v -104.801 207.249 -0.300
vt 0.000 5.720
v -102.943 207.988 -0.500
vt -1.000 5.720
v -106.498 210.790 -0.300
vt 0.000 5.760
v -104.816 211.872 -0.500
vt -1.000 5.760
v -106.392 209.880 -0.300
vt 0.000 5.800
v -104.475 210.451 -0.500
vt -1.000 5.800
v -109.868 215.754 -0.300
vt 0.000 5.840
v -108.446 217.160 -0.500
vt -1.000 5.840
v -108.775 214.603 -0.300
vt 0.000 5.880
v -106.952 215.426 -0.500
vt -1.000 5.880
v -111.702 219.066 -0.300
vt 0.000 5.920
v -110.255 220.446 -0.500
vt -1.000 5.920
v -110.307 217.267 -0.300
vt 0.000 5.960
v -108.418 217.925 -0.500
vt -1.000 5.960
v -111.594 219.293 -0.300
vt 0.000 6.000
v -109.736 220.033 -0.500
vt -1.000 6.000
v -112.554 221.547 -0.300
vt 0.000 6.040
v -110.731 222.369 -0.500
vt -1.000 6.040
v -113.531 222.728 -0.300
vt 0.000 6.080
v -111.672 223.464 -0.500
vt -1.000 6.080
v -114.306 224.789 -0.300
vt 0.000 6.120
v -112.462 225.562 -0.500
vt -1.000 6.120
v -115.453 226.364 -0.300
vt 0.000 6.160
v -113.606 227.130 -0.500
vt -1.000 6.160
v -118.687 231.466 -0.300
vt 0.000 6.200
v -117.297 232.905 -0.500
vt -1.000 6.200
v -117.544 230.200 -0.300
vt 0.000 6.240
v -115.730 231.041 -0.500
vt -1.000 6.240
v -120.410 234.898 -0.300
vt 0.000 6.280
v -119.003 236.320 -0.500
vt -1.000 6.280
v -119.130 233.084 -0.300
vt 0.000 6.320
v -117.264 233.804 -0.500
vt -1.000 6.320
v -120.570 235.372 -0.300
vt 0.000 6.360
v -118.762 236.227 -0.500
vt -1.000 6.360
v -121.084 236.579 -0.300
vt 0.000 6.400
v -119.221 237.306 -0.500
vt -1.000 6.400
v -122.150 238.011 -0.300
vt 0.000 6.440
v -120.273 238.701 -0.500
vt -1.000 6.440
v -122.936 240.023 -0.300
vt 0.000 6.480
v -121.070 240.743 -0.500
vt -1.000 6.480
v -124.515 242.606 -0.300
vt 0.000 6.520
v -122.736 243.520 -0.500
vt -1.000 6.520
v -127.212 246.881 -0.300
vt 0.000 6.560
v -125.795 248.293 -0.500
vt -1.000 6.560
v -126.009 245.354 -0.300
vt 0.000 6.600
v -124.161 246.118 -0.500
vt -1.000 6.600
v -128.561 249.885 -0.300
vt 0.000 6.640
v -127.051 251.195 -0.500
vt -1.000 6.640
v -127.934 248.768 -0.300
vt 0.000 6.680
v -126.083 249.524 -0.500
vt -1.000 6.680
v -129.872 251.963 -0.300
vt 0.000 6.720
v -128.183 253.034 -0.500
vt -1.000 6.720
v -129.766 252.175 -0.300
vt 0.000 6.760
v -127.908 252.916 -0.500
vt -1.000 6.760
v -132.213 256.181 -0.300
vt 0.000 6.800
v -130.624 257.396 -0.500
vt -1.000 6.800
v -131.809 255.876 -0.300
vt 0.000 6.840
v -129.972 256.667 -0.500
vt -1.000 6.840
v -133.919 259.290 -0.300
vt 0.000 6.880
v -132.281 260.438 -0.500
vt -1.000 6.880
v -133.527 258.998 -0.300
vt 0.000 6.920
v -131.660 259.717 -0.500
vt -1.000 6.920
v -136.254 263.448 -0.300
vt 0.000 6.960
v -134.716 264.726 -0.500
vt -1.000 6.960
v -136.439 264.357 -0.300
vt 0.000 7.000
v -134.768 265.456 -0.500
vt -1.000 7.000
v -136.590 264.089 -0.300
vt 0.000 7.040
v -134.725 264.810 -0.500
vt -1.000 7.040
v -137.900 267.213 -0.300
vt 0.000 7.080
v -136.152 268.185 -0.500
vt -1.000 7.080
v -138.464 267.602 -0.300
vt 0.000 7.120
v -136.601 268.329 -0.500
vt -1.000 7.120
v -139.980 270.895 -0.300
vt 0.000 7.160
v -138.259 271.913 -0.500
vt -1.000 7.160
v -140.378 270.980 -0.300
vt 0.000 7.200
v -138.509 271.691 -0.500
vt -1.000 7.200
v -143.737 276.393 -0.300
vt 0.000 7.240
v -142.356 277.839 -0.500
vt -1.000 7.240
v -142.462 275.025 -0.300
vt 0.000 7.280
v -140.639 275.848 -0.500
vt -1.000 7.280
v -145.487 279.618 -0.300
vt 0.000 7.320
v -144.063 281.022 -0.500
vt -1.000 7.320
v -144.377 278.405 -0.300
vt 0.000 7.360
v -142.548 279.214 -0.500
vt -1.000 7.360
v -147.570 283.397 -0.300
vt 0.000 7.400
v -146.200 284.853 -0.500
vt -1.000 7.400
v -146.166 281.798 -0.300
vt 0.000 7.440
v -144.328 282.586 -0.500
vt -1.000 7.440
v -147.219 283.160 -0.300
vt 0.000 7.480
v -145.360 283.898 -0.500
vt -1.000 7.480
v -148.195 285.434 -0.300
vt 0.000 7.520
v -146.373 286.259 -0.500
vt -1.000 7.520
v -149.202 286.948 -0.300
vt 0.000 7.560
v -147.366 287.741 -0.500
vt -1.000 7.560
v -149.940 288.665 -0.300
vt 0.000 7.600
v -148.093 289.433 -0.500
vt -1.000 7.600
v -151.061 290.191 -0.300
vt 0.000 7.640
v -149.208 290.942 -0.500
vt -1.000 7.640
v -153.369 294.388 -0.300
vt 0.000 7.680
v -151.797 295.624 -0.500
vt -1.000 7.680
v -153.070 294.074 -0.300
vt 0.000 7.720
v -151.247 294.897 -0.500
vt -1.000 7.720
v -156.149 298.868 -0.300
vt 0.000 7.760
v -154.754 300.300 -0.500
vt -1.000 7.760
v -155.068 297.639 -0.300
vt 0.000 7.800
v -153.256 298.485 -0.500
vt -1.000 7.800
v -157.756 302.178 -0.300
vt 0.000 7.840
v -156.319 303.569 -0.500
vt -1.000 7.840
v -156.872 301.012 -0.300
vt 0.000 7.880
v -155.049 301.835 -0.500
vt -1.000 7.880
v -159.850 305.742 -0.300
vt 0.000 7.920
v -158.438 307.159 -0.500
vt -1.000 7.920
v -158.652 304.112 -0.300
vt 0.000 7.960
v -156.799 304.864 -0.500
vt -1.000 7.960
v -160.192 306.797 -0.300
vt 0.000 8.000
v -158.433 307.749 -0.500
vt -1.000 8.000
v -160.474 307.492 -0.300
vt 0.000 8.040
v -158.610 308.217 -0.500
vt -1.000 8.040
v -162.123 310.210 -0.300
vt 0.000 8.080
v -160.360 311.155 -0.500
vt -1.000 8.080
v -162.134 310.190 -0.300
vt 0.000 8.120
v -160.218 310.762 -0.500
vt -1.000 8.120
v -164.396 314.422 -0.300
vt 0.000 8.160
v -162.718 315.511 -0.500
vt -1.000 8.160
v -165.973 317.211 -0.300
vt 0.000 8.200
v -164.441 318.496 -0.500
vt -1.000 8.200
v -165.606 316.545 -0.300
vt 0.000 8.240
v -163.783 317.367 -0.500
vt -1.000 8.240
v -167.401 319.998 -0.300
vt 0.000 8.280
v -165.766 321.150 -0.500
vt -1.000 8.280
v -167.467 320.031 -0.300
vt 0.000 8.320
v -165.641 320.848 -0.500
vt -1.000 8.320
v -169.642 324.016 -0.300
vt 0.000 8.360
v -168.083 325.268 -0.500
vt -1.000 8.360
v -169.373 323.406 -0.300
vt 0.000 8.400
v -167.541 324.207 -0.500
vt -1.000 8.400
v -171.329 326.781 -0.300
vt 0.000 8.440
v -169.683 327.917 -0.500
vt -1.000 8.440
v -171.294 327.026 -0.300
vt 0.000 8.480
v -169.471 327.849 -0.500
vt -1.000 8.480
v -173.711 330.822 -0.300
vt 0.000 8.520
v -172.153 332.075 -0.500
vt -1.000 8.520
v -173.224 330.453 -0.300
vt 0.000 8.560
v -171.399 331.271 -0.500
vt -1.000 8.560
v -175.197 333.836 -0.300
vt 0.000 8.600
v -173.563 334.989 -0.500
vt -1.000 8.600
v -175.600 334.967 -0.300
vt 0.000 8.640
v -173.877 335.983 -0.500
vt -1.000 8.640
v -176.058 335.212 -0.300
vt 0.000 8.680
v -174.200 335.954 -0.500
vt -1.000 8.680
v -177.768 338.770 -0.300
vt 0.000 8.720
v -176.089 339.858 -0.500
vt -1.000 8.720
v -177.647 337.843 -0.300
vt 0.000 8.760
v -175.730 338.415 -0.500
vt -1.000 8.760
v -179.192 341.544 -0.300
vt 0.000 8.800
v -177.428 342.488 -0.500
vt -1.000 8.800
v -179.830 342.065 -0.300
vt 0.000 8.840
v -177.965 342.790 -0.500
vt -1.000 8.840
v -182.948 347.012 -0.300
vt 0.000 8.880
v -181.499 348.391 -0.500
vt -1.000 8.880
v -181.584 345.210 -0.300
vt 0.000 8.920
v -179.695 345.868 -0.500
vt -1.000 8.920
v -184.998 350.757 -0.300
vt 0.000 8.960
v -183.595 352.182 -0.500
vt -1.000 8.960
v -183.814 349.519 -0.300
vt 0.000 9.000
v -181.992 350.344 -0.500
vt -1.000 9.000
v -184.756 350.627 -0.300
vt 0.000 9.040
v -182.892 351.351 -0.500
vt -1.000 9.040
v -185.303 351.964 -0.300
vt 0.000 9.080
v -183.401 352.583 -0.500
vt -1.000 9.080
v -186.702 354.311 -0.300
vt 0.000 9.120
v -184.854 355.075 -0.500
vt -1.000 9.120
v -189.942 359.423 -0.300
vt 0.000 9.160
v -188.553 360.861 -0.500
vt -1.000 9.160
v -188.751 358.065 -0.300
vt 0.000 9.200
v -186.928 358.888 -0.500
vt -1.000 9.200
v -191.981 362.925 -0.300
vt 0.000 9.240
v -190.606 364.377 -0.500
vt -1.000 9.240
v -190.388 361.070 -0.300
vt 0.000 9.280
v -188.524 361.795 -0.500
vt -1.000 9.280
v -191.817 363.314 -0.300
vt 0.000 9.320
v -190.007 364.166 -0.500
vt -1.000 9.320
v -192.339 364.541 -0.300
vt 0.000 9.360
v -190.477 365.270 -0.500
vt -1.000 9.360
v -193.720 366.677 -0.300
vt 0.000 9.400
v -191.902 367.511 -0.500
vt -1.000 9.400
v -196.164 371.052 -0.300
vt 0.000 9.440
v -194.681 372.394 -0.500
vt -1.000 9.440
v -195.531 370.118 -0.300
vt 0.000 9.480
v -193.708 370.940 -0.500
vt -1.000 9.480
v -198.353 374.727 -0.300
vt 0.000 9.520
v -196.915 376.117 -0.500
vt -1.000 9.520
v -197.531 373.693 -0.300
vt 0.000 9.560
v -195.720 374.541 -0.500
vt -1.000 9.560
v -199.691 377.705 -0.300
vt 0.000 9.600
v -198.156 378.988 -0.500
vt -1.000 9.600
v -199.184 376.717 -0.300
vt 0.000 9.640
v -197.332 377.472 -0.500
vt -1.000 9.640
v -201.089 379.861 -0.300
vt 0.000 9.680
v -199.392 380.919 -0.500
vt -1.000 9.680
v -201.139 380.204 -0.300
vt 0.000 9.720
v -199.289 380.966 -0.500
vt -1.000 9.720
v -202.960 383.399 -0.300
vt 0.000 9.760
v -201.266 384.461 -0.500
vt -1.000 9.760
v -204.344 385.987 -0.300
vt 0.000 9.800
v -202.757 387.204 -0.500
vt -1.000 9.800
v -204.266 385.652 -0.300
vt 0.000 9.840
v -202.443 386.474 -0.500
vt -1.000 9.840
v -206.525 389.716 -0.300
vt 0.000 9.880
v -204.984 390.991 -0.500
vt -1.000 9.880
v -205.919 388.410 -0.300
vt 0.000 9.920
v -204.040 389.093 -0.500
vt -1.000 9.920
v -208.845 393.320 -0.300
vt 0.000 9.960
v -207.350 394.649 -0.500
vt -1.000 9.960
v -208.067 392.589 -0.300
vt 0.000 10.000
v -206.244 393.412 -0.500
vt -1.000 10.000
v -0.375 20.432 -0.358
vt -0.292 1.320
v -0.375 20.432 -0.321
vt -0.106 1.360
v -25.923 65.380 -0.363
vt -0.315 2.400
v -25.923 65.380 -0.344
vt -0.219 2.440
v -52.081 115.120 -0.426
vt -0.632 3.560
v -52.081 115.120 -0.431
vt -0.655 3.600
v -58.547 124.724 -0.302
vt -0.011 3.760
v -58.547 124.724 -0.317
vt -0.083 3.800
v -129.151 252.420 -0.385
vt -0.427 6.720
v -129.151 252.420 -0.366
vt -0.331 6.760
v -138.858 271.558 -0.430
vt -0.652 7.160
v -138.858 271.558 -0.463
vt -0.813 7.200
v -167.157 320.170 -0.330
vt -0.149 8.280
v -167.157 320.170 -0.334
vt -0.170 8.320
v -170.369 327.443 -0.417
vt -0.583 8.440
v -170.369 327.443 -0.401
vt -0.507 8.480
mtllib Roads\3D_Road\Road_0cfada4c-b3d8-4a80-b43c-1d824436a9b5_5.mtl
usemtl Road Transition (Light)
g g1
s 1
f  1/1 2/2 4/4 3/3
f  3/3 4/4 6/6 5/5
f  5/5 6/6 8/8 7/7
f  7/7 8/8 10/10 9/9
f  9/9 10/10 12/12 11/11
f  11/11 12/12 14/14 13/13
f  13/13 14/14 16/16 15/15
f  15/15 16/16 18/18 17/17
f  17/17 18/18 20/20 19/19
f  19/19 20/20 22/22 21/21
f  21/21 22/22 24/24 23/23
f  23/23 24/24 26/26 25/25
f  25/25 26/26 28/28 27/27
f  27/27 28/28 30/30 29/29
f  29/29 30/30 32/32 31/31
f  31/31 32/32 34/34 33/33
f  33/33 34/34 36/36 35/35
f  35/35 36/36 38/38 37/37
f  37/37 38/38 40/40 39/39
f  39/39 40/40 42/42 41/41
f  41/41 42/42 44/44 43/43
f  43/43 44/44 46/46 45/45
f  45/45 46/46 48/48 47/47
f  47/47 48/48 50/50 49/49
f  49/49 50/50 52/52 51/51
f  51/51 52/52 54/54 53/53
f  53/53 54/54 56/56 55/55
f  55/55 56/56 58/58 57/57
f  57/57 58/58 60/60 59/59
f  59/59 60/60 62/62 61/61
f  61/61 62/62 64/64 63/63
f  63/63 64/64 66/66 65/65
f  65/65 66/66 68/68 67/67
f  67/67 503/503 69/69
f  69/69 70/70 72/72 71/71
f  71/71 72/72 74/74 73/73
f  73/73 74/74 76/76 75/75
f  75/75 76/76 78/78 77/77
f  77/77 78/78 80/80 79/79
f  79/79 80/80 82/82 81/81
f  81/81 82/82 84/84 83/83
f  83/83 84/84 86/86 85/85
f  85/85 86/86 88/88 87/87
f  87/87 88/88 90/90 89/89
f  89/89 90/90 92/92 91/91
f  91/91 92/92 94/94 93/93
f  93/93 94/94 96/96 95/95
f  95/95 96/96 98/98 97/97
f  97/97 98/98 100/100 99/99
f  99/99 100/100 102/102 101/101
f  101/101 102/102 104/104 103/103
f  103/103 104/104 106/106 105/105
f  105/105 106/106 108/108 107/107
f  107/107 108/108 110/110 109/109
f  109/109 110/110 112/112 111/111
f  111/111 112/112 114/114 113/113
f  113/113 114/114 116/116 115/115
f  115/115 116/116 118/118 117/117
f  117/117 118/118 120/120 119/119
f  119/119 120/120 122/122 121/121
f  121/121 505/505 123/123
f  123/123 124/124 126/126 125/125
f  125/125 126/126 128/128 127/127
f  127/127 128/128 130/130 129/129
f  129/129 130/130 132/132 131/131
f  131/131 132/132 134/134 133/133
f  133/133 134/134 136/136 135/135
f  135/135 136/136 138/138 137/137
f  137/137 138/138 140/140 139/139
f  139/139 140/140 142/142 141/141
f  141/141 142/142 144/144 143/143
f  143/143 144/144 146/146 145/145
f  145/145 146/146 148/148 147/147
f  147/147 148/148 150/150 149/149
f  149/149 150/150 152/152 151/151
f  151/151 152/152 154/154 153/153
f  153/153 154/154 156/156 155/155
f  155/155 156/156 158/158 157/157
f  157/157 158/158 160/160 159/159
f  159/159 160/160 162/162 161/161
f  161/161 162/162 164/164 163/163
f  163/163 164/164 166/166 165/165
f  165/165 166/166 168/168 167/167
f  167/167 168/168 170/170 169/169
f  169/169 170/170 172/172 171/171
f  171/171 172/172 174/174 173/173
f  173/173 174/174 176/176 175/175
f  175/175 176/176 178/178 177/177
f  177/177 178/178 180/180 179/179
f  179/179 507/507 181/181
f  181/181 182/182 184/184 183/183
f  183/183 184/184 186/186 185/185
f  185/185 186/186 188/188 187/187
f  187/187 188/188 190/190 189/189
f  189/189 509/509 191/191
f  191/191 192/192 194/194 193/193
f  193/193 194/194 196/196 195/195
f  195/195 196/196 198/198 197/197
f  197/197 198/198 200/200 199/199
f  199/199 200/200 202/202 201/201
f  201/201 202/202 204/204 203/203
f  203/203 204/204 206/206 205/205
f  205/205 206/206 208/208 207/207
f  207/207 208/208 210/210 209/209
f  209/209 210/210 212/212 211/211
f  211/211 212/212 214/214 213/213
f  213/213 214/214 216/216 215/215
f  215/215 216/216 218/218 217/217
f  217/217 218/218 220/220 219/219
f  219/219 220/220 222/222 221/221
f  221/221 222/222 224/224 223/223
f  223/223 224/224 226/226 225/225
f  225/225 226/226 228/228 227/227
f  227/227 228/228 230/230 229/229
f  229/229 230/230 232/232 231/231
f  231/231 232/232 234/234 233/233
f  233/233 234/234 236/236 235/235
f  235/235 236/236 238/238 237/237
f  237/237 238/238 240/240 239/239
f  239/239 240/240 242/242 241/241
f  241/241 242/242 244/244 243/243
f  243/243 244/244 246/246 245/245
f  245/245 246/246 248/248 247/247
f  247/247 248/248 250/250 249/249
f  249/249 250/250 252/252 251/251
f  251/251 252/252 254/254 253/253
f  253/253 254/254 256/256 255/255
f  255/255 256/256 258/258 257/257
f  257/257 258/258 260/260 259/259
f  259/259 260/260 262/262 261/261
f  261/261 262/262 264/264 263/263
f  263/263 264/264 266/266 265/265
f  265/265 266/266 268/268 267/267
f  267/267 268/268 270/270 269/269
f  269/269 270/270 272/272 271/271
f  271/271 272/272 274/274 273/273
f  273/273 274/274 276/276 275/275
f  275/275 276/276 278/278 277/277
f  277/277 278/278 280/280 279/279
f  279/279 280/280 282/282 281/281
f  281/281 282/282 284/284 283/283
f  283/283 284/284 286/286 285/285
f  285/285 286/286 288/288 287/287
f  287/287 288/288 290/290 289/289
f  289/289 290/290 292/292 291/291
f  291/291 292/292 294/294 293/293
f  293/293 294/294 296/296 295/295
f  295/295 296/296 298/298 297/297
f  297/297 298/298 300/300 299/299
f  299/299 300/300 302/302 301/301
f  301/301 302/302 304/304 303/303
f  303/303 304/304 306/306 305/305
f  305/305 306/306 308/308 307/307
f  307/307 308/308 310/310 309/309
f  309/309 310/310 312/312 311/311
f  311/311 312/312 314/314 313/313
f  313/313 314/314 316/316 315/315
f  315/315 316/316 318/318 317/317
f  317/317 318/318 320/320 319/319
f  319/319 320/320 322/322 321/321
f  321/321 322/322 324/324 323/323
f  323/323 324/324 326/326 325/325
f  325/325 326/326 328/328 327/327
f  327/327 328/328 330/330 329/329
f  329/329 330/330 332/332 331/331
f  331/331 332/332 334/334 333/333
f  333/333 334/334 336/336 335/335
f  335/335 336/336 338/338 337/337
f  337/337 511/511 339/339
f  339/339 340/340 342/342 341/341
f  341/341 342/342 344/344 343/343
f  343/343 344/344 346/346 345/345
f  345/345 346/346 348/348 347/347
f  347/347 348/348 350/350 349/349
f  349/349 350/350 352/352 351/351
f  351/351 352/352 354/354 353/353
f  353/353 354/354 356/356 355/355
f  355/355 356/356 358/358 357/357
f  357/357 358/358 360/360 359/359
f  359/359 513/513 361/361
f  361/361 362/362 364/364 363/363
f  363/363 364/364 366/366 365/365
f  365/365 366/366 368/368 367/367
f  367/367 368/368 370/370 369/369
f  369/369 370/370 372/372 371/371
f  371/371 372/372 374/374 373/373
f  373/373 374/374 376/376 375/375
f  375/375 376/376 378/378 377/377
f  377/377 378/378 380/380 379/379
f  379/379 380/380 382/382 381/381
f  381/381 382/382 384/384 383/383
f  383/383 384/384 386/386 385/385
f  385/385 386/386 388/388 387/387
f  387/387 388/388 390/390 389/389
f  389/389 390/390 392/392 391/391
f  391/391 392/392 394/394 393/393
f  393/393 394/394 396/396 395/395
f  395/395 396/396 398/398 397/397
f  397/397 398/398 400/400 399/399
f  399/399 400/400 402/402 401/401
f  401/401 402/402 404/404 403/403
f  403/403 404/404 406/406 405/405
f  405/405 406/406 408/408 407/407
f  407/407 408/408 410/410 409/409
f  409/409 410/410 412/412 411/411
f  411/411 412/412 414/414 413/413
f  413/413 414/414 416/416 415/415
f  415/415 515/515 417/417
f  417/417 418/418 420/420 419/419
f  419/419 420/420 422/422 421/421
f  421/421 422/422 424/424 423/423
f  423/423 517/517 425/425
f  425/425 426/426 428/428 427/427
f  427/427 428/428 430/430 429/429
f  429/429 430/430 432/432 431/431
f  431/431 432/432 434/434 433/433
f  433/433 434/434 436/436 435/435
f  435/435 436/436 438/438 437/437
f  437/437 438/438 440/440 439/439
f  439/439 440/440 442/442 441/441
f  441/441 442/442 444/444 443/443
f  443/443 444/444 446/446 445/445
f  445/445 446/446 448/448 447/447
f  447/447 448/448 450/450 449/449
f  449/449 450/450 452/452 451/451
f  451/451 452/452 454/454 453/453
f  453/453 454/454 456/456 455/455
f  455/455 456/456 458/458 457/457
f  457/457 458/458 460/460 459/459
f  459/459 460/460 462/462 461/461
f  461/461 462/462 464/464 463/463
f  463/463 464/464 466/466 465/465
f  465/465 466/466 468/468 467/467
f  467/467 468/468 470/470 469/469
f  469/469 470/470 472/472 471/471
f  471/471 472/472 474/474 473/473
f  473/473 474/474 476/476 475/475
f  475/475 476/476 478/478 477/477
f  477/477 478/478 480/480 479/479
f  479/479 480/480 482/482 481/481
f  481/481 482/482 484/484 483/483
f  483/483 484/484 486/486 485/485
f  485/485 486/486 488/488 487/487
f  487/487 488/488 490/490 489/489
f  489/489 490/490 492/492 491/491
f  491/491 492/492 494/494 493/493
f  493/493 494/494 496/496 495/495
f  495/495 496/496 498/498 497/497
f  497/497 498/498 500/500 499/499
f  499/499 500/500 502/502 501/501
g g2
s 2
f  503/503 68/68 70/70
f  505/505 122/122 124/124
f  507/507 180/180 182/182
f  509/509 190/190 192/192
f  511/511 338/338 340/340
f  513/513 360/360 362/362
f  515/515 416/416 418/418
f  517/517 424/424 426/426
g g3
s 3
f  69/67 503/503 504/504
f  123/121 505/505 506/506
f  181/179 507/507 508/508
f  191/189 509/509 510/510
f  339/337 511/511 512/512
f  361/359 513/513 514/514
f  417/415 515/515 516/516
f  425/423 517/517 518/518
g g4
s 4
f  503/503 70/68 504/504
f  505/505 124/122 506/506
f  507/507 182/180 508/508
f  509/509 192/190 510/510
f  511/511 340/338 512/512
f  513/513 362/360 514/514
f  515/515 418/416 516/516
f  517/517 426/424 518/518
