# Shape file for lane 1
v -70.577 -86.711 0.200
vt 0.000 0.000
v 9.632 -50.510 0.200
vt 2.250 0.000
v -71.400 -84.888 0.200
vt 0.000 0.050
v 8.809 -48.687 0.200
vt 2.250 0.050
v -72.223 -83.066 0.200
vt 0.000 0.100
v 7.986 -46.864 0.200
vt 2.250 0.100
v -73.045 -81.243 0.200
vt 0.000 0.150
v 7.163 -45.041 0.200
vt 2.250 0.150
v -73.868 -79.420 0.200
vt 0.000 0.200
v 6.341 -43.218 0.200
vt 2.250 0.200
v -74.691 -77.597 0.200
vt 0.000 0.250
v 5.518 -41.395 0.200
vt 2.250 0.250
v -75.514 -75.774 0.200
vt 0.000 0.300
v 4.695 -39.572 0.200
vt 2.250 0.300
v -76.337 -73.951 0.200
vt 0.000 0.350
v 3.872 -37.749 0.200
vt 2.250 0.350
v -77.159 -72.128 0.200
vt 0.000 0.400
v 3.049 -35.926 0.200
vt 2.250 0.400
v -77.982 -70.305 0.200
vt 0.000 0.450
v 2.227 -34.103 0.200
vt 2.250 0.450
v -78.805 -68.482 0.200
vt 0.000 0.500
v 1.404 -32.280 0.200
vt 2.250 0.500
v -79.628 -66.659 0.200
vt 0.000 0.550
v 0.581 -30.458 0.200
vt 2.250 0.550
v -80.450 -64.836 0.200
vt 0.000 0.600
v -0.242 -28.635 0.200
vt 2.250 0.600
v -81.273 -63.013 0.200
vt 0.000 0.650
v -1.064 -26.812 0.200
vt 2.250 0.650
v -82.096 -61.190 0.200
vt 0.000 0.700
v -1.887 -24.989 0.200
vt 2.250 0.700
v -82.919 -59.368 0.200
vt 0.000 0.750
v -2.710 -23.166 0.200
vt 2.250 0.750
v -83.741 -57.545 0.200
vt 0.000 0.800
v -3.533 -21.343 0.200
vt 2.250 0.800
v -84.564 -55.722 0.200
vt 0.000 0.850
v -4.355 -19.520 0.200
vt 2.250 0.850
v -85.387 -53.899 0.200
vt 0.000 0.900
v -5.178 -17.697 0.200
vt 2.250 0.900
v -86.210 -52.076 0.200
vt 0.000 0.950
v -6.001 -15.874 0.200
vt 2.250 0.950
v -87.032 -50.253 0.200
vt 0.000 1.000
v -6.824 -14.051 0.200
vt 2.250 1.000
v -87.855 -48.430 0.200
vt 0.000 1.050
v -7.646 -12.228 0.200
vt 2.250 1.050
v -88.678 -46.607 0.200
vt 0.000 1.100
v -8.469 -10.405 0.200
vt 2.250 1.100
v -89.501 -44.784 0.200
vt 0.000 1.150
v -9.292 -8.582 0.200
vt 2.250 1.150
v -90.324 -42.961 0.200
vt 0.000 1.200
v -10.115 -6.760 0.200
vt 2.250 1.200
v -91.146 -41.138 0.200
vt 0.000 1.250
v -10.938 -4.937 0.200
vt 2.250 1.250
v -93.501 -35.728 0.200
vt 0.000 1.300
v -11.942 -2.682 0.200
vt 2.250 1.300
v -89.871 -44.187 0.200
vt 0.000 1.350
v -12.498 -2.267 0.200
vt 2.250 1.350
v -81.480 -56.264 0.200
vt 0.000 1.400
v -12.139 -2.081 0.200
vt 2.250 1.400
v -83.659 -53.435 0.200
vt 0.000 1.450
v -13.449 -0.382 0.200
vt 2.250 1.450
v -96.150 -32.597 0.200
vt 0.000 1.500
v -15.921 3.559 0.200
vt 2.250 1.500
v -86.002 -49.987 0.200
vt 0.000 1.550
v -15.677 2.912 0.200
vt 2.250 1.550
v -84.374 -51.817 0.200
vt 0.000 1.600
v -16.452 4.135 0.200
vt 2.250 1.600
v -83.081 -52.975 0.200
vt 0.000 1.650
v -17.266 5.440 0.200
vt 2.250 1.650
v -95.066 -35.962 0.200
vt 0.000 1.700
v -19.459 9.066 0.200
vt 2.250 1.700
v -100.338 -26.601 0.200
vt 0.000 1.750
v -21.073 11.625 0.200
vt 2.250 1.750
v -104.602 -17.792 0.200
vt 0.000 1.800
v -22.587 14.106 0.200
vt 2.250 1.800
v -84.956 -48.733 0.200
vt 0.000 1.850
v -21.147 11.869 0.200
vt 2.250 1.850
v -101.713 -24.841 0.200
vt 0.000 1.900
v -23.928 16.310 0.200
vt 2.250 1.900
v -107.696 -12.624 0.200
vt 0.000 1.950
v -25.651 19.198 0.200
vt 2.250 1.950
v -88.172 -43.493 0.200
vt 0.000 2.000
v -24.230 16.967 0.200
vt 2.250 2.000
v -107.806 -13.277 0.200
vt 0.000 2.050
v -27.274 22.202 0.200
vt 2.250 2.050
v -110.333 -8.408 0.200
vt 0.000 2.100
v -28.598 24.200 0.200
vt 2.250 2.100
v -87.936 -41.511 0.200
vt 0.000 2.150
v -26.761 21.748 0.200
vt 2.250 2.150
v -111.535 -6.651 0.200
vt 0.000 2.200
v -30.418 27.467 0.200
vt 2.250 2.200
v -113.317 -3.517 0.200
vt 0.000 2.250
v -31.649 29.259 0.200
vt 2.250 2.250
v -116.913 6.452 0.200
vt 0.000 2.300
v -32.731 32.093 0.200
vt 2.250 2.300
v -113.822 -3.255 0.200
vt 0.000 2.350
v -33.349 32.356 0.200
vt 2.250 2.350
v -115.947 1.764 0.200
vt 0.000 2.400
v -34.295 34.581 0.200
vt 2.250 2.400
v -116.007 0.746 0.200
vt 0.000 2.450
v -35.322 35.874 0.200
vt 2.250 2.450
v -97.355 -26.651 0.200
vt 0.000 2.500
v -33.776 34.192 0.200
vt 2.250 2.500
v -117.303 3.024 0.200
vt 0.000 2.550
v -37.094 39.225 0.200
vt 2.250 2.550
v -97.870 -24.702 0.200
vt 0.000 2.600
v -35.569 37.449 0.200
vt 2.250 2.600
v -118.663 5.203 0.200
vt 0.000 2.650
v -38.968 42.524 0.200
vt 2.250 2.650
v -103.345 -17.316 0.200
vt 0.000 2.700
v -37.824 41.428 0.200
vt 2.250 2.700
v -122.969 14.383 0.200
vt 0.000 2.750
v -41.116 46.695 0.200
vt 2.250 2.750
v -117.935 3.144 0.200
vt 0.000 2.800
v -41.511 46.772 0.200
vt 2.250 2.800
v -127.468 25.187 0.200
vt 0.000 2.850
v -43.349 51.036 0.200
vt 2.250 2.850
v -114.860 -1.127 0.200
vt 0.000 2.900
v -42.765 49.335 0.200
vt 2.250 2.900
v -126.284 20.105 0.200
vt 0.000 2.950
v -44.861 53.486 0.200
vt 2.250 2.950
v -119.188 5.877 0.200
vt 0.000 3.000
v -45.001 53.209 0.200
vt 2.250 3.000
v -128.536 24.553 0.200
vt 0.000 3.050
v -46.771 57.086 0.200
vt 2.250 3.050
v -115.982 2.185 0.200
vt 0.000 3.100
v -46.234 55.844 0.200
vt 2.250 3.100
v -118.474 6.196 0.200
vt 0.000 3.150
v -47.278 57.917 0.200
vt 2.250 3.150
v -131.663 29.803 0.200
vt 0.000 3.200
v -49.839 62.188 0.200
vt 2.250 3.200
v -125.039 16.815 0.200
vt 0.000 3.250
v -49.686 62.268 0.200
vt 2.250 3.250
v -133.395 32.956 0.200
vt 0.000 3.300
v -51.686 65.632 0.200
vt 2.250 3.300
v -125.105 17.264 0.200
vt 0.000 3.350
v -51.409 65.356 0.200
vt 2.250 3.350
v -138.229 44.893 0.200
vt 0.000 3.400
v -53.923 70.123 0.200
vt 2.250 3.400
v -134.370 34.259 0.200
vt 0.000 3.450
v -54.161 70.461 0.200
vt 2.250 3.450
v -118.794 10.350 0.200
vt 0.000 3.500
v -53.234 69.052 0.200
vt 2.250 3.500
v -139.336 45.413 0.200
vt 0.000 3.550
v -56.410 74.860 0.200
vt 2.250 3.550
v -117.449 10.482 0.200
vt 0.000 3.600
v -54.677 72.156 0.200
vt 2.250 3.600
v -138.171 41.196 0.200
vt 0.000 3.650
v -57.963 77.399 0.200
vt 2.250 3.650
v -121.265 15.852 0.200
vt 0.000 3.700
v -56.866 75.824 0.200
vt 2.250 3.700
v -140.163 45.040 0.200
vt 0.000 3.750
v -59.818 80.938 0.200
vt 2.250 3.750
v -143.003 50.640 0.200
vt 0.000 3.800
v -61.178 83.025 0.200
vt 2.250 3.800
v -142.025 48.236 0.200
vt 0.000 3.850
v -61.775 84.347 0.200
vt 2.250 3.850
v -120.217 18.188 0.200
vt 0.000 3.900
v -59.931 82.294 0.200
vt 2.250 3.900
v -143.836 51.626 0.200
vt 0.000 3.950
v -63.625 87.822 0.200
vt 2.250 3.950
v -122.621 22.025 0.200
vt 0.000 4.000
v -61.957 85.774 0.200
vt 2.250 4.000
v -145.509 54.712 0.200
vt 0.000 4.050
v -65.458 91.262 0.200
vt 2.250 4.050
v -125.158 26.240 0.200
vt 0.000 4.100
v -63.856 89.375 0.200
vt 2.250 4.100
v -147.130 57.446 0.200
vt 0.000 4.150
v -67.369 94.624 0.200
vt 2.250 4.150
v -150.294 65.013 0.200
vt 0.000 4.200
v -68.382 97.176 0.200
vt 2.250 4.200
v -149.241 61.429 0.200
vt 0.000 4.250
v -69.274 98.161 0.200
vt 2.250 4.250
v -155.218 77.332 0.200
vt 0.000 4.300
v -70.659 101.700 0.200
vt 2.250 4.300
v -148.309 59.315 0.200
vt 0.000 4.350
v -70.796 100.976 0.200
vt 2.250 4.350
v -154.340 72.554 0.200
vt 0.000 4.400
v -72.221 104.182 0.200
vt 2.250 4.400
v -151.727 65.617 0.200
vt 0.000 4.450
v -72.917 104.769 0.200
vt 2.250 4.450
v -158.948 83.986 0.200
vt 0.000 4.500
v -74.460 108.600 0.200
vt 2.250 4.500
v -150.046 62.610 0.200
vt 0.000 4.550
v -74.345 107.480 0.200
vt 2.250 4.550
v -157.999 79.111 0.200
vt 0.000 4.600
v -76.008 111.072 0.200
vt 2.250 4.600
v -153.342 68.406 0.200
vt 0.000 4.650
v -76.454 111.211 0.200
vt 2.250 4.650
v -148.125 60.844 0.200
vt 0.000 4.700
v -76.477 111.938 0.200
vt 2.250 4.700
v -158.959 79.404 0.200
vt 0.000 4.750
v -78.750 115.605 0.200
vt 2.250 4.750
v -145.609 58.476 0.200
vt 0.000 4.800
v -77.898 114.682 0.200
vt 2.250 4.800
v -163.066 88.049 0.200
vt 0.000 4.850
v -80.948 119.682 0.200
vt 2.250 4.850
v -152.461 68.557 0.200
vt 0.000 4.900
v -80.334 118.973 0.200
vt 2.250 4.900
v -163.485 87.984 0.200
vt 0.000 4.950
v -82.639 122.740 0.200
vt 2.250 4.950
v -150.568 66.370 0.200
vt 0.000 5.000
v -82.052 121.593 0.200
vt 2.250 5.000
v -166.521 94.090 0.200
vt 0.000 5.050
v -84.711 126.511 0.200
vt 2.250 5.050
v -147.124 63.850 0.200
vt 0.000 5.100
v -83.246 124.377 0.200
vt 2.250 5.100
v -166.562 93.279 0.200
vt 0.000 5.150
v -86.353 129.481 0.200
vt 2.250 5.150
v -151.980 70.482 0.200
vt 0.000 5.200
v -85.553 128.201 0.200
vt 2.250 5.200
v -164.528 88.880 0.200
vt 0.000 5.250
v -87.813 131.994 0.200
vt 2.250 5.250
v -171.094 102.000 0.200
vt 0.000 5.300
v -89.536 135.051 0.200
vt 2.250 5.300
v -167.432 94.302 0.200
vt 0.000 5.350
v -89.800 135.742 0.200
vt 2.250 5.350
v -173.569 106.799 0.200
vt 0.000 5.400
v -91.541 138.664 0.200
vt 2.250 5.400
v -174.499 109.181 0.200
vt 0.000 5.450
v -92.295 140.590 0.200
vt 2.250 5.450
v -175.461 110.344 0.200
vt 0.000 5.500
v -93.411 142.154 0.200
vt 2.250 5.500
v -153.355 76.918 0.200
vt 0.000 5.550
v -91.635 139.645 0.200
vt 2.250 5.550
v -175.296 108.811 0.200
vt 0.000 5.600
v -95.088 145.014 0.200
vt 2.250 5.600
v -163.871 90.079 0.200
vt 0.000 5.650
v -94.560 144.301 0.200
vt 2.250 5.650
v -177.170 112.327 0.200
vt 0.000 5.700
v -96.961 148.529 0.200
vt 2.250 5.700
v -156.793 83.536 0.200
vt 0.000 5.750
v -95.394 146.577 0.200
vt 2.250 5.750
v -179.470 116.624 0.200
vt 0.000 5.800
v -98.933 152.089 0.200
vt 2.250 5.800
v -180.491 118.168 0.200
vt 0.000 5.850
v -100.005 153.749 0.200
vt 2.250 5.850
v -182.529 122.957 0.200
vt 0.000 5.900
v -100.945 155.943 0.200
vt 2.250 5.900
v -183.292 123.609 0.200
vt 0.000 5.950
v -102.054 157.437 0.200
vt 2.250 5.950
v -183.608 124.330 0.200
vt 0.000 6.000
v -102.787 159.144 0.200
vt 2.250 6.000
v -183.914 124.260 0.200
vt 0.000 6.050
v -103.773 160.611 0.200
vt 2.250 6.050
v -163.977 96.128 0.200
vt 0.000 6.100
v -102.186 158.785 0.200
vt 2.250 6.100
v -185.918 127.889 0.200
vt 0.000 6.150
v -105.709 164.091 0.200
vt 2.250 6.150
v -164.266 97.948 0.200
vt 0.000 6.200
v -103.951 162.027 0.200
vt 2.250 6.200
v -190.100 137.001 0.200
vt 0.000 6.250
v -107.838 168.257 0.200
vt 2.250 6.250
v -185.804 126.705 0.200
vt 0.000 6.300
v -108.331 168.442 0.200
vt 2.250 6.300
v -191.878 140.021 0.200
vt 0.000 6.350
v -109.761 171.657 0.200
vt 2.250 6.350
v -188.650 131.866 0.200
vt 0.000 6.400
v -110.385 172.097 0.200
vt 2.250 6.400
v -193.882 143.876 0.200
vt 0.000 6.450
v -111.640 175.185 0.200
vt 2.250 6.450
v -187.527 129.985 0.200
vt 0.000 6.500
v -111.878 174.943 0.200
vt 2.250 6.500
v -177.165 116.442 0.200
vt 0.000 6.550
v -111.390 174.903 0.200
vt 2.250 6.550
v -194.640 143.396 0.200
vt 0.000 6.600
v -114.431 179.596 0.200
vt 2.250 6.600
v -185.297 127.606 0.200
vt 0.000 6.650
v -114.070 179.285 0.200
vt 2.250 6.650
v -197.151 148.354 0.200
vt 0.000 6.700
v -116.380 183.284 0.200
vt 2.250 6.700
v -188.154 131.977 0.200
vt 0.000 6.750
v -116.281 182.754 0.200
vt 2.250 6.750
v -199.756 153.382 0.200
vt 0.000 6.800
v -118.400 186.926 0.200
vt 2.250 6.800
v -195.399 143.768 0.200
vt 0.000 6.850
v -118.866 187.204 0.200
vt 2.250 6.850
v -200.226 153.652 0.200
vt 0.000 6.900
v -120.095 190.024 0.200
vt 2.250 6.900
v -189.197 135.221 0.200
vt 0.000 6.950
v -119.740 189.256 0.200
vt 2.250 6.950
v -192.167 139.862 0.200
vt 0.000 7.000
v -120.842 191.405 0.200
vt 2.250 7.000
v -207.641 170.351 0.200
vt 0.000 7.050
v -123.622 196.522 0.200
vt 2.250 7.050
v -199.212 151.330 0.200
vt 0.000 7.100
v -123.309 195.857 0.200
vt 2.250 7.100
v -206.998 166.557 0.200
vt 0.000 7.150
v -125.241 199.110 0.200
vt 2.250 7.150
v -198.990 151.248 0.200
vt 0.000 7.200
v -124.996 198.881 0.200
vt 2.250 7.200
v -211.813 178.473 0.200
vt 0.000 7.250
v -127.476 203.599 0.200
vt 2.250 7.250
v -188.085 138.410 0.200
vt 0.000 7.300
v -125.511 200.285 0.200
vt 2.250 7.300
v -209.035 169.350 0.200
vt 0.000 7.350
v -128.827 205.552 0.200
vt 2.250 7.350
v -191.296 143.139 0.200
vt 0.000 7.400
v -127.621 203.880 0.200
vt 2.250 7.400
v -214.183 181.076 0.200
vt 0.000 7.450
v -131.082 210.028 0.200
vt 2.250 7.450
v -213.794 178.609 0.200
vt 0.000 7.500
v -132.034 211.156 0.200
vt 2.250 7.500
v -212.839 176.349 0.200
vt 0.000 7.550
v -132.611 212.508 0.200
vt 2.250 7.550
v -215.806 182.233 0.200
vt 0.000 7.600
v -133.986 214.629 0.200
vt 2.250 7.600
v -215.759 182.275 0.200
vt 0.000 7.650
v -134.597 216.286 0.200
vt 2.250 7.650
v -217.054 184.206 0.200
vt 0.000 7.700
v -135.773 217.932 0.200
vt 2.250 7.700
v -195.103 152.343 0.200
vt 0.000 7.750
v -133.970 215.641 0.200
vt 2.250 7.750
v -217.335 183.920 0.200
vt 0.000 7.800
v -137.502 220.944 0.200
vt 2.250 7.800
v -197.793 156.719 0.200
vt 0.000 7.850
v -135.887 219.262 0.200
vt 2.250 7.850
v -221.763 193.507 0.200
vt 0.000 7.900
v -139.656 225.169 0.200
vt 2.250 7.900
v -220.014 188.352 0.200
vt 0.000 7.950
v -140.459 225.968 0.200
vt 2.250 7.950
v -223.545 196.557 0.200
vt 0.000 8.000
v -141.576 228.574 0.200
vt 2.250 8.000
v -225.386 200.033 0.200
vt 0.000 8.050
v -142.797 230.415 0.200
vt 2.250 8.050
v -225.555 200.409 0.200
vt 0.000 8.100
v -143.460 232.100 0.200
vt 2.250 8.100
v -222.359 192.341 0.200
vt 0.000 8.150
v -144.084 232.553 0.200
vt 2.250 8.150
v -205.103 169.209 0.200
vt 0.000 8.200
v -142.790 231.347 0.200
vt 2.250 8.200
v -227.663 203.326 0.200
vt 0.000 8.250
v -146.340 236.948 0.200
vt 2.250 8.250
v -211.643 177.792 0.200
vt 0.000 8.300
v -145.178 235.466 0.200
vt 2.250 8.300
v -229.763 207.165 0.200
vt 0.000 8.350
v -148.300 240.447 0.200
vt 2.250 8.350
v -222.785 193.080 0.200
vt 0.000 8.400
v -148.455 240.187 0.200
vt 2.250 8.400
v -231.936 211.417 0.200
vt 0.000 8.450
v -150.200 244.023 0.200
vt 2.250 8.450
v -219.605 189.378 0.200
vt 0.000 8.500
v -149.691 242.820 0.200
vt 2.250 8.500
v -232.847 212.387 0.200
vt 0.000 8.550
v -152.017 247.178 0.200
vt 2.250 8.550
v -224.020 196.188 0.200
vt 0.000 8.600
v -151.939 246.670 0.200
vt 2.250 8.600
v -236.183 219.481 0.200
vt 0.000 8.650
v -154.058 251.095 0.200
vt 2.250 8.650
v -220.844 193.130 0.200
vt 0.000 8.700
v -153.172 249.384 0.200
vt 2.250 8.700
v -228.342 203.909 0.200
vt 0.000 8.750
v -154.820 252.267 0.200
vt 2.250 8.750
v -239.208 224.470 0.200
vt 0.000 8.800
v -157.114 256.165 0.200
vt 2.250 8.800
v -234.045 213.771 0.200
vt 0.000 8.850
v -157.129 256.524 0.200
vt 2.250 8.850
v -240.957 227.661 0.200
vt 0.000 8.900
v -158.963 259.614 0.200
vt 2.250 8.900
v -234.659 214.896 0.200
vt 0.000 8.950
v -158.916 259.695 0.200
vt 2.250 8.950
v -243.187 231.860 0.200
vt 0.000 9.000
v -160.940 263.156 0.200
vt 2.250 9.000
v -219.709 196.842 0.200
vt 0.000 9.050
v -158.932 260.482 0.200
vt 2.250 9.050
v -242.728 229.785 0.200
vt 0.000 9.100
v -162.515 265.977 0.200
vt 2.250 9.100
v -223.822 202.393 0.200
vt 0.000 9.150
v -161.154 264.173 0.200
vt 2.250 9.150
v -244.988 233.938 0.200
vt 0.000 9.200
v -164.499 269.512 0.200
vt 2.250 9.200
v -222.949 203.284 0.200
vt 0.000 9.250
v -162.646 267.374 0.200
vt 2.250 9.250
v -247.283 238.493 0.200
vt 0.000 9.300
v -166.389 273.137 0.200
vt 2.250 9.300
v -249.459 242.577 0.200
vt 0.000 9.350
v -167.667 275.043 0.200
vt 2.250 9.350
v -248.406 240.070 0.200
vt 0.000 9.400
v -168.237 276.361 0.200
vt 2.250 9.400
v -250.201 243.368 0.200
vt 0.000 9.450
v -169.402 278.232 0.200
vt 2.250 9.450
v -251.516 246.449 0.200
vt 0.000 9.500
v -170.255 280.222 0.200
vt 2.250 9.500
v -253.013 248.890 0.200
vt 0.000 9.550
v -171.452 281.931 0.200
vt 2.250 9.550
v -239.879 226.446 0.200
vt 0.000 9.600
v -170.671 280.800 0.200
vt 2.250 9.600
v -253.331 248.821 0.200
vt 0.000 9.650
v -173.122 285.024 0.200
vt 2.250 9.650
v -232.913 220.081 0.200
vt 0.000 9.700
v -171.502 283.110 0.200
vt 2.250 9.700
v -254.751 251.128 0.200
vt 0.000 9.750
v -175.005 288.337 0.200
vt 2.250 9.750
v -236.787 225.666 0.200
vt 0.000 9.800
v -173.562 286.875 0.200
vt 2.250 9.800
v -257.133 255.760 0.200
vt 0.000 9.850
v -176.924 291.961 0.200
vt 2.250 9.850
v -237.486 227.815 0.200
vt 0.000 9.900
v -175.377 290.156 0.200
vt 2.250 9.900
v -260.591 262.777 0.200
vt 0.000 9.950
v -179.040 295.845 0.200
vt 2.250 9.950
v -256.930 254.436 0.200
vt 0.000 10.000
v -179.540 296.325 0.200
vt 2.250 10.000
v -262.998 267.632 0.200
vt 0.000 10.050
v -180.979 299.520 0.200
vt 2.250 10.050
v -259.068 258.233 0.200
vt 0.000 10.100
v -181.512 299.815 0.200
vt 2.250 10.100
v -267.534 278.714 0.200
vt 0.000 10.150
v -183.214 303.895 0.200
vt 2.250 10.150
v -256.662 254.531 0.200
vt 0.000 10.200
v -182.849 302.444 0.200
vt 2.250 10.200
v -250.241 246.507 0.200
vt 0.000 10.250
v -182.827 303.070 0.200
vt 2.250 10.250
v -265.871 271.301 0.200
vt 0.000 10.300
v -185.659 307.496 0.200
vt 2.250 10.300
v -257.316 256.631 0.200
vt 0.000 10.350
v -185.384 307.325 0.200
vt 2.250 10.350
v -267.868 275.092 0.200
vt 0.000 10.400
v -187.547 311.043 0.200
vt 2.250 10.400
v -255.415 255.146 0.200
vt 0.000 10.450
v -186.797 310.242 0.200
vt 2.250 10.450
v -270.156 279.327 0.200
vt 0.000 10.500
v -189.530 314.590 0.200
vt 2.250 10.500
v -261.879 264.324 0.200
vt 0.000 10.550
v -189.439 314.290 0.200
vt 2.250 10.550
v -271.556 281.776 0.200
vt 0.000 10.600
v -191.347 317.976 0.200
vt 2.250 10.600
v -259.435 261.892 0.200
vt 0.000 10.650
v -190.856 317.036 0.200
vt 2.250 10.650
v -273.612 285.483 0.200
vt 0.000 10.700
v -193.301 321.459 0.200
vt 2.250 10.700
v -265.093 270.442 0.200
vt 0.000 10.750
v -193.176 321.157 0.200
vt 2.250 10.750
v -270.337 279.067 0.200
vt 0.000 10.800
v -194.547 323.787 0.200
vt 2.250 10.800
v -278.225 294.446 0.200
vt 0.000 10.850
v -196.491 327.059 0.200
vt 2.250 10.850
v -270.088 278.963 0.200
vt 0.000 10.900
v -196.232 326.809 0.200
vt 2.250 10.900
v -283.048 306.370 0.200
vt 0.000 10.950
v -198.727 331.549 0.200
vt 2.250 10.950
v -276.176 289.641 0.200
vt 0.000 11.000
v -198.589 331.164 0.200
vt 2.250 11.000
v -282.357 302.213 0.200
vt 0.000 11.050
v -200.335 334.095 0.200
vt 2.250 11.050
v -262.644 271.193 0.200
vt 0.000 11.100
v -198.887 331.848 0.200
vt 2.250 11.100
v -285.465 309.034 0.200
vt 0.000 11.150
v -202.360 337.975 0.200
vt 2.250 11.150
v -262.173 272.373 0.200
vt 0.000 11.200
v -200.433 335.080 0.200
vt 2.250 11.200
v -284.027 304.160 0.200
vt 0.000 11.250
v -203.857 340.447 0.200
vt 2.250 11.250
v -287.290 310.793 0.200
vt 0.000 11.300
v -205.263 342.660 0.200
vt 2.250 11.300
v -289.900 317.913 0.200
vt 0.000 11.350
v -206.222 345.154 0.200
vt 2.250 11.350
v -288.348 312.262 0.200
vt 0.000 11.400
v -207.032 345.901 0.200
vt 2.250 11.400
v -266.351 280.292 0.200
vt 0.000 11.450
v -205.224 343.596 0.200
vt 2.250 11.450
v -289.011 312.812 0.200
vt 0.000 11.500
v -208.803 349.014 0.200
vt 2.250 11.500
v -267.612 283.051 0.200
vt 0.000 11.550
v -207.107 346.950 0.200
vt 2.250 11.550
v -292.906 321.194 0.200
vt 0.000 11.600
v -210.892 353.095 0.200
vt 2.250 11.600
v -291.341 316.463 0.200
vt 0.000 11.650
v -211.721 353.944 0.200
vt 2.250 11.650
v -294.776 324.457 0.200
vt 0.000 11.700
v -212.827 356.524 0.200
vt 2.250 11.700
v -293.694 320.795 0.200
vt 0.000 11.750
v -213.715 357.500 0.200
vt 2.250 11.750
v -277.726 297.243 0.200
vt 0.000 11.800
v -212.476 356.290 0.200
vt 2.250 11.800
v -295.791 324.865 0.200
vt 0.000 11.850
v -215.583 361.067 0.200
vt 2.250 11.850
v -277.457 298.290 0.200
vt 0.000 11.900
v -214.174 359.440 0.200
vt 2.250 11.900
v -297.164 327.075 0.200
vt 0.000 11.950
v -217.458 364.370 0.200
vt 2.250 11.950
v -284.084 307.151 0.200
vt 0.000 12.000
v -216.569 363.594 0.200
vt 2.250 12.000
v -301.050 335.203 0.200
vt 0.000 12.050
v -219.557 368.414 0.200
vt 2.250 12.050
v -294.412 321.631 0.200
vt 0.000 12.100
v -219.753 368.215 0.200
vt 2.250 12.100
v -302.848 338.309 0.200
vt 0.000 12.150
v -221.481 371.825 0.200
vt 2.250 12.150
v -296.163 324.976 0.200
vt 0.000 12.200
v -221.601 371.714 0.200
vt 2.250 12.200
v -291.610 319.020 0.200
vt 0.000 12.250
v -221.797 372.593 0.200
vt 2.250 12.250
v -304.525 340.397 0.200
vt 0.000 12.300
v -224.318 376.601 0.200
vt 2.250 12.300
v -291.294 319.614 0.200
vt 0.000 12.350
v -223.479 375.696 0.200
vt 2.250 12.350
v -309.294 350.811 0.200
vt 0.000 12.400
v -226.594 380.890 0.200
vt 2.250 12.400
v -291.063 320.244 0.200
vt 0.000 12.450
v -225.288 378.705 0.200
vt 2.250 12.450
v -308.327 347.335 0.200
vt 0.000 12.500
v -228.119 383.538 0.200
vt 2.250 12.500
v -17.185 -4.806 0.200
vt 2.105 1.300
v -41.694 -16.658 0.200
vt 1.418 1.550
v -48.225 -22.039 0.200
vt 1.197 1.600
v -36.619 30.909 0.200
vt 2.146 2.300
v -86.292 13.683 0.200
vt 0.817 2.400
v -42.834 46.017 0.200
vt 2.203 2.750
v -56.853 69.246 0.200
vt 2.172 3.400
v -90.525 71.410 0.200
vt 1.443 3.800
v -89.300 88.962 0.200
vt 1.675 4.200
v -80.580 100.962 0.200
vt 2.021 4.400
v -78.322 110.170 0.200
vt 2.186 4.600
v -81.209 108.563 0.200
vt 2.111 4.650
v -96.011 132.427 0.200
vt 2.071 5.300
v -110.679 167.177 0.200
vt 2.172 6.250
v -115.671 169.380 0.200
vt 2.088 6.350
v -121.894 185.485 0.200
vt 2.153 6.800
v -161.412 199.462 0.200
vt 1.429 7.450
v -162.655 198.967 0.200
vt 1.407 7.500
v -153.176 219.955 0.200
vt 1.880 7.900
v -149.517 229.762 0.200
vt 2.084 8.100
v -159.278 255.330 0.200
vt 2.191 8.800
v -159.226 259.511 0.200
vt 2.243 8.900
v -195.939 263.821 0.200
vt 1.472 9.350
v -184.565 293.605 0.200
vt 2.098 9.950
v -184.919 297.988 0.200
vt 2.142 10.050
v -186.049 300.366 0.200
vt 2.152 10.200
v -218.497 341.158 0.200
vt 1.920 11.350
v -226.041 347.203 0.200
vt 1.834 11.600
v -233.284 348.519 0.200
vt 1.688 11.700
v -228.926 367.122 0.200
vt 2.029 12.200
mtllib Roads\3D_Road\Road_96fe92ac-11a1-4401-a1f4-c3f456a99d39_1.mtl
usemtl Grass (Light)
g g1
s 1
f  1/1 2/2 4/4 3/3
f  3/3 4/4 6/6 5/5
f  5/5 6/6 8/8 7/7
f  7/7 8/8 10/10 9/9
f  9/9 10/10 12/12 11/11
f  11/11 12/12 14/14 13/13
f  13/13 14/14 16/16 15/15
f  15/15 16/16 18/18 17/17
f  17/17 18/18 20/20 19/19
f  19/19 20/20 22/22 21/21
f  21/21 22/22 24/24 23/23
f  23/23 24/24 26/26 25/25
f  25/25 26/26 28/28 27/27
f  27/27 28/28 30/30 29/29
f  29/29 30/30 32/32 31/31
f  31/31 32/32 34/34 33/33
f  33/33 34/34 36/36 35/35
f  35/35 36/36 38/38 37/37
f  37/37 38/38 40/40 39/39
f  39/39 40/40 42/42 41/41
f  41/41 42/42 44/44 43/43
f  43/43 44/44 46/46 45/45
f  45/45 46/46 48/48 47/47
f  47/47 48/48 50/50 49/49
f  49/49 50/50 52/52 51/51
f  51/51 52/52 54/54 53/53
f  503/503 54/54 56/56
f  55/55 56/56 58/58 57/57
f  57/57 58/58 60/60 59/59
f  59/59 60/60 62/62 61/61
f  61/61 62/62 64/64 63/63
f  504/504 64/64 66/66
f  505/505 66/66 68/68
f  67/67 68/68 70/70 69/69
f  69/69 70/70 72/72 71/71
f  71/71 72/72 74/74 73/73
f  73/73 74/74 76/76 75/75
f  75/75 76/76 78/78 77/77
f  77/77 78/78 80/80 79/79
f  79/79 80/80 82/82 81/81
f  81/81 82/82 84/84 83/83
f  83/83 84/84 86/86 85/85
f  85/85 86/86 88/88 87/87
f  87/87 88/88 90/90 89/89
f  89/89 90/90 92/92 91/91
f  91/91 92/92 94/94 93/93
f  506/506 94/94 96/96
f  95/95 96/96 98/98 97/97
f  507/507 98/98 100/100
f  99/99 100/100 102/102 101/101
f  101/101 102/102 104/104 103/103
f  103/103 104/104 106/106 105/105
f  105/105 106/106 108/108 107/107
f  107/107 108/108 110/110 109/109
f  109/109 110/110 112/112 111/111
f  508/508 112/112 114/114
f  113/113 114/114 116/116 115/115
f  115/115 116/116 118/118 117/117
f  117/117 118/118 120/120 119/119
f  119/119 120/120 122/122 121/121
f  121/121 122/122 124/124 123/123
f  123/123 124/124 126/126 125/125
f  125/125 126/126 128/128 127/127
f  127/127 128/128 130/130 129/129
f  129/129 130/130 132/132 131/131
f  131/131 132/132 134/134 133/133
f  133/133 134/134 136/136 135/135
f  135/135 136/136 138/138 137/137
f  509/509 138/138 140/140
f  139/139 140/140 142/142 141/141
f  141/141 142/142 144/144 143/143
f  143/143 144/144 146/146 145/145
f  145/145 146/146 148/148 147/147
f  147/147 148/148 150/150 149/149
f  149/149 150/150 152/152 151/151
f  151/151 152/152 154/154 153/153
f  510/510 154/154 156/156
f  155/155 156/156 158/158 157/157
f  157/157 158/158 160/160 159/159
f  159/159 160/160 162/162 161/161
f  161/161 162/162 164/164 163/163
f  163/163 164/164 166/166 165/165
f  165/165 166/166 168/168 167/167
f  167/167 168/168 170/170 169/169
f  511/511 170/170 172/172
f  171/171 172/172 174/174 173/173
f  173/173 174/174 176/176 175/175
f  175/175 176/176 178/178 177/177
f  512/512 178/178 180/180
f  179/179 180/180 182/182 181/181
f  181/181 182/182 184/184 183/183
f  183/183 184/184 186/186 185/185
f  513/513 186/186 188/188
f  514/514 188/188 190/190
f  189/189 190/190 192/192 191/191
f  191/191 192/192 194/194 193/193
f  193/193 194/194 196/196 195/195
f  195/195 196/196 198/198 197/197
f  197/197 198/198 200/200 199/199
f  199/199 200/200 202/202 201/201
f  201/201 202/202 204/204 203/203
f  203/203 204/204 206/206 205/205
f  205/205 206/206 208/208 207/207
f  207/207 208/208 210/210 209/209
f  209/209 210/210 212/212 211/211
f  211/211 212/212 214/214 213/213
f  515/515 214/214 216/216
f  215/215 216/216 218/218 217/217
f  217/217 218/218 220/220 219/219
f  219/219 220/220 222/222 221/221
f  221/221 222/222 224/224 223/223
f  223/223 224/224 226/226 225/225
f  225/225 226/226 228/228 227/227
f  227/227 228/228 230/230 229/229
f  229/229 230/230 232/232 231/231
f  231/231 232/232 234/234 233/233
f  233/233 234/234 236/236 235/235
f  235/235 236/236 238/238 237/237
f  237/237 238/238 240/240 239/239
f  239/239 240/240 242/242 241/241
f  241/241 242/242 244/244 243/243
f  243/243 244/244 246/246 245/245
f  245/245 246/246 248/248 247/247
f  247/247 248/248 250/250 249/249
f  249/249 250/250 252/252 251/251
f  516/516 252/252 254/254
f  253/253 254/254 256/256 255/255
f  517/517 256/256 258/258
f  257/257 258/258 260/260 259/259
f  259/259 260/260 262/262 261/261
f  261/261 262/262 264/264 263/263
f  263/263 264/264 266/266 265/265
f  265/265 266/266 268/268 267/267
f  267/267 268/268 270/270 269/269
f  269/269 270/270 272/272 271/271
f  271/271 272/272 274/274 273/273
f  518/518 274/274 276/276
f  275/275 276/276 278/278 277/277
f  277/277 278/278 280/280 279/279
f  279/279 280/280 282/282 281/281
f  281/281 282/282 284/284 283/283
f  283/283 284/284 286/286 285/285
f  285/285 286/286 288/288 287/287
f  287/287 288/288 290/290 289/289
f  289/289 290/290 292/292 291/291
f  291/291 292/292 294/294 293/293
f  293/293 294/294 296/296 295/295
f  295/295 296/296 298/298 297/297
f  297/297 298/298 300/300 299/299
f  519/519 300/300 302/302
f  520/520 302/302 304/304
f  303/303 304/304 306/306 305/305
f  305/305 306/306 308/308 307/307
f  307/307 308/308 310/310 309/309
f  309/309 310/310 312/312 311/311
f  311/311 312/312 314/314 313/313
f  313/313 314/314 316/316 315/315
f  315/315 316/316 318/318 317/317
f  521/521 318/318 320/320
f  319/319 320/320 322/322 321/321
f  321/321 322/322 324/324 323/323
f  323/323 324/324 326/326 325/325
f  522/522 326/326 328/328
f  327/327 328/328 330/330 329/329
f  329/329 330/330 332/332 331/331
f  331/331 332/332 334/334 333/333
f  333/333 334/334 336/336 335/335
f  335/335 336/336 338/338 337/337
f  337/337 338/338 340/340 339/339
f  339/339 340/340 342/342 341/341
f  341/341 342/342 344/344 343/343
f  343/343 344/344 346/346 345/345
f  345/345 346/346 348/348 347/347
f  347/347 348/348 350/350 349/349
f  349/349 350/350 352/352 351/351
f  351/351 352/352 354/354 353/353
f  523/523 354/354 356/356
f  355/355 356/356 358/358 357/357
f  524/524 358/358 360/360
f  359/359 360/360 362/362 361/361
f  361/361 362/362 364/364 363/363
f  363/363 364/364 366/366 365/365
f  365/365 366/366 368/368 367/367
f  367/367 368/368 370/370 369/369
f  369/369 370/370 372/372 371/371
f  371/371 372/372 374/374 373/373
f  373/373 374/374 376/376 375/375
f  525/525 376/376 378/378
f  377/377 378/378 380/380 379/379
f  379/379 380/380 382/382 381/381
f  381/381 382/382 384/384 383/383
f  383/383 384/384 386/386 385/385
f  385/385 386/386 388/388 387/387
f  387/387 388/388 390/390 389/389
f  389/389 390/390 392/392 391/391
f  391/391 392/392 394/394 393/393
f  393/393 394/394 396/396 395/395
f  395/395 396/396 398/398 397/397
f  397/397 398/398 400/400 399/399
f  526/526 400/400 402/402
f  401/401 402/402 404/404 403/403
f  527/527 404/404 406/406
f  405/405 406/406 408/408 407/407
f  407/407 408/408 410/410 409/409
f  528/528 410/410 412/412
f  411/411 412/412 414/414 413/413
f  413/413 414/414 416/416 415/415
f  415/415 416/416 418/418 417/417
f  417/417 418/418 420/420 419/419
f  419/419 420/420 422/422 421/421
f  421/421 422/422 424/424 423/423
f  423/423 424/424 426/426 425/425
f  425/425 426/426 428/428 427/427
f  427/427 428/428 430/430 429/429
f  429/429 430/430 432/432 431/431
f  431/431 432/432 434/434 433/433
f  433/433 434/434 436/436 435/435
f  435/435 436/436 438/438 437/437
f  437/437 438/438 440/440 439/439
f  439/439 440/440 442/442 441/441
f  441/441 442/442 444/444 443/443
f  443/443 444/444 446/446 445/445
f  445/445 446/446 448/448 447/447
f  447/447 448/448 450/450 449/449
f  449/449 450/450 452/452 451/451
f  451/451 452/452 454/454 453/453
f  453/453 454/454 456/456 455/455
f  529/529 456/456 458/458
f  457/457 458/458 460/460 459/459
f  459/459 460/460 462/462 461/461
f  461/461 462/462 464/464 463/463
f  463/463 464/464 466/466 465/465
f  530/530 466/466 468/468
f  467/467 468/468 470/470 469/469
f  531/531 470/470 472/472
f  471/471 472/472 474/474 473/473
f  473/473 474/474 476/476 475/475
f  475/475 476/476 478/478 477/477
f  477/477 478/478 480/480 479/479
f  479/479 480/480 482/482 481/481
f  481/481 482/482 484/484 483/483
f  483/483 484/484 486/486 485/485
f  485/485 486/486 488/488 487/487
f  487/487 488/488 490/490 489/489
f  532/532 490/490 492/492
f  491/491 492/492 494/494 493/493
f  493/493 494/494 496/496 495/495
f  495/495 496/496 498/498 497/497
f  497/497 498/498 500/500 499/499
f  499/499 500/500 502/502 501/501
g g2
s 2
f  53/53 503/503 55/55
f  63/63 504/504 65/65
f  65/65 505/505 67/67
f  93/93 506/506 95/95
f  97/97 507/507 99/99
f  111/111 508/508 113/113
f  137/137 509/509 139/139
f  153/153 510/510 155/155
f  169/169 511/511 171/171
f  177/177 512/512 179/179
f  185/185 513/513 187/187
f  187/187 514/514 189/189
f  213/213 515/515 215/215
f  251/251 516/516 253/253
f  255/255 517/517 257/257
f  273/273 518/518 275/275
f  299/299 519/519 301/301
f  301/301 520/520 303/303
f  317/317 521/521 319/319
f  325/325 522/522 327/327
f  353/353 523/523 355/355
f  357/357 524/524 359/359
f  375/375 525/525 377/377
f  399/399 526/526 401/401
f  403/403 527/527 405/405
f  409/409 528/528 411/411
f  455/455 529/529 457/457
f  465/465 530/530 467/467
f  469/469 531/531 471/471
f  489/489 532/532 491/491
g g3
s 3
g g4
s 4
