# Shape file for lane 5
v -89.007 45.757 50.404
vt 0.000 0.000
v -89.770 44.408 50.232
vt -0.500 0.000
v -90.534 43.059 49.829
vt -1.000 0.000
v 2.382 -5.943 47.639
vt 0.000 5.250
v 1.619 -7.293 47.467
vt -0.500 5.250
v 0.856 -8.642 47.065
vt -1.000 5.250
v 6.734 -8.405 47.506
vt 0.000 5.500
v 5.971 -9.754 47.334
vt -0.500 5.500
v 5.208 -11.103 46.931
vt -1.000 5.500
v 11.086 -10.868 47.374
vt 0.000 5.750
v 10.322 -12.217 47.202
vt -0.500 5.750
v 9.559 -13.566 46.799
vt -1.000 5.750
v 15.437 -13.329 47.240
vt 0.000 6.000
v 14.674 -14.679 47.068
vt -0.500 6.000
v 13.911 -16.028 46.666
vt -1.000 6.000
v 19.789 -15.792 47.108
vt 0.000 6.250
v 19.026 -17.141 46.936
vt -0.500 6.250
v 18.262 -18.490 46.533
vt -1.000 6.250
v 24.141 -18.254 46.974
vt 0.000 6.500
v 23.378 -19.603 46.802
vt -0.500 6.500
v 22.614 -20.952 46.399
vt -1.000 6.500
v 28.493 -20.717 46.842
vt 0.000 6.750
v 27.729 -22.066 46.669
vt -0.500 6.750
v 26.966 -23.415 46.267
vt -1.000 6.750
v 37.196 -25.641 46.575
vt 0.000 7.250
v 36.433 -26.990 46.403
vt -0.500 7.250
v 35.670 -28.339 46.000
vt -1.000 7.250
v 41.548 -28.102 46.442
vt 0.000 7.500
v 40.785 -29.452 46.269
vt -0.500 7.500
v 40.022 -30.801 45.866
vt -1.000 7.500
v 45.900 -30.564 46.309
vt 0.000 7.750
v 45.137 -31.913 46.136
vt -0.500 7.750
v 44.374 -33.262 45.733
vt -1.000 7.750
v 50.251 -33.026 46.175
vt 0.000 8.000
v 49.488 -34.375 46.001
vt -0.500 8.000
v 48.725 -35.724 45.599
vt -1.000 8.000
v 54.603 -35.489 46.042
vt 0.000 8.250
v 53.840 -36.838 45.868
vt -0.500 8.250
v 53.076 -38.187 45.466
vt -1.000 8.250
v 58.955 -37.951 45.908
vt 0.000 8.500
v 58.192 -39.300 45.734
vt -0.500 8.500
v 57.429 -40.650 45.332
vt -1.000 8.500
v 63.307 -40.413 45.775
vt 0.000 8.750
v 62.544 -41.762 45.601
vt -0.500 8.750
v 61.780 -43.111 45.198
vt -1.000 8.750
v 67.659 -42.876 45.641
vt 0.000 9.000
v 66.895 -44.225 45.467
vt -0.500 9.000
v 66.132 -45.574 45.064
vt -1.000 9.000
v 72.011 -45.338 45.508
vt 0.000 9.250
v 71.247 -46.687 45.333
vt -0.500 9.250
v 70.484 -48.036 44.931
vt -1.000 9.250
v 76.363 -47.800 45.374
vt 0.000 9.500
v 75.599 -49.149 45.199
vt -0.500 9.500
v 74.836 -50.498 44.797
vt -1.000 9.500
v 80.714 -50.261 45.241
vt 0.000 9.750
v 79.951 -51.611 45.066
vt -0.500 9.750
v 79.188 -52.960 44.664
vt -1.000 9.750
v 85.066 -52.723 45.107
vt 0.000 10.000
v 84.303 -54.072 44.932
vt -0.500 10.000
v 83.540 -55.421 44.529
vt -1.000 10.000
v 89.417 -55.186 44.974
vt 0.000 10.250
v 88.654 -56.534 44.798
vt -0.500 10.250
v 87.891 -57.883 44.396
vt -1.000 10.250
v 93.769 -57.648 44.840
vt 0.000 10.500
v 93.006 -58.997 44.664
vt -0.500 10.500
v 92.242 -60.346 44.262
vt -1.000 10.500
v 98.121 -60.110 44.707
vt 0.000 10.750
v 97.358 -61.459 44.531
vt -0.500 10.750
v 96.595 -62.809 44.129
vt -1.000 10.750
v 102.473 -62.572 44.574
vt 0.000 11.000
v 101.710 -63.921 44.397
vt -0.500 11.000
v 100.946 -65.270 43.995
vt -1.000 11.000
v 106.825 -65.035 44.441
vt 0.000 11.250
v 106.061 -66.384 44.264
vt -0.500 11.250
v 105.298 -67.733 43.862
vt -1.000 11.250
v 111.177 -67.497 44.307
vt 0.000 11.500
v 110.413 -68.846 44.130
vt -0.500 11.500
v 109.650 -70.195 43.728
vt -1.000 11.500
v 119.880 -72.420 44.041
vt 0.000 12.000
v 119.117 -73.770 43.864
vt -0.500 12.000
v 118.354 -75.119 43.462
vt -1.000 12.000
v 124.232 -74.882 43.908
vt 0.000 12.250
v 123.468 -76.231 43.731
vt -0.500 12.250
v 122.705 -77.580 43.329
vt -1.000 12.250
v 128.583 -77.345 43.775
vt 0.000 12.500
v 127.820 -78.694 43.597
vt -0.500 12.500
v 127.056 -80.043 43.196
vt -1.000 12.500
v 132.935 -79.807 43.643
vt 0.000 12.750
v 132.172 -81.157 43.465
vt -0.500 12.750
v 131.409 -82.506 43.063
vt -1.000 12.750
v 137.287 -82.269 43.509
vt 0.000 13.000
v 136.524 -83.618 43.332
vt -0.500 13.000
v 135.761 -84.968 42.930
vt -1.000 13.000
v 141.639 -84.731 43.377
vt 0.000 13.250
v 140.876 -86.080 43.199
vt -0.500 13.250
v 140.112 -87.429 42.798
vt -1.000 13.250
v 145.991 -87.194 43.244
vt 0.000 13.500
v 145.227 -88.543 43.066
vt -0.500 13.500
v 144.464 -89.892 42.665
vt -1.000 13.500
v 154.695 -92.118 42.979
vt 0.000 14.000
v 153.931 -93.467 42.802
vt -0.500 14.000
v 153.168 -94.816 42.400
vt -1.000 14.000
v 159.046 -94.579 42.848
vt 0.000 14.250
v 158.283 -95.928 42.670
vt -0.500 14.250
v 157.520 -97.277 42.268
vt -1.000 14.250
v 163.397 -97.042 42.715
vt 0.000 14.500
v 162.634 -98.391 42.538
vt -0.500 14.500
v 161.871 -99.740 42.136
vt -1.000 14.500
v 172.101 -101.966 42.452
vt 0.000 15.000
v 171.338 -103.316 42.275
vt -0.500 15.000
v 170.575 -104.665 41.873
vt -1.000 15.000
v 185.157 -109.353 42.058
vt 0.000 15.750
v 184.393 -110.702 41.882
vt -0.500 15.750
v 183.630 -112.051 41.480
vt -1.000 15.750
v 189.509 -111.815 41.926
vt 0.000 16.000
v 188.746 -113.164 41.751
vt -0.500 16.000
v 187.982 -114.513 41.349
vt -1.000 16.000
v 198.212 -116.738 41.665
vt 0.000 16.500
v 197.449 -118.087 41.490
vt -0.500 16.500
v 196.686 -119.436 41.088
vt -1.000 16.500
v 202.563 -119.201 41.535
vt 0.000 16.750
v 201.800 -120.550 41.361
vt -0.500 16.750
v 201.037 -121.899 40.958
vt -1.000 16.750
v 206.915 -121.663 41.404
vt 0.000 17.000
v 206.152 -123.013 41.231
vt -0.500 17.000
v 205.389 -124.362 40.828
vt -1.000 17.000
v 211.267 -124.126 41.275
vt 0.000 17.250
v 210.504 -125.475 41.102
vt -0.500 17.250
v 209.741 -126.824 40.699
vt -1.000 17.250
v 215.619 -126.587 41.144
vt 0.000 17.500
v 214.856 -127.937 40.972
vt -0.500 17.500
v 214.093 -129.286 40.569
vt -1.000 17.500
v 219.971 -129.049 41.007
vt 0.000 17.750
v 219.208 -130.398 40.836
vt -0.500 17.750
v 218.445 -131.747 40.433
vt -1.000 17.750
v 224.323 -131.512 40.868
vt 0.000 18.000
v 223.559 -132.861 40.704
vt -0.500 18.000
v 222.796 -134.210 40.301
vt -1.000 18.000
v 228.675 -133.974 40.744
vt 0.000 18.250
v 227.912 -135.323 40.589
vt -0.500 18.250
v 227.148 -136.672 40.187
vt -1.000 18.250
v 233.026 -136.435 40.627
vt 0.000 18.500
v 232.263 -137.784 40.484
vt -0.500 18.500
v 231.500 -139.133 40.081
vt -1.000 18.500
v 237.378 -138.898 40.510
vt 0.000 18.750
v 236.614 -140.247 40.378
vt -0.500 18.750
v 235.851 -141.596 39.971
vt -1.000 18.750
v 241.734 -141.363 40.389
vt 0.000 19.000
v 240.973 -142.713 40.261
vt -0.500 19.000
v 240.211 -144.063 39.835
vt -1.000 19.000
v 246.142 -143.842 40.257
vt 0.000 19.250
v 245.400 -145.202 40.127
vt -0.500 19.250
v 244.657 -146.563 39.680
vt -1.000 19.250
v 250.666 -146.233 40.105
vt 0.000 19.500
v 249.964 -147.615 39.978
vt -0.500 19.500
v 249.262 -148.997 39.537
vt -1.000 19.500
v 255.276 -148.482 39.949
vt 0.000 19.750
v 254.618 -149.886 39.827
vt -0.500 19.750
v 253.961 -151.289 39.397
vt -1.000 19.750
v 259.955 -150.582 39.803
vt 0.000 20.000
v 259.343 -152.006 39.688
vt -0.500 20.000
v 258.732 -153.430 39.267
vt -1.000 20.000
v 264.700 -152.529 39.682
vt 0.000 20.250
v 264.135 -153.972 39.580
vt -0.500 20.250
v 263.570 -155.415 39.166
vt -1.000 20.250
v 269.506 -154.322 39.633
vt 0.000 20.500
v 268.987 -155.783 39.559
vt -0.500 20.500
v 268.469 -157.244 39.148
vt -1.000 20.500
v 274.366 -155.959 39.544
vt 0.000 20.750
v 273.895 -157.436 39.480
vt -0.500 20.750
v 273.424 -158.912 39.070
vt -1.000 20.750
v 279.277 -157.439 39.454
vt 0.000 21.000
v 278.854 -158.930 39.393
vt -0.500 21.000
v 278.430 -160.422 38.983
vt -1.000 21.000
v 284.233 -158.760 39.375
vt 0.000 21.250
v 283.858 -160.264 39.316
vt -0.500 21.250
v 283.484 -161.768 38.907
vt -1.000 21.250
v 289.229 -159.920 39.306
vt 0.000 21.500
v 288.903 -161.435 39.248
vt -0.500 21.500
v 288.577 -162.950 38.841
vt -1.000 21.500
v 294.260 -160.918 39.248
vt 0.000 21.750
v 293.983 -162.443 39.191
vt -0.500 21.750
v 293.706 -163.968 38.785
vt -1.000 21.750
v 299.321 -161.754 39.200
vt 0.000 22.000
v 299.093 -163.287 39.144
vt -0.500 22.000
v 298.865 -164.820 38.738
vt -1.000 22.000
v 304.406 -162.426 39.163
vt 0.000 22.250
v 304.228 -163.966 39.107
vt -0.500 22.250
v 304.050 -165.505 38.702
vt -1.000 22.250
v 309.510 -162.933 39.137
vt 0.000 22.500
v 309.382 -164.477 39.081
vt -0.500 22.500
v 309.253 -166.022 38.677
vt -1.000 22.500
v 314.627 -163.275 39.122
vt 0.000 22.750
v 314.549 -164.823 39.064
vt -0.500 22.750
v 314.470 -166.371 38.660
vt -1.000 22.750
v 319.753 -163.452 39.120
vt 0.000 23.000
v 319.724 -165.002 39.061
vt -0.500 23.000
v 319.696 -166.552 38.656
vt -1.000 23.000
v 324.882 -163.465 39.128
vt 0.000 23.250
v 324.903 -165.014 39.067
vt -0.500 23.250
v 324.924 -166.564 38.661
vt -1.000 23.250
v 330.009 -163.312 39.149
vt 0.000 23.500
v 330.080 -164.860 39.086
vt -0.500 23.500
v 330.151 -166.408 38.678
vt -1.000 23.500
v 335.128 -162.992 39.184
vt 0.000 23.750
v 335.249 -164.538 39.118
vt -0.500 23.750
v 335.370 -166.083 38.706
vt -1.000 23.750
v 340.234 -162.509 39.228
vt 0.000 24.000
v 340.405 -164.050 39.156
vt -0.500 24.000
v 340.576 -165.590 38.735
vt -1.000 24.000
v 345.322 -161.861 39.267
vt 0.000 24.250
v 345.543 -163.395 39.186
vt -0.500 24.250
v 345.763 -164.929 38.751
vt -1.000 24.250
v 350.387 -161.049 39.302
vt 0.000 24.500
v 350.657 -162.575 39.211
vt -0.500 24.500
v 350.927 -164.102 38.761
vt -1.000 24.500
v 355.422 -160.073 39.337
vt 0.000 24.750
v 355.741 -161.590 39.236
vt -0.500 24.750
v 356.060 -163.107 38.772
vt -1.000 24.750
v 360.420 -158.938 39.373
vt 0.000 25.000
v 360.787 -160.444 39.263
vt -0.500 25.000
v 361.154 -161.950 38.790
vt -1.000 25.000
v 365.334 -157.661 39.408
vt 0.000 25.250
v 365.730 -159.160 39.293
vt -0.500 25.250
v 366.125 -160.659 38.818
vt -1.000 25.250
v 370.178 -156.364 39.445
vt 0.000 25.500
v 370.579 -157.861 39.326
vt -0.500 25.500
v 370.981 -159.358 38.853
vt -1.000 25.500
v 375.008 -155.069 39.482
vt 0.000 25.750
v 375.409 -156.567 39.360
vt -0.500 25.750
v 375.810 -158.064 38.888
vt -1.000 25.750
v 379.838 -153.776 39.517
vt 0.000 26.000
v 380.239 -155.273 39.392
vt -0.500 26.000
v 380.640 -156.770 38.924
vt -1.000 26.000
v 384.667 -152.481 39.554
vt 0.000 26.250
v 385.069 -153.978 39.426
vt -0.500 26.250
v 385.470 -155.476 38.962
vt -1.000 26.250
v 389.497 -151.186 39.590
vt 0.000 26.500
v 389.898 -152.684 39.460
vt -0.500 26.500
v 390.299 -154.181 39.001
vt -1.000 26.500
v 394.326 -149.893 39.626
vt 0.000 26.750
v 394.727 -151.390 39.494
vt -0.500 26.750
v 395.129 -152.887 39.040
vt -1.000 26.750
v 399.156 -148.598 39.662
vt 0.000 27.000
v 399.557 -150.096 39.528
vt -0.500 27.000
v 399.958 -151.593 39.080
vt -1.000 27.000
v 403.985 -147.305 39.699
vt 0.000 27.250
v 404.387 -148.802 39.562
vt -0.500 27.250
v 404.788 -150.299 39.121
vt -1.000 27.250
v 408.815 -146.011 39.734
vt 0.000 27.500
v 409.216 -147.508 39.596
vt -0.500 27.500
v 409.617 -149.005 39.161
vt -1.000 27.500
v 413.645 -144.716 39.770
vt 0.000 27.750
v 414.046 -146.214 39.630
vt -0.500 27.750
v 414.447 -147.711 39.202
vt -1.000 27.750
v 418.474 -143.423 39.807
vt 0.000 28.000
v 418.876 -144.920 39.665
vt -0.500 28.000
v 419.277 -146.417 39.242
vt -1.000 28.000
v 423.304 -142.128 39.842
vt 0.000 28.250
v 423.706 -143.625 39.698
vt -0.500 28.250
v 424.107 -145.123 39.282
vt -1.000 28.250
v 428.134 -140.833 39.879
vt 0.000 28.500
v 428.535 -142.331 39.732
vt -0.500 28.500
v 428.936 -143.828 39.321
vt -1.000 28.500
v 432.963 -139.540 39.915
vt 0.000 28.750
v 433.364 -141.037 39.767
vt -0.500 28.750
v 433.765 -142.534 39.361
vt -1.000 28.750
v 437.793 -138.245 39.951
vt 0.000 29.000
v 438.194 -139.743 39.800
vt -0.500 29.000
v 438.595 -141.240 39.399
vt -1.000 29.000
v 442.622 -136.952 39.988
vt 0.000 29.250
v 443.023 -138.449 39.835
vt -0.500 29.250
v 443.425 -139.946 39.439
vt -1.000 29.250
v 447.452 -135.658 40.024
vt 0.000 29.500
v 447.853 -137.155 39.869
vt -0.500 29.500
v 448.254 -138.652 39.480
vt -1.000 29.500
v 452.282 -134.364 40.060
vt 0.000 29.750
v 452.683 -135.861 39.903
vt -0.500 29.750
v 453.084 -137.358 39.520
vt -1.000 29.750
v 457.111 -133.070 40.097
vt 0.000 30.000
v 457.513 -134.567 39.938
vt -0.500 30.000
v 457.914 -136.064 39.561
vt -1.000 30.000
v 461.941 -131.775 40.133
vt 0.000 30.250
v 462.343 -133.272 39.973
vt -0.500 30.250
v 462.744 -134.770 39.602
vt -1.000 30.250
v 466.771 -130.481 40.169
vt 0.000 30.500
v 467.172 -131.978 40.006
vt -0.500 30.500
v 467.573 -133.475 39.642
vt -1.000 30.500
v 471.600 -129.187 40.206
vt 0.000 30.750
v 472.001 -130.684 40.041
vt -0.500 30.750
v 472.402 -132.181 39.682
vt -1.000 30.750
v 476.430 -127.892 40.242
vt 0.000 31.000
v 476.831 -129.390 40.076
vt -0.500 31.000
v 477.232 -130.887 39.722
vt -1.000 31.000
v 481.259 -126.599 40.278
vt 0.000 31.250
v 481.661 -128.096 40.109
vt -0.500 31.250
v 482.062 -129.593 39.760
vt -1.000 31.250
v 486.089 -125.304 40.315
vt 0.000 31.500
v 486.490 -126.802 40.143
vt -0.500 31.500
v 486.891 -128.299 39.798
vt -1.000 31.500
v 490.919 -124.011 40.352
vt 0.000 31.750
v 491.320 -125.508 40.177
vt -0.500 31.750
v 491.721 -127.005 39.835
vt -1.000 31.750
v 495.748 -122.717 40.388
vt 0.000 32.000
v 496.150 -124.214 40.209
vt -0.500 32.000
v 496.551 -125.711 39.869
vt -1.000 32.000
v 500.551 -121.430 40.425
vt 0.000 32.250
v 500.942 -122.929 40.243
vt -0.500 32.250
v 501.333 -124.429 39.904
vt -1.000 32.250
v 505.307 -120.226 40.461
vt 0.000 32.500
v 505.662 -121.734 40.273
vt -0.500 32.500
v 506.017 -123.243 39.931
vt -1.000 32.500
v 510.062 -119.189 40.494
vt 0.000 32.750
v 510.367 -120.709 40.297
vt -0.500 32.750
v 510.672 -122.228 39.946
vt -1.000 32.750
v 514.849 -118.311 40.528
vt 0.000 33.000
v 515.103 -119.840 40.321
vt -0.500 33.000
v 515.357 -121.369 39.956
vt -1.000 33.000
v 519.662 -117.594 40.564
vt 0.000 33.250
v 519.865 -119.131 40.347
vt -0.500 33.250
v 520.068 -120.667 39.968
vt -1.000 33.250
v 524.497 -117.037 40.602
vt 0.000 33.500
v 524.648 -118.580 40.377
vt -0.500 33.500
v 524.800 -120.122 39.986
vt -1.000 33.500
v 529.348 -116.642 40.647
vt 0.000 33.750
v 529.448 -118.189 40.416
vt -0.500 33.750
v 529.548 -119.736 40.018
vt -1.000 33.750
v 534.209 -116.409 40.684
vt 0.000 34.000
v 534.257 -117.958 40.451
vt -0.500 34.000
v 534.306 -119.507 40.050
vt -1.000 34.000
v 539.075 -116.338 40.721
vt 0.000 34.250
v 539.072 -117.888 40.487
vt -0.500 34.250
v 539.069 -119.438 40.083
vt -1.000 34.250
v 543.941 -116.429 40.759
vt 0.000 34.500
v 543.886 -117.978 40.524
vt -0.500 34.500
v 543.831 -119.527 40.119
vt -1.000 34.500
v 548.800 -116.682 40.798
vt 0.000 34.750
v 548.694 -118.228 40.562
vt -0.500 34.750
v 548.587 -119.775 40.157
vt -1.000 34.750
v 553.650 -117.098 40.838
vt 0.000 35.000
v 553.492 -118.640 40.602
vt -0.500 35.000
v 553.334 -120.182 40.197
vt -1.000 35.000
v 558.482 -117.673 40.878
vt 0.000 35.250
v 558.273 -119.209 40.643
vt -0.500 35.250
v 558.064 -120.745 40.238
vt -1.000 35.250
v 563.292 -118.411 40.919
vt 0.000 35.500
v 563.032 -119.939 40.684
vt -0.500 35.500
v 562.772 -121.467 40.280
vt -1.000 35.500
v 568.076 -119.308 40.960
vt 0.000 35.750
v 567.765 -120.827 40.726
vt -0.500 35.750
v 567.454 -122.345 40.322
vt -1.000 35.750
v 572.827 -120.365 41.002
vt 0.000 36.000
v 572.465 -121.872 40.768
vt -0.500 36.000
v 572.104 -123.379 40.366
vt -1.000 36.000
v 577.540 -121.578 41.043
vt 0.000 36.250
v 577.128 -123.072 40.811
vt -0.500 36.250
v 576.716 -124.566 40.409
vt -1.000 36.250
v 582.209 -122.948 41.085
vt 0.000 36.500
v 581.748 -124.428 40.853
vt -0.500 36.500
v 581.287 -125.908 40.452
vt -1.000 36.500
v 586.831 -124.473 41.126
vt 0.000 36.750
v 586.321 -125.937 40.895
vt -0.500 36.750
v 585.811 -127.400 40.495
vt -1.000 36.750
v 591.399 -126.151 41.167
vt 0.000 37.000
v 590.841 -127.597 40.936
vt -0.500 37.000
v 590.282 -129.043 40.537
vt -1.000 37.000
v 595.909 -127.980 41.207
vt 0.000 37.250
v 595.302 -129.407 40.977
vt -0.500 37.250
v 594.696 -130.833 40.578
vt -1.000 37.250
v 600.355 -129.959 41.244
vt 0.000 37.500
v 599.701 -131.365 41.013
vt -0.500 37.500
v 599.047 -132.770 40.614
vt -1.000 37.500
v 604.733 -132.086 41.269
vt 0.000 37.750
v 604.032 -133.469 41.038
vt -0.500 37.750
v 603.332 -134.852 40.640
vt -1.000 37.750
v 609.037 -134.356 41.284
vt 0.000 38.000
v 608.291 -135.715 41.052
vt -0.500 38.000
v 607.546 -137.073 40.655
vt -1.000 38.000
v 613.263 -136.769 41.288
vt 0.000 38.250
v 612.472 -138.102 41.056
vt -0.500 38.250
v 611.681 -139.435 40.660
vt -1.000 38.250
v 617.407 -139.322 41.283
vt 0.000 38.500
v 616.572 -140.628 41.051
vt -0.500 38.500
v 615.737 -141.934 40.656
vt -1.000 38.500
v 621.463 -142.011 41.269
vt 0.000 38.750
v 620.585 -143.288 41.037
vt -0.500 38.750
v 619.707 -144.565 40.643
vt -1.000 38.750
v 625.427 -144.834 41.246
vt 0.000 39.000
v 624.507 -146.081 41.014
vt -0.500 39.000
v 623.587 -147.328 40.620
vt -1.000 39.000
v 629.296 -147.787 41.214
vt 0.000 39.250
v 628.335 -149.003 40.982
vt -0.500 39.250
v 627.374 -150.220 40.588
vt -1.000 39.250
v 633.064 -150.868 41.175
vt 0.000 39.500
v 632.063 -152.051 40.943
vt -0.500 39.500
v 631.062 -153.235 40.549
vt -1.000 39.500
v 636.727 -154.072 41.128
vt 0.000 39.750
v 635.687 -155.221 40.896
vt -0.500 39.750
v 634.647 -156.370 40.500
vt -1.000 39.750
v 640.280 -157.396 41.076
vt 0.000 40.000
v 639.202 -158.510 40.845
vt -0.500 40.000
v 638.125 -159.624 40.446
vt -1.000 40.000
v 643.721 -160.838 41.015
vt 0.000 40.250
v 642.606 -161.916 40.785
vt -0.500 40.250
v 641.492 -162.993 40.379
vt -1.000 40.250
v 647.046 -164.392 40.962
vt 0.000 40.500
v 645.896 -165.432 40.733
vt -0.500 40.500
v 644.747 -166.472 40.315
vt -1.000 40.500
v 650.250 -168.055 40.912
vt 0.000 40.750
v 649.066 -169.056 40.685
vt -0.500 40.750
v 647.883 -170.057 40.254
vt -1.000 40.750
v 653.331 -171.823 40.865
vt 0.000 41.000
v 652.114 -172.784 40.641
vt -0.500 41.000
v 650.898 -173.745 40.197
vt -1.000 41.000
v 656.284 -175.691 40.818
vt 0.000 41.250
v 655.036 -176.611 40.597
vt -0.500 41.250
v 653.789 -177.531 40.145
vt -1.000 41.250
v 659.129 -179.687 40.767
vt 0.000 41.500
v 657.861 -180.578 40.552
vt -0.500 41.500
v 656.592 -181.468 40.096
vt -1.000 41.500
v 661.958 -183.777 40.713
vt 0.000 41.750
v 660.683 -184.659 40.504
vt -0.500 41.750
v 659.408 -185.540 40.050
vt -1.000 41.750
v 664.801 -187.890 40.660
vt 0.000 42.000
v 663.527 -188.771 40.459
vt -0.500 42.000
v 662.252 -189.653 40.009
vt -1.000 42.000
v 667.646 -192.002 40.607
vt 0.000 42.250
v 666.371 -192.884 40.414
vt -0.500 42.250
v 665.096 -193.765 39.971
vt -1.000 42.250
v 670.489 -196.115 40.553
vt 0.000 42.500
v 669.214 -196.996 40.369
vt -0.500 42.500
v 667.940 -197.878 39.935
vt -1.000 42.500
v 673.333 -200.227 40.500
vt 0.000 42.750
v 672.059 -201.108 40.325
vt -0.500 42.750
v 670.784 -201.990 39.899
vt -1.000 42.750
v 676.177 -204.339 40.445
vt 0.000 43.000
v 674.902 -205.221 40.279
vt -0.500 43.000
v 673.627 -206.102 39.861
vt -1.000 43.000
v 679.021 -208.452 40.392
vt 0.000 43.250
v 677.746 -209.334 40.234
vt -0.500 43.250
v 676.471 -210.215 39.822
vt -1.000 43.250
v 681.865 -212.564 40.339
vt 0.000 43.500
v 680.590 -213.446 40.188
vt -0.500 43.500
v 679.315 -214.328 39.780
vt -1.000 43.500
v 684.709 -216.677 40.286
vt 0.000 43.750
v 683.434 -217.559 40.141
vt -0.500 43.750
v 682.159 -218.440 39.734
vt -1.000 43.750
v 687.553 -220.789 40.233
vt 0.000 44.000
v 686.278 -221.671 40.093
vt -0.500 44.000
v 685.003 -222.553 39.684
vt -1.000 44.000
v 690.396 -224.902 40.180
vt 0.000 44.250
v 689.122 -225.784 40.045
vt -0.500 44.250
v 687.847 -226.665 39.632
vt -1.000 44.250
v 693.241 -229.014 40.128
vt 0.000 44.500
v 691.966 -229.896 39.997
vt -0.500 44.500
v 690.691 -230.778 39.578
vt -1.000 44.500
v 696.085 -233.126 40.076
vt 0.000 44.750
v 694.810 -234.008 39.949
vt -0.500 44.750
v 693.535 -234.890 39.523
vt -1.000 44.750
v 698.929 -237.239 40.024
vt 0.000 45.000
v 697.654 -238.121 39.899
vt -0.500 45.000
v 696.379 -239.002 39.467
vt -1.000 45.000
v 701.773 -241.351 39.972
vt 0.000 45.250
v 700.498 -242.233 39.851
vt -0.500 45.250
v 699.223 -243.114 39.413
vt -1.000 45.250
v 704.616 -245.464 39.919
vt 0.000 45.500
v 703.341 -246.345 39.803
vt -0.500 45.500
v 702.067 -247.227 39.361
vt -1.000 45.500
v 707.478 -249.600 39.867
vt 0.000 45.750
v 706.209 -250.491 39.756
vt -0.500 45.750
v 704.941 -251.382 39.311
vt -1.000 45.750
v 710.446 -253.758 39.815
vt 0.000 46.000
v 709.202 -254.684 39.711
vt -0.500 46.000
v 707.959 -255.609 39.266
vt -1.000 46.000
v 713.607 -257.836 39.767
vt 0.000 46.250
v 712.401 -258.810 39.671
vt -0.500 46.250
v 711.195 -259.784 39.229
vt -1.000 46.250
v 716.929 -261.785 39.720
vt 0.000 46.500
v 715.763 -262.806 39.633
vt -0.500 46.500
v 714.597 -263.827 39.196
vt -1.000 46.500
v 720.406 -265.597 39.670
vt 0.000 46.750
v 719.282 -266.664 39.591
vt -0.500 46.750
v 718.158 -267.732 39.160
vt -1.000 46.750
v 724.033 -269.266 39.615
vt 0.000 47.000
v 722.953 -270.378 39.544
vt -0.500 47.000
v 721.872 -271.489 39.117
vt -1.000 47.000
v 727.804 -272.789 39.551
vt 0.000 47.250
v 726.769 -273.943 39.485
vt -0.500 47.250
v 725.733 -275.096 39.061
vt -1.000 47.250
v 731.713 -276.158 39.495
vt 0.000 47.500
v 730.725 -277.352 39.430
vt -0.500 47.500
v 729.737 -278.546 39.007
vt -1.000 47.500
v 735.753 -279.367 39.442
vt 0.000 47.750
v 734.814 -280.599 39.379
vt -0.500 47.750
v 733.874 -281.832 38.957
vt -1.000 47.750
v 739.918 -282.413 39.392
vt 0.000 48.000
v 739.029 -283.682 39.330
vt -0.500 48.000
v 738.139 -284.951 38.908
vt -1.000 48.000
v 744.203 -285.289 39.340
vt 0.000 48.250
v 743.365 -286.592 39.280
vt -0.500 48.250
v 742.527 -287.896 38.858
vt -1.000 48.250
v 748.598 -287.992 39.290
vt 0.000 48.500
v 747.812 -289.328 39.232
vt -0.500 48.500
v 747.027 -290.665 38.810
vt -1.000 48.500
v 753.098 -290.517 39.239
vt 0.000 48.750
v 752.367 -291.884 39.183
vt -0.500 48.750
v 751.636 -293.251 38.761
vt -1.000 48.750
v 757.696 -292.859 39.188
vt 0.000 49.000
v 757.020 -294.254 39.134
vt -0.500 49.000
v 756.344 -295.649 38.712
vt -1.000 49.000
v 762.383 -295.016 39.137
vt 0.000 49.250
v 761.763 -296.437 39.084
vt -0.500 49.250
v 761.143 -297.858 38.662
vt -1.000 49.250
v 767.153 -296.985 39.086
vt 0.000 49.500
v 766.591 -298.429 39.035
vt -0.500 49.500
v 766.028 -299.873 38.612
vt -1.000 49.500
v 771.998 -298.760 39.033
vt 0.000 49.750
v 771.494 -300.226 38.983
vt -0.500 49.750
v 770.990 -301.692 38.560
vt -1.000 49.750
v 776.910 -300.341 38.980
vt 0.000 50.000
v 776.465 -301.826 38.932
vt -0.500 50.000
v 776.020 -303.310 38.508
vt -1.000 50.000
v 781.881 -301.723 38.926
vt 0.000 50.250
v 781.496 -303.225 38.878
vt -0.500 50.250
v 781.111 -304.726 38.454
vt -1.000 50.250
v 786.904 -302.906 38.871
vt 0.000 50.500
v 786.579 -304.422 38.824
vt -0.500 50.500
v 786.254 -305.937 38.399
vt -1.000 50.500
v 791.970 -303.887 38.814
vt 0.000 50.750
v 791.705 -305.414 38.767
vt -0.500 50.750
v 791.441 -306.941 38.342
vt -1.000 50.750
v 797.070 -304.665 38.756
vt 0.000 51.000
v 796.867 -306.202 38.709
vt -0.500 51.000
v 796.664 -307.738 38.284
vt -1.000 51.000
v 802.199 -305.238 38.696
vt 0.000 51.250
v 802.057 -306.782 38.648
vt -0.500 51.250
v 801.916 -308.325 38.223
vt -1.000 51.250
v 807.346 -305.606 38.635
vt 0.000 51.500
v 807.266 -307.154 38.586
vt -0.500 51.500
v 807.187 -308.702 38.161
vt -1.000 51.500
v 812.503 -305.767 38.571
vt 0.000 51.750
v 812.486 -307.317 38.521
vt -0.500 51.750
v 812.469 -308.867 38.095
vt -1.000 51.750
v 817.663 -305.722 38.506
vt 0.000 52.000
v 817.708 -307.271 38.453
vt -0.500 52.000
v 817.752 -308.820 38.028
vt -1.000 52.000
v 822.817 -305.470 38.438
vt 0.000 52.250
v 822.923 -307.016 38.382
vt -0.500 52.250
v 823.030 -308.563 37.957
vt -1.000 52.250
v 827.957 -305.013 38.368
vt 0.000 52.500
v 828.125 -306.554 38.309
vt -0.500 52.500
v 828.293 -308.095 37.884
vt -1.000 52.500
v 833.074 -304.351 38.294
vt 0.000 52.750
v 833.304 -305.883 38.231
vt -0.500 52.750
v 833.533 -307.416 37.807
vt -1.000 52.750
v 838.161 -303.484 38.220
vt 0.000 53.000
v 838.451 -305.006 38.151
vt -0.500 53.000
v 838.742 -306.529 37.728
vt -1.000 53.000
v 843.209 -302.415 38.110
vt 0.000 53.250
v 843.560 -303.924 38.022
vt -0.500 53.250
v 843.911 -305.434 37.603
vt -1.000 53.250
v 848.210 -301.144 37.963
vt 0.000 53.500
v 848.621 -302.638 37.848
vt -0.500 53.500
v 849.033 -304.133 37.434
vt -1.000 53.500
v 853.156 -299.675 37.802
vt 0.000 53.750
v 853.627 -301.151 37.655
vt -0.500 53.750
v 854.098 -302.628 37.247
vt -1.000 53.750
v 858.040 -298.009 37.647
vt 0.000 54.000
v 858.569 -299.466 37.470
vt -0.500 54.000
v 859.099 -300.922 37.068
vt -1.000 54.000
v 862.852 -296.150 37.520
vt 0.000 54.250
v 863.438 -297.584 37.321
vt -0.500 54.250
v 864.025 -299.019 36.923
vt -1.000 54.250
v 867.533 -294.129 37.441
vt 0.000 54.500
v 868.156 -295.548 37.233
vt -0.500 54.500
v 868.778 -296.968 36.836
vt -1.000 54.500
v 872.122 -292.086 37.392
vt 0.000 54.750
v 872.752 -293.502 37.182
vt -0.500 54.750
v 873.383 -294.918 36.786
vt -1.000 54.750
v 876.690 -290.052 37.356
vt 0.000 55.000
v 877.320 -291.468 37.148
vt -0.500 55.000
v 877.951 -292.884 36.752
vt -1.000 55.000
v 881.257 -288.019 37.330
vt 0.000 55.250
v 881.888 -289.435 37.128
vt -0.500 55.250
v 882.518 -290.851 36.731
vt -1.000 55.250
v 885.825 -285.985 37.313
vt 0.000 55.500
v 886.456 -287.401 37.118
vt -0.500 55.500
v 887.086 -288.817 36.719
vt -1.000 55.500
v 890.393 -283.951 37.301
vt 0.000 55.750
v 891.023 -285.367 37.115
vt -0.500 55.750
v 891.654 -286.783 36.715
vt -1.000 55.750
v 894.960 -281.917 37.292
vt 0.000 56.000
v 895.591 -283.333 37.115
vt -0.500 56.000
v 896.221 -284.749 36.713
vt -1.000 56.000
v 899.528 -279.883 37.282
vt 0.000 56.250
v 900.159 -281.299 37.114
vt -0.500 56.250
v 900.789 -282.715 36.711
vt -1.000 56.250
v 904.096 -277.849 37.269
vt 0.000 56.500
v 904.726 -279.265 37.110
vt -0.500 56.500
v 905.357 -280.681 36.705
vt -1.000 56.500
v 908.663 -275.816 37.250
vt 0.000 56.750
v 909.294 -277.231 37.097
vt -0.500 56.750
v 909.924 -278.647 36.691
vt -1.000 56.750
v 913.231 -273.782 37.222
vt 0.000 57.000
v 913.862 -275.198 37.074
vt -0.500 57.000
v 914.492 -276.614 36.667
vt -1.000 57.000
v 917.799 -271.748 37.185
vt 0.000 57.250
v 918.429 -273.164 37.038
vt -0.500 57.250
v 919.060 -274.580 36.631
vt -1.000 57.250
v 922.366 -269.714 37.147
vt 0.000 57.500
v 922.997 -271.130 37.001
vt -0.500 57.500
v 923.627 -272.546 36.594
vt -1.000 57.500
v 926.934 -267.680 37.108
vt 0.000 57.750
v 927.565 -269.096 36.963
vt -0.500 57.750
v 928.195 -270.512 36.556
vt -1.000 57.750
v 931.502 -265.646 37.069
vt 0.000 58.000
v 932.132 -267.062 36.925
vt -0.500 58.000
v 932.763 -268.478 36.517
vt -1.000 58.000
v 936.069 -263.612 37.029
vt 0.000 58.250
v 936.700 -265.028 36.886
vt -0.500 58.250
v 937.330 -266.444 36.478
vt -1.000 58.250
v 940.637 -261.579 36.989
vt 0.000 58.500
v 941.267 -262.995 36.846
vt -0.500 58.500
v 941.898 -264.411 36.438
vt -1.000 58.500
v 949.772 -257.511 36.907
vt 0.000 59.000
v 950.403 -258.927 36.765
vt -0.500 59.000
v 951.033 -260.343 36.357
vt -1.000 59.000
v 958.908 -253.443 36.824
vt 0.000 59.500
v 959.538 -254.859 36.682
vt -0.500 59.500
v 960.169 -256.275 36.274
vt -1.000 59.500
v 968.043 -249.376 36.739
vt 0.000 60.000
v 968.673 -250.791 36.597
vt -0.500 60.000
v 969.304 -252.207 36.189
vt -1.000 60.000
v 981.746 -243.274 36.610
vt 0.000 60.750
v 982.376 -244.690 36.468
vt -0.500 60.750
v 983.007 -246.106 36.060
vt -1.000 60.750
v 990.881 -239.206 36.523
vt 0.000 61.250
v 991.512 -240.622 36.380
vt -0.500 61.250
v 992.142 -242.038 35.972
vt -1.000 61.250
v 1000.017 -235.139 36.435
vt 0.000 61.750
v 1000.647 -236.555 36.292
vt -0.500 61.750
v 1001.277 -237.971 35.884
vt -1.000 61.750
v 1009.152 -231.071 36.348
vt 0.000 62.250
v 1009.782 -232.487 36.203
vt -0.500 62.250
v 1010.413 -233.903 35.795
vt -1.000 62.250
v 1018.287 -227.003 36.260
vt 0.000 62.750
v 1018.918 -228.419 36.114
vt -0.500 62.750
v 1019.548 -229.835 35.707
vt -1.000 62.750
v 1027.422 -222.936 36.172
vt 0.000 63.250
v 1028.053 -224.351 36.026
vt -0.500 63.250
v 1028.683 -225.767 35.618
vt -1.000 63.250
v 1036.558 -218.868 36.085
vt 0.000 63.750
v 1037.188 -220.284 35.938
vt -0.500 63.750
v 1037.819 -221.700 35.530
vt -1.000 63.750
v 1050.261 -212.766 35.955
vt 0.000 64.500
v 1050.891 -214.182 35.807
vt -0.500 64.500
v 1051.522 -215.598 35.400
vt -1.000 64.500
v 1059.396 -208.699 35.870
vt 0.000 65.000
v 1060.027 -210.115 35.722
vt -0.500 65.000
v 1060.657 -211.531 35.315
vt -1.000 65.000
mtllib Roads\3D_Road\Road_3c09687f-3630-4619-9c60-5cf045f4e0a5_5.mtl
usemtl Road Transition (Light)
g g1
s 1
f  1/1 2/2 5/5 4/4
f  2/2 3/3 6/6 5/5
f  4/4 5/5 8/8 7/7
f  5/5 6/6 9/9 8/8
f  7/7 8/8 11/11 10/10
f  8/8 9/9 12/12 11/11
f  10/10 11/11 14/14 13/13
f  11/11 12/12 15/15 14/14
f  13/13 14/14 17/17 16/16
f  14/14 15/15 18/18 17/17
f  16/16 17/17 20/20 19/19
f  17/17 18/18 21/21 20/20
f  19/19 20/20 23/23 22/22
f  20/20 21/21 24/24 23/23
f  22/22 23/23 26/26 25/25
f  23/23 24/24 27/27 26/26
f  25/25 26/26 29/29 28/28
f  26/26 27/27 30/30 29/29
f  28/28 29/29 32/32 31/31
f  29/29 30/30 33/33 32/32
f  31/31 32/32 35/35 34/34
f  32/32 33/33 36/36 35/35
f  34/34 35/35 38/38 37/37
f  35/35 36/36 39/39 38/38
f  37/37 38/38 41/41 40/40
f  38/38 39/39 42/42 41/41
f  40/40 41/41 44/44 43/43
f  41/41 42/42 45/45 44/44
f  43/43 44/44 47/47 46/46
f  44/44 45/45 48/48 47/47
f  46/46 47/47 50/50 49/49
f  47/47 48/48 51/51 50/50
f  49/49 50/50 53/53 52/52
f  50/50 51/51 54/54 53/53
f  52/52 53/53 56/56 55/55
f  53/53 54/54 57/57 56/56
f  55/55 56/56 59/59 58/58
f  56/56 57/57 60/60 59/59
f  58/58 59/59 62/62 61/61
f  59/59 60/60 63/63 62/62
f  61/61 62/62 65/65 64/64
f  62/62 63/63 66/66 65/65
f  64/64 65/65 68/68 67/67
f  65/65 66/66 69/69 68/68
f  67/67 68/68 71/71 70/70
f  68/68 69/69 72/72 71/71
f  70/70 71/71 74/74 73/73
f  71/71 72/72 75/75 74/74
f  73/73 74/74 77/77 76/76
f  74/74 75/75 78/78 77/77
f  76/76 77/77 80/80 79/79
f  77/77 78/78 81/81 80/80
f  79/79 80/80 83/83 82/82
f  80/80 81/81 84/84 83/83
f  82/82 83/83 86/86 85/85
f  83/83 84/84 87/87 86/86
f  85/85 86/86 89/89 88/88
f  86/86 87/87 90/90 89/89
f  88/88 89/89 92/92 91/91
f  89/89 90/90 93/93 92/92
f  91/91 92/92 95/95 94/94
f  92/92 93/93 96/96 95/95
f  94/94 95/95 98/98 97/97
f  95/95 96/96 99/99 98/98
f  97/97 98/98 101/101 100/100
f  98/98 99/99 102/102 101/101
f  100/100 101/101 104/104 103/103
f  101/101 102/102 105/105 104/104
f  103/103 104/104 107/107 106/106
f  104/104 105/105 108/108 107/107
f  106/106 107/107 110/110 109/109
f  107/107 108/108 111/111 110/110
f  109/109 110/110 113/113 112/112
f  110/110 111/111 114/114 113/113
f  112/112 113/113 116/116 115/115
f  113/113 114/114 117/117 116/116
f  115/115 116/116 119/119 118/118
f  116/116 117/117 120/120 119/119
f  118/118 119/119 122/122 121/121
f  119/119 120/120 123/123 122/122
f  121/121 122/122 125/125 124/124
f  122/122 123/123 126/126 125/125
f  124/124 125/125 128/128 127/127
f  125/125 126/126 129/129 128/128
f  127/127 128/128 131/131 130/130
f  128/128 129/129 132/132 131/131
f  130/130 131/131 134/134 133/133
f  131/131 132/132 135/135 134/134
f  133/133 134/134 137/137 136/136
f  134/134 135/135 138/138 137/137
f  136/136 137/137 140/140 139/139
f  137/137 138/138 141/141 140/140
f  139/139 140/140 143/143 142/142
f  140/140 141/141 144/144 143/143
f  142/142 143/143 146/146 145/145
f  143/143 144/144 147/147 146/146
f  145/145 146/146 149/149 148/148
f  146/146 147/147 150/150 149/149
f  148/148 149/149 152/152 151/151
f  149/149 150/150 153/153 152/152
f  151/151 152/152 155/155 154/154
f  152/152 153/153 156/156 155/155
f  154/154 155/155 158/158 157/157
f  155/155 156/156 159/159 158/158
f  157/157 158/158 161/161 160/160
f  158/158 159/159 162/162 161/161
f  160/160 161/161 164/164 163/163
f  161/161 162/162 165/165 164/164
f  163/163 164/164 167/167 166/166
f  164/164 165/165 168/168 167/167
f  166/166 167/167 170/170 169/169
f  167/167 168/168 171/171 170/170
f  169/169 170/170 173/173 172/172
f  170/170 171/171 174/174 173/173
f  172/172 173/173 176/176 175/175
f  173/173 174/174 177/177 176/176
f  175/175 176/176 179/179 178/178
f  176/176 177/177 180/180 179/179
f  178/178 179/179 182/182 181/181
f  179/179 180/180 183/183 182/182
f  181/181 182/182 185/185 184/184
f  182/182 183/183 186/186 185/185
f  184/184 185/185 188/188 187/187
f  185/185 186/186 189/189 188/188
f  187/187 188/188 191/191 190/190
f  188/188 189/189 192/192 191/191
f  190/190 191/191 194/194 193/193
f  191/191 192/192 195/195 194/194
f  193/193 194/194 197/197 196/196
f  194/194 195/195 198/198 197/197
f  196/196 197/197 200/200 199/199
f  197/197 198/198 201/201 200/200
f  199/199 200/200 203/203 202/202
f  200/200 201/201 204/204 203/203
f  202/202 203/203 206/206 205/205
f  203/203 204/204 207/207 206/206
f  205/205 206/206 209/209 208/208
f  206/206 207/207 210/210 209/209
f  208/208 209/209 212/212 211/211
f  209/209 210/210 213/213 212/212
f  211/211 212/212 215/215 214/214
f  212/212 213/213 216/216 215/215
f  214/214 215/215 218/218 217/217
f  215/215 216/216 219/219 218/218
f  217/217 218/218 221/221 220/220
f  218/218 219/219 222/222 221/221
f  220/220 221/221 224/224 223/223
f  221/221 222/222 225/225 224/224
f  223/223 224/224 227/227 226/226
f  224/224 225/225 228/228 227/227
f  226/226 227/227 230/230 229/229
f  227/227 228/228 231/231 230/230
f  229/229 230/230 233/233 232/232
f  230/230 231/231 234/234 233/233
f  232/232 233/233 236/236 235/235
f  233/233 234/234 237/237 236/236
f  235/235 236/236 239/239 238/238
f  236/236 237/237 240/240 239/239
f  238/238 239/239 242/242 241/241
f  239/239 240/240 243/243 242/242
f  241/241 242/242 245/245 244/244
f  242/242 243/243 246/246 245/245
f  244/244 245/245 248/248 247/247
f  245/245 246/246 249/249 248/248
f  247/247 248/248 251/251 250/250
f  248/248 249/249 252/252 251/251
f  250/250 251/251 254/254 253/253
f  251/251 252/252 255/255 254/254
f  253/253 254/254 257/257 256/256
f  254/254 255/255 258/258 257/257
f  256/256 257/257 260/260 259/259
f  257/257 258/258 261/261 260/260
f  259/259 260/260 263/263 262/262
f  260/260 261/261 264/264 263/263
f  262/262 263/263 266/266 265/265
f  263/263 264/264 267/267 266/266
f  265/265 266/266 269/269 268/268
f  266/266 267/267 270/270 269/269
f  268/268 269/269 272/272 271/271
f  269/269 270/270 273/273 272/272
f  271/271 272/272 275/275 274/274
f  272/272 273/273 276/276 275/275
f  274/274 275/275 278/278 277/277
f  275/275 276/276 279/279 278/278
f  277/277 278/278 281/281 280/280
f  278/278 279/279 282/282 281/281
f  280/280 281/281 284/284 283/283
f  281/281 282/282 285/285 284/284
f  283/283 284/284 287/287 286/286
f  284/284 285/285 288/288 287/287
f  286/286 287/287 290/290 289/289
f  287/287 288/288 291/291 290/290
f  289/289 290/290 293/293 292/292
f  290/290 291/291 294/294 293/293
f  292/292 293/293 296/296 295/295
f  293/293 294/294 297/297 296/296
f  295/295 296/296 299/299 298/298
f  296/296 297/297 300/300 299/299
f  298/298 299/299 302/302 301/301
f  299/299 300/300 303/303 302/302
f  301/301 302/302 305/305 304/304
f  302/302 303/303 306/306 305/305
f  304/304 305/305 308/308 307/307
f  305/305 306/306 309/309 308/308
f  307/307 308/308 311/311 310/310
f  308/308 309/309 312/312 311/311
f  310/310 311/311 314/314 313/313
f  311/311 312/312 315/315 314/314
f  313/313 314/314 317/317 316/316
f  314/314 315/315 318/318 317/317
f  316/316 317/317 320/320 319/319
f  317/317 318/318 321/321 320/320
f  319/319 320/320 323/323 322/322
f  320/320 321/321 324/324 323/323
f  322/322 323/323 326/326 325/325
f  323/323 324/324 327/327 326/326
f  325/325 326/326 329/329 328/328
f  326/326 327/327 330/330 329/329
f  328/328 329/329 332/332 331/331
f  329/329 330/330 333/333 332/332
f  331/331 332/332 335/335 334/334
f  332/332 333/333 336/336 335/335
f  334/334 335/335 338/338 337/337
f  335/335 336/336 339/339 338/338
f  337/337 338/338 341/341 340/340
f  338/338 339/339 342/342 341/341
f  340/340 341/341 344/344 343/343
f  341/341 342/342 345/345 344/344
f  343/343 344/344 347/347 346/346
f  344/344 345/345 348/348 347/347
f  346/346 347/347 350/350 349/349
f  347/347 348/348 351/351 350/350
f  349/349 350/350 353/353 352/352
f  350/350 351/351 354/354 353/353
f  352/352 353/353 356/356 355/355
f  353/353 354/354 357/357 356/356
f  355/355 356/356 359/359 358/358
f  356/356 357/357 360/360 359/359
f  358/358 359/359 362/362 361/361
f  359/359 360/360 363/363 362/362
f  361/361 362/362 365/365 364/364
f  362/362 363/363 366/366 365/365
f  364/364 365/365 368/368 367/367
f  365/365 366/366 369/369 368/368
f  367/367 368/368 371/371 370/370
f  368/368 369/369 372/372 371/371
f  370/370 371/371 374/374 373/373
f  371/371 372/372 375/375 374/374
f  373/373 374/374 377/377 376/376
f  374/374 375/375 378/378 377/377
f  376/376 377/377 380/380 379/379
f  377/377 378/378 381/381 380/380
f  379/379 380/380 383/383 382/382
f  380/380 381/381 384/384 383/383
f  382/382 383/383 386/386 385/385
f  383/383 384/384 387/387 386/386
f  385/385 386/386 389/389 388/388
f  386/386 387/387 390/390 389/389
f  388/388 389/389 392/392 391/391
f  389/389 390/390 393/393 392/392
f  391/391 392/392 395/395 394/394
f  392/392 393/393 396/396 395/395
f  394/394 395/395 398/398 397/397
f  395/395 396/396 399/399 398/398
f  397/397 398/398 401/401 400/400
f  398/398 399/399 402/402 401/401
f  400/400 401/401 404/404 403/403
f  401/401 402/402 405/405 404/404
f  403/403 404/404 407/407 406/406
f  404/404 405/405 408/408 407/407
f  406/406 407/407 410/410 409/409
f  407/407 408/408 411/411 410/410
f  409/409 410/410 413/413 412/412
f  410/410 411/411 414/414 413/413
f  412/412 413/413 416/416 415/415
f  413/413 414/414 417/417 416/416
f  415/415 416/416 419/419 418/418
f  416/416 417/417 420/420 419/419
f  418/418 419/419 422/422 421/421
f  419/419 420/420 423/423 422/422
f  421/421 422/422 425/425 424/424
f  422/422 423/423 426/426 425/425
f  424/424 425/425 428/428 427/427
f  425/425 426/426 429/429 428/428
f  427/427 428/428 431/431 430/430
f  428/428 429/429 432/432 431/431
f  430/430 431/431 434/434 433/433
f  431/431 432/432 435/435 434/434
f  433/433 434/434 437/437 436/436
f  434/434 435/435 438/438 437/437
f  436/436 437/437 440/440 439/439
f  437/437 438/438 441/441 440/440
f  439/439 440/440 443/443 442/442
f  440/440 441/441 444/444 443/443
f  442/442 443/443 446/446 445/445
f  443/443 444/444 447/447 446/446
f  445/445 446/446 449/449 448/448
f  446/446 447/447 450/450 449/449
f  448/448 449/449 452/452 451/451
f  449/449 450/450 453/453 452/452
f  451/451 452/452 455/455 454/454
f  452/452 453/453 456/456 455/455
f  454/454 455/455 458/458 457/457
f  455/455 456/456 459/459 458/458
f  457/457 458/458 461/461 460/460
f  458/458 459/459 462/462 461/461
f  460/460 461/461 464/464 463/463
f  461/461 462/462 465/465 464/464
f  463/463 464/464 467/467 466/466
f  464/464 465/465 468/468 467/467
f  466/466 467/467 470/470 469/469
f  467/467 468/468 471/471 470/470
f  469/469 470/470 473/473 472/472
f  470/470 471/471 474/474 473/473
f  472/472 473/473 476/476 475/475
f  473/473 474/474 477/477 476/476
f  475/475 476/476 479/479 478/478
f  476/476 477/477 480/480 479/479
f  478/478 479/479 482/482 481/481
f  479/479 480/480 483/483 482/482
f  481/481 482/482 485/485 484/484
f  482/482 483/483 486/486 485/485
f  484/484 485/485 488/488 487/487
f  485/485 486/486 489/489 488/488
f  487/487 488/488 491/491 490/490
f  488/488 489/489 492/492 491/491
f  490/490 491/491 494/494 493/493
f  491/491 492/492 495/495 494/494
f  493/493 494/494 497/497 496/496
f  494/494 495/495 498/498 497/497
f  496/496 497/497 500/500 499/499
f  497/497 498/498 501/501 500/500
f  499/499 500/500 503/503 502/502
f  500/500 501/501 504/504 503/503
f  502/502 503/503 506/506 505/505
f  503/503 504/504 507/507 506/506
f  505/505 506/506 509/509 508/508
f  506/506 507/507 510/510 509/509
f  508/508 509/509 512/512 511/511
f  509/509 510/510 513/513 512/512
f  511/511 512/512 515/515 514/514
f  512/512 513/513 516/516 515/515
f  514/514 515/515 518/518 517/517
f  515/515 516/516 519/519 518/518
f  517/517 518/518 521/521 520/520
f  518/518 519/519 522/522 521/521
f  520/520 521/521 524/524 523/523
f  521/521 522/522 525/525 524/524
f  523/523 524/524 527/527 526/526
f  524/524 525/525 528/528 527/527
f  526/526 527/527 530/530 529/529
f  527/527 528/528 531/531 530/530
f  529/529 530/530 533/533 532/532
f  530/530 531/531 534/534 533/533
f  532/532 533/533 536/536 535/535
f  533/533 534/534 537/537 536/536
f  535/535 536/536 539/539 538/538
f  536/536 537/537 540/540 539/539
f  538/538 539/539 542/542 541/541
f  539/539 540/540 543/543 542/542
f  541/541 542/542 545/545 544/544
f  542/542 543/543 546/546 545/545
f  544/544 545/545 548/548 547/547
f  545/545 546/546 549/549 548/548
f  547/547 548/548 551/551 550/550
f  548/548 549/549 552/552 551/551
f  550/550 551/551 554/554 553/553
f  551/551 552/552 555/555 554/554
f  553/553 554/554 557/557 556/556
f  554/554 555/555 558/558 557/557
f  556/556 557/557 560/560 559/559
f  557/557 558/558 561/561 560/560
f  559/559 560/560 563/563 562/562
f  560/560 561/561 564/564 563/563
f  562/562 563/563 566/566 565/565
f  563/563 564/564 567/567 566/566
f  565/565 566/566 569/569 568/568
f  566/566 567/567 570/570 569/569
f  568/568 569/569 572/572 571/571
f  569/569 570/570 573/573 572/572
f  571/571 572/572 575/575 574/574
f  572/572 573/573 576/576 575/575
f  574/574 575/575 578/578 577/577
f  575/575 576/576 579/579 578/578
f  577/577 578/578 581/581 580/580
f  578/578 579/579 582/582 581/581
f  580/580 581/581 584/584 583/583
f  581/581 582/582 585/585 584/584
f  583/583 584/584 587/587 586/586
f  584/584 585/585 588/588 587/587
f  586/586 587/587 590/590 589/589
f  587/587 588/588 591/591 590/590
f  589/589 590/590 593/593 592/592
f  590/590 591/591 594/594 593/593
f  592/592 593/593 596/596 595/595
f  593/593 594/594 597/597 596/596
f  595/595 596/596 599/599 598/598
f  596/596 597/597 600/600 599/599
f  598/598 599/599 602/602 601/601
f  599/599 600/600 603/603 602/602
f  601/601 602/602 605/605 604/604
f  602/602 603/603 606/606 605/605
f  604/604 605/605 608/608 607/607
f  605/605 606/606 609/609 608/608
f  607/607 608/608 611/611 610/610
f  608/608 609/609 612/612 611/611
f  610/610 611/611 614/614 613/613
f  611/611 612/612 615/615 614/614
f  613/613 614/614 617/617 616/616
f  614/614 615/615 618/618 617/617
f  616/616 617/617 620/620 619/619
f  617/617 618/618 621/621 620/620
f  619/619 620/620 623/623 622/622
f  620/620 621/621 624/624 623/623
f  622/622 623/623 626/626 625/625
f  623/623 624/624 627/627 626/626
f  625/625 626/626 629/629 628/628
f  626/626 627/627 630/630 629/629
f  628/628 629/629 632/632 631/631
f  629/629 630/630 633/633 632/632
f  631/631 632/632 635/635 634/634
f  632/632 633/633 636/636 635/635
f  634/634 635/635 638/638 637/637
f  635/635 636/636 639/639 638/638
f  637/637 638/638 641/641 640/640
f  638/638 639/639 642/642 641/641
f  640/640 641/641 644/644 643/643
f  641/641 642/642 645/645 644/644
f  643/643 644/644 647/647 646/646
f  644/644 645/645 648/648 647/647
f  646/646 647/647 650/650 649/649
f  647/647 648/648 651/651 650/650
f  649/649 650/650 653/653 652/652
f  650/650 651/651 654/654 653/653
f  652/652 653/653 656/656 655/655
f  653/653 654/654 657/657 656/656
f  655/655 656/656 659/659 658/658
f  656/656 657/657 660/660 659/659
g g2
s 2
g g3
s 3
g g4
s 4
