# Shape file for lane 8
v -500.000 100.000 0.200
vt 0.000 0.000
v -500.000 5.050 0.200
vt 3.000 0.000
v 100.000 100.000 0.200
vt 0.000 20.000
v 100.000 5.050 0.200
vt 3.000 20.000
v 102.000 100.000 0.200
vt 0.000 20.067
v 102.000 5.180 0.200
vt 3.000 20.067
v 104.000 100.000 0.200
vt 0.000 20.133
v 104.000 5.310 0.200
vt 3.000 20.133
v 106.000 100.000 0.200
vt 0.000 20.200
v 106.000 5.440 0.200
vt 3.000 20.200
v 108.000 100.000 0.200
vt 0.000 20.267
v 108.000 5.570 0.200
vt 3.000 20.267
v 110.000 100.000 0.200
vt 0.000 20.333
v 110.000 5.700 0.200
vt 3.000 20.333
v 112.000 100.000 0.200
vt 0.000 20.400
v 112.000 5.850 0.200
vt 3.000 20.400
v 114.000 100.000 0.200
vt 0.000 20.467
v 114.000 6.000 0.200
vt 3.000 20.467
v 116.000 100.000 0.200
vt 0.000 20.533
v 116.000 6.150 0.200
vt 3.000 20.533
v 118.000 100.000 0.200
vt 0.000 20.600
v 118.000 6.300 0.200
vt 3.000 20.600
v 120.000 100.000 0.200
vt 0.000 20.667
v 120.000 6.450 0.200
vt 3.000 20.667
v 310.000 100.000 0.200
vt 0.000 27.000
v 310.000 6.450 0.200
vt 3.000 27.000
v 312.000 100.000 0.200
vt 0.000 27.067
v 312.000 6.300 0.200
vt 3.000 27.067
v 314.000 100.000 0.200
vt 0.000 27.133
v 314.000 6.150 0.200
vt 3.000 27.133
v 316.000 100.000 0.200
vt 0.000 27.200
v 316.000 6.000 0.200
vt 3.000 27.200
v 318.000 100.000 0.200
vt 0.000 27.267
v 318.000 5.850 0.200
vt 3.000 27.267
v 320.000 100.000 0.200
vt 0.000 27.333
v 320.000 5.700 0.200
vt 3.000 27.333
v 322.000 100.000 0.200
vt 0.000 27.400
v 322.000 5.570 0.200
vt 3.000 27.400
v 324.000 100.000 0.200
vt 0.000 27.467
v 324.000 5.440 0.200
vt 3.000 27.467
v 326.000 100.000 0.200
vt 0.000 27.533
v 326.000 5.310 0.200
vt 3.000 27.533
v 328.000 100.000 0.200
vt 0.000 27.600
v 328.000 5.180 0.200
vt 3.000 27.600
v 330.000 100.000 0.200
vt 0.000 27.667
v 330.000 5.050 0.200
vt 3.000 27.667
v 600.000 100.000 0.200
vt 0.000 36.667
v 600.000 5.050 0.200
vt 3.000 36.667
mtllib Roads\3D_Road\Road_96fe92ac-11a1-4401-a1f4-c3f456a99d39_8.mtl
usemtl Grass (Light)
g g1
s 1
f  1/1 2/2 4/4 3/3
f  3/3 4/4 6/6 5/5
f  5/5 6/6 8/8 7/7
f  7/7 8/8 10/10 9/9
f  9/9 10/10 12/12 11/11
f  11/11 12/12 14/14 13/13
f  13/13 14/14 16/16 15/15
f  15/15 16/16 18/18 17/17
f  17/17 18/18 20/20 19/19
f  19/19 20/20 22/22 21/21
f  21/21 22/22 24/24 23/23
f  23/23 24/24 26/26 25/25
f  25/25 26/26 28/28 27/27
f  27/27 28/28 30/30 29/29
f  29/29 30/30 32/32 31/31
f  31/31 32/32 34/34 33/33
f  33/33 34/34 36/36 35/35
f  35/35 36/36 38/38 37/37
f  37/37 38/38 40/40 39/39
f  39/39 40/40 42/42 41/41
f  41/41 42/42 44/44 43/43
f  43/43 44/44 46/46 45/45
f  45/45 46/46 48/48 47/47
g g2
s 2
g g3
s 3
g g4
s 4
